  0
SECTION
  2
HEADER
  9
$ACADVER
  1
AC1024
  9
$ACADMAINTVER
 70
6
  9
$DWGCODEPAGE
  3
ANSI_1252
  9
$LASTSAVEDBY
  1
ezdxf
  9
$INSBASE
 10
0.0
 20
0.0
 30
0.0
  9
$EXTMIN
 10
1e+20
 20
1e+20
 30
1e+20
  9
$EXTMAX
 10
-1e+20
 20
-1e+20
 30
-1e+20
  9
$LIMMIN
 10
0.0
 20
0.0
  9
$LIMMAX
 10
420.0
 20
297.0
  9
$ORTHOMODE
 70
0
  9
$REGENMODE
 70
1
  9
$FILLMODE
 70
1
  9
$QTEXTMODE
 70
0
  9
$MIRRTEXT
 70
1
  9
$LTSCALE
 40
1.0
  9
$ATTMODE
 70
1
  9
$TEXTSIZE
 40
2.5
  9
$TRACEWID
 40
1.0
  9
$TEXTSTYLE
  7
Standard
  9
$CLAYER
  8
0
  9
$CELTYPE
  6
ByLayer
  9
$CECOLOR
 62
256
  9
$CELTSCALE
 40
1.0
  9
$DISPSILH
 70
0
  9
$DIMSCALE
 40
1.0
  9
$DIMASZ
 40
2.5
  9
$DIMEXO
 40
0.625
  9
$DIMDLI
 40
3.75
  9
$DIMRND
 40
0.0
  9
$DIMDLE
 40
0.0
  9
$DIMEXE
 40
1.25
  9
$DIMTP
 40
0.0
  9
$DIMTM
 40
0.0
  9
$DIMTXT
 40
2.5
  9
$DIMCEN
 40
2.5
  9
$DIMTSZ
 40
0.0
  9
$DIMTOL
 70
0
  9
$DIMLIM
 70
0
  9
$DIMTIH
 70
0
  9
$DIMTOH
 70
0
  9
$DIMSE1
 70
0
  9
$DIMSE2
 70
0
  9
$DIMTAD
 70
1
  9
$DIMZIN
 70
8
  9
$DIMBLK
  1

  9
$DIMASO
 70
1
  9
$DIMSHO
 70
1
  9
$DIMPOST
  1

  9
$DIMAPOST
  1

  9
$DIMALT
 70
0
  9
$DIMALTD
 70
3
  9
$DIMALTF
 40
0.03937007874
  9
$DIMLFAC
 40
1.0
  9
$DIMTOFL
 70
1
  9
$DIMTVP
 40
0.0
  9
$DIMTIX
 70
0
  9
$DIMSOXD
 70
0
  9
$DIMSAH
 70
0
  9
$DIMBLK1
  1

  9
$DIMBLK2
  1

  9
$DIMSTYLE
  2
ISO-25
  9
$DIMCLRD
 70
0
  9
$DIMCLRE
 70
0
  9
$DIMCLRT
 70
0
  9
$DIMTFAC
 40
1.0
  9
$DIMGAP
 40
0.625
  9
$DIMJUST
 70
0
  9
$DIMSD1
 70
0
  9
$DIMSD2
 70
0
  9
$DIMTOLJ
 70
0
  9
$DIMTZIN
 70
8
  9
$DIMALTZ
 70
0
  9
$DIMALTTZ
 70
0
  9
$DIMUPT
 70
0
  9
$DIMDEC
 70
2
  9
$DIMTDEC
 70
2
  9
$DIMALTU
 70
2
  9
$DIMALTTD
 70
3
  9
$DIMTXSTY
  7
Standard
  9
$DIMAUNIT
 70
0
  9
$DIMADEC
 70
0
  9
$DIMALTRND
 40
0.0
  9
$DIMAZIN
 70
0
  9
$DIMDSEP
 70
44
  9
$DIMATFIT
 70
3
  9
$DIMFRAC
 70
0
  9
$DIMLDRBLK
  1

  9
$DIMLUNIT
 70
2
  9
$DIMLWD
 70
-2
  9
$DIMLWE
 70
-2
  9
$DIMTMOVE
 70
0
  9
$DIMFXL
 40
1.0
  9
$DIMFXLON
 70
0
  9
$DIMJOGANG
 40
0.785398163397
  9
$DIMTFILL
 70
0
  9
$DIMTFILLCLR
 70
0
  9
$DIMARCSYM
 70
0
  9
$DIMLTYPE
  6

  9
$DIMLTEX1
  6

  9
$DIMLTEX2
  6

  9
$DIMTXTDIRECTION
 70
0
  9
$LUNITS
 70
2
  9
$LUPREC
 70
4
  9
$SKETCHINC
 40
1.0
  9
$FILLETRAD
 40
10.0
  9
$AUNITS
 70
0
  9
$AUPREC
 70
2
  9
$MENU
  1
.
  9
$ELEVATION
 40
0.0
  9
$PELEVATION
 40
0.0
  9
$THICKNESS
 40
0.0
  9
$LIMCHECK
 70
0
  9
$CHAMFERA
 40
0.0
  9
$CHAMFERB
 40
0.0
  9
$CHAMFERC
 40
0.0
  9
$CHAMFERD
 40
0.0
  9
$SKPOLY
 70
0
  9
$TDCREATE
 40
2461216.7411574074
  9
$TDUCREATE
 40
2458532.153996898
  9
$TDUPDATE
 40
2461216.7411574074
  9
$TDUUPDATE
 40
2458532.1544311
  9
$TDINDWG
 40
0.0
  9
$TDUSRTIMER
 40
0.0
  9
$USRTIMER
 70
1
  9
$ANGBASE
 50
0.0
  9
$ANGDIR
 70
0
  9
$PDMODE
 70
0
  9
$PDSIZE
 40
0.0
  9
$PLINEWID
 40
0.0
  9
$SPLFRAME
 70
0
  9
$SPLINETYPE
 70
6
  9
$SPLINESEGS
 70
8
  9
$HANDSEED
  5
48
  9
$SURFTAB1
 70
6
  9
$SURFTAB2
 70
6
  9
$SURFTYPE
 70
6
  9
$SURFU
 70
6
  9
$SURFV
 70
6
  9
$UCSBASE
  2

  9
$UCSNAME
  2

  9
$UCSORG
 10
0.0
 20
0.0
 30
0.0
  9
$UCSXDIR
 10
1.0
 20
0.0
 30
0.0
  9
$UCSYDIR
 10
0.0
 20
1.0
 30
0.0
  9
$UCSORTHOREF
  2

  9
$UCSORTHOVIEW
 70
0
  9
$UCSORGTOP
 10
0.0
 20
0.0
 30
0.0
  9
$UCSORGBOTTOM
 10
0.0
 20
0.0
 30
0.0
  9
$UCSORGLEFT
 10
0.0
 20
0.0
 30
0.0
  9
$UCSORGRIGHT
 10
0.0
 20
0.0
 30
0.0
  9
$UCSORGFRONT
 10
0.0
 20
0.0
 30
0.0
  9
$UCSORGBACK
 10
0.0
 20
0.0
 30
0.0
  9
$PUCSBASE
  2

  9
$PUCSNAME
  2

  9
$PUCSORG
 10
0.0
 20
0.0
 30
0.0
  9
$PUCSXDIR
 10
1.0
 20
0.0
 30
0.0
  9
$PUCSYDIR
 10
0.0
 20
1.0
 30
0.0
  9
$PUCSORTHOREF
  2

  9
$PUCSORTHOVIEW
 70
0
  9
$PUCSORGTOP
 10
0.0
 20
0.0
 30
0.0
  9
$PUCSORGBOTTOM
 10
0.0
 20
0.0
 30
0.0
  9
$PUCSORGLEFT
 10
0.0
 20
0.0
 30
0.0
  9
$PUCSORGRIGHT
 10
0.0
 20
0.0
 30
0.0
  9
$PUCSORGFRONT
 10
0.0
 20
0.0
 30
0.0
  9
$PUCSORGBACK
 10
0.0
 20
0.0
 30
0.0
  9
$USERI1
 70
0
  9
$USERI2
 70
0
  9
$USERI3
 70
0
  9
$USERI4
 70
0
  9
$USERI5
 70
0
  9
$USERR1
 40
0.0
  9
$USERR2
 40
0.0
  9
$USERR3
 40
0.0
  9
$USERR4
 40
0.0
  9
$USERR5
 40
0.0
  9
$WORLDVIEW
 70
1
  9
$SHADEDGE
 70
3
  9
$SHADEDIF
 70
70
  9
$TILEMODE
 70
1
  9
$MAXACTVP
 70
64
  9
$PINSBASE
 10
0.0
 20
0.0
 30
0.0
  9
$PLIMCHECK
 70
0
  9
$PEXTMIN
 10
1e+20
 20
1e+20
 30
1e+20
  9
$PEXTMAX
 10
-1e+20
 20
-1e+20
 30
-1e+20
  9
$PLIMMIN
 10
0.0
 20
0.0
  9
$PLIMMAX
 10
420.0
 20
297.0
  9
$UNITMODE
 70
0
  9
$VISRETAIN
 70
1
  9
$PLINEGEN
 70
0
  9
$PSLTSCALE
 70
1
  9
$TREEDEPTH
 70
3020
  9
$CMLSTYLE
  2
Standard
  9
$CMLJUST
 70
0
  9
$CMLSCALE
 40
20.0
  9
$PROXYGRAPHICS
 70
1
  9
$MEASUREMENT
 70
1
  9
$CELWEIGHT
370
-1
  9
$ENDCAPS
280
0
  9
$JOINSTYLE
280
0
  9
$LWDISPLAY
290
0
  9
$INSUNITS
 70
1
  9
$HYPERLINKBASE
  1

  9
$STYLESHEET
  1

  9
$XEDIT
290
1
  9
$CEPSNTYPE
380
0
  9
$PSTYLEMODE
290
1
  9
$FINGERPRINTGUID
  2
{3D19775F-E0E2-4518-AE0E-8A3405C5959A}
  9
$VERSIONGUID
  2
{52C17D1A-30C1-48A3-A567-1452AE355478}
  9
$EXTNAMES
290
1
  9
$PSVPSCALE
 40
0.0
  9
$OLESTARTUP
290
0
  9
$SORTENTS
280
127
  9
$INDEXCTL
280
0
  9
$HIDETEXT
280
1
  9
$XCLIPFRAME
280
1
  9
$HALOGAP
280
0
  9
$OBSCOLOR
 70
257
  9
$OBSLTYPE
280
0
  9
$INTERSECTIONDISPLAY
280
0
  9
$INTERSECTIONCOLOR
 70
257
  9
$DIMASSOC
280
2
  9
$PROJECTNAME
  1

  9
$CAMERADISPLAY
290
0
  9
$LENSLENGTH
 40
50.0
  9
$CAMERAHEIGHT
 40
0.0
  9
$STEPSPERSEC
 40
24.0
  9
$STEPSIZE
 40
100.0
  9
$3DDWFPREC
 40
2.0
  9
$PSOLWIDTH
 40
0.005
  9
$PSOLHEIGHT
 40
0.08
  9
$LOFTANG1
 40
1.570796326795
  9
$LOFTANG2
 40
1.570796326795
  9
$LOFTMAG1
 40
0.0
  9
$LOFTMAG2
 40
0.0
  9
$LOFTPARAM
 70
7
  9
$LOFTNORMALS
280
1
  9
$LATITUDE
 40
37.795
  9
$LONGITUDE
 40
-122.394
  9
$NORTHDIRECTION
 40
0.0
  9
$TIMEZONE
 70
-8000
  9
$LIGHTGLYPHDISPLAY
280
1
  9
$TILEMODELIGHTSYNCH
280
1
  9
$CMATERIAL
347
20
  9
$SOLIDHIST
280
0
  9
$SHOWHIST
280
1
  9
$DWFFRAME
280
2
  9
$DGNFRAME
280
2
  9
$REALWORLDSCALE
290
1
  9
$INTERFERECOLOR
 62
256
  9
$CSHADOW
280
0
  9
$SHADOWPLANELOCATION
 40
0.0
  0
ENDSEC
  0
SECTION
  2
CLASSES
  0
CLASS
  1
ACDBDICTIONARYWDFLT
  2
AcDbDictionaryWithDefault
  3
ObjectDBX Classes
 90
0
 91
0
280
0
281
0
  0
CLASS
  1
SUN
  2
AcDbSun
  3
SCENEOE
 90
1153
 91
0
280
0
281
0
  0
CLASS
  1
VISUALSTYLE
  2
AcDbVisualStyle
  3
ObjectDBX Classes
 90
4095
 91
0
280
0
281
0
  0
CLASS
  1
MATERIAL
  2
AcDbMaterial
  3
ObjectDBX Classes
 90
1153
 91
0
280
0
281
0
  0
CLASS
  1
SCALE
  2
AcDbScale
  3
ObjectDBX Classes
 90
1153
 91
0
280
0
281
0
  0
CLASS
  1
TABLESTYLE
  2
AcDbTableStyle
  3
ObjectDBX Classes
 90
4095
 91
0
280
0
281
0
  0
CLASS
  1
MLEADERSTYLE
  2
AcDbMLeaderStyle
  3
ACDB_MLEADERSTYLE_CLASS
 90
4095
 91
0
280
0
281
0
  0
CLASS
  1
DICTIONARYVAR
  2
AcDbDictionaryVar
  3
ObjectDBX Classes
 90
0
 91
0
280
0
281
0
  0
CLASS
  1
CELLSTYLEMAP
  2
AcDbCellStyleMap
  3
ObjectDBX Classes
 90
1152
 91
0
280
0
281
0
  0
CLASS
  1
MENTALRAYRENDERSETTINGS
  2
AcDbMentalRayRenderSettings
  3
SCENEOE
 90
1024
 91
0
280
0
281
0
  0
CLASS
  1
ACDBDETAILVIEWSTYLE
  2
AcDbDetailViewStyle
  3
ObjectDBX Classes
 90
1025
 91
0
280
0
281
0
  0
CLASS
  1
ACDBSECTIONVIEWSTYLE
  2
AcDbSectionViewStyle
  3
ObjectDBX Classes
 90
1025
 91
0
280
0
281
0
  0
CLASS
  1
RASTERVARIABLES
  2
AcDbRasterVariables
  3
ISM
 90
0
 91
0
280
0
281
0
  0
CLASS
  1
LAYOUT
  2
AcDbLayout
  3
ObjectDBX Classes
 90
0
 91
0
280
0
281
0
  0
CLASS
  1
ACDBPLACEHOLDER
  2
AcDbPlaceHolder
  3
ObjectDBX Classes
 90
0
 91
0
280
0
281
0
  0
ENDSEC
  0
SECTION
  2
TABLES
  0
TABLE
  2
VPORT
  5
8
330
0
100
AcDbSymbolTable
 70
1
  0
VPORT
  5
23
330
8
100
AcDbSymbolTableRecord
100
AcDbViewportTableRecord
  2
*Active
 70
0
 10
0.0
 20
0.0
 11
1.0
 21
1.0
 12
0.0
 22
0.0
 13
0.0
 23
0.0
 14
0.5
 24
0.5
 15
0.5
 25
0.5
 16
0.0
 26
0.0
 36
1.0
 17
0.0
 27
0.0
 37
0.0
 40
1000.0
 41
1.34
 42
50.0
 43
0.0
 44
0.0
 50
0.0
 51
0.0
 71
0
 72
1000
 73
1
 74
3
 75
0
 76
0
 77
0
 78
0
281
0
 65
0
146
0.0
  0
ENDTAB
  0
TABLE
  2
LTYPE
  5
2
330
0
100
AcDbSymbolTable
 70
3
  0
LTYPE
  5
24
330
2
100
AcDbSymbolTableRecord
100
AcDbLinetypeTableRecord
  2
ByBlock
 70
0
  3

 72
65
 73
0
 40
0.0
  0
LTYPE
  5
25
330
2
100
AcDbSymbolTableRecord
100
AcDbLinetypeTableRecord
  2
ByLayer
 70
0
  3

 72
65
 73
0
 40
0.0
  0
LTYPE
  5
26
330
2
100
AcDbSymbolTableRecord
100
AcDbLinetypeTableRecord
  2
Continuous
 70
0
  3

 72
65
 73
0
 40
0.0
  0
ENDTAB
  0
TABLE
  2
LAYER
  5
1
330
0
100
AcDbSymbolTable
 70
8
  0
LAYER
  5
27
330
1
100
AcDbSymbolTableRecord
100
AcDbLayerTableRecord
  2
0
 70
0
 62
7
  6
Continuous
370
-3
390
13
347
21
  0
LAYER
  5
28
330
1
100
AcDbSymbolTableRecord
100
AcDbLayerTableRecord
  2
Defpoints
 70
0
 62
7
  6
Continuous
290
0
370
-3
390
13
347
21
  0
LAYER
  5
2F
330
1
100
AcDbSymbolTableRecord
100
AcDbLayerTableRecord
  2
CUT
 70
0
 62
7
  6
Continuous
370
-3
390
13
347
21
  0
LAYER
  5
30
330
1
100
AcDbSymbolTableRecord
100
AcDbLayerTableRecord
  2
DRILL
 70
0
 62
5
  6
Continuous
370
-3
390
13
347
21
  0
LAYER
  5
31
330
1
100
AcDbSymbolTableRecord
100
AcDbLayerTableRecord
  2
SIDE
 70
0
 62
2
  6
Continuous
370
-3
390
13
347
21
  0
LAYER
  5
32
330
1
100
AcDbSymbolTableRecord
100
AcDbLayerTableRecord
  2
CHANNEL
 70
0
 62
3
  6
Continuous
370
-3
390
13
347
21
  0
LAYER
  5
33
330
1
100
AcDbSymbolTableRecord
100
AcDbLayerTableRecord
  2
DOGBONE
 70
0
 62
1
  6
Continuous
370
-3
390
13
347
21
  0
LAYER
  5
34
330
1
100
AcDbSymbolTableRecord
100
AcDbLayerTableRecord
  2
TEXT
 70
0
 62
8
  6
Continuous
370
-3
390
13
347
21
  0
ENDTAB
  0
TABLE
  2
STYLE
  5
5
330
0
100
AcDbSymbolTable
 70
1
  0
STYLE
  5
29
330
5
100
AcDbSymbolTableRecord
100
AcDbTextStyleTableRecord
  2
Standard
 70
0
 40
0.0
 41
1.0
 50
0.0
 71
0
 42
2.5
  3
txt
  4

  0
ENDTAB
  0
TABLE
  2
VIEW
  5
7
330
0
100
AcDbSymbolTable
 70
0
  0
ENDTAB
  0
TABLE
  2
UCS
  5
6
330
0
100
AcDbSymbolTable
 70
0
  0
ENDTAB
  0
TABLE
  2
APPID
  5
3
330
0
100
AcDbSymbolTable
 70
3
  0
APPID
  5
2A
330
3
100
AcDbSymbolTableRecord
100
AcDbRegAppTableRecord
  2
ACAD
 70
0
  0
APPID
  5
45
330
3
100
AcDbSymbolTableRecord
100
AcDbRegAppTableRecord
  2
HATCHBACKGROUNDCOLOR
 70
0
  0
APPID
  5
46
330
3
100
AcDbSymbolTableRecord
100
AcDbRegAppTableRecord
  2
EZDXF
 70
0
  0
ENDTAB
  0
TABLE
  2
DIMSTYLE
  5
4
330
0
100
AcDbSymbolTable
 70
1
100
AcDbDimStyleTable
  0
DIMSTYLE
105
2B
330
4
100
AcDbSymbolTableRecord
100
AcDbDimStyleTableRecord
  2
Standard
 70
0
 40
1.0
 41
2.5
 42
0.625
 43
3.75
 44
1.25
 45
0.0
 46
0.0
 47
0.0
 48
0.0
 49
2.5
140
2.5
141
2.5
142
0.0
143
0.03937007874
144
1.0
145
0.0
146
1.0
147
0.625
148
0.0
 69
0
 70
0
 71
0
 72
0
 73
0
 74
0
 75
0
 76
0
 77
1
 78
8
 79
3
170
0
171
3
172
1
173
0
174
0
175
0
176
0
177
0
178
0
179
2
271
2
272
2
273
2
274
3
275
0
276
0
277
2
278
44
279
0
280
0
281
0
282
0
283
0
284
8
285
0
286
0
288
0
289
3
290
0
371
-2
372
-2
  0
ENDTAB
  0
TABLE
  2
BLOCK_RECORD
  5
9
330
0
100
AcDbSymbolTable
 70
2
  0
BLOCK_RECORD
  5
17
330
9
100
AcDbSymbolTableRecord
100
AcDbBlockTableRecord
  2
*Model_Space
340
1A
 70
0
280
1
281
0
  0
BLOCK_RECORD
  5
1B
330
9
100
AcDbSymbolTableRecord
100
AcDbBlockTableRecord
  2
*Paper_Space
340
1E
 70
0
280
1
281
0
  0
ENDTAB
  0
ENDSEC
  0
SECTION
  2
BLOCKS
  0
BLOCK
  5
18
330
17
100
AcDbEntity
  8
0
100
AcDbBlockBegin
  2
*Model_Space
 70
0
 10
0.0
 20
0.0
 30
0.0
  3
*Model_Space
  1

  0
ENDBLK
  5
19
330
17
100
AcDbEntity
  8
0
100
AcDbBlockEnd
  0
BLOCK
  5
1C
330
1B
100
AcDbEntity
  8
0
100
AcDbBlockBegin
  2
*Paper_Space
 70
0
 10
0.0
 20
0.0
 30
0.0
  3
*Paper_Space
  1

  0
ENDBLK
  5
1D
330
1B
100
AcDbEntity
  8
0
100
AcDbBlockEnd
  0
ENDSEC
  0
SECTION
  2
ENTITIES
  0
LWPOLYLINE
  5
35
330
17
100
AcDbEntity
  8
CUT
100
AcDbPolyline
 90
4
 70
1
 10
-0.75
 20
0.0
 10
0.75
 20
0.0
 10
0.75
 20
52.0
 10
-0.75
 20
52.0
  0
LWPOLYLINE
  5
36
330
17
100
AcDbEntity
  8
CHANNEL
100
AcDbPolyline
 90
184
 70
1
 10
0.05000000000000001
 20
2.5
 10
0.06134233642831284
 20
2.500197981218794
 10
0.0726708539668407
 20
2.5007916836655575
 10
0.08397175056198736
 20
2.501780384005311
 10
0.09523125781202127
 20
2.5031628776589896
 10
0.10643565774175237
 20
2.5049374802710327
 10
0.11757129951577182
 20
2.5071020297615134
 10
0.128624616069892
 20
2.5096538889603015
 10
0.1395821406405247
 20
2.5125899488200467
 10
0.1504305231718579
 20
2.515906632204075
 10
0.16115654658084236
 20
2.51959989824458
 10
0.1717471428601714
 20
2.5236652472657943
 10
0.18218940899963507
 20
2.528097726266155
 10
0.19247062270645016
 20
2.532891934952771
 10
0.20257825790541453
 20
2.538042032320849
 10
0.21250000000000002
 20
2.543541743770058
 10
0.2222237608757916
 20
2.5493843687491617
 10
0.2317376936279927
 20
2.5555627889196115
 10
0.24103020699505376
 20
2.5620694768281425
 10
0.25008997948083894
 20
2.5688965050778156
 10
0.2589059731481253
 20
2.576035555986332
 10
0.26746744706662895
 20
2.583477931719847
 10
0.2757639703991741
 20
2.5912145648899387
 10
0.2837854351100616
 20
2.599236029600826
 10
0.29152206828015315
 20
2.607532552933371
 10
0.29896444401366784
 20
2.616094026851875
 10
0.30610349492218464
 20
2.6249100205191613
 10
0.31293052317185793
 20
2.6339697930049466
 10
0.31943721108038853
 20
2.6432623063720073
 10
0.3256156312508384
 20
2.6527762391242087
 10
0.33145825622994257
 20
2.6625
 10
0.33695796767915126
 20
2.6724217420945857
 10
0.3421080650472293
 20
2.68252937729355
 10
0.3469022737338453
 20
2.6928105910003652
 10
0.3513347527342059
 20
2.703252857139829
 10
0.35540010175542025
 20
2.713843453419158
 10
0.3590933677959249
 20
2.724569476828142
 10
0.3624100511799536
 20
2.7354178593594756
 10
0.36534611103969883
 20
2.746375383930108
 10
0.36789797023848686
 20
2.7574287004842284
 10
0.3700625197289676
 20
2.768564342258248
 10
0.37183712234101035
 20
2.779768742187979
 10
0.37321961599468884
 20
2.7910282494380128
 10
0.37420831633444285
 20
2.8023291460331596
 10
0.3748020187812061
 20
2.8136576635716875
 10
0.375
 20
2.825
 10
0.375
 20
27.575000000000003
 10
0.3748020187812061
 20
27.586342336428316
 10
0.37420831633444285
 20
27.597670853966843
 10
0.37321961599468884
 20
27.60897175056199
 10
0.37183712234101035
 20
27.620231257812023
 10
0.3700625197289676
 20
27.631435657741754
 10
0.36789797023848686
 20
27.642571299515776
 10
0.36534611103969883
 20
27.653624616069894
 10
0.3624100511799536
 20
27.664582140640526
 10
0.3590933677959249
 20
27.675430523171862
 10
0.35540010175542025
 20
27.686156546580847
 10
0.3513347527342059
 20
27.696747142860175
 10
0.3469022737338453
 20
27.70718940899964
 10
0.3421080650472293
 20
27.717470622706454
 10
0.33695796767915126
 20
27.727578257905417
 10
0.33145825622994257
 20
27.737500000000004
 10
0.3256156312508384
 20
27.747223760875794
 10
0.31943721108038853
 20
27.756737693627997
 10
0.31293052317185793
 20
27.766030206995058
 10
0.30610349492218464
 20
27.775089979480843
 10
0.29896444401366784
 20
27.783905973148126
 10
0.29152206828015315
 20
27.79246744706663
 10
0.2837854351100616
 20
27.800763970399178
 10
0.2757639703991741
 20
27.808785435110064
 10
0.26746744706662895
 20
27.816522068280157
 10
0.2589059731481253
 20
27.823964444013672
 10
0.25008997948083894
 20
27.83110349492219
 10
0.24103020699505376
 20
27.83793052317186
 10
0.2317376936279927
 20
27.84443721108039
 10
0.2222237608757916
 20
27.85061563125084
 10
0.21250000000000002
 20
27.856458256229946
 10
0.20257825790541453
 20
27.861957967679153
 10
0.19247062270645016
 20
27.867108065047233
 10
0.18218940899963507
 20
27.87190227373385
 10
0.1717471428601714
 20
27.87633475273421
 10
0.16115654658084236
 20
27.880400101755423
 10
0.1504305231718579
 20
27.884093367795927
 10
0.1395821406405247
 20
27.887410051179955
 10
0.128624616069892
 20
27.8903461110397
 10
0.11757129951577182
 20
27.89289797023849
 10
0.10643565774175237
 20
27.89506251972897
 10
0.09523125781202127
 20
27.89683712234101
 10
0.08397175056198736
 20
27.89821961599469
 10
0.0726708539668407
 20
27.899208316334445
 10
0.06134233642831284
 20
27.89980201878121
 10
0.05000000000000001
 20
27.900000000000002
 10
-0.04999999999999997
 20
27.900000000000002
 10
-0.0613423364283128
 20
27.89980201878121
 10
-0.07267085396684073
 20
27.899208316334445
 10
-0.08397175056198738
 20
27.89821961599469
 10
-0.09523125781202123
 20
27.89683712234101
 10
-0.10643565774175234
 20
27.89506251972897
 10
-0.11757129951577178
 20
27.89289797023849
 10
-0.128624616069892
 20
27.8903461110397
 10
-0.13958214064052468
 20
27.887410051179955
 10
-0.15043052317185787
 20
27.884093367795927
 10
-0.16115654658084233
 20
27.880400101755423
 10
-0.1717471428601714
 20
27.87633475273421
 10
-0.18218940899963507
 20
27.87190227373385
 10
-0.19247062270645018
 20
27.867108065047233
 10
-0.20257825790541453
 20
27.861957967679153
 10
-0.2124999999999999
 20
27.856458256229946
 10
-0.22222376087579154
 20
27.850615631250843
 10
-0.23173769362799268
 20
27.84443721108039
 10
-0.24103020699505373
 20
27.83793052317186
 10
-0.25008997948083894
 20
27.83110349492219
 10
-0.2589059731481253
 20
27.823964444013672
 10
-0.26746744706662895
 20
27.816522068280157
 10
-0.2757639703991741
 20
27.808785435110064
 10
-0.2837854351100616
 20
27.800763970399178
 10
-0.29152206828015303
 20
27.79246744706663
 10
-0.29896444401366784
 20
27.78390597314813
 10
-0.30610349492218464
 20
27.775089979480843
 10
-0.3129305231718579
 20
27.766030206995058
 10
-0.31943721108038853
 20
27.756737693627997
 10
-0.3256156312508384
 20
27.747223760875794
 10
-0.33145825622994257
 20
27.737500000000004
 10
-0.33695796767915126
 20
27.727578257905417
 10
-0.3421080650472293
 20
27.717470622706454
 10
-0.34690227373384525
 20
27.70718940899964
 10
-0.3513347527342059
 20
27.696747142860175
 10
-0.3554001017554202
 20
27.686156546580847
 10
-0.3590933677959249
 20
27.675430523171862
 10
-0.3624100511799536
 20
27.664582140640526
 10
-0.36534611103969883
 20
27.653624616069894
 10
-0.36789797023848686
 20
27.642571299515776
 10
-0.3700625197289676
 20
27.631435657741754
 10
-0.37183712234101035
 20
27.620231257812023
 10
-0.37321961599468884
 20
27.60897175056199
 10
-0.37420831633444285
 20
27.597670853966843
 10
-0.3748020187812061
 20
27.586342336428316
 10
-0.375
 20
27.575000000000003
 10
-0.375
 20
2.825
 10
-0.3748020187812061
 20
2.8136576635716875
 10
-0.37420831633444285
 20
2.8023291460331596
 10
-0.37321961599468884
 20
2.7910282494380128
 10
-0.37183712234101035
 20
2.779768742187979
 10
-0.3700625197289676
 20
2.768564342258248
 10
-0.3678979702384868
 20
2.7574287004842284
 10
-0.36534611103969883
 20
2.746375383930108
 10
-0.3624100511799536
 20
2.7354178593594756
 10
-0.35909336779592493
 20
2.724569476828142
 10
-0.35540010175542025
 20
2.713843453419158
 10
-0.3513347527342059
 20
2.703252857139829
 10
-0.3469022737338453
 20
2.6928105910003652
 10
-0.34210806504722924
 20
2.68252937729355
 10
-0.33695796767915126
 20
2.6724217420945857
 10
-0.3314582562299425
 20
2.6625
 10
-0.3256156312508385
 20
2.6527762391242087
 10
-0.3194372110803886
 20
2.6432623063720073
 10
-0.31293052317185793
 20
2.6339697930049466
 10
-0.30610349492218464
 20
2.6249100205191613
 10
-0.29896444401366784
 20
2.616094026851875
 10
-0.29152206828015315
 20
2.607532552933371
 10
-0.2837854351100616
 20
2.599236029600826
 10
-0.2757639703991741
 20
2.5912145648899387
 10
-0.2674674470666289
 20
2.583477931719847
 10
-0.25890597314812536
 20
2.576035555986332
 10
-0.2500899794808389
 20
2.5688965050778156
 10
-0.24103020699505381
 20
2.5620694768281425
 10
-0.23173769362799262
 20
2.5555627889196115
 10
-0.22222376087579163
 20
2.5493843687491617
 10
-0.21250000000000013
 20
2.543541743770058
 10
-0.20257825790541448
 20
2.538042032320849
 10
-0.19247062270645027
 20
2.532891934952771
 10
-0.18218940899963504
 20
2.528097726266155
 10
-0.17174714286017148
 20
2.5236652472657943
 10
-0.16115654658084227
 20
2.51959989824458
 10
-0.15043052317185795
 20
2.515906632204075
 10
-0.13958214064052463
 20
2.5125899488200467
 10
-0.128624616069892
 20
2.5096538889603015
 10
-0.11757129951577192
 20
2.5071020297615134
 10
-0.10643565774175234
 20
2.5049374802710327
 10
-0.09523125781202138
 20
2.5031628776589896
 10
-0.08397175056198733
 20
2.501780384005311
 10
-0.07267085396684081
 20
2.5007916836655575
 10
-0.06134233642831274
 20
2.500197981218794
 10
-0.05000000000000005
 20
2.5
  0
CIRCLE
  5
37
330
17
100
AcDbEntity
  8
DRILL
100
AcDbCircle
 10
-0.475
 20
2.5
 30
0.0
 40
0.055
  0
CIRCLE
  5
38
330
17
100
AcDbEntity
  8
DRILL
100
AcDbCircle
 10
0.475
 20
2.5
 30
0.0
 40
0.055
  0
CIRCLE
  5
39
330
17
100
AcDbEntity
  8
DRILL
100
AcDbCircle
 10
-0.475
 20
6.5
 30
0.0
 40
0.055
  0
CIRCLE
  5
3A
330
17
100
AcDbEntity
  8
DRILL
100
AcDbCircle
 10
0.475
 20
6.5
 30
0.0
 40
0.055
  0
CIRCLE
  5
3B
330
17
100
AcDbEntity
  8
DRILL
100
AcDbCircle
 10
-0.475
 20
10.5
 30
0.0
 40
0.055
  0
CIRCLE
  5
3C
330
17
100
AcDbEntity
  8
DRILL
100
AcDbCircle
 10
0.475
 20
10.5
 30
0.0
 40
0.055
  0
CIRCLE
  5
3D
330
17
100
AcDbEntity
  8
DRILL
100
AcDbCircle
 10
-0.475
 20
14.5
 30
0.0
 40
0.055
  0
CIRCLE
  5
3E
330
17
100
AcDbEntity
  8
DRILL
100
AcDbCircle
 10
0.475
 20
14.5
 30
0.0
 40
0.055
  0
CIRCLE
  5
3F
330
17
100
AcDbEntity
  8
DRILL
100
AcDbCircle
 10
-0.475
 20
18.5
 30
0.0
 40
0.055
  0
CIRCLE
  5
40
330
17
100
AcDbEntity
  8
DRILL
100
AcDbCircle
 10
0.475
 20
18.5
 30
0.0
 40
0.055
  0
CIRCLE
  5
41
330
17
100
AcDbEntity
  8
DRILL
100
AcDbCircle
 10
-0.475
 20
22.5
 30
0.0
 40
0.055
  0
CIRCLE
  5
42
330
17
100
AcDbEntity
  8
DRILL
100
AcDbCircle
 10
0.475
 20
22.5
 30
0.0
 40
0.055
  0
CIRCLE
  5
43
330
17
100
AcDbEntity
  8
DRILL
100
AcDbCircle
 10
-0.475
 20
26.5
 30
0.0
 40
0.055
  0
CIRCLE
  5
44
330
17
100
AcDbEntity
  8
DRILL
100
AcDbCircle
 10
0.475
 20
26.5
 30
0.0
 40
0.055
  0
ENDSEC
  0
SECTION
  2
OBJECTS
  0
DICTIONARY
  5
A
330
0
100
AcDbDictionary
281
1
  3
ACAD_COLOR
350
B
  3
ACAD_GROUP
350
C
  3
ACAD_LAYOUT
350
D
  3
ACAD_MATERIAL
350
E
  3
ACAD_MLEADERSTYLE
350
F
  3
ACAD_MLINESTYLE
350
10
  3
ACAD_PLOTSETTINGS
350
11
  3
ACAD_PLOTSTYLENAME
350
12
  3
ACAD_SCALELIST
350
14
  3
ACAD_TABLESTYLE
350
15
  3
ACAD_VISUALSTYLE
350
16
  3
EZDXF_META
350
2D
  0
DICTIONARY
  5
B
330
A
100
AcDbDictionary
281
1
  0
DICTIONARY
  5
C
330
A
100
AcDbDictionary
281
1
  0
DICTIONARY
  5
D
330
A
100
AcDbDictionary
281
1
  3
Model
350
1A
  3
Layout1
350
1E
  0
DICTIONARY
  5
E
330
A
100
AcDbDictionary
281
1
  3
ByBlock
350
1F
  3
ByLayer
350
20
  3
Global
350
21
  0
DICTIONARY
  5
F
330
A
100
AcDbDictionary
281
1
  3
Standard
350
2C
  0
DICTIONARY
  5
10
330
A
100
AcDbDictionary
281
1
  3
Standard
350
22
  0
DICTIONARY
  5
11
330
A
100
AcDbDictionary
281
1
  0
ACDBDICTIONARYWDFLT
  5
12
330
A
100
AcDbDictionary
281
1
  3
Normal
350
13
100
AcDbDictionaryWithDefault
340
13
  0
ACDBPLACEHOLDER
  5
13
330
12
  0
DICTIONARY
  5
14
330
A
100
AcDbDictionary
281
1
  0
DICTIONARY
  5
15
330
A
100
AcDbDictionary
281
1
  0
DICTIONARY
  5
16
330
A
100
AcDbDictionary
281
1
  0
LAYOUT
  5
1A
330
D
100
AcDbPlotSettings
  1

  4
A3
  6

 40
7.5
 41
20.0
 42
7.5
 43
20.0
 44
420.0
 45
297.0
 46
0.0
 47
0.0
 48
0.0
 49
0.0
140
0.0
141
0.0
142
1.0
143
1.0
 70
1024
 72
1
 73
0
 74
5
  7

 75
16
 76
0
 77
2
 78
300
147
1.0
148
0.0
149
0.0
100
AcDbLayout
  1
Model
 70
1
 71
0
 10
0.0
 20
0.0
 11
420.0
 21
297.0
 12
0.0
 22
0.0
 32
0.0
 14
1e+20
 24
1e+20
 34
1e+20
 15
-1e+20
 25
-1e+20
 35
-1e+20
146
0.0
 13
0.0
 23
0.0
 33
0.0
 16
1.0
 26
0.0
 36
0.0
 17
0.0
 27
1.0
 37
0.0
 76
1
330
17
  0
LAYOUT
  5
1E
330
D
100
AcDbPlotSettings
  1

  4
A3
  6

 40
7.5
 41
20.0
 42
7.5
 43
20.0
 44
420.0
 45
297.0
 46
0.0
 47
0.0
 48
0.0
 49
0.0
140
0.0
141
0.0
142
1.0
143
1.0
 70
0
 72
1
 73
0
 74
5
  7

 75
16
 76
0
 77
2
 78
300
147
1.0
148
0.0
149
0.0
100
AcDbLayout
  1
Layout1
 70
1
 71
1
 10
0.0
 20
0.0
 11
420.0
 21
297.0
 12
0.0
 22
0.0
 32
0.0
 14
1e+20
 24
1e+20
 34
1e+20
 15
-1e+20
 25
-1e+20
 35
-1e+20
146
0.0
 13
0.0
 23
0.0
 33
0.0
 16
1.0
 26
0.0
 36
0.0
 17
0.0
 27
1.0
 37
0.0
 76
1
330
1B
  0
MATERIAL
  5
1F
102
{ACAD_REACTORS
330
E
102
}
330
E
100
AcDbMaterial
  1
ByBlock
  2

 70
0
 40
1.0
 71
1
 41
1.0
 91
-1023410177
 42
1.0
 72
1
  3

 73
1
 74
1
 75
1
 44
0.5
 73
0
 45
1.0
 46
1.0
 77
1
  4

 78
1
 79
1
170
1
 48
1.0
171
1
  6

172
1
173
1
174
1
140
1.0
141
1.0
175
1
  7

176
1
177
1
178
1
143
1.0
179
1
  8

270
1
271
1
272
1
145
1.0
146
1.0
273
1
  9

274
1
275
1
276
1
 42
1.0
 72
1
  3

 73
1
 74
1
 75
1
 94
63
  0
MATERIAL
  5
20
102
{ACAD_REACTORS
330
E
102
}
330
E
100
AcDbMaterial
  1
ByLayer
  2

 70
0
 40
1.0
 71
1
 41
1.0
 91
-1023410177
 42
1.0
 72
1
  3

 73
1
 74
1
 75
1
 44
0.5
 73
0
 45
1.0
 46
1.0
 77
1
  4

 78
1
 79
1
170
1
 48
1.0
171
1
  6

172
1
173
1
174
1
140
1.0
141
1.0
175
1
  7

176
1
177
1
178
1
143
1.0
179
1
  8

270
1
271
1
272
1
145
1.0
146
1.0
273
1
  9

274
1
275
1
276
1
 42
1.0
 72
1
  3

 73
1
 74
1
 75
1
 94
63
  0
MATERIAL
  5
21
102
{ACAD_REACTORS
330
E
102
}
330
E
100
AcDbMaterial
  1
Global
  2

 70
0
 40
1.0
 71
1
 41
1.0
 91
-1023410177
 42
1.0
 72
1
  3

 73
1
 74
1
 75
1
 44
0.5
 73
0
 45
1.0
 46
1.0
 77
1
  4

 78
1
 79
1
170
1
 48
1.0
171
1
  6

172
1
173
1
174
1
140
1.0
141
1.0
175
1
  7

176
1
177
1
178
1
143
1.0
179
1
  8

270
1
271
1
272
1
145
1.0
146
1.0
273
1
  9

274
1
275
1
276
1
 42
1.0
 72
1
  3

 73
1
 74
1
 75
1
 94
63
  0
MLINESTYLE
  5
22
102
{ACAD_REACTORS
330
10
102
}
330
10
100
AcDbMlineStyle
  2
Standard
 70
0
  3

 62
256
 51
90.0
 52
90.0
 71
2
 49
0.5
 62
256
  6
BYLAYER
 49
-0.5
 62
256
  6
BYLAYER
  0
MLEADERSTYLE
  5
2C
102
{ACAD_REACTORS
330
F
102
}
330
F
100
AcDbMLeaderStyle
179
2
170
2
171
1
172
0
 90
2
 40
0.0
 41
0.0
173
1
 91
-1056964608
 92
-2
290
1
 42
2.0
291
1
 43
8.0
  3
Standard
 44
4.0
300

342
29
174
1
175
1
176
0
178
1
 93
-1056964608
 45
4.0
292
0
297
0
 46
4.0
 94
-1056964608
 47
1.0
 49
1.0
140
1.0
294
1
141
0.0
177
0
142
1.0
295
0
296
0
143
3.75
271
0
272
9
273
9
  0
DICTIONARY
  5
2D
330
A
100
AcDbDictionary
280
1
281
1
  3
CREATED_BY_EZDXF
350
2E
  3
WRITTEN_BY_EZDXF
350
47
  0
DICTIONARYVAR
  5
2E
330
2D
100
DictionaryVariables
280
0
  1
1.4.4 @ 2026-06-24T17:47:16.712091+00:00
  0
DICTIONARYVAR
  5
47
330
2D
100
DictionaryVariables
280
0
  1
1.4.4 @ 2026-06-24T17:47:16.723554+00:00
  0
ENDSEC
  0
EOF
