  0
SECTION
  2
HEADER
  9
$ACADVER
  1
AC1024
  9
$ACADMAINTVER
 70
6
  9
$DWGCODEPAGE
  3
ANSI_1252
  9
$LASTSAVEDBY
  1
ezdxf
  9
$INSBASE
 10
0.0
 20
0.0
 30
0.0
  9
$EXTMIN
 10
1e+20
 20
1e+20
 30
1e+20
  9
$EXTMAX
 10
-1e+20
 20
-1e+20
 30
-1e+20
  9
$LIMMIN
 10
0.0
 20
0.0
  9
$LIMMAX
 10
420.0
 20
297.0
  9
$ORTHOMODE
 70
0
  9
$REGENMODE
 70
1
  9
$FILLMODE
 70
1
  9
$QTEXTMODE
 70
0
  9
$MIRRTEXT
 70
1
  9
$LTSCALE
 40
1.0
  9
$ATTMODE
 70
1
  9
$TEXTSIZE
 40
2.5
  9
$TRACEWID
 40
1.0
  9
$TEXTSTYLE
  7
Standard
  9
$CLAYER
  8
0
  9
$CELTYPE
  6
ByLayer
  9
$CECOLOR
 62
256
  9
$CELTSCALE
 40
1.0
  9
$DISPSILH
 70
0
  9
$DIMSCALE
 40
1.0
  9
$DIMASZ
 40
2.5
  9
$DIMEXO
 40
0.625
  9
$DIMDLI
 40
3.75
  9
$DIMRND
 40
0.0
  9
$DIMDLE
 40
0.0
  9
$DIMEXE
 40
1.25
  9
$DIMTP
 40
0.0
  9
$DIMTM
 40
0.0
  9
$DIMTXT
 40
2.5
  9
$DIMCEN
 40
2.5
  9
$DIMTSZ
 40
0.0
  9
$DIMTOL
 70
0
  9
$DIMLIM
 70
0
  9
$DIMTIH
 70
0
  9
$DIMTOH
 70
0
  9
$DIMSE1
 70
0
  9
$DIMSE2
 70
0
  9
$DIMTAD
 70
1
  9
$DIMZIN
 70
8
  9
$DIMBLK
  1

  9
$DIMASO
 70
1
  9
$DIMSHO
 70
1
  9
$DIMPOST
  1

  9
$DIMAPOST
  1

  9
$DIMALT
 70
0
  9
$DIMALTD
 70
3
  9
$DIMALTF
 40
0.03937007874
  9
$DIMLFAC
 40
1.0
  9
$DIMTOFL
 70
1
  9
$DIMTVP
 40
0.0
  9
$DIMTIX
 70
0
  9
$DIMSOXD
 70
0
  9
$DIMSAH
 70
0
  9
$DIMBLK1
  1

  9
$DIMBLK2
  1

  9
$DIMSTYLE
  2
ISO-25
  9
$DIMCLRD
 70
0
  9
$DIMCLRE
 70
0
  9
$DIMCLRT
 70
0
  9
$DIMTFAC
 40
1.0
  9
$DIMGAP
 40
0.625
  9
$DIMJUST
 70
0
  9
$DIMSD1
 70
0
  9
$DIMSD2
 70
0
  9
$DIMTOLJ
 70
0
  9
$DIMTZIN
 70
8
  9
$DIMALTZ
 70
0
  9
$DIMALTTZ
 70
0
  9
$DIMUPT
 70
0
  9
$DIMDEC
 70
2
  9
$DIMTDEC
 70
2
  9
$DIMALTU
 70
2
  9
$DIMALTTD
 70
3
  9
$DIMTXSTY
  7
Standard
  9
$DIMAUNIT
 70
0
  9
$DIMADEC
 70
0
  9
$DIMALTRND
 40
0.0
  9
$DIMAZIN
 70
0
  9
$DIMDSEP
 70
44
  9
$DIMATFIT
 70
3
  9
$DIMFRAC
 70
0
  9
$DIMLDRBLK
  1

  9
$DIMLUNIT
 70
2
  9
$DIMLWD
 70
-2
  9
$DIMLWE
 70
-2
  9
$DIMTMOVE
 70
0
  9
$DIMFXL
 40
1.0
  9
$DIMFXLON
 70
0
  9
$DIMJOGANG
 40
0.785398163397
  9
$DIMTFILL
 70
0
  9
$DIMTFILLCLR
 70
0
  9
$DIMARCSYM
 70
0
  9
$DIMLTYPE
  6

  9
$DIMLTEX1
  6

  9
$DIMLTEX2
  6

  9
$DIMTXTDIRECTION
 70
0
  9
$LUNITS
 70
2
  9
$LUPREC
 70
4
  9
$SKETCHINC
 40
1.0
  9
$FILLETRAD
 40
10.0
  9
$AUNITS
 70
0
  9
$AUPREC
 70
2
  9
$MENU
  1
.
  9
$ELEVATION
 40
0.0
  9
$PELEVATION
 40
0.0
  9
$THICKNESS
 40
0.0
  9
$LIMCHECK
 70
0
  9
$CHAMFERA
 40
0.0
  9
$CHAMFERB
 40
0.0
  9
$CHAMFERC
 40
0.0
  9
$CHAMFERD
 40
0.0
  9
$SKPOLY
 70
0
  9
$TDCREATE
 40
2461216.7411574074
  9
$TDUCREATE
 40
2458532.153996898
  9
$TDUPDATE
 40
2461216.7411574074
  9
$TDUUPDATE
 40
2458532.1544311
  9
$TDINDWG
 40
0.0
  9
$TDUSRTIMER
 40
0.0
  9
$USRTIMER
 70
1
  9
$ANGBASE
 50
0.0
  9
$ANGDIR
 70
0
  9
$PDMODE
 70
0
  9
$PDSIZE
 40
0.0
  9
$PLINEWID
 40
0.0
  9
$SPLFRAME
 70
0
  9
$SPLINETYPE
 70
6
  9
$SPLINESEGS
 70
8
  9
$HANDSEED
  5
47
  9
$SURFTAB1
 70
6
  9
$SURFTAB2
 70
6
  9
$SURFTYPE
 70
6
  9
$SURFU
 70
6
  9
$SURFV
 70
6
  9
$UCSBASE
  2

  9
$UCSNAME
  2

  9
$UCSORG
 10
0.0
 20
0.0
 30
0.0
  9
$UCSXDIR
 10
1.0
 20
0.0
 30
0.0
  9
$UCSYDIR
 10
0.0
 20
1.0
 30
0.0
  9
$UCSORTHOREF
  2

  9
$UCSORTHOVIEW
 70
0
  9
$UCSORGTOP
 10
0.0
 20
0.0
 30
0.0
  9
$UCSORGBOTTOM
 10
0.0
 20
0.0
 30
0.0
  9
$UCSORGLEFT
 10
0.0
 20
0.0
 30
0.0
  9
$UCSORGRIGHT
 10
0.0
 20
0.0
 30
0.0
  9
$UCSORGFRONT
 10
0.0
 20
0.0
 30
0.0
  9
$UCSORGBACK
 10
0.0
 20
0.0
 30
0.0
  9
$PUCSBASE
  2

  9
$PUCSNAME
  2

  9
$PUCSORG
 10
0.0
 20
0.0
 30
0.0
  9
$PUCSXDIR
 10
1.0
 20
0.0
 30
0.0
  9
$PUCSYDIR
 10
0.0
 20
1.0
 30
0.0
  9
$PUCSORTHOREF
  2

  9
$PUCSORTHOVIEW
 70
0
  9
$PUCSORGTOP
 10
0.0
 20
0.0
 30
0.0
  9
$PUCSORGBOTTOM
 10
0.0
 20
0.0
 30
0.0
  9
$PUCSORGLEFT
 10
0.0
 20
0.0
 30
0.0
  9
$PUCSORGRIGHT
 10
0.0
 20
0.0
 30
0.0
  9
$PUCSORGFRONT
 10
0.0
 20
0.0
 30
0.0
  9
$PUCSORGBACK
 10
0.0
 20
0.0
 30
0.0
  9
$USERI1
 70
0
  9
$USERI2
 70
0
  9
$USERI3
 70
0
  9
$USERI4
 70
0
  9
$USERI5
 70
0
  9
$USERR1
 40
0.0
  9
$USERR2
 40
0.0
  9
$USERR3
 40
0.0
  9
$USERR4
 40
0.0
  9
$USERR5
 40
0.0
  9
$WORLDVIEW
 70
1
  9
$SHADEDGE
 70
3
  9
$SHADEDIF
 70
70
  9
$TILEMODE
 70
1
  9
$MAXACTVP
 70
64
  9
$PINSBASE
 10
0.0
 20
0.0
 30
0.0
  9
$PLIMCHECK
 70
0
  9
$PEXTMIN
 10
1e+20
 20
1e+20
 30
1e+20
  9
$PEXTMAX
 10
-1e+20
 20
-1e+20
 30
-1e+20
  9
$PLIMMIN
 10
0.0
 20
0.0
  9
$PLIMMAX
 10
420.0
 20
297.0
  9
$UNITMODE
 70
0
  9
$VISRETAIN
 70
1
  9
$PLINEGEN
 70
0
  9
$PSLTSCALE
 70
1
  9
$TREEDEPTH
 70
3020
  9
$CMLSTYLE
  2
Standard
  9
$CMLJUST
 70
0
  9
$CMLSCALE
 40
20.0
  9
$PROXYGRAPHICS
 70
1
  9
$MEASUREMENT
 70
1
  9
$CELWEIGHT
370
-1
  9
$ENDCAPS
280
0
  9
$JOINSTYLE
280
0
  9
$LWDISPLAY
290
0
  9
$INSUNITS
 70
1
  9
$HYPERLINKBASE
  1

  9
$STYLESHEET
  1

  9
$XEDIT
290
1
  9
$CEPSNTYPE
380
0
  9
$PSTYLEMODE
290
1
  9
$FINGERPRINTGUID
  2
{3032CD6E-8F01-402A-85E4-F0A2CED77CE9}
  9
$VERSIONGUID
  2
{F6C29BB9-7F65-451E-80A2-38B6ED2E1D1C}
  9
$EXTNAMES
290
1
  9
$PSVPSCALE
 40
0.0
  9
$OLESTARTUP
290
0
  9
$SORTENTS
280
127
  9
$INDEXCTL
280
0
  9
$HIDETEXT
280
1
  9
$XCLIPFRAME
280
1
  9
$HALOGAP
280
0
  9
$OBSCOLOR
 70
257
  9
$OBSLTYPE
280
0
  9
$INTERSECTIONDISPLAY
280
0
  9
$INTERSECTIONCOLOR
 70
257
  9
$DIMASSOC
280
2
  9
$PROJECTNAME
  1

  9
$CAMERADISPLAY
290
0
  9
$LENSLENGTH
 40
50.0
  9
$CAMERAHEIGHT
 40
0.0
  9
$STEPSPERSEC
 40
24.0
  9
$STEPSIZE
 40
100.0
  9
$3DDWFPREC
 40
2.0
  9
$PSOLWIDTH
 40
0.005
  9
$PSOLHEIGHT
 40
0.08
  9
$LOFTANG1
 40
1.570796326795
  9
$LOFTANG2
 40
1.570796326795
  9
$LOFTMAG1
 40
0.0
  9
$LOFTMAG2
 40
0.0
  9
$LOFTPARAM
 70
7
  9
$LOFTNORMALS
280
1
  9
$LATITUDE
 40
37.795
  9
$LONGITUDE
 40
-122.394
  9
$NORTHDIRECTION
 40
0.0
  9
$TIMEZONE
 70
-8000
  9
$LIGHTGLYPHDISPLAY
280
1
  9
$TILEMODELIGHTSYNCH
280
1
  9
$CMATERIAL
347
20
  9
$SOLIDHIST
280
0
  9
$SHOWHIST
280
1
  9
$DWFFRAME
280
2
  9
$DGNFRAME
280
2
  9
$REALWORLDSCALE
290
1
  9
$INTERFERECOLOR
 62
256
  9
$CSHADOW
280
0
  9
$SHADOWPLANELOCATION
 40
0.0
  0
ENDSEC
  0
SECTION
  2
CLASSES
  0
CLASS
  1
ACDBDICTIONARYWDFLT
  2
AcDbDictionaryWithDefault
  3
ObjectDBX Classes
 90
0
 91
0
280
0
281
0
  0
CLASS
  1
SUN
  2
AcDbSun
  3
SCENEOE
 90
1153
 91
0
280
0
281
0
  0
CLASS
  1
VISUALSTYLE
  2
AcDbVisualStyle
  3
ObjectDBX Classes
 90
4095
 91
0
280
0
281
0
  0
CLASS
  1
MATERIAL
  2
AcDbMaterial
  3
ObjectDBX Classes
 90
1153
 91
0
280
0
281
0
  0
CLASS
  1
SCALE
  2
AcDbScale
  3
ObjectDBX Classes
 90
1153
 91
0
280
0
281
0
  0
CLASS
  1
TABLESTYLE
  2
AcDbTableStyle
  3
ObjectDBX Classes
 90
4095
 91
0
280
0
281
0
  0
CLASS
  1
MLEADERSTYLE
  2
AcDbMLeaderStyle
  3
ACDB_MLEADERSTYLE_CLASS
 90
4095
 91
0
280
0
281
0
  0
CLASS
  1
DICTIONARYVAR
  2
AcDbDictionaryVar
  3
ObjectDBX Classes
 90
0
 91
0
280
0
281
0
  0
CLASS
  1
CELLSTYLEMAP
  2
AcDbCellStyleMap
  3
ObjectDBX Classes
 90
1152
 91
0
280
0
281
0
  0
CLASS
  1
MENTALRAYRENDERSETTINGS
  2
AcDbMentalRayRenderSettings
  3
SCENEOE
 90
1024
 91
0
280
0
281
0
  0
CLASS
  1
ACDBDETAILVIEWSTYLE
  2
AcDbDetailViewStyle
  3
ObjectDBX Classes
 90
1025
 91
0
280
0
281
0
  0
CLASS
  1
ACDBSECTIONVIEWSTYLE
  2
AcDbSectionViewStyle
  3
ObjectDBX Classes
 90
1025
 91
0
280
0
281
0
  0
CLASS
  1
RASTERVARIABLES
  2
AcDbRasterVariables
  3
ISM
 90
0
 91
0
280
0
281
0
  0
CLASS
  1
LAYOUT
  2
AcDbLayout
  3
ObjectDBX Classes
 90
0
 91
0
280
0
281
0
  0
CLASS
  1
ACDBPLACEHOLDER
  2
AcDbPlaceHolder
  3
ObjectDBX Classes
 90
0
 91
0
280
0
281
0
  0
ENDSEC
  0
SECTION
  2
TABLES
  0
TABLE
  2
VPORT
  5
8
330
0
100
AcDbSymbolTable
 70
1
  0
VPORT
  5
23
330
8
100
AcDbSymbolTableRecord
100
AcDbViewportTableRecord
  2
*Active
 70
0
 10
0.0
 20
0.0
 11
1.0
 21
1.0
 12
0.0
 22
0.0
 13
0.0
 23
0.0
 14
0.5
 24
0.5
 15
0.5
 25
0.5
 16
0.0
 26
0.0
 36
1.0
 17
0.0
 27
0.0
 37
0.0
 40
1000.0
 41
1.34
 42
50.0
 43
0.0
 44
0.0
 50
0.0
 51
0.0
 71
0
 72
1000
 73
1
 74
3
 75
0
 76
0
 77
0
 78
0
281
0
 65
0
146
0.0
  0
ENDTAB
  0
TABLE
  2
LTYPE
  5
2
330
0
100
AcDbSymbolTable
 70
3
  0
LTYPE
  5
24
330
2
100
AcDbSymbolTableRecord
100
AcDbLinetypeTableRecord
  2
ByBlock
 70
0
  3

 72
65
 73
0
 40
0.0
  0
LTYPE
  5
25
330
2
100
AcDbSymbolTableRecord
100
AcDbLinetypeTableRecord
  2
ByLayer
 70
0
  3

 72
65
 73
0
 40
0.0
  0
LTYPE
  5
26
330
2
100
AcDbSymbolTableRecord
100
AcDbLinetypeTableRecord
  2
Continuous
 70
0
  3

 72
65
 73
0
 40
0.0
  0
ENDTAB
  0
TABLE
  2
LAYER
  5
1
330
0
100
AcDbSymbolTable
 70
8
  0
LAYER
  5
27
330
1
100
AcDbSymbolTableRecord
100
AcDbLayerTableRecord
  2
0
 70
0
 62
7
  6
Continuous
370
-3
390
13
347
21
  0
LAYER
  5
28
330
1
100
AcDbSymbolTableRecord
100
AcDbLayerTableRecord
  2
Defpoints
 70
0
 62
7
  6
Continuous
290
0
370
-3
390
13
347
21
  0
LAYER
  5
2F
330
1
100
AcDbSymbolTableRecord
100
AcDbLayerTableRecord
  2
CUT
 70
0
 62
7
  6
Continuous
370
-3
390
13
347
21
  0
LAYER
  5
30
330
1
100
AcDbSymbolTableRecord
100
AcDbLayerTableRecord
  2
DRILL
 70
0
 62
5
  6
Continuous
370
-3
390
13
347
21
  0
LAYER
  5
31
330
1
100
AcDbSymbolTableRecord
100
AcDbLayerTableRecord
  2
SIDE
 70
0
 62
2
  6
Continuous
370
-3
390
13
347
21
  0
LAYER
  5
32
330
1
100
AcDbSymbolTableRecord
100
AcDbLayerTableRecord
  2
CHANNEL
 70
0
 62
3
  6
Continuous
370
-3
390
13
347
21
  0
LAYER
  5
33
330
1
100
AcDbSymbolTableRecord
100
AcDbLayerTableRecord
  2
DOGBONE
 70
0
 62
1
  6
Continuous
370
-3
390
13
347
21
  0
LAYER
  5
34
330
1
100
AcDbSymbolTableRecord
100
AcDbLayerTableRecord
  2
TEXT
 70
0
 62
8
  6
Continuous
370
-3
390
13
347
21
  0
ENDTAB
  0
TABLE
  2
STYLE
  5
5
330
0
100
AcDbSymbolTable
 70
1
  0
STYLE
  5
29
330
5
100
AcDbSymbolTableRecord
100
AcDbTextStyleTableRecord
  2
Standard
 70
0
 40
0.0
 41
1.0
 50
0.0
 71
0
 42
2.5
  3
txt
  4

  0
ENDTAB
  0
TABLE
  2
VIEW
  5
7
330
0
100
AcDbSymbolTable
 70
0
  0
ENDTAB
  0
TABLE
  2
UCS
  5
6
330
0
100
AcDbSymbolTable
 70
0
  0
ENDTAB
  0
TABLE
  2
APPID
  5
3
330
0
100
AcDbSymbolTable
 70
3
  0
APPID
  5
2A
330
3
100
AcDbSymbolTableRecord
100
AcDbRegAppTableRecord
  2
ACAD
 70
0
  0
APPID
  5
44
330
3
100
AcDbSymbolTableRecord
100
AcDbRegAppTableRecord
  2
HATCHBACKGROUNDCOLOR
 70
0
  0
APPID
  5
45
330
3
100
AcDbSymbolTableRecord
100
AcDbRegAppTableRecord
  2
EZDXF
 70
0
  0
ENDTAB
  0
TABLE
  2
DIMSTYLE
  5
4
330
0
100
AcDbSymbolTable
 70
1
100
AcDbDimStyleTable
  0
DIMSTYLE
105
2B
330
4
100
AcDbSymbolTableRecord
100
AcDbDimStyleTableRecord
  2
Standard
 70
0
 40
1.0
 41
2.5
 42
0.625
 43
3.75
 44
1.25
 45
0.0
 46
0.0
 47
0.0
 48
0.0
 49
2.5
140
2.5
141
2.5
142
0.0
143
0.03937007874
144
1.0
145
0.0
146
1.0
147
0.625
148
0.0
 69
0
 70
0
 71
0
 72
0
 73
0
 74
0
 75
0
 76
0
 77
1
 78
8
 79
3
170
0
171
3
172
1
173
0
174
0
175
0
176
0
177
0
178
0
179
2
271
2
272
2
273
2
274
3
275
0
276
0
277
2
278
44
279
0
280
0
281
0
282
0
283
0
284
8
285
0
286
0
288
0
289
3
290
0
371
-2
372
-2
  0
ENDTAB
  0
TABLE
  2
BLOCK_RECORD
  5
9
330
0
100
AcDbSymbolTable
 70
2
  0
BLOCK_RECORD
  5
17
330
9
100
AcDbSymbolTableRecord
100
AcDbBlockTableRecord
  2
*Model_Space
340
1A
 70
0
280
1
281
0
  0
BLOCK_RECORD
  5
1B
330
9
100
AcDbSymbolTableRecord
100
AcDbBlockTableRecord
  2
*Paper_Space
340
1E
 70
0
280
1
281
0
  0
ENDTAB
  0
ENDSEC
  0
SECTION
  2
BLOCKS
  0
BLOCK
  5
18
330
17
100
AcDbEntity
  8
0
100
AcDbBlockBegin
  2
*Model_Space
 70
0
 10
0.0
 20
0.0
 30
0.0
  3
*Model_Space
  1

  0
ENDBLK
  5
19
330
17
100
AcDbEntity
  8
0
100
AcDbBlockEnd
  0
BLOCK
  5
1C
330
1B
100
AcDbEntity
  8
0
100
AcDbBlockBegin
  2
*Paper_Space
 70
0
 10
0.0
 20
0.0
 30
0.0
  3
*Paper_Space
  1

  0
ENDBLK
  5
1D
330
1B
100
AcDbEntity
  8
0
100
AcDbBlockEnd
  0
ENDSEC
  0
SECTION
  2
ENTITIES
  0
LWPOLYLINE
  5
35
330
17
100
AcDbEntity
  8
CUT
100
AcDbPolyline
 90
184
 70
1
 10
0.05000000000000002
 20
2.1
 10
0.06483228609856295
 20
2.100258898516884
 10
0.07964650134125321
 20
2.1010352786395745
 10
0.09442459688875271
 20
2.102328194468484
 10
0.10914856790802781
 20
2.1041360707848327
 10
0.12380047550844542
 20
2.1064567049698115
 10
0.13836246859754775
 20
2.1092872696881324
 10
0.15281680562985875
 20
2.1126243163327016
 10
0.16714587622222463
 20
2.116463779226214
 10
0.18133222260935264
 20
2.12080098057456
 10
0.19535856091340922
 20
2.125630636165989
 10
0.20920780220176258
 20
2.1309468618091154
 10
0.22286307330721508
 20
2.1367431805018944
 10
0.2363077373853579
 20
2.1430125303228538
 10
0.2495254141840036
 20
2.149747273034956
 10
0.26250000000000007
 20
2.1569392033916133
 10
0.27521568729911206
 20
2.164579559133519
 10
0.28765698397506734
 20
2.1726590316641072
 10
0.29980873222430104
 20
2.1811677773906473
 10
0.3116561270134048
 20
2.190095429717143
 10
0.3231847341167792
 20
2.1994311116744343
 10
0.3343805077025147
 20
2.2091634491721073
 10
0.3452298074450738
 20
2.2192805848560733
 10
0.35571941514392674
 20
2.229770192554926
 10
0.3658365508278925
 20
2.240619492297485
 10
0.3755688883255656
 20
2.251815265883221
 10
0.3849045702828568
 20
2.263343872986595
 10
0.39383222260935263
 20
2.275191267775699
 10
0.40234096833589267
 20
2.2873430160249324
 10
0.410420440866481
 20
2.2997843127008877
 10
0.4180607966083864
 20
2.3125
 10
0.42525272696504396
 20
2.3254745858159964
 10
0.43198746967714596
 20
2.338692262614642
 10
0.43825681949810535
 20
2.352136926692785
 10
0.44405313819088466
 20
2.3657921977982372
 10
0.44936936383401105
 20
2.3796414390865905
 10
0.4541990194254402
 20
2.393667777390647
 10
0.45853622077378553
 20
2.407854123777775
 10
0.4623756836672985
 20
2.4221831943701413
 10
0.4657127303118674
 20
2.436637531402452
 10
0.4685432950301884
 20
2.4511995244915545
 10
0.4708639292151674
 20
2.465851432091972
 10
0.4726718055315161
 20
2.480575403111247
 10
0.4739647213604253
 20
2.4953534986587464
 10
0.47474110148311566
 20
2.510167713901437
 10
0.475
 20
2.525
 10
0.475
 20
27.875
 10
0.47474110148311566
 20
27.889832286098564
 10
0.4739647213604253
 20
27.904646501341254
 10
0.4726718055315161
 20
27.919424596888753
 10
0.4708639292151674
 20
27.93414856790803
 10
0.4685432950301884
 20
27.948800475508445
 10
0.4657127303118674
 20
27.96336246859755
 10
0.4623756836672985
 20
27.97781680562986
 10
0.45853622077378553
 20
27.992145876222224
 10
0.4541990194254402
 20
28.006332222609352
 10
0.44936936383401105
 20
28.020358560913408
 10
0.44405313819088466
 20
28.034207802201763
 10
0.43825681949810535
 20
28.047863073307216
 10
0.43198746967714596
 20
28.06130773738536
 10
0.42525272696504396
 20
28.074525414184002
 10
0.4180607966083864
 20
28.0875
 10
0.410420440866481
 20
28.100215687299112
 10
0.40234096833589267
 20
28.112656983975068
 10
0.39383222260935263
 20
28.124808732224302
 10
0.3849045702828568
 20
28.136656127013406
 10
0.3755688883255656
 20
28.14818473411678
 10
0.3658365508278925
 20
28.159380507702515
 10
0.35571941514392674
 20
28.170229807445075
 10
0.3452298074450738
 20
28.180719415143926
 10
0.3343805077025147
 20
28.190836550827893
 10
0.3231847341167792
 20
28.200568888325567
 10
0.3116561270134048
 20
28.209904570282855
 10
0.29980873222430104
 20
28.218832222609354
 10
0.28765698397506734
 20
28.22734096833589
 10
0.27521568729911206
 20
28.23542044086648
 10
0.26250000000000007
 20
28.243060796608386
 10
0.2495254141840036
 20
28.250252726965044
 10
0.2363077373853579
 20
28.256987469677146
 10
0.22286307330721508
 20
28.263256819498107
 10
0.20920780220176258
 20
28.269053138190884
 10
0.19535856091340922
 20
28.274369363834012
 10
0.18133222260935264
 20
28.27919901942544
 10
0.16714587622222463
 20
28.283536220773787
 10
0.15281680562985875
 20
28.2873756836673
 10
0.13836246859754775
 20
28.290712730311867
 10
0.12380047550844542
 20
28.29354329503019
 10
0.10914856790802781
 20
28.295863929215166
 10
0.09442459688875271
 20
28.297671805531515
 10
0.07964650134125321
 20
28.298964721360424
 10
0.06483228609856295
 20
28.299741101483114
 10
0.05000000000000002
 20
28.3
 10
-0.04999999999999996
 20
28.3
 10
-0.0648322860985629
 20
28.299741101483114
 10
-0.07964650134125326
 20
28.298964721360424
 10
-0.09442459688875275
 20
28.297671805531515
 10
-0.10914856790802777
 20
28.295863929215166
 10
-0.12380047550844536
 20
28.29354329503019
 10
-0.1383624685975477
 20
28.290712730311867
 10
-0.15281680562985878
 20
28.2873756836673
 10
-0.1671458762222246
 20
28.283536220773787
 10
-0.1813322226093526
 20
28.27919901942544
 10
-0.1953585609134092
 20
28.274369363834012
 10
-0.2092078022017626
 20
28.269053138190884
 10
-0.2228630733072151
 20
28.263256819498107
 10
-0.23630773738535793
 20
28.256987469677146
 10
-0.24952541418400362
 20
28.250252726965044
 10
-0.2624999999999999
 20
28.243060796608386
 10
-0.27521568729911206
 20
28.23542044086648
 10
-0.28765698397506734
 20
28.22734096833589
 10
-0.29980873222430104
 20
28.218832222609354
 10
-0.3116561270134048
 20
28.209904570282855
 10
-0.3231847341167792
 20
28.200568888325567
 10
-0.3343805077025147
 20
28.190836550827893
 10
-0.34522980744507387
 20
28.180719415143926
 10
-0.35571941514392674
 20
28.170229807445075
 10
-0.36583655082789246
 20
28.159380507702515
 10
-0.37556888832556556
 20
28.14818473411678
 10
-0.3849045702828568
 20
28.136656127013406
 10
-0.3938322226093526
 20
28.124808732224302
 10
-0.40234096833589267
 20
28.112656983975068
 10
-0.410420440866481
 20
28.100215687299112
 10
-0.4180607966083864
 20
28.0875
 10
-0.42525272696504396
 20
28.074525414184002
 10
-0.43198746967714596
 20
28.06130773738536
 10
-0.4382568194981053
 20
28.047863073307216
 10
-0.4440531381908846
 20
28.034207802201763
 10
-0.449369363834011
 20
28.020358560913408
 10
-0.4541990194254402
 20
28.006332222609352
 10
-0.45853622077378553
 20
27.992145876222224
 10
-0.4623756836672985
 20
27.97781680562986
 10
-0.4657127303118674
 20
27.96336246859755
 10
-0.4685432950301884
 20
27.948800475508445
 10
-0.4708639292151674
 20
27.93414856790803
 10
-0.4726718055315161
 20
27.919424596888753
 10
-0.4739647213604253
 20
27.904646501341254
 10
-0.47474110148311566
 20
27.889832286098564
 10
-0.475
 20
27.875
 10
-0.475
 20
2.525
 10
-0.47474110148311566
 20
2.510167713901437
 10
-0.4739647213604253
 20
2.495353498658747
 10
-0.4726718055315161
 20
2.480575403111247
 10
-0.47086392921516734
 20
2.465851432091972
 10
-0.4685432950301884
 20
2.4511995244915545
 10
-0.46571273031186733
 20
2.436637531402452
 10
-0.4623756836672985
 20
2.4221831943701413
 10
-0.45853622077378553
 20
2.4078541237777755
 10
-0.4541990194254403
 20
2.393667777390647
 10
-0.44936936383401105
 20
2.3796414390865905
 10
-0.44405313819088466
 20
2.3657921977982372
 10
-0.43825681949810535
 20
2.352136926692785
 10
-0.4319874696771459
 20
2.338692262614642
 10
-0.4252527269650439
 20
2.3254745858159964
 10
-0.4180607966083864
 20
2.3125
 10
-0.41042044086648105
 20
2.2997843127008877
 10
-0.4023409683358928
 20
2.2873430160249324
 10
-0.3938322226093527
 20
2.275191267775699
 10
-0.38490457028285685
 20
2.2633438729865953
 10
-0.3755688883255656
 20
2.251815265883221
 10
-0.3658365508278925
 20
2.240619492297485
 10
-0.3557194151439267
 20
2.229770192554926
 10
-0.3452298074450738
 20
2.2192805848560733
 10
-0.3343805077025147
 20
2.2091634491721073
 10
-0.3231847341167793
 20
2.1994311116744343
 10
-0.31165612701340467
 20
2.190095429717143
 10
-0.2998087322243011
 20
2.1811677773906473
 10
-0.2876569839750673
 20
2.1726590316641072
 10
-0.2752156872991121
 20
2.164579559133519
 10
-0.2625000000000002
 20
2.1569392033916137
 10
-0.24952541418400356
 20
2.149747273034956
 10
-0.236307737385358
 20
2.143012530322854
 10
-0.22286307330721503
 20
2.1367431805018944
 10
-0.20920780220176272
 20
2.1309468618091154
 10
-0.1953585609134091
 20
2.125630636165989
 10
-0.1813322226093527
 20
2.12080098057456
 10
-0.16714587622222452
 20
2.116463779226214
 10
-0.15281680562985878
 20
2.1126243163327016
 10
-0.13836246859754792
 20
2.1092872696881324
 10
-0.12380047550844538
 20
2.1064567049698115
 10
-0.10914856790802796
 20
2.1041360707848327
 10
-0.09442459688875267
 20
2.102328194468484
 10
-0.07964650134125337
 20
2.1010352786395745
 10
-0.06483228609856281
 20
2.100258898516884
 10
-0.050000000000000065
 20
2.1
  0
CIRCLE
  5
36
330
17
100
AcDbEntity
  8
DRILL
100
AcDbCircle
 10
-0.475
 20
2.5
 30
0.0
 40
0.055
  0
CIRCLE
  5
37
330
17
100
AcDbEntity
  8
DRILL
100
AcDbCircle
 10
0.475
 20
2.5
 30
0.0
 40
0.055
  0
CIRCLE
  5
38
330
17
100
AcDbEntity
  8
DRILL
100
AcDbCircle
 10
-0.475
 20
6.5
 30
0.0
 40
0.055
  0
CIRCLE
  5
39
330
17
100
AcDbEntity
  8
DRILL
100
AcDbCircle
 10
0.475
 20
6.5
 30
0.0
 40
0.055
  0
CIRCLE
  5
3A
330
17
100
AcDbEntity
  8
DRILL
100
AcDbCircle
 10
-0.475
 20
10.5
 30
0.0
 40
0.055
  0
CIRCLE
  5
3B
330
17
100
AcDbEntity
  8
DRILL
100
AcDbCircle
 10
0.475
 20
10.5
 30
0.0
 40
0.055
  0
CIRCLE
  5
3C
330
17
100
AcDbEntity
  8
DRILL
100
AcDbCircle
 10
-0.475
 20
14.5
 30
0.0
 40
0.055
  0
CIRCLE
  5
3D
330
17
100
AcDbEntity
  8
DRILL
100
AcDbCircle
 10
0.475
 20
14.5
 30
0.0
 40
0.055
  0
CIRCLE
  5
3E
330
17
100
AcDbEntity
  8
DRILL
100
AcDbCircle
 10
-0.475
 20
18.5
 30
0.0
 40
0.055
  0
CIRCLE
  5
3F
330
17
100
AcDbEntity
  8
DRILL
100
AcDbCircle
 10
0.475
 20
18.5
 30
0.0
 40
0.055
  0
CIRCLE
  5
40
330
17
100
AcDbEntity
  8
DRILL
100
AcDbCircle
 10
-0.475
 20
22.5
 30
0.0
 40
0.055
  0
CIRCLE
  5
41
330
17
100
AcDbEntity
  8
DRILL
100
AcDbCircle
 10
0.475
 20
22.5
 30
0.0
 40
0.055
  0
CIRCLE
  5
42
330
17
100
AcDbEntity
  8
DRILL
100
AcDbCircle
 10
-0.475
 20
26.5
 30
0.0
 40
0.055
  0
CIRCLE
  5
43
330
17
100
AcDbEntity
  8
DRILL
100
AcDbCircle
 10
0.475
 20
26.5
 30
0.0
 40
0.055
  0
ENDSEC
  0
SECTION
  2
OBJECTS
  0
DICTIONARY
  5
A
330
0
100
AcDbDictionary
281
1
  3
ACAD_COLOR
350
B
  3
ACAD_GROUP
350
C
  3
ACAD_LAYOUT
350
D
  3
ACAD_MATERIAL
350
E
  3
ACAD_MLEADERSTYLE
350
F
  3
ACAD_MLINESTYLE
350
10
  3
ACAD_PLOTSETTINGS
350
11
  3
ACAD_PLOTSTYLENAME
350
12
  3
ACAD_SCALELIST
350
14
  3
ACAD_TABLESTYLE
350
15
  3
ACAD_VISUALSTYLE
350
16
  3
EZDXF_META
350
2D
  0
DICTIONARY
  5
B
330
A
100
AcDbDictionary
281
1
  0
DICTIONARY
  5
C
330
A
100
AcDbDictionary
281
1
  0
DICTIONARY
  5
D
330
A
100
AcDbDictionary
281
1
  3
Model
350
1A
  3
Layout1
350
1E
  0
DICTIONARY
  5
E
330
A
100
AcDbDictionary
281
1
  3
ByBlock
350
1F
  3
ByLayer
350
20
  3
Global
350
21
  0
DICTIONARY
  5
F
330
A
100
AcDbDictionary
281
1
  3
Standard
350
2C
  0
DICTIONARY
  5
10
330
A
100
AcDbDictionary
281
1
  3
Standard
350
22
  0
DICTIONARY
  5
11
330
A
100
AcDbDictionary
281
1
  0
ACDBDICTIONARYWDFLT
  5
12
330
A
100
AcDbDictionary
281
1
  3
Normal
350
13
100
AcDbDictionaryWithDefault
340
13
  0
ACDBPLACEHOLDER
  5
13
330
12
  0
DICTIONARY
  5
14
330
A
100
AcDbDictionary
281
1
  0
DICTIONARY
  5
15
330
A
100
AcDbDictionary
281
1
  0
DICTIONARY
  5
16
330
A
100
AcDbDictionary
281
1
  0
LAYOUT
  5
1A
330
D
100
AcDbPlotSettings
  1

  4
A3
  6

 40
7.5
 41
20.0
 42
7.5
 43
20.0
 44
420.0
 45
297.0
 46
0.0
 47
0.0
 48
0.0
 49
0.0
140
0.0
141
0.0
142
1.0
143
1.0
 70
1024
 72
1
 73
0
 74
5
  7

 75
16
 76
0
 77
2
 78
300
147
1.0
148
0.0
149
0.0
100
AcDbLayout
  1
Model
 70
1
 71
0
 10
0.0
 20
0.0
 11
420.0
 21
297.0
 12
0.0
 22
0.0
 32
0.0
 14
1e+20
 24
1e+20
 34
1e+20
 15
-1e+20
 25
-1e+20
 35
-1e+20
146
0.0
 13
0.0
 23
0.0
 33
0.0
 16
1.0
 26
0.0
 36
0.0
 17
0.0
 27
1.0
 37
0.0
 76
1
330
17
  0
LAYOUT
  5
1E
330
D
100
AcDbPlotSettings
  1

  4
A3
  6

 40
7.5
 41
20.0
 42
7.5
 43
20.0
 44
420.0
 45
297.0
 46
0.0
 47
0.0
 48
0.0
 49
0.0
140
0.0
141
0.0
142
1.0
143
1.0
 70
0
 72
1
 73
0
 74
5
  7

 75
16
 76
0
 77
2
 78
300
147
1.0
148
0.0
149
0.0
100
AcDbLayout
  1
Layout1
 70
1
 71
1
 10
0.0
 20
0.0
 11
420.0
 21
297.0
 12
0.0
 22
0.0
 32
0.0
 14
1e+20
 24
1e+20
 34
1e+20
 15
-1e+20
 25
-1e+20
 35
-1e+20
146
0.0
 13
0.0
 23
0.0
 33
0.0
 16
1.0
 26
0.0
 36
0.0
 17
0.0
 27
1.0
 37
0.0
 76
1
330
1B
  0
MATERIAL
  5
1F
102
{ACAD_REACTORS
330
E
102
}
330
E
100
AcDbMaterial
  1
ByBlock
  2

 70
0
 40
1.0
 71
1
 41
1.0
 91
-1023410177
 42
1.0
 72
1
  3

 73
1
 74
1
 75
1
 44
0.5
 73
0
 45
1.0
 46
1.0
 77
1
  4

 78
1
 79
1
170
1
 48
1.0
171
1
  6

172
1
173
1
174
1
140
1.0
141
1.0
175
1
  7

176
1
177
1
178
1
143
1.0
179
1
  8

270
1
271
1
272
1
145
1.0
146
1.0
273
1
  9

274
1
275
1
276
1
 42
1.0
 72
1
  3

 73
1
 74
1
 75
1
 94
63
  0
MATERIAL
  5
20
102
{ACAD_REACTORS
330
E
102
}
330
E
100
AcDbMaterial
  1
ByLayer
  2

 70
0
 40
1.0
 71
1
 41
1.0
 91
-1023410177
 42
1.0
 72
1
  3

 73
1
 74
1
 75
1
 44
0.5
 73
0
 45
1.0
 46
1.0
 77
1
  4

 78
1
 79
1
170
1
 48
1.0
171
1
  6

172
1
173
1
174
1
140
1.0
141
1.0
175
1
  7

176
1
177
1
178
1
143
1.0
179
1
  8

270
1
271
1
272
1
145
1.0
146
1.0
273
1
  9

274
1
275
1
276
1
 42
1.0
 72
1
  3

 73
1
 74
1
 75
1
 94
63
  0
MATERIAL
  5
21
102
{ACAD_REACTORS
330
E
102
}
330
E
100
AcDbMaterial
  1
Global
  2

 70
0
 40
1.0
 71
1
 41
1.0
 91
-1023410177
 42
1.0
 72
1
  3

 73
1
 74
1
 75
1
 44
0.5
 73
0
 45
1.0
 46
1.0
 77
1
  4

 78
1
 79
1
170
1
 48
1.0
171
1
  6

172
1
173
1
174
1
140
1.0
141
1.0
175
1
  7

176
1
177
1
178
1
143
1.0
179
1
  8

270
1
271
1
272
1
145
1.0
146
1.0
273
1
  9

274
1
275
1
276
1
 42
1.0
 72
1
  3

 73
1
 74
1
 75
1
 94
63
  0
MLINESTYLE
  5
22
102
{ACAD_REACTORS
330
10
102
}
330
10
100
AcDbMlineStyle
  2
Standard
 70
0
  3

 62
256
 51
90.0
 52
90.0
 71
2
 49
0.5
 62
256
  6
BYLAYER
 49
-0.5
 62
256
  6
BYLAYER
  0
MLEADERSTYLE
  5
2C
102
{ACAD_REACTORS
330
F
102
}
330
F
100
AcDbMLeaderStyle
179
2
170
2
171
1
172
0
 90
2
 40
0.0
 41
0.0
173
1
 91
-1056964608
 92
-2
290
1
 42
2.0
291
1
 43
8.0
  3
Standard
 44
4.0
300

342
29
174
1
175
1
176
0
178
1
 93
-1056964608
 45
4.0
292
0
297
0
 46
4.0
 94
-1056964608
 47
1.0
 49
1.0
140
1.0
294
1
141
0.0
177
0
142
1.0
295
0
296
0
143
3.75
271
0
272
9
273
9
  0
DICTIONARY
  5
2D
330
A
100
AcDbDictionary
280
1
281
1
  3
CREATED_BY_EZDXF
350
2E
  3
WRITTEN_BY_EZDXF
350
46
  0
DICTIONARYVAR
  5
2E
330
2D
100
DictionaryVariables
280
0
  1
1.4.4 @ 2026-06-24T17:47:16.731994+00:00
  0
DICTIONARYVAR
  5
46
330
2D
100
DictionaryVariables
280
0
  1
1.4.4 @ 2026-06-24T17:47:16.741816+00:00
  0
ENDSEC
  0
EOF
