<svg xmlns="http://www.w3.org/2000/svg" viewBox="0 0 900 560" width="900" height="560">
  <rect width="900" height="560" fill="#fffdf7"/>
  <text x="32" y="44" font-family="Arial" font-size="24" font-weight="700">Segmented Bowl Ring Stack</text>
  <text x="32" y="74" font-family="Arial" font-size="15">Workbook interpretation: 12 segments/ring, 14 rings, 0.75 in ring height, 168 total segments.</text>
  <g transform="translate(110,110)">
    <line x1="0" y1="0" x2="0" y2="360" stroke="#111" stroke-width="2"/>
    <line x1="360" y1="0" x2="360" y2="360" stroke="#111" stroke-width="2"/>
    <path d="M0,0 C120,40 180,130 180,360 C180,130 240,40 360,0" fill="#d4b27b" stroke="#4d3924" stroke-width="4"/>
    <g stroke="#6e5435" stroke-width="1">
      <line x1="16" y1="26" x2="344" y2="26"/>
      <line x1="31" y1="52" x2="329" y2="52"/>
      <line x1="45" y1="78" x2="315" y2="78"/>
      <line x1="59" y1="104" x2="301" y2="104"/>
      <line x1="72" y1="130" x2="288" y2="130"/>
      <line x1="85" y1="156" x2="275" y2="156"/>
      <line x1="97" y1="182" x2="263" y2="182"/>
      <line x1="108" y1="208" x2="252" y2="208"/>
      <line x1="119" y1="234" x2="241" y2="234"/>
      <line x1="129" y1="260" x2="231" y2="260"/>
      <line x1="139" y1="286" x2="221" y2="286"/>
      <line x1="149" y1="312" x2="211" y2="312"/>
      <line x1="159" y1="338" x2="201" y2="338"/>
    </g>
  </g>
  <text x="560" y="145" font-family="Arial" font-size="18" font-weight="700">Shop notes</text>
  <text x="560" y="180" font-family="Arial" font-size="15">Miter angle: 180 / 12 = 15 deg.</text>
  <text x="560" y="208" font-family="Arial" font-size="15">Depth: 9.8 in target from workbook.</text>
  <text x="560" y="236" font-family="Arial" font-size="15">Ring count: ceiling(9.8 / 0.75) = 14.</text>
  <text x="560" y="264" font-family="Arial" font-size="15">Leave turning/sanding allowance.</text>
  <text x="560" y="292" font-family="Arial" font-size="15">Confirm wall thickness before head install.</text>
</svg>
