  0
SECTION
  2
HEADER
  9
$ACADVER
  1
AC1024
  9
$ACADMAINTVER
 70
6
  9
$DWGCODEPAGE
  3
ANSI_1252
  9
$LASTSAVEDBY
  1
ezdxf
  9
$INSBASE
 10
0.0
 20
0.0
 30
0.0
  9
$EXTMIN
 10
1e+20
 20
1e+20
 30
1e+20
  9
$EXTMAX
 10
-1e+20
 20
-1e+20
 30
-1e+20
  9
$LIMMIN
 10
0.0
 20
0.0
  9
$LIMMAX
 10
420.0
 20
297.0
  9
$ORTHOMODE
 70
0
  9
$REGENMODE
 70
1
  9
$FILLMODE
 70
1
  9
$QTEXTMODE
 70
0
  9
$MIRRTEXT
 70
1
  9
$LTSCALE
 40
1.0
  9
$ATTMODE
 70
1
  9
$TEXTSIZE
 40
2.5
  9
$TRACEWID
 40
1.0
  9
$TEXTSTYLE
  7
Standard
  9
$CLAYER
  8
0
  9
$CELTYPE
  6
ByLayer
  9
$CECOLOR
 62
256
  9
$CELTSCALE
 40
1.0
  9
$DISPSILH
 70
0
  9
$DIMSCALE
 40
1.0
  9
$DIMASZ
 40
2.5
  9
$DIMEXO
 40
0.625
  9
$DIMDLI
 40
3.75
  9
$DIMRND
 40
0.0
  9
$DIMDLE
 40
0.0
  9
$DIMEXE
 40
1.25
  9
$DIMTP
 40
0.0
  9
$DIMTM
 40
0.0
  9
$DIMTXT
 40
2.5
  9
$DIMCEN
 40
2.5
  9
$DIMTSZ
 40
0.0
  9
$DIMTOL
 70
0
  9
$DIMLIM
 70
0
  9
$DIMTIH
 70
0
  9
$DIMTOH
 70
0
  9
$DIMSE1
 70
0
  9
$DIMSE2
 70
0
  9
$DIMTAD
 70
1
  9
$DIMZIN
 70
8
  9
$DIMBLK
  1

  9
$DIMASO
 70
1
  9
$DIMSHO
 70
1
  9
$DIMPOST
  1

  9
$DIMAPOST
  1

  9
$DIMALT
 70
0
  9
$DIMALTD
 70
3
  9
$DIMALTF
 40
0.03937007874
  9
$DIMLFAC
 40
1.0
  9
$DIMTOFL
 70
1
  9
$DIMTVP
 40
0.0
  9
$DIMTIX
 70
0
  9
$DIMSOXD
 70
0
  9
$DIMSAH
 70
0
  9
$DIMBLK1
  1

  9
$DIMBLK2
  1

  9
$DIMSTYLE
  2
ISO-25
  9
$DIMCLRD
 70
0
  9
$DIMCLRE
 70
0
  9
$DIMCLRT
 70
0
  9
$DIMTFAC
 40
1.0
  9
$DIMGAP
 40
0.625
  9
$DIMJUST
 70
0
  9
$DIMSD1
 70
0
  9
$DIMSD2
 70
0
  9
$DIMTOLJ
 70
0
  9
$DIMTZIN
 70
8
  9
$DIMALTZ
 70
0
  9
$DIMALTTZ
 70
0
  9
$DIMUPT
 70
0
  9
$DIMDEC
 70
2
  9
$DIMTDEC
 70
2
  9
$DIMALTU
 70
2
  9
$DIMALTTD
 70
3
  9
$DIMTXSTY
  7
Standard
  9
$DIMAUNIT
 70
0
  9
$DIMADEC
 70
0
  9
$DIMALTRND
 40
0.0
  9
$DIMAZIN
 70
0
  9
$DIMDSEP
 70
44
  9
$DIMATFIT
 70
3
  9
$DIMFRAC
 70
0
  9
$DIMLDRBLK
  1

  9
$DIMLUNIT
 70
2
  9
$DIMLWD
 70
-2
  9
$DIMLWE
 70
-2
  9
$DIMTMOVE
 70
0
  9
$DIMFXL
 40
1.0
  9
$DIMFXLON
 70
0
  9
$DIMJOGANG
 40
0.785398163397
  9
$DIMTFILL
 70
0
  9
$DIMTFILLCLR
 70
0
  9
$DIMARCSYM
 70
0
  9
$DIMLTYPE
  6

  9
$DIMLTEX1
  6

  9
$DIMLTEX2
  6

  9
$DIMTXTDIRECTION
 70
0
  9
$LUNITS
 70
2
  9
$LUPREC
 70
4
  9
$SKETCHINC
 40
1.0
  9
$FILLETRAD
 40
10.0
  9
$AUNITS
 70
0
  9
$AUPREC
 70
2
  9
$MENU
  1
.
  9
$ELEVATION
 40
0.0
  9
$PELEVATION
 40
0.0
  9
$THICKNESS
 40
0.0
  9
$LIMCHECK
 70
0
  9
$CHAMFERA
 40
0.0
  9
$CHAMFERB
 40
0.0
  9
$CHAMFERC
 40
0.0
  9
$CHAMFERD
 40
0.0
  9
$SKPOLY
 70
0
  9
$TDCREATE
 40
2461216.6801157407
  9
$TDUCREATE
 40
2458532.153996898
  9
$TDUPDATE
 40
2461216.6801157407
  9
$TDUUPDATE
 40
2458532.1544311
  9
$TDINDWG
 40
0.0
  9
$TDUSRTIMER
 40
0.0
  9
$USRTIMER
 70
1
  9
$ANGBASE
 50
0.0
  9
$ANGDIR
 70
0
  9
$PDMODE
 70
0
  9
$PDSIZE
 40
0.0
  9
$PLINEWID
 40
0.0
  9
$SPLFRAME
 70
0
  9
$SPLINETYPE
 70
6
  9
$SPLINESEGS
 70
8
  9
$HANDSEED
  5
69
  9
$SURFTAB1
 70
6
  9
$SURFTAB2
 70
6
  9
$SURFTYPE
 70
6
  9
$SURFU
 70
6
  9
$SURFV
 70
6
  9
$UCSBASE
  2

  9
$UCSNAME
  2

  9
$UCSORG
 10
0.0
 20
0.0
 30
0.0
  9
$UCSXDIR
 10
1.0
 20
0.0
 30
0.0
  9
$UCSYDIR
 10
0.0
 20
1.0
 30
0.0
  9
$UCSORTHOREF
  2

  9
$UCSORTHOVIEW
 70
0
  9
$UCSORGTOP
 10
0.0
 20
0.0
 30
0.0
  9
$UCSORGBOTTOM
 10
0.0
 20
0.0
 30
0.0
  9
$UCSORGLEFT
 10
0.0
 20
0.0
 30
0.0
  9
$UCSORGRIGHT
 10
0.0
 20
0.0
 30
0.0
  9
$UCSORGFRONT
 10
0.0
 20
0.0
 30
0.0
  9
$UCSORGBACK
 10
0.0
 20
0.0
 30
0.0
  9
$PUCSBASE
  2

  9
$PUCSNAME
  2

  9
$PUCSORG
 10
0.0
 20
0.0
 30
0.0
  9
$PUCSXDIR
 10
1.0
 20
0.0
 30
0.0
  9
$PUCSYDIR
 10
0.0
 20
1.0
 30
0.0
  9
$PUCSORTHOREF
  2

  9
$PUCSORTHOVIEW
 70
0
  9
$PUCSORGTOP
 10
0.0
 20
0.0
 30
0.0
  9
$PUCSORGBOTTOM
 10
0.0
 20
0.0
 30
0.0
  9
$PUCSORGLEFT
 10
0.0
 20
0.0
 30
0.0
  9
$PUCSORGRIGHT
 10
0.0
 20
0.0
 30
0.0
  9
$PUCSORGFRONT
 10
0.0
 20
0.0
 30
0.0
  9
$PUCSORGBACK
 10
0.0
 20
0.0
 30
0.0
  9
$USERI1
 70
0
  9
$USERI2
 70
0
  9
$USERI3
 70
0
  9
$USERI4
 70
0
  9
$USERI5
 70
0
  9
$USERR1
 40
0.0
  9
$USERR2
 40
0.0
  9
$USERR3
 40
0.0
  9
$USERR4
 40
0.0
  9
$USERR5
 40
0.0
  9
$WORLDVIEW
 70
1
  9
$SHADEDGE
 70
3
  9
$SHADEDIF
 70
70
  9
$TILEMODE
 70
1
  9
$MAXACTVP
 70
64
  9
$PINSBASE
 10
0.0
 20
0.0
 30
0.0
  9
$PLIMCHECK
 70
0
  9
$PEXTMIN
 10
1e+20
 20
1e+20
 30
1e+20
  9
$PEXTMAX
 10
-1e+20
 20
-1e+20
 30
-1e+20
  9
$PLIMMIN
 10
0.0
 20
0.0
  9
$PLIMMAX
 10
420.0
 20
297.0
  9
$UNITMODE
 70
0
  9
$VISRETAIN
 70
1
  9
$PLINEGEN
 70
0
  9
$PSLTSCALE
 70
1
  9
$TREEDEPTH
 70
3020
  9
$CMLSTYLE
  2
Standard
  9
$CMLJUST
 70
0
  9
$CMLSCALE
 40
20.0
  9
$PROXYGRAPHICS
 70
1
  9
$MEASUREMENT
 70
1
  9
$CELWEIGHT
370
-1
  9
$ENDCAPS
280
0
  9
$JOINSTYLE
280
0
  9
$LWDISPLAY
290
0
  9
$INSUNITS
 70
4
  9
$HYPERLINKBASE
  1

  9
$STYLESHEET
  1

  9
$XEDIT
290
1
  9
$CEPSNTYPE
380
0
  9
$PSTYLEMODE
290
1
  9
$FINGERPRINTGUID
  2
{41367432-5E10-4229-B086-1DA4B48D5D11}
  9
$VERSIONGUID
  2
{1C469726-FE03-4CB0-BDDC-43865009BF8C}
  9
$EXTNAMES
290
1
  9
$PSVPSCALE
 40
0.0
  9
$OLESTARTUP
290
0
  9
$SORTENTS
280
127
  9
$INDEXCTL
280
0
  9
$HIDETEXT
280
1
  9
$XCLIPFRAME
280
1
  9
$HALOGAP
280
0
  9
$OBSCOLOR
 70
257
  9
$OBSLTYPE
280
0
  9
$INTERSECTIONDISPLAY
280
0
  9
$INTERSECTIONCOLOR
 70
257
  9
$DIMASSOC
280
2
  9
$PROJECTNAME
  1

  9
$CAMERADISPLAY
290
0
  9
$LENSLENGTH
 40
50.0
  9
$CAMERAHEIGHT
 40
0.0
  9
$STEPSPERSEC
 40
24.0
  9
$STEPSIZE
 40
100.0
  9
$3DDWFPREC
 40
2.0
  9
$PSOLWIDTH
 40
0.005
  9
$PSOLHEIGHT
 40
0.08
  9
$LOFTANG1
 40
1.570796326795
  9
$LOFTANG2
 40
1.570796326795
  9
$LOFTMAG1
 40
0.0
  9
$LOFTMAG2
 40
0.0
  9
$LOFTPARAM
 70
7
  9
$LOFTNORMALS
280
1
  9
$LATITUDE
 40
37.795
  9
$LONGITUDE
 40
-122.394
  9
$NORTHDIRECTION
 40
0.0
  9
$TIMEZONE
 70
-8000
  9
$LIGHTGLYPHDISPLAY
280
1
  9
$TILEMODELIGHTSYNCH
280
1
  9
$CMATERIAL
347
20
  9
$SOLIDHIST
280
0
  9
$SHOWHIST
280
1
  9
$DWFFRAME
280
2
  9
$DGNFRAME
280
2
  9
$REALWORLDSCALE
290
1
  9
$INTERFERECOLOR
 62
256
  9
$CSHADOW
280
0
  9
$SHADOWPLANELOCATION
 40
0.0
  0
ENDSEC
  0
SECTION
  2
CLASSES
  0
CLASS
  1
ACDBDICTIONARYWDFLT
  2
AcDbDictionaryWithDefault
  3
ObjectDBX Classes
 90
0
 91
0
280
0
281
0
  0
CLASS
  1
SUN
  2
AcDbSun
  3
SCENEOE
 90
1153
 91
0
280
0
281
0
  0
CLASS
  1
VISUALSTYLE
  2
AcDbVisualStyle
  3
ObjectDBX Classes
 90
4095
 91
0
280
0
281
0
  0
CLASS
  1
MATERIAL
  2
AcDbMaterial
  3
ObjectDBX Classes
 90
1153
 91
0
280
0
281
0
  0
CLASS
  1
SCALE
  2
AcDbScale
  3
ObjectDBX Classes
 90
1153
 91
0
280
0
281
0
  0
CLASS
  1
TABLESTYLE
  2
AcDbTableStyle
  3
ObjectDBX Classes
 90
4095
 91
0
280
0
281
0
  0
CLASS
  1
MLEADERSTYLE
  2
AcDbMLeaderStyle
  3
ACDB_MLEADERSTYLE_CLASS
 90
4095
 91
0
280
0
281
0
  0
CLASS
  1
DICTIONARYVAR
  2
AcDbDictionaryVar
  3
ObjectDBX Classes
 90
0
 91
0
280
0
281
0
  0
CLASS
  1
CELLSTYLEMAP
  2
AcDbCellStyleMap
  3
ObjectDBX Classes
 90
1152
 91
0
280
0
281
0
  0
CLASS
  1
MENTALRAYRENDERSETTINGS
  2
AcDbMentalRayRenderSettings
  3
SCENEOE
 90
1024
 91
0
280
0
281
0
  0
CLASS
  1
ACDBDETAILVIEWSTYLE
  2
AcDbDetailViewStyle
  3
ObjectDBX Classes
 90
1025
 91
0
280
0
281
0
  0
CLASS
  1
ACDBSECTIONVIEWSTYLE
  2
AcDbSectionViewStyle
  3
ObjectDBX Classes
 90
1025
 91
0
280
0
281
0
  0
CLASS
  1
RASTERVARIABLES
  2
AcDbRasterVariables
  3
ISM
 90
0
 91
0
280
0
281
0
  0
CLASS
  1
ACDBPLACEHOLDER
  2
AcDbPlaceHolder
  3
ObjectDBX Classes
 90
0
 91
0
280
0
281
0
  0
CLASS
  1
LAYOUT
  2
AcDbLayout
  3
ObjectDBX Classes
 90
0
 91
0
280
0
281
0
  0
ENDSEC
  0
SECTION
  2
TABLES
  0
TABLE
  2
VPORT
  5
8
330
0
100
AcDbSymbolTable
 70
1
  0
VPORT
  5
23
330
8
100
AcDbSymbolTableRecord
100
AcDbViewportTableRecord
  2
*Active
 70
0
 10
0.0
 20
0.0
 11
1.0
 21
1.0
 12
0.0
 22
0.0
 13
0.0
 23
0.0
 14
0.5
 24
0.5
 15
0.5
 25
0.5
 16
0.0
 26
0.0
 36
1.0
 17
0.0
 27
0.0
 37
0.0
 40
1000.0
 41
1.34
 42
50.0
 43
0.0
 44
0.0
 50
0.0
 51
0.0
 71
0
 72
1000
 73
1
 74
3
 75
0
 76
0
 77
0
 78
0
281
0
 65
0
146
0.0
  0
ENDTAB
  0
TABLE
  2
LTYPE
  5
2
330
0
100
AcDbSymbolTable
 70
3
  0
LTYPE
  5
24
330
2
100
AcDbSymbolTableRecord
100
AcDbLinetypeTableRecord
  2
ByBlock
 70
0
  3

 72
65
 73
0
 40
0.0
  0
LTYPE
  5
25
330
2
100
AcDbSymbolTableRecord
100
AcDbLinetypeTableRecord
  2
ByLayer
 70
0
  3

 72
65
 73
0
 40
0.0
  0
LTYPE
  5
26
330
2
100
AcDbSymbolTableRecord
100
AcDbLinetypeTableRecord
  2
Continuous
 70
0
  3

 72
65
 73
0
 40
0.0
  0
ENDTAB
  0
TABLE
  2
LAYER
  5
1
330
0
100
AcDbSymbolTable
 70
5
  0
LAYER
  5
27
330
1
100
AcDbSymbolTableRecord
100
AcDbLayerTableRecord
  2
0
 70
0
 62
7
  6
Continuous
370
-3
390
13
347
21
  0
LAYER
  5
28
330
1
100
AcDbSymbolTableRecord
100
AcDbLayerTableRecord
  2
Defpoints
 70
0
 62
7
  6
Continuous
290
0
370
-3
390
13
347
21
  0
LAYER
  5
2F
330
1
100
AcDbSymbolTableRecord
100
AcDbLayerTableRecord
  2
CUT
 70
0
 62
7
  6
Continuous
370
-3
390
13
347
21
  0
LAYER
  5
30
330
1
100
AcDbSymbolTableRecord
100
AcDbLayerTableRecord
  2
DOGBONE
 70
0
 62
1
  6
Continuous
370
-3
390
13
347
21
  0
LAYER
  5
31
330
1
100
AcDbSymbolTableRecord
100
AcDbLayerTableRecord
  2
GUIDE
 70
0
 62
3
  6
Continuous
370
-3
390
13
347
21
  0
ENDTAB
  0
TABLE
  2
STYLE
  5
5
330
0
100
AcDbSymbolTable
 70
1
  0
STYLE
  5
29
330
5
100
AcDbSymbolTableRecord
100
AcDbTextStyleTableRecord
  2
Standard
 70
0
 40
0.0
 41
1.0
 50
0.0
 71
0
 42
2.5
  3
txt
  4

  0
ENDTAB
  0
TABLE
  2
VIEW
  5
7
330
0
100
AcDbSymbolTable
 70
0
  0
ENDTAB
  0
TABLE
  2
UCS
  5
6
330
0
100
AcDbSymbolTable
 70
0
  0
ENDTAB
  0
TABLE
  2
APPID
  5
3
330
0
100
AcDbSymbolTable
 70
3
  0
APPID
  5
2A
330
3
100
AcDbSymbolTableRecord
100
AcDbRegAppTableRecord
  2
ACAD
 70
0
  0
APPID
  5
66
330
3
100
AcDbSymbolTableRecord
100
AcDbRegAppTableRecord
  2
HATCHBACKGROUNDCOLOR
 70
0
  0
APPID
  5
67
330
3
100
AcDbSymbolTableRecord
100
AcDbRegAppTableRecord
  2
EZDXF
 70
0
  0
ENDTAB
  0
TABLE
  2
DIMSTYLE
  5
4
330
0
100
AcDbSymbolTable
 70
1
100
AcDbDimStyleTable
  0
DIMSTYLE
105
2B
330
4
100
AcDbSymbolTableRecord
100
AcDbDimStyleTableRecord
  2
Standard
 70
0
 40
1.0
 41
2.5
 42
0.625
 43
3.75
 44
1.25
 45
0.0
 46
0.0
 47
0.0
 48
0.0
 49
2.5
140
2.5
141
2.5
142
0.0
143
0.03937007874
144
1.0
145
0.0
146
1.0
147
0.625
148
0.0
 69
0
 70
0
 71
0
 72
0
 73
0
 74
0
 75
0
 76
0
 77
1
 78
8
 79
3
170
0
171
3
172
1
173
0
174
0
175
0
176
0
177
0
178
0
179
2
271
2
272
2
273
2
274
3
275
0
276
0
277
2
278
44
279
0
280
0
281
0
282
0
283
0
284
8
285
0
286
0
288
0
289
3
290
0
371
-2
372
-2
  0
ENDTAB
  0
TABLE
  2
BLOCK_RECORD
  5
9
330
0
100
AcDbSymbolTable
 70
2
  0
BLOCK_RECORD
  5
17
330
9
100
AcDbSymbolTableRecord
100
AcDbBlockTableRecord
  2
*Model_Space
340
1A
 70
0
280
1
281
0
  0
BLOCK_RECORD
  5
1B
330
9
100
AcDbSymbolTableRecord
100
AcDbBlockTableRecord
  2
*Paper_Space
340
1E
 70
0
280
1
281
0
  0
ENDTAB
  0
ENDSEC
  0
SECTION
  2
BLOCKS
  0
BLOCK
  5
18
330
17
100
AcDbEntity
  8
0
100
AcDbBlockBegin
  2
*Model_Space
 70
0
 10
0.0
 20
0.0
 30
0.0
  3
*Model_Space
  1

  0
ENDBLK
  5
19
330
17
100
AcDbEntity
  8
0
100
AcDbBlockEnd
  0
BLOCK
  5
1C
330
1B
100
AcDbEntity
  8
0
100
AcDbBlockBegin
  2
*Paper_Space
 70
0
 10
0.0
 20
0.0
 30
0.0
  3
*Paper_Space
  1

  0
ENDBLK
  5
1D
330
1B
100
AcDbEntity
  8
0
100
AcDbBlockEnd
  0
ENDSEC
  0
SECTION
  2
ENTITIES
  0
LWPOLYLINE
  5
32
330
17
100
AcDbEntity
  8
CUT
100
AcDbPolyline
 90
364
 70
1
 10
480.0
 20
380.0
 10
479.99543085469173
 20
380.5235721931185
 10
479.98172481057287
 20
381.046984901075
 10
479.95888604263723
 20
381.5700786872883
 10
479.92692150779476
 20
382.09269421232375
 10
479.88584094275234
 20
382.61467228242975
 10
479.83565686104816
 20
383.1358538980296
 10
479.77638454923965
 20
383.65608030215446
 10
479.7080420622471
 20
384.17519302880197
 10
479.63065021785417
 20
384.6930339512069
 10
479.5442325903663
 20
385.2094453300079
 10
479.44881550342996
 20
385.7242698612963
 10
479.3444280220142
 20
386.2373507245328
 10
479.23110194355706
 20
386.74853163031594
 10
479.1088717882799
 20
387.25765686799
 10
478.97777478867204
 20
387.7645713530756
 10
478.83785087814954
 20
388.26912067450996
 10
478.6891426788911
 20
388.77115114168214
 10
478.5316954888546
 20
389.27050983124843
 10
478.3655572679795
 20
389.7670446337147
 10
478.1907786235772
 20
390.2606042997701
 10
478.00741279491604
 20
390.751038486359
 10
477.8155156370036
 20
391.2381978024774
 10
477.6151456035732
 20
391.72193385467824
 10
477.40636372927804
 20
392.202099292274
 10
477.1892336110995
 20
392.67854785222096
 10
476.963821388975
 20
393.15113440367236
 10
476.730195725651
 20
393.6197149921864
 10
476.48842778576784
 20
394.08414688357675
 10
476.23859121418184
 20
394.5442886073901
 10
475.98076211353316
 20
395.0
 10
475.71501902106337
 20
395.4511422473016
 10
475.4414428846928
 20
395.8975779269962
 10
475.1601170383627
 20
396.3391710504508
 10
474.87112717665127
 20
396.7757871041224
 10
474.57456132866974
 20
397.2072930905314
 10
474.27050983124843
 20
397.6335575687742
 10
473.9590653014188
 20
398.0544506945614
 10
473.64032260820164
 20
398.46984425976973
 10
473.31437884370916
 20
398.8796117314951
 10
472.9813332935694
 20
399.2836282905962
 10
472.64128740668315
 20
399.68177086971525
 10
472.29434476432186
 20
400.07391819076577
 10
471.9406110485751
 20
400.4599508018749
 10
471.5801940101595
 20
400.8397511137699
 10
471.2132034355964
 20
401.2132034355964
 10
470.8397511137699
 20
401.5801940101595
 10
470.4599508018749
 20
401.9406110485751
 10
470.07391819076577
 20
402.29434476432186
 10
469.68177086971525
 20
402.64128740668315
 10
469.2836282905962
 20
402.9813332935694
 10
468.8796117314951
 20
403.31437884370916
 10
468.46984425976973
 20
403.6403226082017
 10
468.05445069456147
 20
403.9590653014188
 10
467.6335575687742
 20
404.27050983124843
 10
467.2072930905314
 20
404.57456132866974
 10
466.7757871041224
 20
404.87112717665127
 10
466.3391710504508
 20
405.1601170383627
 10
465.8975779269962
 20
405.4414428846928
 10
465.4511422473016
 20
405.71501902106337
 10
465.0
 20
405.98076211353316
 10
464.5442886073901
 20
406.23859121418184
 10
464.08414688357675
 20
406.48842778576784
 10
463.6197149921864
 20
406.730195725651
 10
463.15113440367236
 20
406.963821388975
 10
462.67854785222096
 20
407.1892336110995
 10
462.202099292274
 20
407.40636372927804
 10
461.72193385467824
 20
407.6151456035732
 10
461.2381978024774
 20
407.8155156370036
 10
460.751038486359
 20
408.00741279491604
 10
460.2606042997701
 20
408.1907786235772
 10
459.7670446337147
 20
408.3655572679795
 10
459.27050983124843
 20
408.5316954888546
 10
458.77115114168214
 20
408.6891426788911
 10
458.26912067450996
 20
408.83785087814954
 10
457.7645713530756
 20
408.97777478867204
 10
457.25765686799
 20
409.1088717882799
 10
456.74853163031594
 20
409.23110194355706
 10
456.2373507245328
 20
409.3444280220142
 10
455.7242698612963
 20
409.44881550342996
 10
455.20944533000795
 20
409.5442325903663
 10
454.6930339512069
 20
409.63065021785417
 10
454.17519302880197
 20
409.7080420622471
 10
453.65608030215446
 20
409.77638454923965
 10
453.1358538980296
 20
409.83565686104816
 10
452.61467228242975
 20
409.88584094275234
 10
452.09269421232375
 20
409.92692150779476
 10
451.5700786872883
 20
409.95888604263723
 10
451.046984901075
 20
409.98172481057287
 10
450.5235721931185
 20
409.99543085469173
 10
450.0
 20
410.0
 10
30.0
 20
410.0
 10
29.476427806881503
 20
409.99543085469173
 10
28.953015098924965
 20
409.98172481057287
 10
28.429921312711684
 20
409.95888604263723
 10
27.90730578767625
 20
409.92692150779476
 10
27.38532771757025
 20
409.88584094275234
 10
26.86414610197039
 20
409.83565686104816
 10
26.343919697845593
 20
409.77638454923965
 10
25.82480697119803
 20
409.7080420622471
 10
25.306966048793072
 20
409.63065021785417
 10
24.790554669992105
 20
409.5442325903663
 10
24.275730138703665
 20
409.44881550342996
 10
23.762649275467226
 20
409.3444280220142
 10
23.251468369684062
 20
409.23110194355706
 10
22.742343132009978
 20
409.1088717882799
 10
22.235428646924362
 20
408.97777478867204
 10
21.730879325490037
 20
408.83785087814954
 10
21.22884885831789
 20
408.6891426788911
 10
20.729490168751568
 20
408.5316954888546
 10
20.232955366285296
 20
408.3655572679795
 10
19.73939570022995
 20
408.1907786235772
 10
19.248961513641007
 20
408.00741279491604
 10
18.761802197522627
 20
407.8155156370036
 10
18.278066145321787
 20
407.6151456035732
 10
17.797900707726
 20
407.40636372927804
 10
17.321452147779013
 20
407.1892336110995
 10
16.84886559632767
 20
406.963821388975
 10
16.380285007813598
 20
406.730195725651
 10
15.915853116423278
 20
406.48842778576784
 10
15.455711392609885
 20
406.23859121418184
 10
15.0
 20
405.98076211353316
 10
14.548857752698382
 20
405.71501902106337
 10
14.10242207300385
 20
405.4414428846928
 10
13.660828949549199
 20
405.1601170383627
 10
13.2242128958776
 20
404.87112717665127
 10
12.79270690946862
 20
404.57456132866974
 10
12.366442431225806
 20
404.27050983124843
 10
11.945549305438533
 20
403.9590653014188
 10
11.530155740230242
 20
403.6403226082017
 10
11.120388268504882
 20
403.31437884370916
 10
10.71637170940383
 20
402.9813332935694
 10
10.318229130284777
 20
402.64128740668315
 10
9.926081809234262
 20
402.29434476432186
 10
9.540049198125047
 20
401.9406110485751
 10
9.160248886230079
 20
401.5801940101595
 10
8.786796564403573
 20
401.2132034355964
 10
8.419805989840455
 20
400.8397511137699
 10
8.059388951424893
 20
400.4599508018749
 10
7.7056552356781935
 20
400.07391819076577
 10
7.358712593316852
 20
399.68177086971525
 10
7.018666706430679
 20
399.2836282905962
 10
6.685621156290864
 20
398.8796117314951
 10
6.359677391798357
 20
398.46984425976973
 10
6.040934698581225
 20
398.0544506945614
 10
5.729490168751568
 20
397.6335575687742
 10
5.425438671330255
 20
397.2072930905314
 10
5.1288728233487575
 20
396.7757871041224
 10
4.839882961637272
 20
396.33917105045083
 10
4.558557115307224
 20
395.8975779269962
 10
4.28498097893663
 20
395.4511422473016
 10
4.01923788646684
 20
395.0
 10
3.7614087858181335
 20
394.5442886073901
 10
3.5115722142321886
 20
394.08414688357675
 10
3.2698042743489566
 20
393.6197149921864
 10
3.0361786110249795
 20
393.15113440367236
 10
2.810766388900504
 20
392.67854785222096
 10
2.593636270721987
 20
392.202099292274
 10
2.384854396426789
 20
391.72193385467824
 10
2.184484362996386
 20
391.2381978024774
 10
1.992587205083936
 20
390.751038486359
 10
1.8092213764227552
 20
390.2606042997701
 10
1.6344427320204886
 20
389.7670446337147
 10
1.4683045111453907
 20
389.27050983124843
 10
1.3108573211089265
 20
388.77115114168214
 10
1.1621491218504332
 20
388.26912067450996
 10
1.0222252113279637
 20
387.76457135307567
 10
0.8911282117201154
 20
387.25765686799
 10
0.7688980564429357
 20
386.74853163031594
 10
0.6555719779858293
 20
386.2373507245328
 10
0.5511844965700732
 20
385.72426986129636
 10
0.45576740963375073
 20
385.2094453300079
 10
0.3693497821458607
 20
384.6930339512069
 10
0.2919579377528976
 20
384.17519302880197
 10
0.22361545076034872
 20
383.65608030215446
 10
0.16434313895180708
 20
383.1358538980296
 10
0.1141590572476332
 20
382.61467228242975
 10
0.07307849220526919
 20
382.09269421232375
 10
0.04111395736279633
 20
381.5700786872883
 10
0.018275189427129135
 20
381.046984901075
 10
0.004569145308266798
 20
380.5235721931185
 10
0.0
 20
380.0
 10
0.0
 20
40.0
 10
0.004569145308266798
 20
39.4764278068815
 10
0.018275189427129135
 20
38.953015098924965
 10
0.04111395736279633
 20
38.429921312711684
 10
0.07307849220526919
 20
37.90730578767625
 10
0.1141590572476332
 20
37.38532771757025
 10
0.16434313895180708
 20
36.86414610197039
 10
0.22361545076034872
 20
36.34391969784559
 10
0.2919579377528976
 20
35.82480697119803
 10
0.3693497821458607
 20
35.30696604879307
 10
0.45576740963375073
 20
34.790554669992076
 10
0.5511844965700732
 20
34.275730138703665
 10
0.6555719779858293
 20
33.762649275467226
 10
0.7688980564429357
 20
33.25146836968406
 10
0.8911282117201154
 20
32.74234313200998
 10
1.0222252113279637
 20
32.23542864692439
 10
1.1621491218504332
 20
31.730879325490037
 10
1.3108573211089265
 20
31.22884885831789
 10
1.4683045111453907
 20
30.729490168751568
 10
1.6344427320204886
 20
30.232955366285296
 10
1.8092213764227552
 20
29.73939570022995
 10
1.992587205083936
 20
29.248961513640978
 10
2.184484362996386
 20
28.761802197522627
 10
2.384854396426789
 20
28.278066145321787
 10
2.5936362707219587
 20
27.797900707726
 10
2.810766388900504
 20
27.321452147779013
 10
3.0361786110249795
 20
26.84886559632767
 10
3.2698042743489566
 20
26.380285007813598
 10
3.5115722142321886
 20
25.91585311642328
 10
3.7614087858181335
 20
25.455711392609885
 10
4.01923788646684
 20
25.0
 10
4.28498097893663
 20
24.54885775269838
 10
4.558557115307224
 20
24.10242207300385
 10
4.839882961637272
 20
23.6608289495492
 10
5.128872823348729
 20
23.2242128958776
 10
5.425438671330255
 20
22.79270690946862
 10
5.729490168751568
 20
22.366442431225806
 10
6.040934698581225
 20
21.945549305438533
 10
6.3596773917983285
 20
21.53015574023027
 10
6.685621156290864
 20
21.120388268504882
 10
7.0186667064306505
 20
20.71637170940383
 10
7.358712593316852
 20
20.318229130284777
 10
7.705655235678165
 20
19.92608180923426
 10
8.059388951424893
 20
19.540049198125047
 10
8.419805989840484
 20
19.16024888623008
 10
8.786796564403573
 20
18.786796564403573
 10
9.160248886230079
 20
18.419805989840455
 10
9.540049198125047
 20
18.059388951424893
 10
9.926081809234262
 20
17.705655235678165
 10
10.318229130284777
 20
17.358712593316852
 10
10.716371709403802
 20
17.01866670643068
 10
11.120388268504854
 20
16.685621156290892
 10
11.53015574023027
 20
16.35967739179833
 10
11.945549305438561
 20
16.040934698581225
 10
12.366442431225806
 20
15.729490168751568
 10
12.79270690946862
 20
15.425438671330255
 10
13.2242128958776
 20
15.128872823348729
 10
13.660828949549199
 20
14.839882961637272
 10
14.10242207300385
 20
14.558557115307224
 10
14.548857752698353
 20
14.28498097893663
 10
15.0
 20
14.01923788646684
 10
15.455711392609885
 20
13.761408785818105
 10
15.915853116423278
 20
13.511572214232189
 10
16.380285007813598
 20
13.269804274348957
 10
16.84886559632767
 20
13.03617861102498
 10
17.321452147779013
 20
12.810766388900504
 10
17.797900707726
 20
12.593636270721959
 10
18.278066145321787
 20
12.384854396426789
 10
18.761802197522627
 20
12.184484362996386
 10
19.248961513640978
 20
11.992587205083964
 10
19.73939570022995
 20
11.809221376422755
 10
20.232955366285296
 20
11.634442732020489
 10
20.729490168751568
 20
11.46830451114539
 10
21.22884885831789
 20
11.310857321108926
 10
21.730879325490037
 20
11.162149121850433
 10
22.23542864692439
 20
11.022225211327964
 10
22.742343132009978
 20
10.891128211720115
 10
23.251468369684034
 20
10.768898056442936
 10
23.762649275467197
 20
10.65557197798583
 10
24.275730138703665
 20
10.551184496570073
 10
24.790554669992105
 20
10.45576740963375
 10
25.306966048793072
 20
10.36934978214586
 10
25.82480697119803
 20
10.291957937752898
 10
26.343919697845593
 20
10.223615450760349
 10
26.86414610197039
 20
10.164343138951807
 10
27.38532771757025
 20
10.114159057247633
 10
27.907305787676222
 20
10.07307849220527
 10
28.429921312711684
 20
10.041113957362796
 10
28.953015098924965
 20
10.01827518942713
 10
29.476427806881503
 20
10.004569145308267
 10
30.0
 20
10.0
 10
450.0
 20
10.0
 10
450.5235721931185
 20
10.004569145308267
 10
451.046984901075
 20
10.01827518942713
 10
451.5700786872883
 20
10.041113957362796
 10
452.09269421232375
 20
10.07307849220527
 10
452.61467228242975
 20
10.114159057247633
 10
453.1358538980296
 20
10.164343138951807
 10
453.65608030215446
 20
10.223615450760349
 10
454.17519302880197
 20
10.291957937752898
 10
454.6930339512069
 20
10.36934978214586
 10
455.2094453300079
 20
10.45576740963375
 10
455.72426986129636
 20
10.551184496570073
 10
456.2373507245328
 20
10.65557197798583
 10
456.74853163031594
 20
10.768898056442936
 10
457.25765686799
 20
10.891128211720115
 10
457.7645713530756
 20
11.022225211327935
 10
458.26912067450996
 20
11.162149121850433
 10
458.77115114168214
 20
11.310857321108926
 10
459.27050983124843
 20
11.46830451114539
 10
459.7670446337147
 20
11.634442732020489
 10
460.2606042997701
 20
11.809221376422755
 10
460.751038486359
 20
11.992587205083936
 10
461.2381978024774
 20
12.184484362996386
 10
461.72193385467824
 20
12.384854396426789
 10
462.202099292274
 20
12.593636270721959
 10
462.67854785222096
 20
12.810766388900504
 10
463.15113440367236
 20
13.03617861102498
 10
463.6197149921864
 20
13.269804274348957
 10
464.08414688357675
 20
13.511572214232189
 10
464.5442886073901
 20
13.761408785818134
 10
465.0
 20
14.01923788646684
 10
465.4511422473016
 20
14.28498097893663
 10
465.8975779269962
 20
14.558557115307224
 10
466.3391710504508
 20
14.839882961637272
 10
466.7757871041224
 20
15.128872823348757
 10
467.2072930905314
 20
15.425438671330255
 10
467.6335575687742
 20
15.729490168751568
 10
468.0544506945614
 20
16.040934698581196
 10
468.46984425976973
 20
16.359677391798357
 10
468.8796117314951
 20
16.685621156290864
 10
469.2836282905962
 20
17.01866670643065
 10
469.68177086971525
 20
17.358712593316824
 10
470.07391819076577
 20
17.705655235678165
 10
470.4599508018749
 20
18.059388951424893
 10
470.8397511137699
 20
18.419805989840455
 10
471.2132034355964
 20
18.786796564403573
 10
471.5801940101595
 20
19.16024888623008
 10
471.94061104857514
 20
19.540049198125047
 10
472.29434476432186
 20
19.92608180923426
 10
472.64128740668315
 20
20.318229130284777
 10
472.9813332935693
 20
20.716371709403802
 10
473.3143788437091
 20
21.120388268504854
 10
473.6403226082017
 20
21.53015574023027
 10
473.9590653014188
 20
21.94554930543856
 10
474.27050983124843
 20
22.366442431225806
 10
474.57456132866974
 20
22.79270690946862
 10
474.87112717665127
 20
23.2242128958776
 10
475.1601170383627
 20
23.6608289495492
 10
475.4414428846928
 20
24.10242207300385
 10
475.71501902106337
 20
24.548857752698353
 10
475.98076211353316
 20
25.0
 10
476.23859121418184
 20
25.455711392609885
 10
476.48842778576784
 20
25.91585311642328
 10
476.730195725651
 20
26.380285007813598
 10
476.963821388975
 20
26.84886559632767
 10
477.1892336110995
 20
27.321452147779013
 10
477.40636372927804
 20
27.797900707726
 10
477.6151456035732
 20
28.278066145321787
 10
477.8155156370036
 20
28.761802197522627
 10
478.00741279491604
 20
29.248961513640978
 10
478.1907786235772
 20
29.73939570022995
 10
478.3655572679795
 20
30.232955366285296
 10
478.5316954888546
 20
30.729490168751568
 10
478.6891426788911
 20
31.22884885831789
 10
478.83785087814954
 20
31.730879325490037
 10
478.97777478867204
 20
32.23542864692439
 10
479.1088717882799
 20
32.74234313200998
 10
479.23110194355706
 20
33.251468369684034
 10
479.3444280220142
 20
33.7626492754672
 10
479.44881550342996
 20
34.275730138703665
 10
479.5442325903663
 20
34.790554669992076
 10
479.63065021785417
 20
35.30696604879307
 10
479.7080420622471
 20
35.82480697119803
 10
479.77638454923965
 20
36.34391969784559
 10
479.83565686104816
 20
36.86414610197039
 10
479.88584094275234
 20
37.38532771757025
 10
479.92692150779476
 20
37.90730578767622
 10
479.95888604263723
 20
38.429921312711656
 10
479.98172481057287
 20
38.953015098924965
 10
479.99543085469173
 20
39.4764278068815
 10
480.0
 20
40.0
  0
LWPOLYLINE
  5
33
330
17
100
AcDbEntity
  8
CUT
100
AcDbPolyline
 90
4
 70
1
 10
230.9
 20
134.9
 10
249.1
 20
134.9
 10
249.1
 20
165.1
 10
230.9
 20
165.1
  0
CIRCLE
  5
34
330
17
100
AcDbEntity
  8
DOGBONE
100
AcDbCircle
 10
230.9
 20
134.9
 30
0.0
 40
3.175
  0
CIRCLE
  5
35
330
17
100
AcDbEntity
  8
DOGBONE
100
AcDbCircle
 10
249.1
 20
134.9
 30
0.0
 40
3.175
  0
CIRCLE
  5
36
330
17
100
AcDbEntity
  8
DOGBONE
100
AcDbCircle
 10
249.1
 20
165.1
 30
0.0
 40
3.175
  0
CIRCLE
  5
37
330
17
100
AcDbEntity
  8
DOGBONE
100
AcDbCircle
 10
230.9
 20
165.1
 30
0.0
 40
3.175
  0
LWPOLYLINE
  5
38
330
17
100
AcDbEntity
  8
CUT
100
AcDbPolyline
 90
4
 70
1
 10
230.9
 20
254.9
 10
249.1
 20
254.9
 10
249.1
 20
285.1
 10
230.9
 20
285.1
  0
CIRCLE
  5
39
330
17
100
AcDbEntity
  8
DOGBONE
100
AcDbCircle
 10
230.9
 20
254.9
 30
0.0
 40
3.175
  0
CIRCLE
  5
3A
330
17
100
AcDbEntity
  8
DOGBONE
100
AcDbCircle
 10
249.1
 20
254.9
 30
0.0
 40
3.175
  0
CIRCLE
  5
3B
330
17
100
AcDbEntity
  8
DOGBONE
100
AcDbCircle
 10
249.1
 20
285.1
 30
0.0
 40
3.175
  0
CIRCLE
  5
3C
330
17
100
AcDbEntity
  8
DOGBONE
100
AcDbCircle
 10
230.9
 20
285.1
 30
0.0
 40
3.175
  0
LWPOLYLINE
  5
3D
330
17
100
AcDbEntity
  8
CUT
100
AcDbPolyline
 90
4
 70
1
 10
230.9
 20
44.900000000000006
 10
249.1
 20
44.900000000000006
 10
249.1
 20
75.1
 10
230.9
 20
75.1
  0
CIRCLE
  5
3E
330
17
100
AcDbEntity
  8
DOGBONE
100
AcDbCircle
 10
230.9
 20
44.900000000000006
 30
0.0
 40
3.175
  0
CIRCLE
  5
3F
330
17
100
AcDbEntity
  8
DOGBONE
100
AcDbCircle
 10
249.1
 20
44.900000000000006
 30
0.0
 40
3.175
  0
CIRCLE
  5
40
330
17
100
AcDbEntity
  8
DOGBONE
100
AcDbCircle
 10
249.1
 20
75.1
 30
0.0
 40
3.175
  0
CIRCLE
  5
41
330
17
100
AcDbEntity
  8
DOGBONE
100
AcDbCircle
 10
230.9
 20
75.1
 30
0.0
 40
3.175
  0
LWPOLYLINE
  5
42
330
17
100
AcDbEntity
  8
CUT
100
AcDbPolyline
 90
4
 70
1
 10
230.9
 20
344.9
 10
249.1
 20
344.9
 10
249.1
 20
375.1
 10
230.9
 20
375.1
  0
CIRCLE
  5
43
330
17
100
AcDbEntity
  8
DOGBONE
100
AcDbCircle
 10
230.9
 20
344.9
 30
0.0
 40
3.175
  0
CIRCLE
  5
44
330
17
100
AcDbEntity
  8
DOGBONE
100
AcDbCircle
 10
249.1
 20
344.9
 30
0.0
 40
3.175
  0
CIRCLE
  5
45
330
17
100
AcDbEntity
  8
DOGBONE
100
AcDbCircle
 10
249.1
 20
375.1
 30
0.0
 40
3.175
  0
CIRCLE
  5
46
330
17
100
AcDbEntity
  8
DOGBONE
100
AcDbCircle
 10
230.9
 20
375.1
 30
0.0
 40
3.175
  0
LWPOLYLINE
  5
47
330
17
100
AcDbEntity
  8
CUT
100
AcDbPolyline
 90
4
 70
1
 10
164.9
 20
200.9
 10
195.1
 20
200.9
 10
195.1
 20
219.1
 10
164.9
 20
219.1
  0
CIRCLE
  5
48
330
17
100
AcDbEntity
  8
DOGBONE
100
AcDbCircle
 10
164.9
 20
200.9
 30
0.0
 40
3.175
  0
CIRCLE
  5
49
330
17
100
AcDbEntity
  8
DOGBONE
100
AcDbCircle
 10
195.1
 20
200.9
 30
0.0
 40
3.175
  0
CIRCLE
  5
4A
330
17
100
AcDbEntity
  8
DOGBONE
100
AcDbCircle
 10
195.1
 20
219.1
 30
0.0
 40
3.175
  0
CIRCLE
  5
4B
330
17
100
AcDbEntity
  8
DOGBONE
100
AcDbCircle
 10
164.9
 20
219.1
 30
0.0
 40
3.175
  0
LWPOLYLINE
  5
4C
330
17
100
AcDbEntity
  8
CUT
100
AcDbPolyline
 90
4
 70
1
 10
284.9
 20
200.9
 10
315.1
 20
200.9
 10
315.1
 20
219.1
 10
284.9
 20
219.1
  0
CIRCLE
  5
4D
330
17
100
AcDbEntity
  8
DOGBONE
100
AcDbCircle
 10
284.9
 20
200.9
 30
0.0
 40
3.175
  0
CIRCLE
  5
4E
330
17
100
AcDbEntity
  8
DOGBONE
100
AcDbCircle
 10
315.1
 20
200.9
 30
0.0
 40
3.175
  0
CIRCLE
  5
4F
330
17
100
AcDbEntity
  8
DOGBONE
100
AcDbCircle
 10
315.1
 20
219.1
 30
0.0
 40
3.175
  0
CIRCLE
  5
50
330
17
100
AcDbEntity
  8
DOGBONE
100
AcDbCircle
 10
284.9
 20
219.1
 30
0.0
 40
3.175
  0
LWPOLYLINE
  5
51
330
17
100
AcDbEntity
  8
CUT
100
AcDbPolyline
 90
4
 70
1
 10
74.9
 20
200.9
 10
105.1
 20
200.9
 10
105.1
 20
219.1
 10
74.9
 20
219.1
  0
CIRCLE
  5
52
330
17
100
AcDbEntity
  8
DOGBONE
100
AcDbCircle
 10
74.9
 20
200.9
 30
0.0
 40
3.175
  0
CIRCLE
  5
53
330
17
100
AcDbEntity
  8
DOGBONE
100
AcDbCircle
 10
105.1
 20
200.9
 30
0.0
 40
3.175
  0
CIRCLE
  5
54
330
17
100
AcDbEntity
  8
DOGBONE
100
AcDbCircle
 10
105.1
 20
219.1
 30
0.0
 40
3.175
  0
CIRCLE
  5
55
330
17
100
AcDbEntity
  8
DOGBONE
100
AcDbCircle
 10
74.9
 20
219.1
 30
0.0
 40
3.175
  0
LWPOLYLINE
  5
56
330
17
100
AcDbEntity
  8
CUT
100
AcDbPolyline
 90
4
 70
1
 10
374.9
 20
200.9
 10
405.1
 20
200.9
 10
405.1
 20
219.1
 10
374.9
 20
219.1
  0
CIRCLE
  5
57
330
17
100
AcDbEntity
  8
DOGBONE
100
AcDbCircle
 10
374.9
 20
200.9
 30
0.0
 40
3.175
  0
CIRCLE
  5
58
330
17
100
AcDbEntity
  8
DOGBONE
100
AcDbCircle
 10
405.1
 20
200.9
 30
0.0
 40
3.175
  0
CIRCLE
  5
59
330
17
100
AcDbEntity
  8
DOGBONE
100
AcDbCircle
 10
405.1
 20
219.1
 30
0.0
 40
3.175
  0
CIRCLE
  5
5A
330
17
100
AcDbEntity
  8
DOGBONE
100
AcDbCircle
 10
374.9
 20
219.1
 30
0.0
 40
3.175
  0
LWPOLYLINE
  5
5B
330
17
100
AcDbEntity
  8
CUT
100
AcDbPolyline
 90
93
 70
1
 10
249.1
 20
605.0
 10
249.1
 20
722.1547920940546
 10
249.1
 20
722.1547920940548
 10
253.78728971987323
 20
722.3554567165936
 10
258.47034048870086
 20
722.6382759262522
 10
263.14771248594093
 20
723.003162769263
 10
267.8179676370104
 20
723.4500050598741
 10
272.4796700554252
 20
723.978665414841
 10
277.1313864842696
 20
724.5889812956655
 10
281.7716867368559
 20
725.2807650585689
 10
286.39914413643965
 20
726.0538040121836
 10
291.01233595485746
 20
726.907860482946
 10
295.6098438499493
 20
727.84267188817
 10
300.1902543016328
 20
728.8579508167788
 10
304.75215904649525
 20
729.9533851176707
 10
309.29415551076886
 20
731.1286379956907
 10
313.81484724155735
 20
732.3833481151801
 10
318.31284433618015
 20
733.7171297110694
 10
322.7867638695029
 20
735.1295727074843
 10
327.2352303191228
 20
736.6202428438239
 10
331.65687598827776
 20
738.1886818082762
 10
336.0503414263494
 20
739.8344073787277
 10
340.4142758468316
 20
741.5569135710242
 10
344.74733754263366
 20
743.3556707945374
 10
349.04819429859384
 20
745.2301260149895
 10
353.3155238010729
 20
747.1797029244856
 10
357.54801404450467
 20
749.203802118701
 10
361.7443637347763
 20
751.3018012811713
 10
365.90328268931603
 20
753.4730553746247
 10
370.0234922337645
 20
755.7168968393019
 10
374.10372559510733
 20
758.0326357981987
 10
378.1427282911494
 20
760.4195602691725
 10
382.13925851620957
 20
762.8769363838422
 10
386.0920875229182
 20
765.4040086132198
 10
390.0
 20
768.0
 10
390.0
 20
768.0
 10
425.0
 20
560.0
 10
425.0
 20
488.0
 10
405.0
 20
488.0
 10
405.0
 20
470.0
 10
375.0
 20
470.0
 10
375.0
 20
488.0
 10
315.0
 20
488.0
 10
315.0
 20
470.0
 10
285.0
 20
470.0
 10
285.0
 20
488.0
 10
240.0
 20
488.0
 10
195.0
 20
488.0
 10
195.0
 20
470.0
 10
165.0
 20
470.0
 10
165.0
 20
488.0
 10
105.0
 20
488.0
 10
105.0
 20
470.0
 10
75.0
 20
470.0
 10
75.0
 20
488.0
 10
55.0
 20
488.0
 10
55.0
 20
560.0
 10
90.0
 20
768.0
 10
89.99999999999997
 20
768.0
 10
93.90791247708177
 20
765.40400861322
 10
97.8607414837904
 20
762.8769363838422
 10
101.8572717088505
 20
760.4195602691725
 10
105.89627440489264
 20
758.0326357981987
 10
109.97650776623544
 20
755.7168968393019
 10
114.09671731068386
 20
753.4730553746247
 10
118.25563626522369
 20
751.3018012811713
 10
122.45198595549525
 20
749.203802118701
 10
126.68447619892704
 20
747.1797029244856
 10
130.9518057014061
 20
745.2301260149897
 10
135.25266245736628
 20
743.3556707945374
 10
139.58572415316843
 20
741.5569135710242
 10
143.94965857365048
 20
739.8344073787277
 10
148.34312401172224
 20
738.1886818082762
 10
152.7647696808771
 20
736.6202428438239
 10
157.21323613049705
 20
735.1295727074844
 10
161.6871556638198
 20
733.7171297110694
 10
166.18515275844254
 20
732.3833481151801
 10
170.70584448923108
 20
731.1286379956907
 10
175.24784095350466
 20
729.9533851176707
 10
179.80974569836712
 20
728.8579508167788
 10
184.3901561500506
 20
727.8426718881701
 10
188.98766404514242
 20
726.907860482946
 10
193.60085586356027
 20
726.0538040121836
 10
198.22831326314406
 20
725.2807650585689
 10
202.8686135157303
 20
724.5889812956655
 10
207.52032994457483
 20
723.9786654148411
 10
212.18203236298962
 20
723.4500050598741
 10
216.85228751405896
 20
723.003162769263
 10
221.52965951129912
 20
722.6382759262522
 10
226.2127102801267
 20
722.3554567165936
 10
230.9
 20
722.1547920940548
 10
230.9
 20
722.1547920940546
 10
230.9
 20
605.0
  0
LWPOLYLINE
  5
5C
330
17
100
AcDbEntity
  8
CUT
100
AcDbPolyline
 90
362
 70
1
 10
157.0
 20
670.0
 10
156.9966492934406
 20
670.3839529416202
 10
156.9865981944201
 20
670.7677889274551
 10
156.9698497646006
 20
671.1513910373448
 10
156.94640910571613
 20
671.5346424223708
 10
156.9162833580184
 20
671.9174263404485
 10
156.879481698102
 20
672.2996261918884
 10
156.83601533610909
 20
672.6811255549133
 10
156.78589751231453
 20
673.0618082211214
 10
156.72914349309303
 20
673.4415582308851
 10
156.66577056626858
 20
673.8202599086725
 10
156.59579803584862
 20
674.197797898284
 10
156.51924721614373
 20
674.5740571979907
 10
156.43614142527517
 20
674.948923195565
 10
156.34650597807192
 20
675.3222817031927
 10
156.2503681783595
 20
675.6940189922555
 10
156.14775731064302
 20
676.064021827974
 10
156.0387046311868
 20
676.4321775039002
 10
155.92324335849338
 20
676.7983738762489
 10
155.801408663185
 20
677.1624993980574
 10
155.67323765728997
 20
677.5244431531647
 10
155.53876938293843
 20
677.8840948899966
 10
155.39804480046934
 20
678.2413450551501
 10
155.2511067759537
 20
678.596084826764
 10
155.09800006813722
 20
678.9482061476676
 10
154.9387713148063
 20
679.2976017582954
 10
154.77346901858166
 20
679.6441652293597
 10
154.60214353214408
 20
679.98779099427
 10
154.4248470428964
 20
680.3283743812896
 10
154.2416335570667
 20
680.6658116454195
 10
154.05255888325766
 20
681.0
 10
153.85768061544647
 20
681.3308376480212
 10
153.65705811544137
 20
681.6582238131305
 10
153.45075249479933
 20
681.9820587703306
 10
153.2388265962109
 20
682.3022438763564
 10
153.02134497435782
 20
682.618681599723
 10
152.79837387624883
 20
682.9312755504344
 10
152.56998122104045
 20
683.2399305093451
 10
152.33623657934788
 20
683.5445524571645
 10
152.09721115205338
 20
683.8450486030964
 10
151.85297774861752
 20
684.1413274131039
 10
151.603610764901
 20
684.4332986377912
 10
151.34918616050268
 20
684.7208733398949
 10
151.08978143562175
 20
685.003963921375
 10
150.82547560745033
 20
685.282484150098
 10
150.55634918610406
 20
685.5563491861041
 10
150.28248415009793
 20
685.8254756074504
 10
150.00396392137498
 20
686.0897814356217
 10
149.7208733398949
 20
686.3491861605027
 10
149.43329863779115
 20
686.603610764901
 10
149.14132741310385
 20
686.8529777486175
 10
148.84504860309642
 20
687.0972111520533
 10
148.54455245716449
 20
687.3362365793479
 10
148.23993050934507
 20
687.5699812210404
 10
147.9312755504344
 20
687.7983738762489
 10
147.618681599723
 20
688.0213449743578
 10
147.30224387635644
 20
688.238826596211
 10
146.98205877033058
 20
688.4507524947993
 10
146.65822381313052
 20
688.6570581154414
 10
146.3308376480212
 20
688.8576806154465
 10
146.0
 20
689.0525588832577
 10
145.6658116454194
 20
689.2416335570667
 10
145.3283743812896
 20
689.4248470428964
 10
144.98779099427003
 20
689.602143532144
 10
144.64416522935971
 20
689.7734690185816
 10
144.2976017582954
 20
689.9387713148063
 10
143.9482061476676
 20
690.0980000681373
 10
143.596084826764
 20
690.2511067759536
 10
143.24134505515008
 20
690.3980448004693
 10
142.88409488999662
 20
690.5387693829384
 10
142.52444315316473
 20
690.67323765729
 10
142.16249939805743
 20
690.8014086631849
 10
141.79837387624883
 20
690.9232433584933
 10
141.43217750390022
 20
691.0387046311868
 10
141.064021827974
 20
691.147757310643
 10
140.69401899225545
 20
691.2503681783595
 10
140.3222817031927
 20
691.346505978072
 10
139.94892319556502
 20
691.4361414252752
 10
139.5740571979907
 20
691.5192472161438
 10
139.197797898284
 20
691.5957980358486
 10
138.82025990867248
 20
691.6657705662685
 10
138.44155823088508
 20
691.729143493093
 10
138.06180822112145
 20
691.7858975123146
 10
137.68112555491325
 20
691.8360153361091
 10
137.29962619188836
 20
691.879481698102
 10
136.9174263404485
 20
691.9162833580184
 10
136.53464242237075
 20
691.9464091057162
 10
136.15139103734478
 20
691.9698497646007
 10
135.76778892745503
 20
691.9865981944201
 10
135.38395294162024
 20
691.9966492934406
 10
135.0
 20
692.0
 10
134.61604705837976
 20
691.9966492934406
 10
134.23221107254497
 20
691.9865981944201
 10
133.84860896265525
 20
691.9698497646007
 10
133.46535757762925
 20
691.9464091057162
 10
133.0825736595515
 20
691.9162833580184
 10
132.70037380811164
 20
691.879481698102
 10
132.31887444508675
 20
691.8360153361091
 10
131.93819177887858
 20
691.7858975123146
 10
131.55844176911492
 20
691.729143493093
 10
131.17974009132755
 20
691.6657705662685
 10
130.802202101716
 20
691.5957980358486
 10
130.4259428020093
 20
691.5192472161438
 10
130.05107680443496
 20
691.4361414252752
 10
129.6777182968073
 20
691.346505978072
 10
129.30598100774455
 20
691.2503681783595
 10
128.935978172026
 20
691.147757310643
 10
128.56782249609978
 20
691.0387046311868
 10
128.20162612375117
 20
690.9232433584934
 10
127.83750060194255
 20
690.8014086631849
 10
127.47555684683529
 20
690.67323765729
 10
127.1159051100034
 20
690.5387693829384
 10
126.75865494484994
 20
690.3980448004693
 10
126.40391517323597
 20
690.2511067759536
 10
126.0517938523324
 20
690.0980000681373
 10
125.70239824170461
 20
689.9387713148063
 10
125.3558347706403
 20
689.7734690185816
 10
125.01220900572997
 20
689.602143532144
 10
124.6716256187104
 20
689.4248470428964
 10
124.33418835458059
 20
689.2416335570667
 10
124.0
 20
689.0525588832577
 10
123.6691623519788
 20
688.8576806154465
 10
123.3417761868695
 20
688.6570581154414
 10
123.0179412296694
 20
688.4507524947993
 10
122.69775612364357
 20
688.238826596211
 10
122.38131840027698
 20
688.0213449743578
 10
122.0687244495656
 20
687.7983738762489
 10
121.76006949065493
 20
687.5699812210404
 10
121.45544754283551
 20
687.3362365793479
 10
121.15495139690358
 20
687.0972111520533
 10
120.85867258689613
 20
686.8529777486175
 10
120.56670136220885
 20
686.603610764901
 10
120.27912666010512
 20
686.3491861605027
 10
119.99603607862504
 20
686.0897814356217
 10
119.71751584990206
 20
685.8254756074504
 10
119.44365081389596
 20
685.5563491861041
 10
119.17452439254967
 20
685.282484150098
 10
118.91021856437825
 20
685.003963921375
 10
118.65081383949733
 20
684.7208733398949
 10
118.39638923509901
 20
684.4332986377912
 10
118.14702225138248
 20
684.1413274131039
 10
117.90278884794664
 20
683.8450486030964
 10
117.66376342065212
 20
683.5445524571645
 10
117.43001877895955
 20
683.2399305093451
 10
117.20162612375115
 20
682.9312755504344
 10
116.97865502564218
 20
682.618681599723
 10
116.76117340378909
 20
682.3022438763564
 10
116.54924750520067
 20
681.9820587703306
 10
116.34294188455863
 20
681.6582238131305
 10
116.14231938455353
 20
681.3308376480212
 10
115.94744111674234
 20
681.0
 10
115.7583664429333
 20
680.6658116454195
 10
115.5751529571036
 20
680.3283743812896
 10
115.39785646785592
 20
679.9877909942701
 10
115.22653098141832
 20
679.6441652293597
 10
115.0612286851937
 20
679.2976017582954
 10
114.90199993186278
 20
678.9482061476676
 10
114.74889322404631
 20
678.596084826764
 10
114.60195519953068
 20
678.2413450551501
 10
114.46123061706156
 20
677.8840948899966
 10
114.32676234271001
 20
677.5244431531647
 10
114.19859133681503
 20
677.1624993980574
 10
114.07675664150662
 20
676.7983738762489
 10
113.96129536881321
 20
676.4321775039002
 10
113.85224268935698
 20
676.064021827974
 10
113.74963182164049
 20
675.6940189922555
 10
113.65349402192808
 20
675.3222817031927
 10
113.56385857472483
 20
674.948923195565
 10
113.48075278385627
 20
674.5740571979907
 10
113.4042019641514
 20
674.197797898284
 10
113.33422943373142
 20
673.8202599086725
 10
113.27085650690697
 20
673.4415582308851
 10
113.21410248768545
 20
673.0618082211214
 10
113.16398466389091
 20
672.6811255549133
 10
113.12051830189799
 20
672.2996261918884
 10
113.0837166419816
 20
671.9174263404485
 10
113.05359089428387
 20
671.5346424223708
 10
113.03015023539938
 20
671.1513910373448
 10
113.01340180557989
 20
670.7677889274551
 10
113.00335070655939
 20
670.3839529416202
 10
113.0
 20
670.0
 10
113.0
 20
540.0
 10
113.00335070655939
 20
539.6160470583798
 10
113.01340180557989
 20
539.2322110725449
 10
113.03015023539938
 20
538.8486089626552
 10
113.05359089428387
 20
538.4653575776292
 10
113.0837166419816
 20
538.0825736595515
 10
113.12051830189799
 20
537.7003738081116
 10
113.16398466389091
 20
537.3188744450867
 10
113.21410248768545
 20
536.9381917788786
 10
113.27085650690697
 20
536.5584417691149
 10
113.33422943373142
 20
536.1797400913275
 10
113.4042019641514
 20
535.802202101716
 10
113.48075278385627
 20
535.4259428020093
 10
113.56385857472483
 20
535.051076804435
 10
113.65349402192808
 20
534.6777182968074
 10
113.74963182164049
 20
534.3059810077445
 10
113.85224268935698
 20
533.935978172026
 10
113.96129536881323
 20
533.5678224960998
 10
114.07675664150662
 20
533.2016261237511
 10
114.19859133681503
 20
532.8375006019426
 10
114.32676234271001
 20
532.4755568468353
 10
114.46123061706156
 20
532.1159051100034
 10
114.60195519953068
 20
531.7586549448499
 10
114.74889322404631
 20
531.403915173236
 10
114.90199993186278
 20
531.0517938523324
 10
115.0612286851937
 20
530.7023982417046
 10
115.22653098141834
 20
530.3558347706403
 10
115.3978564678559
 20
530.01220900573
 10
115.57515295710361
 20
529.6716256187104
 10
115.7583664429333
 20
529.3341883545805
 10
115.94744111674235
 20
529.0
 10
116.14231938455353
 20
528.6691623519788
 10
116.34294188455863
 20
528.3417761868695
 10
116.54924750520067
 20
528.0179412296694
 10
116.76117340378909
 20
527.6977561236436
 10
116.97865502564218
 20
527.381318400277
 10
117.20162612375115
 20
527.0687244495656
 10
117.43001877895955
 20
526.7600694906549
 10
117.66376342065212
 20
526.4554475428355
 10
117.90278884794664
 20
526.1549513969036
 10
118.14702225138248
 20
525.8586725868961
 10
118.39638923509901
 20
525.5667013622088
 10
118.65081383949733
 20
525.2791266601051
 10
118.91021856437825
 20
524.996036078625
 10
119.17452439254967
 20
524.717515849902
 10
119.44365081389596
 20
524.4436508138959
 10
119.71751584990206
 20
524.1745243925496
 10
119.99603607862502
 20
523.9102185643783
 10
120.27912666010512
 20
523.6508138394973
 10
120.56670136220885
 20
523.396389235099
 10
120.85867258689613
 20
523.1470222513825
 10
121.15495139690357
 20
522.9027888479467
 10
121.45544754283551
 20
522.6637634206521
 10
121.76006949065494
 20
522.4300187789596
 10
122.0687244495656
 20
522.2016261237511
 10
122.38131840027698
 20
521.9786550256422
 10
122.69775612364357
 20
521.761173403789
 10
123.0179412296694
 20
521.5492475052007
 10
123.3417761868695
 20
521.3429418845586
 10
123.6691623519788
 20
521.1423193845535
 10
123.99999999999999
 20
520.9474411167423
 10
124.33418835458059
 20
520.7583664429333
 10
124.67162561871041
 20
520.5751529571036
 10
125.01220900572997
 20
520.397856467856
 10
125.35583477064029
 20
520.2265309814184
 10
125.70239824170461
 20
520.0612286851937
 10
126.0517938523324
 20
519.9019999318627
 10
126.40391517323597
 20
519.7488932240464
 10
126.75865494484992
 20
519.6019551995307
 10
127.11590511000338
 20
519.4612306170616
 10
127.47555684683529
 20
519.32676234271
 10
127.83750060194255
 20
519.1985913368151
 10
128.20162612375114
 20
519.0767566415067
 10
128.56782249609978
 20
518.9612953688132
 10
128.935978172026
 20
518.852242689357
 10
129.30598100774455
 20
518.7496318216405
 10
129.6777182968073
 20
518.653494021928
 10
130.05107680443496
 20
518.5638585747248
 10
130.42594280200927
 20
518.4807527838562
 10
130.802202101716
 20
518.4042019641514
 10
131.17974009132755
 20
518.3342294337315
 10
131.55844176911492
 20
518.270856506907
 10
131.93819177887855
 20
518.2141024876854
 10
132.31887444508675
 20
518.1639846638909
 10
132.70037380811164
 20
518.120518301898
 10
133.0825736595515
 20
518.0837166419816
 10
133.46535757762925
 20
518.0535908942838
 10
133.84860896265522
 20
518.0301502353993
 10
134.23221107254497
 20
518.0134018055799
 10
134.61604705837976
 20
518.0033507065594
 10
135.0
 20
518.0
 10
135.38395294162024
 20
518.0033507065594
 10
135.76778892745503
 20
518.0134018055799
 10
136.15139103734478
 20
518.0301502353993
 10
136.53464242237075
 20
518.0535908942838
 10
136.9174263404485
 20
518.0837166419816
 10
137.29962619188836
 20
518.120518301898
 10
137.68112555491325
 20
518.1639846638909
 10
138.06180822112145
 20
518.2141024876854
 10
138.44155823088508
 20
518.270856506907
 10
138.82025990867245
 20
518.3342294337315
 10
139.197797898284
 20
518.4042019641514
 10
139.5740571979907
 20
518.4807527838562
 10
139.94892319556502
 20
518.5638585747248
 10
140.3222817031927
 20
518.653494021928
 10
140.69401899225545
 20
518.7496318216405
 10
141.064021827974
 20
518.852242689357
 10
141.43217750390022
 20
518.9612953688132
 10
141.79837387624883
 20
519.0767566415066
 10
142.16249939805743
 20
519.1985913368151
 10
142.52444315316473
 20
519.32676234271
 10
142.88409488999662
 20
519.4612306170616
 10
143.24134505515008
 20
519.6019551995307
 10
143.596084826764
 20
519.7488932240464
 10
143.9482061476676
 20
519.9019999318627
 10
144.2976017582954
 20
520.0612286851937
 10
144.64416522935971
 20
520.2265309814184
 10
144.98779099427003
 20
520.397856467856
 10
145.3283743812896
 20
520.5751529571036
 10
145.6658116454194
 20
520.7583664429333
 10
146.0
 20
520.9474411167423
 10
146.3308376480212
 20
521.1423193845535
 10
146.6582238131305
 20
521.3429418845586
 10
146.98205877033058
 20
521.5492475052007
 10
147.30224387635644
 20
521.761173403789
 10
147.618681599723
 20
521.9786550256422
 10
147.9312755504344
 20
522.2016261237511
 10
148.23993050934504
 20
522.4300187789596
 10
148.54455245716449
 20
522.6637634206521
 10
148.84504860309642
 20
522.9027888479467
 10
149.14132741310385
 20
523.1470222513825
 10
149.43329863779115
 20
523.396389235099
 10
149.72087333989487
 20
523.6508138394973
 10
150.00396392137498
 20
523.9102185643783
 10
150.28248415009793
 20
524.1745243925496
 10
150.55634918610403
 20
524.4436508138959
 10
150.82547560745033
 20
524.717515849902
 10
151.08978143562175
 20
524.996036078625
 10
151.34918616050268
 20
525.2791266601051
 10
151.603610764901
 20
525.5667013622088
 10
151.85297774861752
 20
525.8586725868961
 10
152.09721115205335
 20
526.1549513969036
 10
152.33623657934788
 20
526.4554475428355
 10
152.56998122104045
 20
526.7600694906549
 10
152.79837387624883
 20
527.0687244495656
 10
153.02134497435782
 20
527.381318400277
 10
153.2388265962109
 20
527.6977561236436
 10
153.45075249479933
 20
528.0179412296694
 10
153.65705811544137
 20
528.3417761868695
 10
153.85768061544647
 20
528.6691623519788
 10
154.05255888325763
 20
529.0
 10
154.2416335570667
 20
529.3341883545805
 10
154.4248470428964
 20
529.6716256187104
 10
154.60214353214408
 20
530.0122090057299
 10
154.77346901858166
 20
530.3558347706403
 10
154.9387713148063
 20
530.7023982417046
 10
155.09800006813722
 20
531.0517938523324
 10
155.2511067759537
 20
531.403915173236
 10
155.39804480046934
 20
531.7586549448499
 10
155.53876938293843
 20
532.1159051100034
 10
155.67323765728997
 20
532.4755568468353
 10
155.801408663185
 20
532.8375006019426
 10
155.92324335849338
 20
533.2016261237511
 10
156.0387046311868
 20
533.5678224960998
 10
156.14775731064302
 20
533.935978172026
 10
156.2503681783595
 20
534.3059810077445
 10
156.34650597807192
 20
534.6777182968073
 10
156.43614142527517
 20
535.051076804435
 10
156.51924721614373
 20
535.4259428020093
 10
156.59579803584862
 20
535.802202101716
 10
156.66577056626858
 20
536.1797400913275
 10
156.72914349309303
 20
536.5584417691149
 10
156.78589751231453
 20
536.9381917788786
 10
156.83601533610909
 20
537.3188744450867
 10
156.879481698102
 20
537.7003738081116
 10
156.9162833580184
 20
538.0825736595515
 10
156.94640910571613
 20
538.4653575776292
 10
156.9698497646006
 20
538.8486089626552
 10
156.9865981944201
 20
539.2322110725449
 10
156.9966492934406
 20
539.6160470583798
 10
157.0
 20
540.0
  0
LWPOLYLINE
  5
5D
330
17
100
AcDbEntity
  8
CUT
100
AcDbPolyline
 90
362
 70
1
 10
367.0
 20
670.0
 10
366.9966492934406
 20
670.3839529416202
 10
366.9865981944201
 20
670.7677889274551
 10
366.9698497646006
 20
671.1513910373448
 10
366.94640910571616
 20
671.5346424223708
 10
366.9162833580184
 20
671.9174263404485
 10
366.87948169810204
 20
672.2996261918884
 10
366.8360153361091
 20
672.6811255549133
 10
366.78589751231453
 20
673.0618082211214
 10
366.72914349309303
 20
673.4415582308851
 10
366.6657705662686
 20
673.8202599086725
 10
366.5957980358486
 20
674.197797898284
 10
366.51924721614375
 20
674.5740571979907
 10
366.4361414252752
 20
674.948923195565
 10
366.34650597807195
 20
675.3222817031927
 10
366.2503681783595
 20
675.6940189922555
 10
366.147757310643
 20
676.064021827974
 10
366.03870463118676
 20
676.4321775039002
 10
365.9232433584934
 20
676.7983738762489
 10
365.801408663185
 20
677.1624993980574
 10
365.67323765729
 20
677.5244431531647
 10
365.5387693829384
 20
677.8840948899966
 10
365.39804480046934
 20
678.2413450551501
 10
365.2511067759537
 20
678.596084826764
 10
365.0980000681372
 20
678.9482061476676
 10
364.9387713148063
 20
679.2976017582954
 10
364.7734690185817
 20
679.6441652293597
 10
364.6021435321441
 20
679.98779099427
 10
364.4248470428964
 20
680.3283743812896
 10
364.24163355706673
 20
680.6658116454195
 10
364.05255888325763
 20
681.0
 10
363.8576806154465
 20
681.3308376480212
 10
363.6570581154414
 20
681.6582238131305
 10
363.4507524947993
 20
681.9820587703306
 10
363.2388265962109
 20
682.3022438763564
 10
363.0213449743578
 20
682.618681599723
 10
362.79837387624883
 20
682.9312755504344
 10
362.56998122104045
 20
683.2399305093451
 10
362.3362365793479
 20
683.5445524571645
 10
362.0972111520534
 20
683.8450486030964
 10
361.8529777486175
 20
684.1413274131039
 10
361.60361076490096
 20
684.4332986377912
 10
361.34918616050265
 20
684.7208733398949
 10
361.0897814356218
 20
685.003963921375
 10
360.8254756074503
 20
685.282484150098
 10
360.55634918610406
 20
685.5563491861041
 10
360.28248415009796
 20
685.8254756074504
 10
360.003963921375
 20
686.0897814356217
 10
359.72087333989487
 20
686.3491861605027
 10
359.43329863779115
 20
686.603610764901
 10
359.14132741310385
 20
686.8529777486175
 10
358.8450486030964
 20
687.0972111520533
 10
358.54455245716446
 20
687.3362365793479
 10
358.2399305093451
 20
687.5699812210404
 10
357.9312755504344
 20
687.7983738762489
 10
357.618681599723
 20
688.0213449743578
 10
357.30224387635644
 20
688.238826596211
 10
356.9820587703306
 20
688.4507524947993
 10
356.6582238131305
 20
688.6570581154414
 10
356.3308376480212
 20
688.8576806154465
 10
356.0
 20
689.0525588832577
 10
355.6658116454194
 20
689.2416335570667
 10
355.3283743812896
 20
689.4248470428964
 10
354.98779099427003
 20
689.602143532144
 10
354.6441652293597
 20
689.7734690185816
 10
354.2976017582954
 20
689.9387713148063
 10
353.94820614766763
 20
690.0980000681373
 10
353.596084826764
 20
690.2511067759536
 10
353.2413450551501
 20
690.3980448004693
 10
352.8840948899966
 20
690.5387693829384
 10
352.5244431531647
 20
690.67323765729
 10
352.16249939805743
 20
690.8014086631849
 10
351.79837387624883
 20
690.9232433584933
 10
351.4321775039002
 20
691.0387046311868
 10
351.064021827974
 20
691.147757310643
 10
350.69401899225545
 20
691.2503681783595
 10
350.3222817031927
 20
691.346505978072
 10
349.94892319556504
 20
691.4361414252752
 10
349.5740571979907
 20
691.5192472161438
 10
349.19779789828397
 20
691.5957980358486
 10
348.8202599086725
 20
691.6657705662685
 10
348.4415582308851
 20
691.729143493093
 10
348.06180822112145
 20
691.7858975123146
 10
347.68112555491325
 20
691.8360153361091
 10
347.29962619188836
 20
691.879481698102
 10
346.91742634044846
 20
691.9162833580184
 10
346.5346424223708
 20
691.9464091057162
 10
346.15139103734475
 20
691.9698497646007
 10
345.767788927455
 20
691.9865981944201
 10
345.38395294162024
 20
691.9966492934406
 10
345.0
 20
692.0
 10
344.61604705837976
 20
691.9966492934406
 10
344.232211072545
 20
691.9865981944201
 10
343.84860896265525
 20
691.9698497646007
 10
343.4653575776292
 20
691.9464091057162
 10
343.08257365955154
 20
691.9162833580184
 10
342.70037380811164
 20
691.879481698102
 10
342.31887444508675
 20
691.8360153361091
 10
341.93819177887855
 20
691.7858975123146
 10
341.55844176911495
 20
691.729143493093
 10
341.1797400913275
 20
691.6657705662685
 10
340.80220210171603
 20
691.5957980358486
 10
340.4259428020093
 20
691.5192472161438
 10
340.05107680443496
 20
691.4361414252752
 10
339.6777182968073
 20
691.346505978072
 10
339.30598100774455
 20
691.2503681783595
 10
338.935978172026
 20
691.147757310643
 10
338.5678224960998
 20
691.0387046311868
 10
338.20162612375117
 20
690.9232433584934
 10
337.83750060194257
 20
690.8014086631849
 10
337.4755568468353
 20
690.67323765729
 10
337.1159051100034
 20
690.5387693829384
 10
336.7586549448499
 20
690.3980448004693
 10
336.403915173236
 20
690.2511067759536
 10
336.05179385233237
 20
690.0980000681373
 10
335.7023982417046
 20
689.9387713148063
 10
335.3558347706403
 20
689.7734690185816
 10
335.01220900572997
 20
689.602143532144
 10
334.6716256187104
 20
689.4248470428964
 10
334.3341883545806
 20
689.2416335570667
 10
334.0
 20
689.0525588832577
 10
333.6691623519788
 20
688.8576806154465
 10
333.3417761868695
 20
688.6570581154414
 10
333.0179412296694
 20
688.4507524947993
 10
332.69775612364356
 20
688.238826596211
 10
332.381318400277
 20
688.0213449743578
 10
332.0687244495656
 20
687.7983738762489
 10
331.7600694906549
 20
687.5699812210404
 10
331.45544754283554
 20
687.3362365793479
 10
331.1549513969036
 20
687.0972111520533
 10
330.85867258689615
 20
686.8529777486175
 10
330.56670136220885
 20
686.603610764901
 10
330.27912666010513
 20
686.3491861605027
 10
329.996036078625
 20
686.0897814356217
 10
329.71751584990204
 20
685.8254756074504
 10
329.44365081389594
 20
685.5563491861041
 10
329.1745243925497
 20
685.282484150098
 10
328.9102185643782
 20
685.003963921375
 10
328.65081383949735
 20
684.7208733398949
 10
328.39638923509904
 20
684.4332986377912
 10
328.1470222513825
 20
684.1413274131039
 10
327.9027888479466
 20
683.8450486030964
 10
327.6637634206521
 20
683.5445524571645
 10
327.43001877895955
 20
683.2399305093451
 10
327.20162612375117
 20
682.9312755504344
 10
326.9786550256422
 20
682.618681599723
 10
326.7611734037891
 20
682.3022438763564
 10
326.5492475052007
 20
681.9820587703306
 10
326.3429418845586
 20
681.6582238131305
 10
326.1423193845535
 20
681.3308376480212
 10
325.94744111674237
 20
681.0
 10
325.75836644293327
 20
680.6658116454195
 10
325.5751529571036
 20
680.3283743812896
 10
325.3978564678559
 20
679.9877909942701
 10
325.2265309814183
 20
679.6441652293597
 10
325.0612286851937
 20
679.2976017582954
 10
324.9019999318628
 20
678.9482061476676
 10
324.7488932240463
 20
678.596084826764
 10
324.60195519953066
 20
678.2413450551501
 10
324.4612306170616
 20
677.8840948899966
 10
324.32676234271
 20
677.5244431531647
 10
324.198591336815
 20
677.1624993980574
 10
324.0767566415066
 20
676.7983738762489
 10
323.96129536881324
 20
676.4321775039002
 10
323.852242689357
 20
676.064021827974
 10
323.7496318216405
 20
675.6940189922555
 10
323.65349402192805
 20
675.3222817031927
 10
323.5638585747248
 20
674.948923195565
 10
323.48075278385625
 20
674.5740571979907
 10
323.4042019641514
 20
674.197797898284
 10
323.3342294337314
 20
673.8202599086725
 10
323.27085650690697
 20
673.4415582308851
 10
323.21410248768547
 20
673.0618082211214
 10
323.1639846638909
 20
672.6811255549133
 10
323.12051830189796
 20
672.2996261918884
 10
323.0837166419816
 20
671.9174263404485
 10
323.05359089428384
 20
671.5346424223708
 10
323.0301502353994
 20
671.1513910373448
 10
323.0134018055799
 20
670.7677889274551
 10
323.0033507065594
 20
670.3839529416202
 10
323.0
 20
670.0
 10
323.0
 20
540.0
 10
323.0033507065594
 20
539.6160470583798
 10
323.0134018055799
 20
539.2322110725449
 10
323.0301502353994
 20
538.8486089626552
 10
323.05359089428384
 20
538.4653575776292
 10
323.0837166419816
 20
538.0825736595515
 10
323.12051830189796
 20
537.7003738081116
 10
323.1639846638909
 20
537.3188744450867
 10
323.21410248768547
 20
536.9381917788786
 10
323.27085650690697
 20
536.5584417691149
 10
323.3342294337314
 20
536.1797400913275
 10
323.4042019641514
 20
535.802202101716
 10
323.4807527838563
 20
535.4259428020093
 10
323.5638585747248
 20
535.051076804435
 10
323.65349402192805
 20
534.6777182968074
 10
323.7496318216405
 20
534.3059810077445
 10
323.852242689357
 20
533.935978172026
 10
323.96129536881324
 20
533.5678224960998
 10
324.0767566415066
 20
533.2016261237511
 10
324.198591336815
 20
532.8375006019426
 10
324.32676234271
 20
532.4755568468353
 10
324.4612306170616
 20
532.1159051100034
 10
324.60195519953066
 20
531.7586549448499
 10
324.7488932240463
 20
531.403915173236
 10
324.9019999318628
 20
531.0517938523324
 10
325.06122868519367
 20
530.7023982417046
 10
325.2265309814183
 20
530.3558347706403
 10
325.3978564678559
 20
530.01220900573
 10
325.5751529571036
 20
529.6716256187104
 10
325.75836644293327
 20
529.3341883545805
 10
325.94744111674237
 20
529.0
 10
326.1423193845535
 20
528.6691623519788
 10
326.3429418845586
 20
528.3417761868695
 10
326.5492475052007
 20
528.0179412296694
 10
326.7611734037891
 20
527.6977561236436
 10
326.9786550256422
 20
527.381318400277
 10
327.20162612375117
 20
527.0687244495656
 10
327.43001877895955
 20
526.7600694906549
 10
327.6637634206521
 20
526.4554475428355
 10
327.9027888479466
 20
526.1549513969036
 10
328.1470222513825
 20
525.8586725868961
 10
328.39638923509904
 20
525.5667013622088
 10
328.65081383949735
 20
525.2791266601051
 10
328.9102185643782
 20
524.996036078625
 10
329.1745243925497
 20
524.717515849902
 10
329.44365081389594
 20
524.4436508138959
 10
329.71751584990204
 20
524.1745243925496
 10
329.996036078625
 20
523.9102185643783
 10
330.27912666010513
 20
523.6508138394973
 10
330.56670136220885
 20
523.396389235099
 10
330.85867258689615
 20
523.1470222513825
 10
331.1549513969036
 20
522.9027888479467
 10
331.45544754283554
 20
522.6637634206521
 10
331.7600694906549
 20
522.4300187789596
 10
332.0687244495656
 20
522.2016261237511
 10
332.381318400277
 20
521.9786550256422
 10
332.69775612364356
 20
521.761173403789
 10
333.0179412296694
 20
521.5492475052007
 10
333.3417761868695
 20
521.3429418845586
 10
333.6691623519788
 20
521.1423193845535
 10
334.0
 20
520.9474411167423
 10
334.3341883545806
 20
520.7583664429333
 10
334.6716256187104
 20
520.5751529571036
 10
335.01220900572997
 20
520.397856467856
 10
335.3558347706403
 20
520.2265309814184
 10
335.7023982417046
 20
520.0612286851937
 10
336.0517938523324
 20
519.9019999318627
 10
336.403915173236
 20
519.7488932240464
 10
336.7586549448499
 20
519.6019551995307
 10
337.1159051100034
 20
519.4612306170616
 10
337.4755568468353
 20
519.32676234271
 10
337.83750060194257
 20
519.1985913368151
 10
338.20162612375117
 20
519.0767566415067
 10
338.5678224960998
 20
518.9612953688132
 10
338.935978172026
 20
518.852242689357
 10
339.30598100774455
 20
518.7496318216405
 10
339.6777182968073
 20
518.653494021928
 10
340.05107680443496
 20
518.5638585747248
 10
340.4259428020093
 20
518.4807527838562
 10
340.80220210171603
 20
518.4042019641514
 10
341.1797400913275
 20
518.3342294337315
 10
341.5584417691149
 20
518.270856506907
 10
341.93819177887855
 20
518.2141024876854
 10
342.31887444508675
 20
518.1639846638909
 10
342.70037380811164
 20
518.120518301898
 10
343.08257365955154
 20
518.0837166419816
 10
343.4653575776292
 20
518.0535908942838
 10
343.84860896265525
 20
518.0301502353993
 10
344.232211072545
 20
518.0134018055799
 10
344.61604705837976
 20
518.0033507065594
 10
345.0
 20
518.0
 10
345.38395294162024
 20
518.0033507065594
 10
345.767788927455
 20
518.0134018055799
 10
346.15139103734475
 20
518.0301502353993
 10
346.5346424223708
 20
518.0535908942838
 10
346.91742634044846
 20
518.0837166419816
 10
347.29962619188836
 20
518.120518301898
 10
347.68112555491325
 20
518.1639846638909
 10
348.06180822112145
 20
518.2141024876854
 10
348.44155823088505
 20
518.270856506907
 10
348.8202599086725
 20
518.3342294337315
 10
349.19779789828397
 20
518.4042019641514
 10
349.5740571979907
 20
518.4807527838562
 10
349.94892319556504
 20
518.5638585747248
 10
350.3222817031927
 20
518.653494021928
 10
350.69401899225545
 20
518.7496318216405
 10
351.064021827974
 20
518.852242689357
 10
351.4321775039002
 20
518.9612953688132
 10
351.79837387624883
 20
519.0767566415066
 10
352.16249939805743
 20
519.1985913368151
 10
352.5244431531647
 20
519.32676234271
 10
352.8840948899966
 20
519.4612306170616
 10
353.2413450551501
 20
519.6019551995307
 10
353.596084826764
 20
519.7488932240464
 10
353.9482061476676
 20
519.9019999318627
 10
354.2976017582954
 20
520.0612286851937
 10
354.6441652293597
 20
520.2265309814184
 10
354.98779099427003
 20
520.397856467856
 10
355.32837438128956
 20
520.5751529571036
 10
355.6658116454194
 20
520.7583664429333
 10
356.0
 20
520.9474411167423
 10
356.3308376480212
 20
521.1423193845535
 10
356.6582238131305
 20
521.3429418845586
 10
356.9820587703306
 20
521.5492475052007
 10
357.30224387635644
 20
521.761173403789
 10
357.618681599723
 20
521.9786550256422
 10
357.9312755504344
 20
522.2016261237511
 10
358.2399305093451
 20
522.4300187789596
 10
358.5445524571645
 20
522.6637634206521
 10
358.8450486030964
 20
522.9027888479467
 10
359.14132741310385
 20
523.1470222513825
 10
359.43329863779115
 20
523.396389235099
 10
359.72087333989487
 20
523.6508138394973
 10
360.003963921375
 20
523.9102185643783
 10
360.28248415009796
 20
524.1745243925496
 10
360.55634918610406
 20
524.4436508138959
 10
360.8254756074503
 20
524.717515849902
 10
361.0897814356218
 20
524.996036078625
 10
361.34918616050265
 20
525.2791266601051
 10
361.60361076490096
 20
525.5667013622088
 10
361.8529777486175
 20
525.8586725868961
 10
362.0972111520534
 20
526.1549513969036
 10
362.3362365793479
 20
526.4554475428355
 10
362.56998122104045
 20
526.7600694906549
 10
362.79837387624883
 20
527.0687244495656
 10
363.0213449743578
 20
527.381318400277
 10
363.2388265962109
 20
527.6977561236436
 10
363.4507524947993
 20
528.0179412296694
 10
363.6570581154414
 20
528.3417761868695
 10
363.85768061544644
 20
528.6691623519788
 10
364.05255888325763
 20
529.0
 10
364.24163355706673
 20
529.3341883545805
 10
364.4248470428964
 20
529.6716256187104
 10
364.6021435321441
 20
530.0122090057299
 10
364.7734690185817
 20
530.3558347706403
 10
364.93877131480633
 20
530.7023982417046
 10
365.0980000681372
 20
531.0517938523324
 10
365.2511067759537
 20
531.403915173236
 10
365.39804480046934
 20
531.7586549448499
 10
365.5387693829384
 20
532.1159051100034
 10
365.67323765729
 20
532.4755568468353
 10
365.801408663185
 20
532.8375006019426
 10
365.9232433584934
 20
533.2016261237511
 10
366.03870463118676
 20
533.5678224960998
 10
366.147757310643
 20
533.935978172026
 10
366.2503681783595
 20
534.3059810077445
 10
366.34650597807195
 20
534.6777182968073
 10
366.4361414252752
 20
535.051076804435
 10
366.5192472161437
 20
535.4259428020093
 10
366.5957980358486
 20
535.802202101716
 10
366.6657705662686
 20
536.1797400913275
 10
366.72914349309303
 20
536.5584417691149
 10
366.78589751231453
 20
536.9381917788786
 10
366.8360153361091
 20
537.3188744450867
 10
366.87948169810204
 20
537.7003738081116
 10
366.9162833580184
 20
538.0825736595515
 10
366.94640910571616
 20
538.4653575776292
 10
366.9698497646006
 20
538.8486089626552
 10
366.9865981944201
 20
539.2322110725449
 10
366.9966492934406
 20
539.6160470583798
 10
367.0
 20
540.0
  0
CIRCLE
  5
5E
330
17
100
AcDbEntity
  8
DOGBONE
100
AcDbCircle
 10
230.9
 20
605.0
 30
0.0
 40
3.175
  0
CIRCLE
  5
5F
330
17
100
AcDbEntity
  8
DOGBONE
100
AcDbCircle
 10
249.1
 20
605.0
 30
0.0
 40
3.175
  0
LWPOLYLINE
  5
60
330
17
100
AcDbEntity
  8
CUT
100
AcDbPolyline
 90
98
 70
1
 10
240.0
 20
1042.0
 10
240.00000000000003
 20
1042.0
 10
244.6831236558636
 20
1042.040986880347
 10
249.3648125465451
 20
1042.1639349642674
 10
254.04363234643023
 20
1042.3688065842462
 10
258.7181496089062
 20
1042.6555389739142
 10
263.3869322055251
 20
1043.0240442872787
 10
268.04854976476486
 20
1043.474209625635
 10
272.7015741102505
 20
1044.0058970721566
 10
277.3445796983035
 20
1044.6189437341475
 10
281.976144054685
 20
1045.313161792949
 10
286.594848210398
 20
1046.08833856148
 10
291.19927713641545
 20
1046.9442365493987
 10
295.7880201772024
 20
1047.8805935358625
 10
300.3596714828969
 20
1048.8971226498636
 10
304.91283044001955
 20
1049.993512458118
 10
309.44610210057823
 20
1051.1694270604787
 10
313.95809760943746
 20
1052.4245061928461
 10
318.44743462982075
 20
1053.758365337541
 10
322.9127377668163
 20
1055.170595841109
 10
327.35263898875553
 20
1056.6607650395197
 10
331.7657780463363
 20
1058.2284163907216
 10
336.15080288936105
 20
1059.8730696145126
 10
340.5063700809637
 20
1061.5942208396827
 10
344.8311452091974
 20
1063.3913427583852
 10
349.12380329585733
 20
1065.2638847876876
 10
353.38302920241324
 20
1067.2112732382523
 10
357.6075180329276
 20
1069.232911490099
 10
361.79597553383553
 20
1071.3281801753892
 10
365.9471184904643
 20
1073.4964373681828
 10
370.059675120171
 20
1075.7370187811034
 10
374.1323854619775
 20
1078.0492379688562
 10
378.1640017625841
 20
1080.4323865385331
 10
382.15328885864216
 20
1082.8857343666436
 10
386.0990245551709
 20
1085.4085298228013
 10
390.0
 20
1088.0
 10
390.0
 20
1088.0
 10
425.0
 20
880.0
 10
425.0
 20
808.0
 10
405.0
 20
808.0
 10
405.0
 20
790.0
 10
375.0
 20
790.0
 10
375.0
 20
808.0
 10
315.0
 20
808.0
 10
315.0
 20
790.0
 10
285.0
 20
790.0
 10
285.0
 20
808.0
 10
249.1
 20
808.0
 10
249.1
 20
925.0
 10
230.9
 20
925.0
 10
230.9
 20
808.0
 10
195.0
 20
808.0
 10
195.0
 20
790.0
 10
165.0
 20
790.0
 10
165.0
 20
808.0
 10
105.0
 20
808.0
 10
105.0
 20
790.0
 10
75.0
 20
790.0
 10
75.0
 20
808.0
 10
55.0
 20
808.0
 10
55.0
 20
880.0
 10
90.0
 20
1088.0
 10
89.99999999999997
 20
1088.0
 10
93.90097544482896
 20
1085.4085298228013
 10
97.84671114135773
 20
1082.8857343666436
 10
101.83599823741582
 20
1080.4323865385331
 10
105.8676145380224
 20
1078.0492379688562
 10
109.94032487982898
 20
1075.7370187811034
 10
114.05288150953562
 20
1073.496437368183
 10
118.20402446616453
 20
1071.3281801753892
 10
122.39248196707236
 20
1069.232911490099
 10
126.61697079758675
 20
1067.2112732382525
 10
130.87619670414261
 20
1065.2638847876876
 10
135.16885479080256
 20
1063.3913427583852
 10
139.49362991903627
 20
1061.5942208396827
 10
143.84919711063895
 20
1059.8730696145126
 10
148.23422195366365
 20
1058.2284163907216
 10
152.64736101124436
 20
1056.66076503952
 10
157.08726223318368
 20
1055.170595841109
 10
161.55256537017925
 20
1053.758365337541
 10
166.04190239056254
 20
1052.4245061928461
 10
170.5538978994217
 20
1051.1694270604787
 10
175.0871695599804
 20
1049.993512458118
 10
179.6403285171031
 20
1048.8971226498636
 10
184.21197982279762
 20
1047.8805935358625
 10
188.80072286358458
 20
1046.9442365493987
 10
193.40515178960203
 20
1046.08833856148
 10
198.02385594531492
 20
1045.313161792949
 10
202.6554203016965
 20
1044.6189437341477
 10
207.29842588974955
 20
1044.0058970721566
 10
211.95145023523514
 20
1043.474209625635
 10
216.6130677944749
 20
1043.0240442872787
 10
221.28185039109383
 20
1042.6555389739142
 10
225.95636765356974
 20
1042.3688065842462
 10
230.63518745345493
 20
1042.1639349642674
 10
235.31687634413632
 20
1042.040986880347
 10
240.00000000000003
 20
1042.0
 10
240.0
 20
1042.0
  0
LWPOLYLINE
  5
61
330
17
100
AcDbEntity
  8
CUT
100
AcDbPolyline
 90
362
 70
1
 10
157.0
 20
990.0
 10
156.9966492934406
 20
990.3839529416202
 10
156.9865981944201
 20
990.7677889274551
 10
156.9698497646006
 20
991.1513910373448
 10
156.94640910571613
 20
991.5346424223708
 10
156.9162833580184
 20
991.9174263404485
 10
156.879481698102
 20
992.2996261918884
 10
156.83601533610909
 20
992.6811255549133
 10
156.78589751231453
 20
993.0618082211214
 10
156.72914349309303
 20
993.4415582308851
 10
156.66577056626858
 20
993.8202599086725
 10
156.59579803584862
 20
994.197797898284
 10
156.51924721614373
 20
994.5740571979907
 10
156.43614142527517
 20
994.948923195565
 10
156.34650597807192
 20
995.3222817031927
 10
156.2503681783595
 20
995.6940189922555
 10
156.14775731064302
 20
996.064021827974
 10
156.0387046311868
 20
996.4321775039002
 10
155.92324335849338
 20
996.7983738762489
 10
155.801408663185
 20
997.1624993980574
 10
155.67323765728997
 20
997.5244431531647
 10
155.53876938293843
 20
997.8840948899966
 10
155.39804480046934
 20
998.2413450551501
 10
155.2511067759537
 20
998.596084826764
 10
155.09800006813722
 20
998.9482061476676
 10
154.9387713148063
 20
999.2976017582954
 10
154.77346901858166
 20
999.6441652293597
 10
154.60214353214408
 20
999.98779099427
 10
154.4248470428964
 20
1000.3283743812896
 10
154.2416335570667
 20
1000.6658116454195
 10
154.05255888325766
 20
1001.0
 10
153.85768061544647
 20
1001.3308376480212
 10
153.65705811544137
 20
1001.6582238131305
 10
153.45075249479933
 20
1001.9820587703306
 10
153.2388265962109
 20
1002.3022438763564
 10
153.02134497435782
 20
1002.618681599723
 10
152.79837387624883
 20
1002.9312755504344
 10
152.56998122104045
 20
1003.2399305093451
 10
152.33623657934788
 20
1003.5445524571645
 10
152.09721115205338
 20
1003.8450486030964
 10
151.85297774861752
 20
1004.1413274131039
 10
151.603610764901
 20
1004.4332986377912
 10
151.34918616050268
 20
1004.7208733398949
 10
151.08978143562175
 20
1005.003963921375
 10
150.82547560745033
 20
1005.282484150098
 10
150.55634918610406
 20
1005.5563491861041
 10
150.28248415009793
 20
1005.8254756074504
 10
150.00396392137498
 20
1006.0897814356217
 10
149.7208733398949
 20
1006.3491861605027
 10
149.43329863779115
 20
1006.603610764901
 10
149.14132741310385
 20
1006.8529777486175
 10
148.84504860309642
 20
1007.0972111520533
 10
148.54455245716449
 20
1007.3362365793479
 10
148.23993050934507
 20
1007.5699812210404
 10
147.9312755504344
 20
1007.7983738762489
 10
147.618681599723
 20
1008.0213449743578
 10
147.30224387635644
 20
1008.238826596211
 10
146.98205877033058
 20
1008.4507524947993
 10
146.65822381313052
 20
1008.6570581154414
 10
146.3308376480212
 20
1008.8576806154465
 10
146.0
 20
1009.0525588832577
 10
145.6658116454194
 20
1009.2416335570667
 10
145.3283743812896
 20
1009.4248470428964
 10
144.98779099427003
 20
1009.602143532144
 10
144.64416522935971
 20
1009.7734690185816
 10
144.2976017582954
 20
1009.9387713148063
 10
143.9482061476676
 20
1010.0980000681373
 10
143.596084826764
 20
1010.2511067759536
 10
143.24134505515008
 20
1010.3980448004693
 10
142.88409488999662
 20
1010.5387693829384
 10
142.52444315316473
 20
1010.67323765729
 10
142.16249939805743
 20
1010.8014086631849
 10
141.79837387624883
 20
1010.9232433584933
 10
141.43217750390022
 20
1011.0387046311868
 10
141.064021827974
 20
1011.147757310643
 10
140.69401899225545
 20
1011.2503681783595
 10
140.3222817031927
 20
1011.346505978072
 10
139.94892319556502
 20
1011.4361414252752
 10
139.5740571979907
 20
1011.5192472161438
 10
139.197797898284
 20
1011.5957980358486
 10
138.82025990867248
 20
1011.6657705662685
 10
138.44155823088508
 20
1011.729143493093
 10
138.06180822112145
 20
1011.7858975123146
 10
137.68112555491325
 20
1011.8360153361091
 10
137.29962619188836
 20
1011.879481698102
 10
136.9174263404485
 20
1011.9162833580184
 10
136.53464242237075
 20
1011.9464091057162
 10
136.15139103734478
 20
1011.9698497646007
 10
135.76778892745503
 20
1011.9865981944201
 10
135.38395294162024
 20
1011.9966492934406
 10
135.0
 20
1012.0
 10
134.61604705837976
 20
1011.9966492934406
 10
134.23221107254497
 20
1011.9865981944201
 10
133.84860896265525
 20
1011.9698497646007
 10
133.46535757762925
 20
1011.9464091057162
 10
133.0825736595515
 20
1011.9162833580184
 10
132.70037380811164
 20
1011.879481698102
 10
132.31887444508675
 20
1011.8360153361091
 10
131.93819177887858
 20
1011.7858975123146
 10
131.55844176911492
 20
1011.729143493093
 10
131.17974009132755
 20
1011.6657705662685
 10
130.802202101716
 20
1011.5957980358486
 10
130.4259428020093
 20
1011.5192472161438
 10
130.05107680443496
 20
1011.4361414252752
 10
129.6777182968073
 20
1011.346505978072
 10
129.30598100774455
 20
1011.2503681783595
 10
128.935978172026
 20
1011.147757310643
 10
128.56782249609978
 20
1011.0387046311868
 10
128.20162612375117
 20
1010.9232433584934
 10
127.83750060194255
 20
1010.8014086631849
 10
127.47555684683529
 20
1010.67323765729
 10
127.1159051100034
 20
1010.5387693829384
 10
126.75865494484994
 20
1010.3980448004693
 10
126.40391517323597
 20
1010.2511067759536
 10
126.0517938523324
 20
1010.0980000681373
 10
125.70239824170461
 20
1009.9387713148063
 10
125.3558347706403
 20
1009.7734690185816
 10
125.01220900572997
 20
1009.602143532144
 10
124.6716256187104
 20
1009.4248470428964
 10
124.33418835458059
 20
1009.2416335570667
 10
124.0
 20
1009.0525588832577
 10
123.6691623519788
 20
1008.8576806154465
 10
123.3417761868695
 20
1008.6570581154414
 10
123.0179412296694
 20
1008.4507524947993
 10
122.69775612364357
 20
1008.238826596211
 10
122.38131840027698
 20
1008.0213449743578
 10
122.0687244495656
 20
1007.7983738762489
 10
121.76006949065493
 20
1007.5699812210404
 10
121.45544754283551
 20
1007.3362365793479
 10
121.15495139690358
 20
1007.0972111520533
 10
120.85867258689613
 20
1006.8529777486175
 10
120.56670136220885
 20
1006.603610764901
 10
120.27912666010512
 20
1006.3491861605027
 10
119.99603607862504
 20
1006.0897814356217
 10
119.71751584990206
 20
1005.8254756074504
 10
119.44365081389596
 20
1005.5563491861041
 10
119.17452439254967
 20
1005.282484150098
 10
118.91021856437825
 20
1005.003963921375
 10
118.65081383949733
 20
1004.7208733398949
 10
118.39638923509901
 20
1004.4332986377912
 10
118.14702225138248
 20
1004.1413274131039
 10
117.90278884794664
 20
1003.8450486030964
 10
117.66376342065212
 20
1003.5445524571645
 10
117.43001877895955
 20
1003.2399305093451
 10
117.20162612375115
 20
1002.9312755504344
 10
116.97865502564218
 20
1002.618681599723
 10
116.76117340378909
 20
1002.3022438763564
 10
116.54924750520067
 20
1001.9820587703306
 10
116.34294188455863
 20
1001.6582238131305
 10
116.14231938455353
 20
1001.3308376480212
 10
115.94744111674234
 20
1001.0
 10
115.7583664429333
 20
1000.6658116454195
 10
115.5751529571036
 20
1000.3283743812896
 10
115.39785646785592
 20
999.9877909942701
 10
115.22653098141832
 20
999.6441652293597
 10
115.0612286851937
 20
999.2976017582954
 10
114.90199993186278
 20
998.9482061476676
 10
114.74889322404631
 20
998.596084826764
 10
114.60195519953068
 20
998.2413450551501
 10
114.46123061706156
 20
997.8840948899966
 10
114.32676234271001
 20
997.5244431531647
 10
114.19859133681503
 20
997.1624993980574
 10
114.07675664150662
 20
996.7983738762489
 10
113.96129536881321
 20
996.4321775039002
 10
113.85224268935698
 20
996.064021827974
 10
113.74963182164049
 20
995.6940189922555
 10
113.65349402192808
 20
995.3222817031927
 10
113.56385857472483
 20
994.948923195565
 10
113.48075278385627
 20
994.5740571979907
 10
113.4042019641514
 20
994.197797898284
 10
113.33422943373142
 20
993.8202599086725
 10
113.27085650690697
 20
993.4415582308851
 10
113.21410248768545
 20
993.0618082211214
 10
113.16398466389091
 20
992.6811255549133
 10
113.12051830189799
 20
992.2996261918884
 10
113.0837166419816
 20
991.9174263404485
 10
113.05359089428387
 20
991.5346424223708
 10
113.03015023539938
 20
991.1513910373448
 10
113.01340180557989
 20
990.7677889274551
 10
113.00335070655939
 20
990.3839529416202
 10
113.0
 20
990.0
 10
113.0
 20
860.0
 10
113.00335070655939
 20
859.6160470583798
 10
113.01340180557989
 20
859.2322110725449
 10
113.03015023539938
 20
858.8486089626552
 10
113.05359089428387
 20
858.4653575776292
 10
113.0837166419816
 20
858.0825736595515
 10
113.12051830189799
 20
857.7003738081116
 10
113.16398466389091
 20
857.3188744450867
 10
113.21410248768545
 20
856.9381917788786
 10
113.27085650690697
 20
856.5584417691149
 10
113.33422943373142
 20
856.1797400913275
 10
113.4042019641514
 20
855.802202101716
 10
113.48075278385627
 20
855.4259428020093
 10
113.56385857472483
 20
855.051076804435
 10
113.65349402192808
 20
854.6777182968074
 10
113.74963182164049
 20
854.3059810077445
 10
113.85224268935698
 20
853.935978172026
 10
113.96129536881323
 20
853.5678224960998
 10
114.07675664150662
 20
853.2016261237511
 10
114.19859133681503
 20
852.8375006019426
 10
114.32676234271001
 20
852.4755568468353
 10
114.46123061706156
 20
852.1159051100034
 10
114.60195519953068
 20
851.7586549448499
 10
114.74889322404631
 20
851.403915173236
 10
114.90199993186278
 20
851.0517938523324
 10
115.0612286851937
 20
850.7023982417046
 10
115.22653098141834
 20
850.3558347706403
 10
115.3978564678559
 20
850.01220900573
 10
115.57515295710361
 20
849.6716256187104
 10
115.7583664429333
 20
849.3341883545805
 10
115.94744111674235
 20
849.0
 10
116.14231938455353
 20
848.6691623519788
 10
116.34294188455863
 20
848.3417761868695
 10
116.54924750520067
 20
848.0179412296694
 10
116.76117340378909
 20
847.6977561236436
 10
116.97865502564218
 20
847.381318400277
 10
117.20162612375115
 20
847.0687244495656
 10
117.43001877895955
 20
846.7600694906549
 10
117.66376342065212
 20
846.4554475428355
 10
117.90278884794664
 20
846.1549513969036
 10
118.14702225138248
 20
845.8586725868961
 10
118.39638923509901
 20
845.5667013622088
 10
118.65081383949733
 20
845.2791266601051
 10
118.91021856437825
 20
844.996036078625
 10
119.17452439254967
 20
844.717515849902
 10
119.44365081389596
 20
844.4436508138959
 10
119.71751584990206
 20
844.1745243925496
 10
119.99603607862502
 20
843.9102185643783
 10
120.27912666010512
 20
843.6508138394973
 10
120.56670136220885
 20
843.396389235099
 10
120.85867258689613
 20
843.1470222513825
 10
121.15495139690357
 20
842.9027888479467
 10
121.45544754283551
 20
842.6637634206521
 10
121.76006949065494
 20
842.4300187789596
 10
122.0687244495656
 20
842.2016261237511
 10
122.38131840027698
 20
841.9786550256422
 10
122.69775612364357
 20
841.761173403789
 10
123.0179412296694
 20
841.5492475052007
 10
123.3417761868695
 20
841.3429418845586
 10
123.6691623519788
 20
841.1423193845535
 10
123.99999999999999
 20
840.9474411167423
 10
124.33418835458059
 20
840.7583664429333
 10
124.67162561871041
 20
840.5751529571036
 10
125.01220900572997
 20
840.397856467856
 10
125.35583477064029
 20
840.2265309814184
 10
125.70239824170461
 20
840.0612286851937
 10
126.0517938523324
 20
839.9019999318627
 10
126.40391517323597
 20
839.7488932240464
 10
126.75865494484992
 20
839.6019551995307
 10
127.11590511000338
 20
839.4612306170616
 10
127.47555684683529
 20
839.32676234271
 10
127.83750060194255
 20
839.1985913368151
 10
128.20162612375114
 20
839.0767566415067
 10
128.56782249609978
 20
838.9612953688132
 10
128.935978172026
 20
838.852242689357
 10
129.30598100774455
 20
838.7496318216405
 10
129.6777182968073
 20
838.653494021928
 10
130.05107680443496
 20
838.5638585747248
 10
130.42594280200927
 20
838.4807527838562
 10
130.802202101716
 20
838.4042019641514
 10
131.17974009132755
 20
838.3342294337315
 10
131.55844176911492
 20
838.270856506907
 10
131.93819177887855
 20
838.2141024876854
 10
132.31887444508675
 20
838.1639846638909
 10
132.70037380811164
 20
838.120518301898
 10
133.0825736595515
 20
838.0837166419816
 10
133.46535757762925
 20
838.0535908942838
 10
133.84860896265522
 20
838.0301502353993
 10
134.23221107254497
 20
838.0134018055799
 10
134.61604705837976
 20
838.0033507065594
 10
135.0
 20
838.0
 10
135.38395294162024
 20
838.0033507065594
 10
135.76778892745503
 20
838.0134018055799
 10
136.15139103734478
 20
838.0301502353993
 10
136.53464242237075
 20
838.0535908942838
 10
136.9174263404485
 20
838.0837166419816
 10
137.29962619188836
 20
838.120518301898
 10
137.68112555491325
 20
838.1639846638909
 10
138.06180822112145
 20
838.2141024876854
 10
138.44155823088508
 20
838.270856506907
 10
138.82025990867245
 20
838.3342294337315
 10
139.197797898284
 20
838.4042019641514
 10
139.5740571979907
 20
838.4807527838562
 10
139.94892319556502
 20
838.5638585747248
 10
140.3222817031927
 20
838.653494021928
 10
140.69401899225545
 20
838.7496318216405
 10
141.064021827974
 20
838.852242689357
 10
141.43217750390022
 20
838.9612953688132
 10
141.79837387624883
 20
839.0767566415066
 10
142.16249939805743
 20
839.1985913368151
 10
142.52444315316473
 20
839.32676234271
 10
142.88409488999662
 20
839.4612306170616
 10
143.24134505515008
 20
839.6019551995307
 10
143.596084826764
 20
839.7488932240464
 10
143.9482061476676
 20
839.9019999318627
 10
144.2976017582954
 20
840.0612286851937
 10
144.64416522935971
 20
840.2265309814184
 10
144.98779099427003
 20
840.397856467856
 10
145.3283743812896
 20
840.5751529571036
 10
145.6658116454194
 20
840.7583664429333
 10
146.0
 20
840.9474411167423
 10
146.3308376480212
 20
841.1423193845535
 10
146.6582238131305
 20
841.3429418845586
 10
146.98205877033058
 20
841.5492475052007
 10
147.30224387635644
 20
841.761173403789
 10
147.618681599723
 20
841.9786550256422
 10
147.9312755504344
 20
842.2016261237511
 10
148.23993050934504
 20
842.4300187789596
 10
148.54455245716449
 20
842.6637634206521
 10
148.84504860309642
 20
842.9027888479467
 10
149.14132741310385
 20
843.1470222513825
 10
149.43329863779115
 20
843.396389235099
 10
149.72087333989487
 20
843.6508138394973
 10
150.00396392137498
 20
843.9102185643783
 10
150.28248415009793
 20
844.1745243925496
 10
150.55634918610403
 20
844.4436508138959
 10
150.82547560745033
 20
844.717515849902
 10
151.08978143562175
 20
844.996036078625
 10
151.34918616050268
 20
845.2791266601051
 10
151.603610764901
 20
845.5667013622088
 10
151.85297774861752
 20
845.8586725868961
 10
152.09721115205335
 20
846.1549513969036
 10
152.33623657934788
 20
846.4554475428355
 10
152.56998122104045
 20
846.7600694906549
 10
152.79837387624883
 20
847.0687244495656
 10
153.02134497435782
 20
847.381318400277
 10
153.2388265962109
 20
847.6977561236436
 10
153.45075249479933
 20
848.0179412296694
 10
153.65705811544137
 20
848.3417761868695
 10
153.85768061544647
 20
848.6691623519788
 10
154.05255888325763
 20
849.0
 10
154.2416335570667
 20
849.3341883545805
 10
154.4248470428964
 20
849.6716256187104
 10
154.60214353214408
 20
850.0122090057299
 10
154.77346901858166
 20
850.3558347706403
 10
154.9387713148063
 20
850.7023982417046
 10
155.09800006813722
 20
851.0517938523324
 10
155.2511067759537
 20
851.403915173236
 10
155.39804480046934
 20
851.7586549448499
 10
155.53876938293843
 20
852.1159051100034
 10
155.67323765728997
 20
852.4755568468353
 10
155.801408663185
 20
852.8375006019426
 10
155.92324335849338
 20
853.2016261237511
 10
156.0387046311868
 20
853.5678224960998
 10
156.14775731064302
 20
853.935978172026
 10
156.2503681783595
 20
854.3059810077445
 10
156.34650597807192
 20
854.6777182968073
 10
156.43614142527517
 20
855.051076804435
 10
156.51924721614373
 20
855.4259428020093
 10
156.59579803584862
 20
855.802202101716
 10
156.66577056626858
 20
856.1797400913275
 10
156.72914349309303
 20
856.5584417691149
 10
156.78589751231453
 20
856.9381917788786
 10
156.83601533610909
 20
857.3188744450867
 10
156.879481698102
 20
857.7003738081116
 10
156.9162833580184
 20
858.0825736595515
 10
156.94640910571613
 20
858.4653575776292
 10
156.9698497646006
 20
858.8486089626552
 10
156.9865981944201
 20
859.2322110725449
 10
156.9966492934406
 20
859.6160470583798
 10
157.0
 20
860.0
  0
LWPOLYLINE
  5
62
330
17
100
AcDbEntity
  8
CUT
100
AcDbPolyline
 90
362
 70
1
 10
367.0
 20
990.0
 10
366.9966492934406
 20
990.3839529416202
 10
366.9865981944201
 20
990.7677889274551
 10
366.9698497646006
 20
991.1513910373448
 10
366.94640910571616
 20
991.5346424223708
 10
366.9162833580184
 20
991.9174263404485
 10
366.87948169810204
 20
992.2996261918884
 10
366.8360153361091
 20
992.6811255549133
 10
366.78589751231453
 20
993.0618082211214
 10
366.72914349309303
 20
993.4415582308851
 10
366.6657705662686
 20
993.8202599086725
 10
366.5957980358486
 20
994.197797898284
 10
366.51924721614375
 20
994.5740571979907
 10
366.4361414252752
 20
994.948923195565
 10
366.34650597807195
 20
995.3222817031927
 10
366.2503681783595
 20
995.6940189922555
 10
366.147757310643
 20
996.064021827974
 10
366.03870463118676
 20
996.4321775039002
 10
365.9232433584934
 20
996.7983738762489
 10
365.801408663185
 20
997.1624993980574
 10
365.67323765729
 20
997.5244431531647
 10
365.5387693829384
 20
997.8840948899966
 10
365.39804480046934
 20
998.2413450551501
 10
365.2511067759537
 20
998.596084826764
 10
365.0980000681372
 20
998.9482061476676
 10
364.9387713148063
 20
999.2976017582954
 10
364.7734690185817
 20
999.6441652293597
 10
364.6021435321441
 20
999.98779099427
 10
364.4248470428964
 20
1000.3283743812896
 10
364.24163355706673
 20
1000.6658116454195
 10
364.05255888325763
 20
1001.0
 10
363.8576806154465
 20
1001.3308376480212
 10
363.6570581154414
 20
1001.6582238131305
 10
363.4507524947993
 20
1001.9820587703306
 10
363.2388265962109
 20
1002.3022438763564
 10
363.0213449743578
 20
1002.618681599723
 10
362.79837387624883
 20
1002.9312755504344
 10
362.56998122104045
 20
1003.2399305093451
 10
362.3362365793479
 20
1003.5445524571645
 10
362.0972111520534
 20
1003.8450486030964
 10
361.8529777486175
 20
1004.1413274131039
 10
361.60361076490096
 20
1004.4332986377912
 10
361.34918616050265
 20
1004.7208733398949
 10
361.0897814356218
 20
1005.003963921375
 10
360.8254756074503
 20
1005.282484150098
 10
360.55634918610406
 20
1005.5563491861041
 10
360.28248415009796
 20
1005.8254756074504
 10
360.003963921375
 20
1006.0897814356217
 10
359.72087333989487
 20
1006.3491861605027
 10
359.43329863779115
 20
1006.603610764901
 10
359.14132741310385
 20
1006.8529777486175
 10
358.8450486030964
 20
1007.0972111520533
 10
358.54455245716446
 20
1007.3362365793479
 10
358.2399305093451
 20
1007.5699812210404
 10
357.9312755504344
 20
1007.7983738762489
 10
357.618681599723
 20
1008.0213449743578
 10
357.30224387635644
 20
1008.238826596211
 10
356.9820587703306
 20
1008.4507524947993
 10
356.6582238131305
 20
1008.6570581154414
 10
356.3308376480212
 20
1008.8576806154465
 10
356.0
 20
1009.0525588832577
 10
355.6658116454194
 20
1009.2416335570667
 10
355.3283743812896
 20
1009.4248470428964
 10
354.98779099427003
 20
1009.602143532144
 10
354.6441652293597
 20
1009.7734690185816
 10
354.2976017582954
 20
1009.9387713148063
 10
353.94820614766763
 20
1010.0980000681373
 10
353.596084826764
 20
1010.2511067759536
 10
353.2413450551501
 20
1010.3980448004693
 10
352.8840948899966
 20
1010.5387693829384
 10
352.5244431531647
 20
1010.67323765729
 10
352.16249939805743
 20
1010.8014086631849
 10
351.79837387624883
 20
1010.9232433584933
 10
351.4321775039002
 20
1011.0387046311868
 10
351.064021827974
 20
1011.147757310643
 10
350.69401899225545
 20
1011.2503681783595
 10
350.3222817031927
 20
1011.346505978072
 10
349.94892319556504
 20
1011.4361414252752
 10
349.5740571979907
 20
1011.5192472161438
 10
349.19779789828397
 20
1011.5957980358486
 10
348.8202599086725
 20
1011.6657705662685
 10
348.4415582308851
 20
1011.729143493093
 10
348.06180822112145
 20
1011.7858975123146
 10
347.68112555491325
 20
1011.8360153361091
 10
347.29962619188836
 20
1011.879481698102
 10
346.91742634044846
 20
1011.9162833580184
 10
346.5346424223708
 20
1011.9464091057162
 10
346.15139103734475
 20
1011.9698497646007
 10
345.767788927455
 20
1011.9865981944201
 10
345.38395294162024
 20
1011.9966492934406
 10
345.0
 20
1012.0
 10
344.61604705837976
 20
1011.9966492934406
 10
344.232211072545
 20
1011.9865981944201
 10
343.84860896265525
 20
1011.9698497646007
 10
343.4653575776292
 20
1011.9464091057162
 10
343.08257365955154
 20
1011.9162833580184
 10
342.70037380811164
 20
1011.879481698102
 10
342.31887444508675
 20
1011.8360153361091
 10
341.93819177887855
 20
1011.7858975123146
 10
341.55844176911495
 20
1011.729143493093
 10
341.1797400913275
 20
1011.6657705662685
 10
340.80220210171603
 20
1011.5957980358486
 10
340.4259428020093
 20
1011.5192472161438
 10
340.05107680443496
 20
1011.4361414252752
 10
339.6777182968073
 20
1011.346505978072
 10
339.30598100774455
 20
1011.2503681783595
 10
338.935978172026
 20
1011.147757310643
 10
338.5678224960998
 20
1011.0387046311868
 10
338.20162612375117
 20
1010.9232433584934
 10
337.83750060194257
 20
1010.8014086631849
 10
337.4755568468353
 20
1010.67323765729
 10
337.1159051100034
 20
1010.5387693829384
 10
336.7586549448499
 20
1010.3980448004693
 10
336.403915173236
 20
1010.2511067759536
 10
336.05179385233237
 20
1010.0980000681373
 10
335.7023982417046
 20
1009.9387713148063
 10
335.3558347706403
 20
1009.7734690185816
 10
335.01220900572997
 20
1009.602143532144
 10
334.6716256187104
 20
1009.4248470428964
 10
334.3341883545806
 20
1009.2416335570667
 10
334.0
 20
1009.0525588832577
 10
333.6691623519788
 20
1008.8576806154465
 10
333.3417761868695
 20
1008.6570581154414
 10
333.0179412296694
 20
1008.4507524947993
 10
332.69775612364356
 20
1008.238826596211
 10
332.381318400277
 20
1008.0213449743578
 10
332.0687244495656
 20
1007.7983738762489
 10
331.7600694906549
 20
1007.5699812210404
 10
331.45544754283554
 20
1007.3362365793479
 10
331.1549513969036
 20
1007.0972111520533
 10
330.85867258689615
 20
1006.8529777486175
 10
330.56670136220885
 20
1006.603610764901
 10
330.27912666010513
 20
1006.3491861605027
 10
329.996036078625
 20
1006.0897814356217
 10
329.71751584990204
 20
1005.8254756074504
 10
329.44365081389594
 20
1005.5563491861041
 10
329.1745243925497
 20
1005.282484150098
 10
328.9102185643782
 20
1005.003963921375
 10
328.65081383949735
 20
1004.7208733398949
 10
328.39638923509904
 20
1004.4332986377912
 10
328.1470222513825
 20
1004.1413274131039
 10
327.9027888479466
 20
1003.8450486030964
 10
327.6637634206521
 20
1003.5445524571645
 10
327.43001877895955
 20
1003.2399305093451
 10
327.20162612375117
 20
1002.9312755504344
 10
326.9786550256422
 20
1002.618681599723
 10
326.7611734037891
 20
1002.3022438763564
 10
326.5492475052007
 20
1001.9820587703306
 10
326.3429418845586
 20
1001.6582238131305
 10
326.1423193845535
 20
1001.3308376480212
 10
325.94744111674237
 20
1001.0
 10
325.75836644293327
 20
1000.6658116454195
 10
325.5751529571036
 20
1000.3283743812896
 10
325.3978564678559
 20
999.9877909942701
 10
325.2265309814183
 20
999.6441652293597
 10
325.0612286851937
 20
999.2976017582954
 10
324.9019999318628
 20
998.9482061476676
 10
324.7488932240463
 20
998.596084826764
 10
324.60195519953066
 20
998.2413450551501
 10
324.4612306170616
 20
997.8840948899966
 10
324.32676234271
 20
997.5244431531647
 10
324.198591336815
 20
997.1624993980574
 10
324.0767566415066
 20
996.7983738762489
 10
323.96129536881324
 20
996.4321775039002
 10
323.852242689357
 20
996.064021827974
 10
323.7496318216405
 20
995.6940189922555
 10
323.65349402192805
 20
995.3222817031927
 10
323.5638585747248
 20
994.948923195565
 10
323.48075278385625
 20
994.5740571979907
 10
323.4042019641514
 20
994.197797898284
 10
323.3342294337314
 20
993.8202599086725
 10
323.27085650690697
 20
993.4415582308851
 10
323.21410248768547
 20
993.0618082211214
 10
323.1639846638909
 20
992.6811255549133
 10
323.12051830189796
 20
992.2996261918884
 10
323.0837166419816
 20
991.9174263404485
 10
323.05359089428384
 20
991.5346424223708
 10
323.0301502353994
 20
991.1513910373448
 10
323.0134018055799
 20
990.7677889274551
 10
323.0033507065594
 20
990.3839529416202
 10
323.0
 20
990.0
 10
323.0
 20
860.0
 10
323.0033507065594
 20
859.6160470583798
 10
323.0134018055799
 20
859.2322110725449
 10
323.0301502353994
 20
858.8486089626552
 10
323.05359089428384
 20
858.4653575776292
 10
323.0837166419816
 20
858.0825736595515
 10
323.12051830189796
 20
857.7003738081116
 10
323.1639846638909
 20
857.3188744450867
 10
323.21410248768547
 20
856.9381917788786
 10
323.27085650690697
 20
856.5584417691149
 10
323.3342294337314
 20
856.1797400913275
 10
323.4042019641514
 20
855.802202101716
 10
323.4807527838563
 20
855.4259428020093
 10
323.5638585747248
 20
855.051076804435
 10
323.65349402192805
 20
854.6777182968074
 10
323.7496318216405
 20
854.3059810077445
 10
323.852242689357
 20
853.935978172026
 10
323.96129536881324
 20
853.5678224960998
 10
324.0767566415066
 20
853.2016261237511
 10
324.198591336815
 20
852.8375006019426
 10
324.32676234271
 20
852.4755568468353
 10
324.4612306170616
 20
852.1159051100034
 10
324.60195519953066
 20
851.7586549448499
 10
324.7488932240463
 20
851.403915173236
 10
324.9019999318628
 20
851.0517938523324
 10
325.06122868519367
 20
850.7023982417046
 10
325.2265309814183
 20
850.3558347706403
 10
325.3978564678559
 20
850.01220900573
 10
325.5751529571036
 20
849.6716256187104
 10
325.75836644293327
 20
849.3341883545805
 10
325.94744111674237
 20
849.0
 10
326.1423193845535
 20
848.6691623519788
 10
326.3429418845586
 20
848.3417761868695
 10
326.5492475052007
 20
848.0179412296694
 10
326.7611734037891
 20
847.6977561236436
 10
326.9786550256422
 20
847.381318400277
 10
327.20162612375117
 20
847.0687244495656
 10
327.43001877895955
 20
846.7600694906549
 10
327.6637634206521
 20
846.4554475428355
 10
327.9027888479466
 20
846.1549513969036
 10
328.1470222513825
 20
845.8586725868961
 10
328.39638923509904
 20
845.5667013622088
 10
328.65081383949735
 20
845.2791266601051
 10
328.9102185643782
 20
844.996036078625
 10
329.1745243925497
 20
844.717515849902
 10
329.44365081389594
 20
844.4436508138959
 10
329.71751584990204
 20
844.1745243925496
 10
329.996036078625
 20
843.9102185643783
 10
330.27912666010513
 20
843.6508138394973
 10
330.56670136220885
 20
843.396389235099
 10
330.85867258689615
 20
843.1470222513825
 10
331.1549513969036
 20
842.9027888479467
 10
331.45544754283554
 20
842.6637634206521
 10
331.7600694906549
 20
842.4300187789596
 10
332.0687244495656
 20
842.2016261237511
 10
332.381318400277
 20
841.9786550256422
 10
332.69775612364356
 20
841.761173403789
 10
333.0179412296694
 20
841.5492475052007
 10
333.3417761868695
 20
841.3429418845586
 10
333.6691623519788
 20
841.1423193845535
 10
334.0
 20
840.9474411167423
 10
334.3341883545806
 20
840.7583664429333
 10
334.6716256187104
 20
840.5751529571036
 10
335.01220900572997
 20
840.397856467856
 10
335.3558347706403
 20
840.2265309814184
 10
335.7023982417046
 20
840.0612286851937
 10
336.0517938523324
 20
839.9019999318627
 10
336.403915173236
 20
839.7488932240464
 10
336.7586549448499
 20
839.6019551995307
 10
337.1159051100034
 20
839.4612306170616
 10
337.4755568468353
 20
839.32676234271
 10
337.83750060194257
 20
839.1985913368151
 10
338.20162612375117
 20
839.0767566415067
 10
338.5678224960998
 20
838.9612953688132
 10
338.935978172026
 20
838.852242689357
 10
339.30598100774455
 20
838.7496318216405
 10
339.6777182968073
 20
838.653494021928
 10
340.05107680443496
 20
838.5638585747248
 10
340.4259428020093
 20
838.4807527838562
 10
340.80220210171603
 20
838.4042019641514
 10
341.1797400913275
 20
838.3342294337315
 10
341.5584417691149
 20
838.270856506907
 10
341.93819177887855
 20
838.2141024876854
 10
342.31887444508675
 20
838.1639846638909
 10
342.70037380811164
 20
838.120518301898
 10
343.08257365955154
 20
838.0837166419816
 10
343.4653575776292
 20
838.0535908942838
 10
343.84860896265525
 20
838.0301502353993
 10
344.232211072545
 20
838.0134018055799
 10
344.61604705837976
 20
838.0033507065594
 10
345.0
 20
838.0
 10
345.38395294162024
 20
838.0033507065594
 10
345.767788927455
 20
838.0134018055799
 10
346.15139103734475
 20
838.0301502353993
 10
346.5346424223708
 20
838.0535908942838
 10
346.91742634044846
 20
838.0837166419816
 10
347.29962619188836
 20
838.120518301898
 10
347.68112555491325
 20
838.1639846638909
 10
348.06180822112145
 20
838.2141024876854
 10
348.44155823088505
 20
838.270856506907
 10
348.8202599086725
 20
838.3342294337315
 10
349.19779789828397
 20
838.4042019641514
 10
349.5740571979907
 20
838.4807527838562
 10
349.94892319556504
 20
838.5638585747248
 10
350.3222817031927
 20
838.653494021928
 10
350.69401899225545
 20
838.7496318216405
 10
351.064021827974
 20
838.852242689357
 10
351.4321775039002
 20
838.9612953688132
 10
351.79837387624883
 20
839.0767566415066
 10
352.16249939805743
 20
839.1985913368151
 10
352.5244431531647
 20
839.32676234271
 10
352.8840948899966
 20
839.4612306170616
 10
353.2413450551501
 20
839.6019551995307
 10
353.596084826764
 20
839.7488932240464
 10
353.9482061476676
 20
839.9019999318627
 10
354.2976017582954
 20
840.0612286851937
 10
354.6441652293597
 20
840.2265309814184
 10
354.98779099427003
 20
840.397856467856
 10
355.32837438128956
 20
840.5751529571036
 10
355.6658116454194
 20
840.7583664429333
 10
356.0
 20
840.9474411167423
 10
356.3308376480212
 20
841.1423193845535
 10
356.6582238131305
 20
841.3429418845586
 10
356.9820587703306
 20
841.5492475052007
 10
357.30224387635644
 20
841.761173403789
 10
357.618681599723
 20
841.9786550256422
 10
357.9312755504344
 20
842.2016261237511
 10
358.2399305093451
 20
842.4300187789596
 10
358.5445524571645
 20
842.6637634206521
 10
358.8450486030964
 20
842.9027888479467
 10
359.14132741310385
 20
843.1470222513825
 10
359.43329863779115
 20
843.396389235099
 10
359.72087333989487
 20
843.6508138394973
 10
360.003963921375
 20
843.9102185643783
 10
360.28248415009796
 20
844.1745243925496
 10
360.55634918610406
 20
844.4436508138959
 10
360.8254756074503
 20
844.717515849902
 10
361.0897814356218
 20
844.996036078625
 10
361.34918616050265
 20
845.2791266601051
 10
361.60361076490096
 20
845.5667013622088
 10
361.8529777486175
 20
845.8586725868961
 10
362.0972111520534
 20
846.1549513969036
 10
362.3362365793479
 20
846.4554475428355
 10
362.56998122104045
 20
846.7600694906549
 10
362.79837387624883
 20
847.0687244495656
 10
363.0213449743578
 20
847.381318400277
 10
363.2388265962109
 20
847.6977561236436
 10
363.4507524947993
 20
848.0179412296694
 10
363.6570581154414
 20
848.3417761868695
 10
363.85768061544644
 20
848.6691623519788
 10
364.05255888325763
 20
849.0
 10
364.24163355706673
 20
849.3341883545805
 10
364.4248470428964
 20
849.6716256187104
 10
364.6021435321441
 20
850.0122090057299
 10
364.7734690185817
 20
850.3558347706403
 10
364.93877131480633
 20
850.7023982417046
 10
365.0980000681372
 20
851.0517938523324
 10
365.2511067759537
 20
851.403915173236
 10
365.39804480046934
 20
851.7586549448499
 10
365.5387693829384
 20
852.1159051100034
 10
365.67323765729
 20
852.4755568468353
 10
365.801408663185
 20
852.8375006019426
 10
365.9232433584934
 20
853.2016261237511
 10
366.03870463118676
 20
853.5678224960998
 10
366.147757310643
 20
853.935978172026
 10
366.2503681783595
 20
854.3059810077445
 10
366.34650597807195
 20
854.6777182968073
 10
366.4361414252752
 20
855.051076804435
 10
366.5192472161437
 20
855.4259428020093
 10
366.5957980358486
 20
855.802202101716
 10
366.6657705662686
 20
856.1797400913275
 10
366.72914349309303
 20
856.5584417691149
 10
366.78589751231453
 20
856.9381917788786
 10
366.8360153361091
 20
857.3188744450867
 10
366.87948169810204
 20
857.7003738081116
 10
366.9162833580184
 20
858.0825736595515
 10
366.94640910571616
 20
858.4653575776292
 10
366.9698497646006
 20
858.8486089626552
 10
366.9865981944201
 20
859.2322110725449
 10
366.9966492934406
 20
859.6160470583798
 10
367.0
 20
860.0
  0
CIRCLE
  5
63
330
17
100
AcDbEntity
  8
DOGBONE
100
AcDbCircle
 10
230.9
 20
925.0
 30
0.0
 40
3.175
  0
CIRCLE
  5
64
330
17
100
AcDbEntity
  8
DOGBONE
100
AcDbCircle
 10
249.1
 20
925.0
 30
0.0
 40
3.175
  0
LWPOLYLINE
  5
65
330
17
100
AcDbEntity
  8
GUIDE
100
AcDbPolyline
 90
4
 70
1
 10
0.0
 20
0.0
 10
610.0
 20
0.0
 10
610.0
 20
1219.0
 10
0.0
 20
1219.0
  0
ENDSEC
  0
SECTION
  2
OBJECTS
  0
DICTIONARY
  5
A
330
0
100
AcDbDictionary
281
1
  3
ACAD_COLOR
350
B
  3
ACAD_GROUP
350
C
  3
ACAD_LAYOUT
350
D
  3
ACAD_MATERIAL
350
E
  3
ACAD_MLEADERSTYLE
350
F
  3
ACAD_MLINESTYLE
350
10
  3
ACAD_PLOTSETTINGS
350
11
  3
ACAD_PLOTSTYLENAME
350
12
  3
ACAD_SCALELIST
350
14
  3
ACAD_TABLESTYLE
350
15
  3
ACAD_VISUALSTYLE
350
16
  3
EZDXF_META
350
2D
  0
DICTIONARY
  5
B
330
A
100
AcDbDictionary
281
1
  0
DICTIONARY
  5
C
330
A
100
AcDbDictionary
281
1
  0
DICTIONARY
  5
D
330
A
100
AcDbDictionary
281
1
  3
Model
350
1A
  3
Layout1
350
1E
  0
DICTIONARY
  5
E
330
A
100
AcDbDictionary
281
1
  3
ByBlock
350
1F
  3
ByLayer
350
20
  3
Global
350
21
  0
DICTIONARY
  5
F
330
A
100
AcDbDictionary
281
1
  3
Standard
350
2C
  0
DICTIONARY
  5
10
330
A
100
AcDbDictionary
281
1
  3
Standard
350
22
  0
DICTIONARY
  5
11
330
A
100
AcDbDictionary
281
1
  0
ACDBDICTIONARYWDFLT
  5
12
330
A
100
AcDbDictionary
281
1
  3
Normal
350
13
100
AcDbDictionaryWithDefault
340
13
  0
ACDBPLACEHOLDER
  5
13
330
12
  0
DICTIONARY
  5
14
330
A
100
AcDbDictionary
281
1
  0
DICTIONARY
  5
15
330
A
100
AcDbDictionary
281
1
  0
DICTIONARY
  5
16
330
A
100
AcDbDictionary
281
1
  0
LAYOUT
  5
1A
330
D
100
AcDbPlotSettings
  1

  4
A3
  6

 40
7.5
 41
20.0
 42
7.5
 43
20.0
 44
420.0
 45
297.0
 46
0.0
 47
0.0
 48
0.0
 49
0.0
140
0.0
141
0.0
142
1.0
143
1.0
 70
1024
 72
1
 73
0
 74
5
  7

 75
16
 76
0
 77
2
 78
300
147
1.0
148
0.0
149
0.0
100
AcDbLayout
  1
Model
 70
1
 71
0
 10
0.0
 20
0.0
 11
420.0
 21
297.0
 12
0.0
 22
0.0
 32
0.0
 14
1e+20
 24
1e+20
 34
1e+20
 15
-1e+20
 25
-1e+20
 35
-1e+20
146
0.0
 13
0.0
 23
0.0
 33
0.0
 16
1.0
 26
0.0
 36
0.0
 17
0.0
 27
1.0
 37
0.0
 76
1
330
17
  0
LAYOUT
  5
1E
330
D
100
AcDbPlotSettings
  1

  4
A3
  6

 40
7.5
 41
20.0
 42
7.5
 43
20.0
 44
420.0
 45
297.0
 46
0.0
 47
0.0
 48
0.0
 49
0.0
140
0.0
141
0.0
142
1.0
143
1.0
 70
0
 72
1
 73
0
 74
5
  7

 75
16
 76
0
 77
2
 78
300
147
1.0
148
0.0
149
0.0
100
AcDbLayout
  1
Layout1
 70
1
 71
1
 10
0.0
 20
0.0
 11
420.0
 21
297.0
 12
0.0
 22
0.0
 32
0.0
 14
1e+20
 24
1e+20
 34
1e+20
 15
-1e+20
 25
-1e+20
 35
-1e+20
146
0.0
 13
0.0
 23
0.0
 33
0.0
 16
1.0
 26
0.0
 36
0.0
 17
0.0
 27
1.0
 37
0.0
 76
1
330
1B
  0
MATERIAL
  5
1F
102
{ACAD_REACTORS
330
E
102
}
330
E
100
AcDbMaterial
  1
ByBlock
  2

 70
0
 40
1.0
 71
1
 41
1.0
 91
-1023410177
 42
1.0
 72
1
  3

 73
1
 74
1
 75
1
 44
0.5
 73
0
 45
1.0
 46
1.0
 77
1
  4

 78
1
 79
1
170
1
 48
1.0
171
1
  6

172
1
173
1
174
1
140
1.0
141
1.0
175
1
  7

176
1
177
1
178
1
143
1.0
179
1
  8

270
1
271
1
272
1
145
1.0
146
1.0
273
1
  9

274
1
275
1
276
1
 42
1.0
 72
1
  3

 73
1
 74
1
 75
1
 94
63
  0
MATERIAL
  5
20
102
{ACAD_REACTORS
330
E
102
}
330
E
100
AcDbMaterial
  1
ByLayer
  2

 70
0
 40
1.0
 71
1
 41
1.0
 91
-1023410177
 42
1.0
 72
1
  3

 73
1
 74
1
 75
1
 44
0.5
 73
0
 45
1.0
 46
1.0
 77
1
  4

 78
1
 79
1
170
1
 48
1.0
171
1
  6

172
1
173
1
174
1
140
1.0
141
1.0
175
1
  7

176
1
177
1
178
1
143
1.0
179
1
  8

270
1
271
1
272
1
145
1.0
146
1.0
273
1
  9

274
1
275
1
276
1
 42
1.0
 72
1
  3

 73
1
 74
1
 75
1
 94
63
  0
MATERIAL
  5
21
102
{ACAD_REACTORS
330
E
102
}
330
E
100
AcDbMaterial
  1
Global
  2

 70
0
 40
1.0
 71
1
 41
1.0
 91
-1023410177
 42
1.0
 72
1
  3

 73
1
 74
1
 75
1
 44
0.5
 73
0
 45
1.0
 46
1.0
 77
1
  4

 78
1
 79
1
170
1
 48
1.0
171
1
  6

172
1
173
1
174
1
140
1.0
141
1.0
175
1
  7

176
1
177
1
178
1
143
1.0
179
1
  8

270
1
271
1
272
1
145
1.0
146
1.0
273
1
  9

274
1
275
1
276
1
 42
1.0
 72
1
  3

 73
1
 74
1
 75
1
 94
63
  0
MLINESTYLE
  5
22
102
{ACAD_REACTORS
330
10
102
}
330
10
100
AcDbMlineStyle
  2
Standard
 70
0
  3

 62
256
 51
90.0
 52
90.0
 71
2
 49
0.5
 62
256
  6
BYLAYER
 49
-0.5
 62
256
  6
BYLAYER
  0
MLEADERSTYLE
  5
2C
102
{ACAD_REACTORS
330
F
102
}
330
F
100
AcDbMLeaderStyle
179
2
170
2
171
1
172
0
 90
2
 40
0.0
 41
0.0
173
1
 91
-1056964608
 92
-2
290
1
 42
2.0
291
1
 43
8.0
  3
Standard
 44
4.0
300

342
29
174
1
175
1
176
0
178
1
 93
-1056964608
 45
4.0
292
0
297
0
 46
4.0
 94
-1056964608
 47
1.0
 49
1.0
140
1.0
294
1
141
0.0
177
0
142
1.0
295
0
296
0
143
3.75
271
0
272
9
273
9
  0
DICTIONARY
  5
2D
330
A
100
AcDbDictionary
280
1
281
1
  3
CREATED_BY_EZDXF
350
2E
  3
WRITTEN_BY_EZDXF
350
68
  0
DICTIONARYVAR
  5
2E
330
2D
100
DictionaryVariables
280
0
  1
1.4.4 @ 2026-06-24T16:19:22.222998+00:00
  0
DICTIONARYVAR
  5
68
330
2D
100
DictionaryVariables
280
0
  1
1.4.4 @ 2026-06-24T16:19:22.241334+00:00
  0
ENDSEC
  0
EOF
