  0
SECTION
  2
HEADER
  9
$ACADVER
  1
AC1024
  9
$ACADMAINTVER
 70
6
  9
$DWGCODEPAGE
  3
ANSI_1252
  9
$LASTSAVEDBY
  1
ezdxf
  9
$INSBASE
 10
0.0
 20
0.0
 30
0.0
  9
$EXTMIN
 10
1e+20
 20
1e+20
 30
1e+20
  9
$EXTMAX
 10
-1e+20
 20
-1e+20
 30
-1e+20
  9
$LIMMIN
 10
0.0
 20
0.0
  9
$LIMMAX
 10
420.0
 20
297.0
  9
$ORTHOMODE
 70
0
  9
$REGENMODE
 70
1
  9
$FILLMODE
 70
1
  9
$QTEXTMODE
 70
0
  9
$MIRRTEXT
 70
1
  9
$LTSCALE
 40
1.0
  9
$ATTMODE
 70
1
  9
$TEXTSIZE
 40
2.5
  9
$TRACEWID
 40
1.0
  9
$TEXTSTYLE
  7
Standard
  9
$CLAYER
  8
0
  9
$CELTYPE
  6
ByLayer
  9
$CECOLOR
 62
256
  9
$CELTSCALE
 40
1.0
  9
$DISPSILH
 70
0
  9
$DIMSCALE
 40
1.0
  9
$DIMASZ
 40
2.5
  9
$DIMEXO
 40
0.625
  9
$DIMDLI
 40
3.75
  9
$DIMRND
 40
0.0
  9
$DIMDLE
 40
0.0
  9
$DIMEXE
 40
1.25
  9
$DIMTP
 40
0.0
  9
$DIMTM
 40
0.0
  9
$DIMTXT
 40
2.5
  9
$DIMCEN
 40
2.5
  9
$DIMTSZ
 40
0.0
  9
$DIMTOL
 70
0
  9
$DIMLIM
 70
0
  9
$DIMTIH
 70
0
  9
$DIMTOH
 70
0
  9
$DIMSE1
 70
0
  9
$DIMSE2
 70
0
  9
$DIMTAD
 70
1
  9
$DIMZIN
 70
8
  9
$DIMBLK
  1

  9
$DIMASO
 70
1
  9
$DIMSHO
 70
1
  9
$DIMPOST
  1

  9
$DIMAPOST
  1

  9
$DIMALT
 70
0
  9
$DIMALTD
 70
3
  9
$DIMALTF
 40
0.03937007874
  9
$DIMLFAC
 40
1.0
  9
$DIMTOFL
 70
1
  9
$DIMTVP
 40
0.0
  9
$DIMTIX
 70
0
  9
$DIMSOXD
 70
0
  9
$DIMSAH
 70
0
  9
$DIMBLK1
  1

  9
$DIMBLK2
  1

  9
$DIMSTYLE
  2
ISO-25
  9
$DIMCLRD
 70
0
  9
$DIMCLRE
 70
0
  9
$DIMCLRT
 70
0
  9
$DIMTFAC
 40
1.0
  9
$DIMGAP
 40
0.625
  9
$DIMJUST
 70
0
  9
$DIMSD1
 70
0
  9
$DIMSD2
 70
0
  9
$DIMTOLJ
 70
0
  9
$DIMTZIN
 70
8
  9
$DIMALTZ
 70
0
  9
$DIMALTTZ
 70
0
  9
$DIMUPT
 70
0
  9
$DIMDEC
 70
2
  9
$DIMTDEC
 70
2
  9
$DIMALTU
 70
2
  9
$DIMALTTD
 70
3
  9
$DIMTXSTY
  7
Standard
  9
$DIMAUNIT
 70
0
  9
$DIMADEC
 70
0
  9
$DIMALTRND
 40
0.0
  9
$DIMAZIN
 70
0
  9
$DIMDSEP
 70
44
  9
$DIMATFIT
 70
3
  9
$DIMFRAC
 70
0
  9
$DIMLDRBLK
  1

  9
$DIMLUNIT
 70
2
  9
$DIMLWD
 70
-2
  9
$DIMLWE
 70
-2
  9
$DIMTMOVE
 70
0
  9
$DIMFXL
 40
1.0
  9
$DIMFXLON
 70
0
  9
$DIMJOGANG
 40
0.785398163397
  9
$DIMTFILL
 70
0
  9
$DIMTFILLCLR
 70
0
  9
$DIMARCSYM
 70
0
  9
$DIMLTYPE
  6

  9
$DIMLTEX1
  6

  9
$DIMLTEX2
  6

  9
$DIMTXTDIRECTION
 70
0
  9
$LUNITS
 70
2
  9
$LUPREC
 70
4
  9
$SKETCHINC
 40
1.0
  9
$FILLETRAD
 40
10.0
  9
$AUNITS
 70
0
  9
$AUPREC
 70
2
  9
$MENU
  1
.
  9
$ELEVATION
 40
0.0
  9
$PELEVATION
 40
0.0
  9
$THICKNESS
 40
0.0
  9
$LIMCHECK
 70
0
  9
$CHAMFERA
 40
0.0
  9
$CHAMFERB
 40
0.0
  9
$CHAMFERC
 40
0.0
  9
$CHAMFERD
 40
0.0
  9
$SKPOLY
 70
0
  9
$TDCREATE
 40
2461216.6801157407
  9
$TDUCREATE
 40
2458532.153996898
  9
$TDUPDATE
 40
2461216.6801157407
  9
$TDUUPDATE
 40
2458532.1544311
  9
$TDINDWG
 40
0.0
  9
$TDUSRTIMER
 40
0.0
  9
$USRTIMER
 70
1
  9
$ANGBASE
 50
0.0
  9
$ANGDIR
 70
0
  9
$PDMODE
 70
0
  9
$PDSIZE
 40
0.0
  9
$PLINEWID
 40
0.0
  9
$SPLFRAME
 70
0
  9
$SPLINETYPE
 70
6
  9
$SPLINESEGS
 70
8
  9
$HANDSEED
  5
3A
  9
$SURFTAB1
 70
6
  9
$SURFTAB2
 70
6
  9
$SURFTYPE
 70
6
  9
$SURFU
 70
6
  9
$SURFV
 70
6
  9
$UCSBASE
  2

  9
$UCSNAME
  2

  9
$UCSORG
 10
0.0
 20
0.0
 30
0.0
  9
$UCSXDIR
 10
1.0
 20
0.0
 30
0.0
  9
$UCSYDIR
 10
0.0
 20
1.0
 30
0.0
  9
$UCSORTHOREF
  2

  9
$UCSORTHOVIEW
 70
0
  9
$UCSORGTOP
 10
0.0
 20
0.0
 30
0.0
  9
$UCSORGBOTTOM
 10
0.0
 20
0.0
 30
0.0
  9
$UCSORGLEFT
 10
0.0
 20
0.0
 30
0.0
  9
$UCSORGRIGHT
 10
0.0
 20
0.0
 30
0.0
  9
$UCSORGFRONT
 10
0.0
 20
0.0
 30
0.0
  9
$UCSORGBACK
 10
0.0
 20
0.0
 30
0.0
  9
$PUCSBASE
  2

  9
$PUCSNAME
  2

  9
$PUCSORG
 10
0.0
 20
0.0
 30
0.0
  9
$PUCSXDIR
 10
1.0
 20
0.0
 30
0.0
  9
$PUCSYDIR
 10
0.0
 20
1.0
 30
0.0
  9
$PUCSORTHOREF
  2

  9
$PUCSORTHOVIEW
 70
0
  9
$PUCSORGTOP
 10
0.0
 20
0.0
 30
0.0
  9
$PUCSORGBOTTOM
 10
0.0
 20
0.0
 30
0.0
  9
$PUCSORGLEFT
 10
0.0
 20
0.0
 30
0.0
  9
$PUCSORGRIGHT
 10
0.0
 20
0.0
 30
0.0
  9
$PUCSORGFRONT
 10
0.0
 20
0.0
 30
0.0
  9
$PUCSORGBACK
 10
0.0
 20
0.0
 30
0.0
  9
$USERI1
 70
0
  9
$USERI2
 70
0
  9
$USERI3
 70
0
  9
$USERI4
 70
0
  9
$USERI5
 70
0
  9
$USERR1
 40
0.0
  9
$USERR2
 40
0.0
  9
$USERR3
 40
0.0
  9
$USERR4
 40
0.0
  9
$USERR5
 40
0.0
  9
$WORLDVIEW
 70
1
  9
$SHADEDGE
 70
3
  9
$SHADEDIF
 70
70
  9
$TILEMODE
 70
1
  9
$MAXACTVP
 70
64
  9
$PINSBASE
 10
0.0
 20
0.0
 30
0.0
  9
$PLIMCHECK
 70
0
  9
$PEXTMIN
 10
1e+20
 20
1e+20
 30
1e+20
  9
$PEXTMAX
 10
-1e+20
 20
-1e+20
 30
-1e+20
  9
$PLIMMIN
 10
0.0
 20
0.0
  9
$PLIMMAX
 10
420.0
 20
297.0
  9
$UNITMODE
 70
0
  9
$VISRETAIN
 70
1
  9
$PLINEGEN
 70
0
  9
$PSLTSCALE
 70
1
  9
$TREEDEPTH
 70
3020
  9
$CMLSTYLE
  2
Standard
  9
$CMLJUST
 70
0
  9
$CMLSCALE
 40
20.0
  9
$PROXYGRAPHICS
 70
1
  9
$MEASUREMENT
 70
1
  9
$CELWEIGHT
370
-1
  9
$ENDCAPS
280
0
  9
$JOINSTYLE
280
0
  9
$LWDISPLAY
290
0
  9
$INSUNITS
 70
4
  9
$HYPERLINKBASE
  1

  9
$STYLESHEET
  1

  9
$XEDIT
290
1
  9
$CEPSNTYPE
380
0
  9
$PSTYLEMODE
290
1
  9
$FINGERPRINTGUID
  2
{D4BF358D-4F04-4BB1-8EAF-F4D8AC958932}
  9
$VERSIONGUID
  2
{D4F288C7-4F2F-47F3-AAE5-13CE12F392DA}
  9
$EXTNAMES
290
1
  9
$PSVPSCALE
 40
0.0
  9
$OLESTARTUP
290
0
  9
$SORTENTS
280
127
  9
$INDEXCTL
280
0
  9
$HIDETEXT
280
1
  9
$XCLIPFRAME
280
1
  9
$HALOGAP
280
0
  9
$OBSCOLOR
 70
257
  9
$OBSLTYPE
280
0
  9
$INTERSECTIONDISPLAY
280
0
  9
$INTERSECTIONCOLOR
 70
257
  9
$DIMASSOC
280
2
  9
$PROJECTNAME
  1

  9
$CAMERADISPLAY
290
0
  9
$LENSLENGTH
 40
50.0
  9
$CAMERAHEIGHT
 40
0.0
  9
$STEPSPERSEC
 40
24.0
  9
$STEPSIZE
 40
100.0
  9
$3DDWFPREC
 40
2.0
  9
$PSOLWIDTH
 40
0.005
  9
$PSOLHEIGHT
 40
0.08
  9
$LOFTANG1
 40
1.570796326795
  9
$LOFTANG2
 40
1.570796326795
  9
$LOFTMAG1
 40
0.0
  9
$LOFTMAG2
 40
0.0
  9
$LOFTPARAM
 70
7
  9
$LOFTNORMALS
280
1
  9
$LATITUDE
 40
37.795
  9
$LONGITUDE
 40
-122.394
  9
$NORTHDIRECTION
 40
0.0
  9
$TIMEZONE
 70
-8000
  9
$LIGHTGLYPHDISPLAY
280
1
  9
$TILEMODELIGHTSYNCH
280
1
  9
$CMATERIAL
347
20
  9
$SOLIDHIST
280
0
  9
$SHOWHIST
280
1
  9
$DWFFRAME
280
2
  9
$DGNFRAME
280
2
  9
$REALWORLDSCALE
290
1
  9
$INTERFERECOLOR
 62
256
  9
$CSHADOW
280
0
  9
$SHADOWPLANELOCATION
 40
0.0
  0
ENDSEC
  0
SECTION
  2
CLASSES
  0
CLASS
  1
ACDBDICTIONARYWDFLT
  2
AcDbDictionaryWithDefault
  3
ObjectDBX Classes
 90
0
 91
0
280
0
281
0
  0
CLASS
  1
SUN
  2
AcDbSun
  3
SCENEOE
 90
1153
 91
0
280
0
281
0
  0
CLASS
  1
VISUALSTYLE
  2
AcDbVisualStyle
  3
ObjectDBX Classes
 90
4095
 91
0
280
0
281
0
  0
CLASS
  1
MATERIAL
  2
AcDbMaterial
  3
ObjectDBX Classes
 90
1153
 91
0
280
0
281
0
  0
CLASS
  1
SCALE
  2
AcDbScale
  3
ObjectDBX Classes
 90
1153
 91
0
280
0
281
0
  0
CLASS
  1
TABLESTYLE
  2
AcDbTableStyle
  3
ObjectDBX Classes
 90
4095
 91
0
280
0
281
0
  0
CLASS
  1
MLEADERSTYLE
  2
AcDbMLeaderStyle
  3
ACDB_MLEADERSTYLE_CLASS
 90
4095
 91
0
280
0
281
0
  0
CLASS
  1
DICTIONARYVAR
  2
AcDbDictionaryVar
  3
ObjectDBX Classes
 90
0
 91
0
280
0
281
0
  0
CLASS
  1
CELLSTYLEMAP
  2
AcDbCellStyleMap
  3
ObjectDBX Classes
 90
1152
 91
0
280
0
281
0
  0
CLASS
  1
MENTALRAYRENDERSETTINGS
  2
AcDbMentalRayRenderSettings
  3
SCENEOE
 90
1024
 91
0
280
0
281
0
  0
CLASS
  1
ACDBDETAILVIEWSTYLE
  2
AcDbDetailViewStyle
  3
ObjectDBX Classes
 90
1025
 91
0
280
0
281
0
  0
CLASS
  1
ACDBSECTIONVIEWSTYLE
  2
AcDbSectionViewStyle
  3
ObjectDBX Classes
 90
1025
 91
0
280
0
281
0
  0
CLASS
  1
RASTERVARIABLES
  2
AcDbRasterVariables
  3
ISM
 90
0
 91
0
280
0
281
0
  0
CLASS
  1
ACDBPLACEHOLDER
  2
AcDbPlaceHolder
  3
ObjectDBX Classes
 90
0
 91
0
280
0
281
0
  0
CLASS
  1
LAYOUT
  2
AcDbLayout
  3
ObjectDBX Classes
 90
0
 91
0
280
0
281
0
  0
ENDSEC
  0
SECTION
  2
TABLES
  0
TABLE
  2
VPORT
  5
8
330
0
100
AcDbSymbolTable
 70
1
  0
VPORT
  5
23
330
8
100
AcDbSymbolTableRecord
100
AcDbViewportTableRecord
  2
*Active
 70
0
 10
0.0
 20
0.0
 11
1.0
 21
1.0
 12
0.0
 22
0.0
 13
0.0
 23
0.0
 14
0.5
 24
0.5
 15
0.5
 25
0.5
 16
0.0
 26
0.0
 36
1.0
 17
0.0
 27
0.0
 37
0.0
 40
1000.0
 41
1.34
 42
50.0
 43
0.0
 44
0.0
 50
0.0
 51
0.0
 71
0
 72
1000
 73
1
 74
3
 75
0
 76
0
 77
0
 78
0
281
0
 65
0
146
0.0
  0
ENDTAB
  0
TABLE
  2
LTYPE
  5
2
330
0
100
AcDbSymbolTable
 70
3
  0
LTYPE
  5
24
330
2
100
AcDbSymbolTableRecord
100
AcDbLinetypeTableRecord
  2
ByBlock
 70
0
  3

 72
65
 73
0
 40
0.0
  0
LTYPE
  5
25
330
2
100
AcDbSymbolTableRecord
100
AcDbLinetypeTableRecord
  2
ByLayer
 70
0
  3

 72
65
 73
0
 40
0.0
  0
LTYPE
  5
26
330
2
100
AcDbSymbolTableRecord
100
AcDbLinetypeTableRecord
  2
Continuous
 70
0
  3

 72
65
 73
0
 40
0.0
  0
ENDTAB
  0
TABLE
  2
LAYER
  5
1
330
0
100
AcDbSymbolTable
 70
5
  0
LAYER
  5
27
330
1
100
AcDbSymbolTableRecord
100
AcDbLayerTableRecord
  2
0
 70
0
 62
7
  6
Continuous
370
-3
390
13
347
21
  0
LAYER
  5
28
330
1
100
AcDbSymbolTableRecord
100
AcDbLayerTableRecord
  2
Defpoints
 70
0
 62
7
  6
Continuous
290
0
370
-3
390
13
347
21
  0
LAYER
  5
2F
330
1
100
AcDbSymbolTableRecord
100
AcDbLayerTableRecord
  2
CUT
 70
0
 62
7
  6
Continuous
370
-3
390
13
347
21
  0
LAYER
  5
30
330
1
100
AcDbSymbolTableRecord
100
AcDbLayerTableRecord
  2
DOGBONE
 70
0
 62
1
  6
Continuous
370
-3
390
13
347
21
  0
LAYER
  5
31
330
1
100
AcDbSymbolTableRecord
100
AcDbLayerTableRecord
  2
GUIDE
 70
0
 62
3
  6
Continuous
370
-3
390
13
347
21
  0
ENDTAB
  0
TABLE
  2
STYLE
  5
5
330
0
100
AcDbSymbolTable
 70
1
  0
STYLE
  5
29
330
5
100
AcDbSymbolTableRecord
100
AcDbTextStyleTableRecord
  2
Standard
 70
0
 40
0.0
 41
1.0
 50
0.0
 71
0
 42
2.5
  3
txt
  4

  0
ENDTAB
  0
TABLE
  2
VIEW
  5
7
330
0
100
AcDbSymbolTable
 70
0
  0
ENDTAB
  0
TABLE
  2
UCS
  5
6
330
0
100
AcDbSymbolTable
 70
0
  0
ENDTAB
  0
TABLE
  2
APPID
  5
3
330
0
100
AcDbSymbolTable
 70
3
  0
APPID
  5
2A
330
3
100
AcDbSymbolTableRecord
100
AcDbRegAppTableRecord
  2
ACAD
 70
0
  0
APPID
  5
37
330
3
100
AcDbSymbolTableRecord
100
AcDbRegAppTableRecord
  2
HATCHBACKGROUNDCOLOR
 70
0
  0
APPID
  5
38
330
3
100
AcDbSymbolTableRecord
100
AcDbRegAppTableRecord
  2
EZDXF
 70
0
  0
ENDTAB
  0
TABLE
  2
DIMSTYLE
  5
4
330
0
100
AcDbSymbolTable
 70
1
100
AcDbDimStyleTable
  0
DIMSTYLE
105
2B
330
4
100
AcDbSymbolTableRecord
100
AcDbDimStyleTableRecord
  2
Standard
 70
0
 40
1.0
 41
2.5
 42
0.625
 43
3.75
 44
1.25
 45
0.0
 46
0.0
 47
0.0
 48
0.0
 49
2.5
140
2.5
141
2.5
142
0.0
143
0.03937007874
144
1.0
145
0.0
146
1.0
147
0.625
148
0.0
 69
0
 70
0
 71
0
 72
0
 73
0
 74
0
 75
0
 76
0
 77
1
 78
8
 79
3
170
0
171
3
172
1
173
0
174
0
175
0
176
0
177
0
178
0
179
2
271
2
272
2
273
2
274
3
275
0
276
0
277
2
278
44
279
0
280
0
281
0
282
0
283
0
284
8
285
0
286
0
288
0
289
3
290
0
371
-2
372
-2
  0
ENDTAB
  0
TABLE
  2
BLOCK_RECORD
  5
9
330
0
100
AcDbSymbolTable
 70
2
  0
BLOCK_RECORD
  5
17
330
9
100
AcDbSymbolTableRecord
100
AcDbBlockTableRecord
  2
*Model_Space
340
1A
 70
0
280
1
281
0
  0
BLOCK_RECORD
  5
1B
330
9
100
AcDbSymbolTableRecord
100
AcDbBlockTableRecord
  2
*Paper_Space
340
1E
 70
0
280
1
281
0
  0
ENDTAB
  0
ENDSEC
  0
SECTION
  2
BLOCKS
  0
BLOCK
  5
18
330
17
100
AcDbEntity
  8
0
100
AcDbBlockBegin
  2
*Model_Space
 70
0
 10
0.0
 20
0.0
 30
0.0
  3
*Model_Space
  1

  0
ENDBLK
  5
19
330
17
100
AcDbEntity
  8
0
100
AcDbBlockEnd
  0
BLOCK
  5
1C
330
1B
100
AcDbEntity
  8
0
100
AcDbBlockBegin
  2
*Paper_Space
 70
0
 10
0.0
 20
0.0
 30
0.0
  3
*Paper_Space
  1

  0
ENDBLK
  5
1D
330
1B
100
AcDbEntity
  8
0
100
AcDbBlockEnd
  0
ENDSEC
  0
SECTION
  2
ENTITIES
  0
LWPOLYLINE
  5
32
330
17
100
AcDbEntity
  8
CUT
100
AcDbPolyline
 90
93
 70
1
 10
9.1
 20
135.0
 10
9.1
 20
252.15479209405464
 10
9.099999999999982
 20
252.1547920940547
 10
13.78728971987322
 20
252.35545671659355
 10
18.470340488700867
 20
252.6382759262521
 10
23.14771248594094
 20
253.00316276926299
 10
27.81796763701037
 20
253.45000505987412
 10
32.47967005542515
 20
253.97866541484098
 10
37.13138648426962
 20
254.58898129566546
 10
41.771686736855905
 20
255.28076505856887
 10
46.39914413643963
 20
256.0538040121836
 10
51.012335954857484
 20
256.90786048294603
 10
55.60984384994931
 20
257.84267188817
 10
60.19025430163283
 20
258.8579508167788
 10
64.75215904649525
 20
259.9533851176706
 10
69.29415551076887
 20
261.12863799569067
 10
73.81484724155733
 20
262.38334811518
 10
78.31284433618013
 20
263.71712971106945
 10
82.78676386950292
 20
265.1295727074843
 10
87.23523031912283
 20
266.62024284382386
 10
91.65687598827775
 20
268.18868180827616
 10
96.05034142634939
 20
269.8344073787277
 10
100.41427584683156
 20
271.5569135710242
 10
104.74733754263363
 20
273.35567079453745
 10
109.04819429859386
 20
275.2301260149896
 10
113.31552380107293
 20
277.1797029244855
 10
117.54801404450468
 20
279.203802118701
 10
121.74436373477629
 20
281.3018012811712
 10
125.90328268931601
 20
283.47305537462466
 10
130.02349223376447
 20
285.7168968393018
 10
134.10372559510733
 20
288.0326357981987
 10
138.14272829114944
 20
290.4195602691725
 10
142.13925851620957
 20
292.87693638384224
 10
146.09208752291815
 20
295.40400861321984
 10
149.99999999999997
 20
298.0
 10
150.0
 20
298.0
 10
185.0
 20
90.0
 10
185.0
 20
18.0
 10
165.0
 20
18.0
 10
165.0
 20
0.0
 10
135.0
 20
0.0
 10
135.0
 20
18.0
 10
75.0
 20
18.0
 10
75.0
 20
0.0
 10
45.0
 20
0.0
 10
45.0
 20
18.0
 10
0.0
 20
18.0
 10
-45.0
 20
18.0
 10
-45.0
 20
0.0
 10
-75.0
 20
0.0
 10
-75.0
 20
18.0
 10
-135.0
 20
18.0
 10
-135.0
 20
0.0
 10
-165.0
 20
0.0
 10
-165.0
 20
18.0
 10
-185.0
 20
18.0
 10
-185.0
 20
90.0
 10
-150.0
 20
298.0
 10
-150.00000000000003
 20
298.0
 10
-146.09208752291823
 20
295.40400861321996
 10
-142.1392585162096
 20
292.87693638384224
 10
-138.1427282911495
 20
290.4195602691725
 10
-134.10372559510736
 20
288.0326357981987
 10
-130.02349223376456
 20
285.71689683930185
 10
-125.90328268931614
 20
283.4730553746247
 10
-121.74436373477631
 20
281.30180128117127
 10
-117.54801404450475
 20
279.203802118701
 10
-113.31552380107296
 20
277.1797029244856
 10
-109.04819429859388
 20
275.23012601498965
 10
-104.7473375426337
 20
273.35567079453745
 10
-100.41427584683159
 20
271.5569135710242
 10
-96.05034142634952
 20
269.83440737872775
 10
-91.65687598827776
 20
268.1886818082762
 10
-87.2352303191229
 20
266.6202428438239
 10
-82.78676386950295
 20
265.12957270748433
 10
-78.31284433618022
 20
263.71712971106945
 10
-73.81484724155747
 20
262.38334811518007
 10
-69.2941555107689
 20
261.12863799569067
 10
-64.75215904649534
 20
259.9533851176706
 10
-60.19025430163286
 20
258.8579508167788
 10
-55.6098438499494
 20
257.84267188817006
 10
-51.01233595485756
 20
256.9078604829461
 10
-46.39914413643972
 20
256.0538040121836
 10
-41.771686736855926
 20
255.28076505856887
 10
-37.131386484269704
 20
254.58898129566546
 10
-32.47967005542518
 20
253.97866541484103
 10
-27.817967637010394
 20
253.45000505987412
 10
-23.147712485941028
 20
253.00316276926299
 10
-18.47034048870089
 20
252.6382759262521
 10
-13.787289719873305
 20
252.35545671659355
 10
-9.100000000000007
 20
252.1547920940547
 10
-9.1
 20
252.15479209405464
 10
-9.1
 20
135.0
  0
LWPOLYLINE
  5
33
330
17
100
AcDbEntity
  8
CUT
100
AcDbPolyline
 90
362
 70
1
 10
-83.0
 20
200.0
 10
-83.00335070655939
 20
200.38395294162024
 10
-83.01340180557989
 20
200.76778892745503
 10
-83.03015023539938
 20
201.15139103734475
 10
-83.05359089428387
 20
201.53464242237075
 10
-83.0837166419816
 20
201.9174263404485
 10
-83.12051830189799
 20
202.29962619188836
 10
-83.16398466389091
 20
202.68112555491325
 10
-83.21410248768545
 20
203.06180822112145
 10
-83.27085650690697
 20
203.44155823088508
 10
-83.33422943373142
 20
203.82025990867245
 10
-83.4042019641514
 20
204.197797898284
 10
-83.48075278385627
 20
204.5740571979907
 10
-83.56385857472483
 20
204.94892319556504
 10
-83.65349402192808
 20
205.3222817031927
 10
-83.74963182164049
 20
205.69401899225545
 10
-83.85224268935698
 20
206.064021827974
 10
-83.96129536881323
 20
206.43217750390022
 10
-84.07675664150662
 20
206.79837387624883
 10
-84.19859133681503
 20
207.16249939805743
 10
-84.32676234271001
 20
207.52444315316473
 10
-84.46123061706156
 20
207.88409488999662
 10
-84.60195519953068
 20
208.24134505515008
 10
-84.74889322404631
 20
208.596084826764
 10
-84.90199993186278
 20
208.9482061476676
 10
-85.0612286851937
 20
209.2976017582954
 10
-85.22653098141832
 20
209.64416522935971
 10
-85.3978564678559
 20
209.98779099427003
 10
-85.5751529571036
 20
210.3283743812896
 10
-85.7583664429333
 20
210.6658116454194
 10
-85.94744111674234
 20
211.0
 10
-86.14231938455353
 20
211.3308376480212
 10
-86.34294188455863
 20
211.65822381313052
 10
-86.54924750520067
 20
211.98205877033058
 10
-86.76117340378909
 20
212.30224387635644
 10
-86.97865502564218
 20
212.618681599723
 10
-87.20162612375115
 20
212.9312755504344
 10
-87.43001877895955
 20
213.23993050934507
 10
-87.66376342065212
 20
213.54455245716449
 10
-87.90278884794664
 20
213.84504860309642
 10
-88.14702225138248
 20
214.14132741310385
 10
-88.39638923509901
 20
214.43329863779115
 10
-88.65081383949733
 20
214.7208733398949
 10
-88.91021856437825
 20
215.00396392137498
 10
-89.17452439254967
 20
215.28248415009793
 10
-89.44365081389596
 20
215.55634918610406
 10
-89.71751584990206
 20
215.82547560745033
 10
-89.99603607862504
 20
216.08978143562175
 10
-90.27912666010512
 20
216.34918616050268
 10
-90.56670136220885
 20
216.603610764901
 10
-90.85867258689613
 20
216.85297774861752
 10
-91.15495139690357
 20
217.09721115205338
 10
-91.45544754283551
 20
217.33623657934788
 10
-91.76006949065493
 20
217.56998122104045
 10
-92.0687244495656
 20
217.79837387624883
 10
-92.38131840027698
 20
218.02134497435782
 10
-92.69775612364357
 20
218.2388265962109
 10
-93.0179412296694
 20
218.45075249479933
 10
-93.3417761868695
 20
218.65705811544137
 10
-93.66916235197881
 20
218.85768061544647
 10
-94.0
 20
219.05255888325766
 10
-94.33418835458059
 20
219.2416335570667
 10
-94.67162561871041
 20
219.4248470428964
 10
-95.01220900572997
 20
219.60214353214408
 10
-95.3558347706403
 20
219.77346901858166
 10
-95.70239824170461
 20
219.9387713148063
 10
-96.0517938523324
 20
220.09800006813722
 10
-96.40391517323597
 20
220.2511067759537
 10
-96.75865494484994
 20
220.39804480046934
 10
-97.1159051100034
 20
220.53876938293843
 10
-97.47555684683529
 20
220.67323765728997
 10
-97.83750060194255
 20
220.80140866318496
 10
-98.20162612375115
 20
220.92324335849338
 10
-98.5678224960998
 20
221.0387046311868
 10
-98.93597817202601
 20
221.14775731064302
 10
-99.30598100774455
 20
221.2503681783595
 10
-99.67771829680731
 20
221.34650597807192
 10
-100.05107680443497
 20
221.43614142527517
 10
-100.42594280200929
 20
221.51924721614373
 10
-100.802202101716
 20
221.59579803584862
 10
-101.17974009132753
 20
221.66577056626858
 10
-101.55844176911492
 20
221.72914349309303
 10
-101.93819177887856
 20
221.78589751231453
 10
-102.31887444508675
 20
221.83601533610909
 10
-102.70037380811162
 20
221.879481698102
 10
-103.08257365955151
 20
221.9162833580184
 10
-103.46535757762925
 20
221.94640910571613
 10
-103.84860896265523
 20
221.9698497646006
 10
-104.23221107254497
 20
221.9865981944201
 10
-104.61604705837976
 20
221.9966492934406
 10
-105.0
 20
222.0
 10
-105.38395294162024
 20
221.9966492934406
 10
-105.76778892745502
 20
221.9865981944201
 10
-106.15139103734477
 20
221.9698497646006
 10
-106.53464242237075
 20
221.94640910571613
 10
-106.91742634044849
 20
221.9162833580184
 10
-107.29962619188838
 20
221.879481698102
 10
-107.68112555491324
 20
221.83601533610909
 10
-108.06180822112144
 20
221.78589751231453
 10
-108.44155823088508
 20
221.72914349309303
 10
-108.82025990867247
 20
221.66577056626858
 10
-109.19779789828398
 20
221.59579803584862
 10
-109.57405719799071
 20
221.51924721614373
 10
-109.94892319556503
 20
221.43614142527517
 10
-110.32228170319269
 20
221.34650597807192
 10
-110.69401899225547
 20
221.2503681783595
 10
-111.06402182797397
 20
221.14775731064302
 10
-111.4321775039002
 20
221.0387046311868
 10
-111.79837387624885
 20
220.92324335849338
 10
-112.16249939805745
 20
220.801408663185
 10
-112.52444315316471
 20
220.67323765728997
 10
-112.8840948899966
 20
220.53876938293843
 10
-113.24134505515006
 20
220.39804480046934
 10
-113.59608482676403
 20
220.2511067759537
 10
-113.9482061476676
 20
220.09800006813722
 10
-114.29760175829539
 20
219.9387713148063
 10
-114.6441652293597
 20
219.77346901858166
 10
-114.98779099427003
 20
219.60214353214408
 10
-115.3283743812896
 20
219.4248470428964
 10
-115.66581164541941
 20
219.2416335570667
 10
-116.0
 20
219.05255888325766
 10
-116.3308376480212
 20
218.85768061544647
 10
-116.6582238131305
 20
218.65705811544137
 10
-116.9820587703306
 20
218.45075249479933
 10
-117.30224387635643
 20
218.2388265962109
 10
-117.61868159972302
 20
218.02134497435782
 10
-117.9312755504344
 20
217.79837387624883
 10
-118.23993050934507
 20
217.56998122104045
 10
-118.54455245716449
 20
217.33623657934788
 10
-118.84504860309642
 20
217.09721115205338
 10
-119.14132741310387
 20
216.85297774861752
 10
-119.43329863779115
 20
216.603610764901
 10
-119.72087333989488
 20
216.34918616050268
 10
-120.00396392137496
 20
216.08978143562175
 10
-120.28248415009794
 20
215.82547560745033
 10
-120.55634918610404
 20
215.55634918610406
 10
-120.82547560745033
 20
215.28248415009793
 10
-121.08978143562175
 20
215.00396392137498
 10
-121.34918616050267
 20
214.7208733398949
 10
-121.60361076490099
 20
214.43329863779115
 10
-121.85297774861752
 20
214.14132741310388
 10
-122.09721115205336
 20
213.84504860309642
 10
-122.33623657934788
 20
213.54455245716449
 10
-122.56998122104045
 20
213.23993050934507
 10
-122.79837387624885
 20
212.9312755504344
 10
-123.02134497435782
 20
212.618681599723
 10
-123.23882659621091
 20
212.30224387635644
 10
-123.45075249479933
 20
211.9820587703306
 10
-123.65705811544137
 20
211.65822381313052
 10
-123.85768061544647
 20
211.3308376480212
 10
-124.05255888325766
 20
211.0
 10
-124.2416335570667
 20
210.6658116454194
 10
-124.4248470428964
 20
210.3283743812896
 10
-124.60214353214408
 20
209.98779099427003
 10
-124.77346901858168
 20
209.64416522935971
 10
-124.9387713148063
 20
209.2976017582954
 10
-125.09800006813722
 20
208.9482061476676
 10
-125.25110677595369
 20
208.596084826764
 10
-125.39804480046932
 20
208.24134505515008
 10
-125.53876938293844
 20
207.88409488999662
 10
-125.67323765728999
 20
207.52444315316473
 10
-125.80140866318497
 20
207.16249939805743
 10
-125.92324335849338
 20
206.79837387624883
 10
-126.03870463118679
 20
206.4321775039002
 10
-126.14775731064302
 20
206.064021827974
 10
-126.25036817835951
 20
205.69401899225545
 10
-126.34650597807192
 20
205.3222817031927
 10
-126.43614142527517
 20
204.94892319556504
 10
-126.51924721614373
 20
204.5740571979907
 10
-126.5957980358486
 20
204.197797898284
 10
-126.66577056626858
 20
203.82025990867245
 10
-126.72914349309303
 20
203.44155823088508
 10
-126.78589751231455
 20
203.06180822112142
 10
-126.83601533610909
 20
202.68112555491325
 10
-126.87948169810201
 20
202.2996261918884
 10
-126.9162833580184
 20
201.9174263404485
 10
-126.94640910571613
 20
201.53464242237075
 10
-126.96984976460062
 20
201.15139103734475
 10
-126.98659819442011
 20
200.76778892745503
 10
-126.99664929344061
 20
200.38395294162024
 10
-127.0
 20
200.0
 10
-127.0
 20
70.0
 10
-126.99664929344061
 20
69.61604705837976
 10
-126.98659819442011
 20
69.23221107254498
 10
-126.96984976460062
 20
68.84860896265525
 10
-126.94640910571613
 20
68.46535757762925
 10
-126.9162833580184
 20
68.08257365955153
 10
-126.87948169810201
 20
67.70037380811162
 10
-126.83601533610909
 20
67.31887444508676
 10
-126.78589751231455
 20
66.93819177887856
 10
-126.72914349309303
 20
66.55844176911492
 10
-126.66577056626858
 20
66.17974009132753
 10
-126.5957980358486
 20
65.80220210171602
 10
-126.51924721614373
 20
65.42594280200929
 10
-126.43614142527517
 20
65.05107680443497
 10
-126.34650597807192
 20
64.67771829680731
 10
-126.25036817835951
 20
64.30598100774455
 10
-126.14775731064302
 20
63.935978172026026
 10
-126.03870463118677
 20
63.567822496099794
 10
-125.92324335849338
 20
63.20162612375116
 10
-125.80140866318497
 20
62.83750060194255
 10
-125.67323765728999
 20
62.47555684683529
 10
-125.53876938293844
 20
62.11590511000339
 10
-125.39804480046932
 20
61.75865494484994
 10
-125.25110677595369
 20
61.40391517323598
 10
-125.09800006813722
 20
61.051793852332395
 10
-124.9387713148063
 20
60.702398241704614
 10
-124.77346901858166
 20
60.3558347706403
 10
-124.6021435321441
 20
60.01220900572997
 10
-124.42484704289639
 20
59.6716256187104
 10
-124.2416335570667
 20
59.33418835458059
 10
-124.05255888325765
 20
59.0
 10
-123.85768061544647
 20
58.66916235197881
 10
-123.65705811544137
 20
58.341776186869495
 10
-123.45075249479933
 20
58.017941229669404
 10
-123.23882659621091
 20
57.69775612364357
 10
-123.02134497435782
 20
57.38131840027698
 10
-122.79837387624885
 20
57.06872444956559
 10
-122.56998122104045
 20
56.760069490654935
 10
-122.33623657934788
 20
56.45544754283552
 10
-122.09721115205336
 20
56.15495139690357
 10
-121.85297774861752
 20
55.858672586896134
 10
-121.60361076490099
 20
55.566701362208846
 10
-121.34918616050267
 20
55.27912666010512
 10
-121.08978143562175
 20
54.99603607862504
 10
-120.82547560745033
 20
54.71751584990206
 10
-120.55634918610404
 20
54.44365081389596
 10
-120.28248415009794
 20
54.17452439254967
 10
-120.00396392137498
 20
53.910218564378255
 10
-119.72087333989488
 20
53.650813839497324
 10
-119.43329863779115
 20
53.396389235099015
 10
-119.14132741310387
 20
53.14702225138249
 10
-118.84504860309643
 20
52.90278884794665
 10
-118.54455245716449
 20
52.66376342065212
 10
-118.23993050934506
 20
52.43001877895956
 10
-117.9312755504344
 20
52.201626123751154
 10
-117.61868159972302
 20
51.97865502564218
 10
-117.30224387635643
 20
51.76117340378908
 10
-116.9820587703306
 20
51.54924750520067
 10
-116.6582238131305
 20
51.34294188455863
 10
-116.3308376480212
 20
51.14231938455353
 10
-116.00000000000001
 20
50.947441116742354
 10
-115.66581164541941
 20
50.75836644293329
 10
-115.32837438128959
 20
50.575152957103604
 10
-114.98779099427003
 20
50.39785646785591
 10
-114.64416522935971
 20
50.22653098141833
 10
-114.29760175829539
 20
50.0612286851937
 10
-113.9482061476676
 20
49.901999931862775
 10
-113.59608482676403
 20
49.74889322404631
 10
-113.24134505515008
 20
49.60195519953068
 10
-112.88409488999662
 20
49.46123061706156
 10
-112.52444315316471
 20
49.32676234271001
 10
-112.16249939805745
 20
49.19859133681503
 10
-111.79837387624885
 20
49.07675664150662
 10
-111.43217750390022
 20
48.961295368813225
 10
-111.06402182797397
 20
48.852242689356984
 10
-110.69401899225545
 20
48.7496318216405
 10
-110.32228170319269
 20
48.65349402192808
 10
-109.94892319556503
 20
48.563858574724826
 10
-109.57405719799071
 20
48.480752783856275
 10
-109.19779789828398
 20
48.4042019641514
 10
-108.82025990867247
 20
48.33422943373142
 10
-108.44155823088508
 20
48.270856506906966
 10
-108.06180822112145
 20
48.21410248768545
 10
-107.68112555491324
 20
48.163984663890915
 10
-107.29962619188838
 20
48.12051830189799
 10
-106.91742634044849
 20
48.083716641981596
 10
-106.53464242237077
 20
48.05359089428387
 10
-106.15139103734478
 20
48.030150235399375
 10
-105.76778892745502
 20
48.01340180557989
 10
-105.38395294162024
 20
48.00335070655939
 10
-105.0
 20
48.0
 10
-104.61604705837978
 20
48.00335070655939
 10
-104.23221107254497
 20
48.01340180557989
 10
-103.84860896265523
 20
48.030150235399375
 10
-103.46535757762925
 20
48.053590894283865
 10
-103.08257365955153
 20
48.083716641981596
 10
-102.70037380811164
 20
48.12051830189799
 10
-102.31887444508675
 20
48.163984663890915
 10
-101.93819177887856
 20
48.21410248768545
 10
-101.55844176911492
 20
48.270856506906966
 10
-101.17974009132755
 20
48.33422943373142
 10
-100.802202101716
 20
48.4042019641514
 10
-100.42594280200929
 20
48.480752783856275
 10
-100.05107680443497
 20
48.563858574724826
 10
-99.67771829680731
 20
48.653494021928076
 10
-99.30598100774455
 20
48.74963182164049
 10
-98.93597817202601
 20
48.852242689356984
 10
-98.5678224960998
 20
48.961295368813225
 10
-98.20162612375117
 20
49.07675664150662
 10
-97.83750060194257
 20
49.19859133681503
 10
-97.47555684683527
 20
49.32676234271001
 10
-97.1159051100034
 20
49.46123061706156
 10
-96.75865494484994
 20
49.60195519953068
 10
-96.40391517323599
 20
49.74889322404631
 10
-96.05179385233241
 20
49.901999931862775
 10
-95.70239824170461
 20
50.0612286851937
 10
-95.3558347706403
 20
50.22653098141832
 10
-95.01220900572997
 20
50.3978564678559
 10
-94.67162561871041
 20
50.575152957103604
 10
-94.33418835458058
 20
50.758366442933294
 10
-94.0
 20
50.947441116742354
 10
-93.66916235197881
 20
51.14231938455353
 10
-93.3417761868695
 20
51.34294188455863
 10
-93.01794122966942
 20
51.54924750520067
 10
-92.69775612364356
 20
51.76117340378909
 10
-92.38131840027698
 20
51.97865502564218
 10
-92.0687244495656
 20
52.201626123751154
 10
-91.76006949065494
 20
52.43001877895955
 10
-91.45544754283551
 20
52.66376342065212
 10
-91.15495139690357
 20
52.90278884794664
 10
-90.85867258689613
 20
53.14702225138248
 10
-90.56670136220885
 20
53.39638923509901
 10
-90.27912666010513
 20
53.65081383949732
 10
-89.99603607862502
 20
53.910218564378255
 10
-89.71751584990206
 20
54.17452439254967
 10
-89.44365081389596
 20
54.44365081389595
 10
-89.17452439254969
 20
54.71751584990206
 10
-88.91021856437824
 20
54.99603607862504
 10
-88.65081383949733
 20
55.27912666010512
 10
-88.39638923509902
 20
55.56670136220884
 10
-88.14702225138248
 20
55.85867258689613
 10
-87.90278884794665
 20
56.15495139690357
 10
-87.66376342065212
 20
56.45544754283552
 10
-87.43001877895955
 20
56.76006949065494
 10
-87.20162612375115
 20
57.068724449565586
 10
-86.97865502564218
 20
57.38131840027698
 10
-86.76117340378909
 20
57.69775612364357
 10
-86.54924750520067
 20
58.017941229669404
 10
-86.34294188455863
 20
58.34177618686949
 10
-86.14231938455353
 20
58.6691623519788
 10
-85.94744111674235
 20
58.999999999999986
 10
-85.7583664429333
 20
59.33418835458059
 10
-85.57515295710361
 20
59.6716256187104
 10
-85.39785646785592
 20
60.012209005729964
 10
-85.22653098141834
 20
60.355834770640286
 10
-85.0612286851937
 20
60.702398241704614
 10
-84.90199993186278
 20
61.051793852332395
 10
-84.74889322404631
 20
61.40391517323597
 10
-84.60195519953068
 20
61.75865494484993
 10
-84.46123061706157
 20
62.11590511000338
 10
-84.32676234271001
 20
62.47555684683529
 10
-84.19859133681503
 20
62.83750060194255
 10
-84.07675664150662
 20
63.201626123751154
 10
-83.96129536881323
 20
63.56782249609978
 10
-83.85224268935698
 20
63.935978172026026
 10
-83.74963182164049
 20
64.30598100774455
 10
-83.65349402192808
 20
64.67771829680731
 10
-83.56385857472483
 20
65.05107680443496
 10
-83.48075278385627
 20
65.42594280200929
 10
-83.4042019641514
 20
65.80220210171602
 10
-83.33422943373142
 20
66.17974009132753
 10
-83.27085650690697
 20
66.55844176911492
 10
-83.21410248768545
 20
66.93819177887855
 10
-83.16398466389091
 20
67.31887444508676
 10
-83.12051830189799
 20
67.70037380811162
 10
-83.0837166419816
 20
68.08257365955151
 10
-83.05359089428387
 20
68.46535757762923
 10
-83.03015023539938
 20
68.84860896265522
 10
-83.01340180557989
 20
69.23221107254498
 10
-83.00335070655939
 20
69.61604705837976
 10
-83.0
 20
70.0
  0
LWPOLYLINE
  5
34
330
17
100
AcDbEntity
  8
CUT
100
AcDbPolyline
 90
362
 70
1
 10
127.0
 20
200.0
 10
126.99664929344061
 20
200.38395294162024
 10
126.98659819442011
 20
200.76778892745503
 10
126.96984976460062
 20
201.15139103734475
 10
126.94640910571613
 20
201.53464242237075
 10
126.9162833580184
 20
201.9174263404485
 10
126.87948169810201
 20
202.29962619188836
 10
126.83601533610909
 20
202.68112555491325
 10
126.78589751231455
 20
203.06180822112145
 10
126.72914349309303
 20
203.44155823088508
 10
126.66577056626858
 20
203.82025990867245
 10
126.5957980358486
 20
204.197797898284
 10
126.51924721614373
 20
204.5740571979907
 10
126.43614142527517
 20
204.94892319556504
 10
126.34650597807192
 20
205.3222817031927
 10
126.25036817835951
 20
205.69401899225545
 10
126.14775731064302
 20
206.064021827974
 10
126.03870463118677
 20
206.43217750390022
 10
125.92324335849338
 20
206.79837387624883
 10
125.80140866318497
 20
207.16249939805743
 10
125.67323765728999
 20
207.52444315316473
 10
125.53876938293844
 20
207.88409488999662
 10
125.39804480046932
 20
208.24134505515008
 10
125.25110677595369
 20
208.596084826764
 10
125.09800006813722
 20
208.9482061476676
 10
124.9387713148063
 20
209.2976017582954
 10
124.77346901858168
 20
209.64416522935971
 10
124.6021435321441
 20
209.98779099427003
 10
124.4248470428964
 20
210.3283743812896
 10
124.2416335570667
 20
210.6658116454194
 10
124.05255888325766
 20
211.0
 10
123.85768061544647
 20
211.3308376480212
 10
123.65705811544137
 20
211.65822381313052
 10
123.45075249479933
 20
211.98205877033058
 10
123.23882659621091
 20
212.30224387635644
 10
123.02134497435782
 20
212.618681599723
 10
122.79837387624885
 20
212.9312755504344
 10
122.56998122104045
 20
213.23993050934507
 10
122.33623657934788
 20
213.54455245716449
 10
122.09721115205336
 20
213.84504860309642
 10
121.85297774861752
 20
214.14132741310385
 10
121.60361076490099
 20
214.43329863779115
 10
121.34918616050267
 20
214.7208733398949
 10
121.08978143562175
 20
215.00396392137498
 10
120.82547560745033
 20
215.28248415009793
 10
120.55634918610404
 20
215.55634918610406
 10
120.28248415009794
 20
215.82547560745033
 10
120.00396392137496
 20
216.08978143562175
 10
119.72087333989488
 20
216.34918616050268
 10
119.43329863779115
 20
216.603610764901
 10
119.14132741310387
 20
216.85297774861752
 10
118.84504860309643
 20
217.09721115205338
 10
118.54455245716449
 20
217.33623657934788
 10
118.23993050934507
 20
217.56998122104045
 10
117.9312755504344
 20
217.79837387624883
 10
117.61868159972302
 20
218.02134497435782
 10
117.30224387635643
 20
218.2388265962109
 10
116.9820587703306
 20
218.45075249479933
 10
116.6582238131305
 20
218.65705811544137
 10
116.33083764802119
 20
218.85768061544647
 10
116.0
 20
219.05255888325766
 10
115.66581164541941
 20
219.2416335570667
 10
115.32837438128959
 20
219.4248470428964
 10
114.98779099427003
 20
219.60214353214408
 10
114.6441652293597
 20
219.77346901858166
 10
114.29760175829539
 20
219.9387713148063
 10
113.9482061476676
 20
220.09800006813722
 10
113.59608482676403
 20
220.2511067759537
 10
113.24134505515006
 20
220.39804480046934
 10
112.8840948899966
 20
220.53876938293843
 10
112.52444315316471
 20
220.67323765728997
 10
112.16249939805745
 20
220.80140866318496
 10
111.79837387624885
 20
220.92324335849338
 10
111.4321775039002
 20
221.0387046311868
 10
111.06402182797399
 20
221.14775731064302
 10
110.69401899225545
 20
221.2503681783595
 10
110.32228170319269
 20
221.34650597807192
 10
109.94892319556503
 20
221.43614142527517
 10
109.57405719799071
 20
221.51924721614373
 10
109.197797898284
 20
221.59579803584862
 10
108.82025990867247
 20
221.66577056626858
 10
108.44155823088508
 20
221.72914349309303
 10
108.06180822112144
 20
221.78589751231453
 10
107.68112555491325
 20
221.83601533610909
 10
107.29962619188838
 20
221.879481698102
 10
106.91742634044849
 20
221.9162833580184
 10
106.53464242237075
 20
221.94640910571613
 10
106.15139103734477
 20
221.9698497646006
 10
105.76778892745503
 20
221.9865981944201
 10
105.38395294162024
 20
221.9966492934406
 10
105.0
 20
222.0
 10
104.61604705837976
 20
221.9966492934406
 10
104.23221107254498
 20
221.9865981944201
 10
103.84860896265523
 20
221.9698497646006
 10
103.46535757762925
 20
221.94640910571613
 10
103.08257365955151
 20
221.9162833580184
 10
102.70037380811162
 20
221.879481698102
 10
102.31887444508676
 20
221.83601533610909
 10
101.93819177887856
 20
221.78589751231453
 10
101.55844176911492
 20
221.72914349309303
 10
101.17974009132753
 20
221.66577056626858
 10
100.80220210171602
 20
221.59579803584862
 10
100.42594280200929
 20
221.51924721614373
 10
100.05107680443497
 20
221.43614142527517
 10
99.67771829680731
 20
221.34650597807192
 10
99.30598100774453
 20
221.2503681783595
 10
98.93597817202603
 20
221.14775731064302
 10
98.5678224960998
 20
221.0387046311868
 10
98.20162612375115
 20
220.92324335849338
 10
97.83750060194255
 20
220.801408663185
 10
97.47555684683529
 20
220.67323765728997
 10
97.1159051100034
 20
220.53876938293843
 10
96.75865494484994
 20
220.39804480046934
 10
96.40391517323597
 20
220.2511067759537
 10
96.0517938523324
 20
220.09800006813722
 10
95.70239824170461
 20
219.9387713148063
 10
95.3558347706403
 20
219.77346901858166
 10
95.01220900572997
 20
219.60214353214408
 10
94.6716256187104
 20
219.4248470428964
 10
94.33418835458059
 20
219.2416335570667
 10
94.0
 20
219.05255888325766
 10
93.6691623519788
 20
218.85768061544647
 10
93.3417761868695
 20
218.65705811544137
 10
93.0179412296694
 20
218.45075249479933
 10
92.69775612364357
 20
218.2388265962109
 10
92.38131840027698
 20
218.02134497435782
 10
92.0687244495656
 20
217.79837387624883
 10
91.76006949065493
 20
217.56998122104045
 10
91.45544754283551
 20
217.33623657934788
 10
91.15495139690358
 20
217.09721115205338
 10
90.85867258689613
 20
216.85297774861752
 10
90.56670136220885
 20
216.603610764901
 10
90.27912666010512
 20
216.34918616050268
 10
89.99603607862504
 20
216.08978143562175
 10
89.71751584990206
 20
215.82547560745033
 10
89.44365081389596
 20
215.55634918610406
 10
89.17452439254967
 20
215.28248415009793
 10
88.91021856437825
 20
215.00396392137498
 10
88.65081383949733
 20
214.7208733398949
 10
88.39638923509901
 20
214.43329863779115
 10
88.14702225138248
 20
214.14132741310388
 10
87.90278884794664
 20
213.84504860309642
 10
87.66376342065212
 20
213.54455245716449
 10
87.43001877895955
 20
213.23993050934507
 10
87.20162612375115
 20
212.9312755504344
 10
86.97865502564218
 20
212.618681599723
 10
86.76117340378909
 20
212.30224387635644
 10
86.54924750520067
 20
211.9820587703306
 10
86.34294188455863
 20
211.65822381313052
 10
86.14231938455353
 20
211.3308376480212
 10
85.94744111674234
 20
211.0
 10
85.7583664429333
 20
210.6658116454194
 10
85.5751529571036
 20
210.3283743812896
 10
85.39785646785592
 20
209.98779099427003
 10
85.22653098141832
 20
209.64416522935971
 10
85.0612286851937
 20
209.2976017582954
 10
84.90199993186278
 20
208.9482061476676
 10
84.74889322404631
 20
208.596084826764
 10
84.60195519953068
 20
208.24134505515008
 10
84.46123061706156
 20
207.88409488999662
 10
84.32676234271001
 20
207.52444315316473
 10
84.19859133681503
 20
207.16249939805743
 10
84.07675664150662
 20
206.79837387624883
 10
83.96129536881321
 20
206.4321775039002
 10
83.85224268935698
 20
206.064021827974
 10
83.74963182164049
 20
205.69401899225545
 10
83.65349402192808
 20
205.3222817031927
 10
83.56385857472483
 20
204.94892319556504
 10
83.48075278385627
 20
204.5740571979907
 10
83.4042019641514
 20
204.197797898284
 10
83.33422943373142
 20
203.82025990867245
 10
83.27085650690697
 20
203.44155823088508
 10
83.21410248768545
 20
203.06180822112142
 10
83.16398466389091
 20
202.68112555491325
 10
83.12051830189799
 20
202.2996261918884
 10
83.0837166419816
 20
201.9174263404485
 10
83.05359089428387
 20
201.53464242237075
 10
83.03015023539938
 20
201.15139103734475
 10
83.01340180557989
 20
200.76778892745503
 10
83.00335070655939
 20
200.38395294162024
 10
83.0
 20
200.0
 10
83.0
 20
70.0
 10
83.00335070655939
 20
69.61604705837976
 10
83.01340180557989
 20
69.23221107254498
 10
83.03015023539938
 20
68.84860896265525
 10
83.05359089428387
 20
68.46535757762925
 10
83.0837166419816
 20
68.08257365955153
 10
83.12051830189799
 20
67.70037380811162
 10
83.16398466389091
 20
67.31887444508676
 10
83.21410248768545
 20
66.93819177887856
 10
83.27085650690697
 20
66.55844176911492
 10
83.33422943373142
 20
66.17974009132753
 10
83.4042019641514
 20
65.80220210171602
 10
83.48075278385627
 20
65.42594280200929
 10
83.56385857472483
 20
65.05107680443497
 10
83.65349402192808
 20
64.67771829680731
 10
83.74963182164049
 20
64.30598100774455
 10
83.85224268935698
 20
63.935978172026026
 10
83.96129536881323
 20
63.567822496099794
 10
84.07675664150662
 20
63.20162612375116
 10
84.19859133681503
 20
62.83750060194255
 10
84.32676234271001
 20
62.47555684683529
 10
84.46123061706156
 20
62.11590511000339
 10
84.60195519953068
 20
61.75865494484994
 10
84.74889322404631
 20
61.40391517323598
 10
84.90199993186278
 20
61.051793852332395
 10
85.0612286851937
 20
60.702398241704614
 10
85.22653098141834
 20
60.3558347706403
 10
85.3978564678559
 20
60.01220900572997
 10
85.57515295710361
 20
59.6716256187104
 10
85.7583664429333
 20
59.33418835458059
 10
85.94744111674235
 20
59.0
 10
86.14231938455353
 20
58.66916235197881
 10
86.34294188455863
 20
58.341776186869495
 10
86.54924750520067
 20
58.017941229669404
 10
86.76117340378909
 20
57.69775612364357
 10
86.97865502564218
 20
57.38131840027698
 10
87.20162612375115
 20
57.06872444956559
 10
87.43001877895955
 20
56.760069490654935
 10
87.66376342065212
 20
56.45544754283552
 10
87.90278884794664
 20
56.15495139690357
 10
88.14702225138248
 20
55.858672586896134
 10
88.39638923509901
 20
55.566701362208846
 10
88.65081383949733
 20
55.27912666010512
 10
88.91021856437825
 20
54.99603607862504
 10
89.17452439254967
 20
54.71751584990206
 10
89.44365081389596
 20
54.44365081389596
 10
89.71751584990206
 20
54.17452439254967
 10
89.99603607862502
 20
53.910218564378255
 10
90.27912666010512
 20
53.650813839497324
 10
90.56670136220885
 20
53.396389235099015
 10
90.85867258689613
 20
53.14702225138249
 10
91.15495139690357
 20
52.90278884794665
 10
91.45544754283551
 20
52.66376342065212
 10
91.76006949065494
 20
52.43001877895956
 10
92.0687244495656
 20
52.201626123751154
 10
92.38131840027698
 20
51.97865502564218
 10
92.69775612364357
 20
51.76117340378908
 10
93.0179412296694
 20
51.54924750520067
 10
93.3417761868695
 20
51.34294188455863
 10
93.6691623519788
 20
51.14231938455353
 10
93.99999999999999
 20
50.947441116742354
 10
94.33418835458059
 20
50.75836644293329
 10
94.67162561871041
 20
50.575152957103604
 10
95.01220900572997
 20
50.39785646785591
 10
95.35583477064029
 20
50.22653098141833
 10
95.70239824170461
 20
50.0612286851937
 10
96.0517938523324
 20
49.901999931862775
 10
96.40391517323597
 20
49.74889322404631
 10
96.75865494484992
 20
49.60195519953068
 10
97.11590511000338
 20
49.46123061706156
 10
97.47555684683529
 20
49.32676234271001
 10
97.83750060194255
 20
49.19859133681503
 10
98.20162612375115
 20
49.07675664150662
 10
98.56782249609978
 20
48.961295368813225
 10
98.93597817202603
 20
48.852242689356984
 10
99.30598100774455
 20
48.7496318216405
 10
99.67771829680731
 20
48.65349402192808
 10
100.05107680443497
 20
48.563858574724826
 10
100.42594280200929
 20
48.480752783856275
 10
100.80220210171602
 20
48.4042019641514
 10
101.17974009132753
 20
48.33422943373142
 10
101.55844176911492
 20
48.270856506906966
 10
101.93819177887855
 20
48.21410248768545
 10
102.31887444508676
 20
48.163984663890915
 10
102.70037380811162
 20
48.12051830189799
 10
103.08257365955151
 20
48.083716641981596
 10
103.46535757762923
 20
48.05359089428387
 10
103.84860896265522
 20
48.030150235399375
 10
104.23221107254498
 20
48.01340180557989
 10
104.61604705837976
 20
48.00335070655939
 10
105.0
 20
48.0
 10
105.38395294162022
 20
48.00335070655939
 10
105.76778892745503
 20
48.01340180557989
 10
106.15139103734477
 20
48.030150235399375
 10
106.53464242237075
 20
48.053590894283865
 10
106.91742634044847
 20
48.083716641981596
 10
107.29962619188836
 20
48.12051830189799
 10
107.68112555491325
 20
48.163984663890915
 10
108.06180822112144
 20
48.21410248768545
 10
108.44155823088508
 20
48.270856506906966
 10
108.82025990867245
 20
48.33422943373142
 10
109.197797898284
 20
48.4042019641514
 10
109.57405719799071
 20
48.480752783856275
 10
109.94892319556503
 20
48.563858574724826
 10
110.32228170319269
 20
48.653494021928076
 10
110.69401899225545
 20
48.74963182164049
 10
111.06402182797399
 20
48.852242689356984
 10
111.4321775039002
 20
48.961295368813225
 10
111.79837387624883
 20
49.07675664150662
 10
112.16249939805743
 20
49.19859133681503
 10
112.52444315316473
 20
49.32676234271001
 10
112.8840948899966
 20
49.46123061706156
 10
113.24134505515006
 20
49.60195519953068
 10
113.59608482676401
 20
49.74889322404631
 10
113.94820614766759
 20
49.901999931862775
 10
114.29760175829539
 20
50.0612286851937
 10
114.6441652293597
 20
50.22653098141832
 10
114.98779099427003
 20
50.3978564678559
 10
115.32837438128959
 20
50.575152957103604
 10
115.66581164541942
 20
50.758366442933294
 10
116.0
 20
50.947441116742354
 10
116.33083764802119
 20
51.14231938455353
 10
116.6582238131305
 20
51.34294188455863
 10
116.98205877033058
 20
51.54924750520067
 10
117.30224387635644
 20
51.76117340378909
 10
117.61868159972302
 20
51.97865502564218
 10
117.9312755504344
 20
52.201626123751154
 10
118.23993050934506
 20
52.43001877895955
 10
118.54455245716449
 20
52.66376342065212
 10
118.84504860309643
 20
52.90278884794664
 10
119.14132741310387
 20
53.14702225138248
 10
119.43329863779115
 20
53.39638923509901
 10
119.72087333989487
 20
53.65081383949732
 10
120.00396392137498
 20
53.910218564378255
 10
120.28248415009794
 20
54.17452439254967
 10
120.55634918610404
 20
54.44365081389595
 10
120.82547560745031
 20
54.71751584990206
 10
121.08978143562176
 20
54.99603607862504
 10
121.34918616050267
 20
55.27912666010512
 10
121.60361076490098
 20
55.56670136220884
 10
121.85297774861752
 20
55.85867258689613
 10
122.09721115205335
 20
56.15495139690357
 10
122.33623657934788
 20
56.45544754283552
 10
122.56998122104045
 20
56.76006949065494
 10
122.79837387624885
 20
57.068724449565586
 10
123.02134497435782
 20
57.38131840027698
 10
123.23882659621091
 20
57.69775612364357
 10
123.45075249479933
 20
58.017941229669404
 10
123.65705811544137
 20
58.34177618686949
 10
123.85768061544647
 20
58.6691623519788
 10
124.05255888325765
 20
58.999999999999986
 10
124.2416335570667
 20
59.33418835458059
 10
124.42484704289639
 20
59.6716256187104
 10
124.60214353214408
 20
60.012209005729964
 10
124.77346901858166
 20
60.355834770640286
 10
124.9387713148063
 20
60.702398241704614
 10
125.09800006813722
 20
61.051793852332395
 10
125.25110677595369
 20
61.40391517323597
 10
125.39804480046932
 20
61.75865494484993
 10
125.53876938293843
 20
62.11590511000338
 10
125.67323765728999
 20
62.47555684683529
 10
125.80140866318497
 20
62.83750060194255
 10
125.92324335849338
 20
63.201626123751154
 10
126.03870463118677
 20
63.56782249609978
 10
126.14775731064302
 20
63.935978172026026
 10
126.25036817835951
 20
64.30598100774455
 10
126.34650597807192
 20
64.67771829680731
 10
126.43614142527517
 20
65.05107680443496
 10
126.51924721614373
 20
65.42594280200929
 10
126.5957980358486
 20
65.80220210171602
 10
126.66577056626858
 20
66.17974009132753
 10
126.72914349309303
 20
66.55844176911492
 10
126.78589751231455
 20
66.93819177887855
 10
126.83601533610909
 20
67.31887444508676
 10
126.87948169810201
 20
67.70037380811162
 10
126.9162833580184
 20
68.08257365955151
 10
126.94640910571613
 20
68.46535757762923
 10
126.96984976460062
 20
68.84860896265522
 10
126.98659819442011
 20
69.23221107254498
 10
126.99664929344061
 20
69.61604705837976
 10
127.0
 20
70.0
  0
CIRCLE
  5
35
330
17
100
AcDbEntity
  8
DOGBONE
100
AcDbCircle
 10
-9.1
 20
135.0
 30
0.0
 40
3.175
  0
CIRCLE
  5
36
330
17
100
AcDbEntity
  8
DOGBONE
100
AcDbCircle
 10
9.1
 20
135.0
 30
0.0
 40
3.175
  0
ENDSEC
  0
SECTION
  2
OBJECTS
  0
DICTIONARY
  5
A
330
0
100
AcDbDictionary
281
1
  3
ACAD_COLOR
350
B
  3
ACAD_GROUP
350
C
  3
ACAD_LAYOUT
350
D
  3
ACAD_MATERIAL
350
E
  3
ACAD_MLEADERSTYLE
350
F
  3
ACAD_MLINESTYLE
350
10
  3
ACAD_PLOTSETTINGS
350
11
  3
ACAD_PLOTSTYLENAME
350
12
  3
ACAD_SCALELIST
350
14
  3
ACAD_TABLESTYLE
350
15
  3
ACAD_VISUALSTYLE
350
16
  3
EZDXF_META
350
2D
  0
DICTIONARY
  5
B
330
A
100
AcDbDictionary
281
1
  0
DICTIONARY
  5
C
330
A
100
AcDbDictionary
281
1
  0
DICTIONARY
  5
D
330
A
100
AcDbDictionary
281
1
  3
Model
350
1A
  3
Layout1
350
1E
  0
DICTIONARY
  5
E
330
A
100
AcDbDictionary
281
1
  3
ByBlock
350
1F
  3
ByLayer
350
20
  3
Global
350
21
  0
DICTIONARY
  5
F
330
A
100
AcDbDictionary
281
1
  3
Standard
350
2C
  0
DICTIONARY
  5
10
330
A
100
AcDbDictionary
281
1
  3
Standard
350
22
  0
DICTIONARY
  5
11
330
A
100
AcDbDictionary
281
1
  0
ACDBDICTIONARYWDFLT
  5
12
330
A
100
AcDbDictionary
281
1
  3
Normal
350
13
100
AcDbDictionaryWithDefault
340
13
  0
ACDBPLACEHOLDER
  5
13
330
12
  0
DICTIONARY
  5
14
330
A
100
AcDbDictionary
281
1
  0
DICTIONARY
  5
15
330
A
100
AcDbDictionary
281
1
  0
DICTIONARY
  5
16
330
A
100
AcDbDictionary
281
1
  0
LAYOUT
  5
1A
330
D
100
AcDbPlotSettings
  1

  4
A3
  6

 40
7.5
 41
20.0
 42
7.5
 43
20.0
 44
420.0
 45
297.0
 46
0.0
 47
0.0
 48
0.0
 49
0.0
140
0.0
141
0.0
142
1.0
143
1.0
 70
1024
 72
1
 73
0
 74
5
  7

 75
16
 76
0
 77
2
 78
300
147
1.0
148
0.0
149
0.0
100
AcDbLayout
  1
Model
 70
1
 71
0
 10
0.0
 20
0.0
 11
420.0
 21
297.0
 12
0.0
 22
0.0
 32
0.0
 14
1e+20
 24
1e+20
 34
1e+20
 15
-1e+20
 25
-1e+20
 35
-1e+20
146
0.0
 13
0.0
 23
0.0
 33
0.0
 16
1.0
 26
0.0
 36
0.0
 17
0.0
 27
1.0
 37
0.0
 76
1
330
17
  0
LAYOUT
  5
1E
330
D
100
AcDbPlotSettings
  1

  4
A3
  6

 40
7.5
 41
20.0
 42
7.5
 43
20.0
 44
420.0
 45
297.0
 46
0.0
 47
0.0
 48
0.0
 49
0.0
140
0.0
141
0.0
142
1.0
143
1.0
 70
0
 72
1
 73
0
 74
5
  7

 75
16
 76
0
 77
2
 78
300
147
1.0
148
0.0
149
0.0
100
AcDbLayout
  1
Layout1
 70
1
 71
1
 10
0.0
 20
0.0
 11
420.0
 21
297.0
 12
0.0
 22
0.0
 32
0.0
 14
1e+20
 24
1e+20
 34
1e+20
 15
-1e+20
 25
-1e+20
 35
-1e+20
146
0.0
 13
0.0
 23
0.0
 33
0.0
 16
1.0
 26
0.0
 36
0.0
 17
0.0
 27
1.0
 37
0.0
 76
1
330
1B
  0
MATERIAL
  5
1F
102
{ACAD_REACTORS
330
E
102
}
330
E
100
AcDbMaterial
  1
ByBlock
  2

 70
0
 40
1.0
 71
1
 41
1.0
 91
-1023410177
 42
1.0
 72
1
  3

 73
1
 74
1
 75
1
 44
0.5
 73
0
 45
1.0
 46
1.0
 77
1
  4

 78
1
 79
1
170
1
 48
1.0
171
1
  6

172
1
173
1
174
1
140
1.0
141
1.0
175
1
  7

176
1
177
1
178
1
143
1.0
179
1
  8

270
1
271
1
272
1
145
1.0
146
1.0
273
1
  9

274
1
275
1
276
1
 42
1.0
 72
1
  3

 73
1
 74
1
 75
1
 94
63
  0
MATERIAL
  5
20
102
{ACAD_REACTORS
330
E
102
}
330
E
100
AcDbMaterial
  1
ByLayer
  2

 70
0
 40
1.0
 71
1
 41
1.0
 91
-1023410177
 42
1.0
 72
1
  3

 73
1
 74
1
 75
1
 44
0.5
 73
0
 45
1.0
 46
1.0
 77
1
  4

 78
1
 79
1
170
1
 48
1.0
171
1
  6

172
1
173
1
174
1
140
1.0
141
1.0
175
1
  7

176
1
177
1
178
1
143
1.0
179
1
  8

270
1
271
1
272
1
145
1.0
146
1.0
273
1
  9

274
1
275
1
276
1
 42
1.0
 72
1
  3

 73
1
 74
1
 75
1
 94
63
  0
MATERIAL
  5
21
102
{ACAD_REACTORS
330
E
102
}
330
E
100
AcDbMaterial
  1
Global
  2

 70
0
 40
1.0
 71
1
 41
1.0
 91
-1023410177
 42
1.0
 72
1
  3

 73
1
 74
1
 75
1
 44
0.5
 73
0
 45
1.0
 46
1.0
 77
1
  4

 78
1
 79
1
170
1
 48
1.0
171
1
  6

172
1
173
1
174
1
140
1.0
141
1.0
175
1
  7

176
1
177
1
178
1
143
1.0
179
1
  8

270
1
271
1
272
1
145
1.0
146
1.0
273
1
  9

274
1
275
1
276
1
 42
1.0
 72
1
  3

 73
1
 74
1
 75
1
 94
63
  0
MLINESTYLE
  5
22
102
{ACAD_REACTORS
330
10
102
}
330
10
100
AcDbMlineStyle
  2
Standard
 70
0
  3

 62
256
 51
90.0
 52
90.0
 71
2
 49
0.5
 62
256
  6
BYLAYER
 49
-0.5
 62
256
  6
BYLAYER
  0
MLEADERSTYLE
  5
2C
102
{ACAD_REACTORS
330
F
102
}
330
F
100
AcDbMLeaderStyle
179
2
170
2
171
1
172
0
 90
2
 40
0.0
 41
0.0
173
1
 91
-1056964608
 92
-2
290
1
 42
2.0
291
1
 43
8.0
  3
Standard
 44
4.0
300

342
29
174
1
175
1
176
0
178
1
 93
-1056964608
 45
4.0
292
0
297
0
 46
4.0
 94
-1056964608
 47
1.0
 49
1.0
140
1.0
294
1
141
0.0
177
0
142
1.0
295
0
296
0
143
3.75
271
0
272
9
273
9
  0
DICTIONARY
  5
2D
330
A
100
AcDbDictionary
280
1
281
1
  3
CREATED_BY_EZDXF
350
2E
  3
WRITTEN_BY_EZDXF
350
39
  0
DICTIONARYVAR
  5
2E
330
2D
100
DictionaryVariables
280
0
  1
1.4.4 @ 2026-06-24T16:19:22.144955+00:00
  0
DICTIONARYVAR
  5
39
330
2D
100
DictionaryVariables
280
0
  1
1.4.4 @ 2026-06-24T16:19:22.158951+00:00
  0
ENDSEC
  0
EOF
