ISO-10303-21;
HEADER;
FILE_DESCRIPTION (( 'STEP AP203' ),
    '1' );
FILE_NAME ('Kora_Handle.STEP',
    '2026-07-02T23:16:07',
    ( '' ),
    ( '' ),
    'SwSTEP 2.0',
    'SolidWorks 2026',
    '' );
FILE_SCHEMA (( 'CONFIG_CONTROL_DESIGN' ));
ENDSEC;

DATA;
#1 = ORIENTED_EDGE ( 'NONE', *, *, #46, .F. ) ;
#2 = VERTEX_POINT ( 'NONE', #20 ) ;
#3 = DIRECTION ( 'NONE',  ( 0.000000000000000000, 0.000000000000000000, 1.000000000000000000 ) ) ;
#4 = COORDINATED_UNIVERSAL_TIME_OFFSET ( 8, 0, .BEHIND. ) ;
#5 = DIRECTION ( 'NONE',  ( -1.000000000000000000, 0.000000000000000000, 0.000000000000000000 ) ) ;
#6 = APPROVAL_DATE_TIME ( #8, #104 ) ;
#7 = EDGE_LOOP ( 'NONE', ( #105, #166 ) ) ;
#8 = DATE_AND_TIME ( #12, #143 ) ;
#9 = PERSON_AND_ORGANIZATION_ROLE ( 'classification_officer' ) ;
#10 = ADVANCED_FACE ( 'NONE', ( #144 ), #36, .T. ) ;
#11 = DIRECTION ( 'NONE',  ( -1.000000000000000000, 0.000000000000000000, 0.000000000000000000 ) ) ;
#12 = CALENDAR_DATE ( 2026, 2, 7 ) ;
#13 =( LENGTH_UNIT ( ) NAMED_UNIT ( * ) SI_UNIT ( $, .METRE. ) );
#14 = APPROVAL_DATE_TIME ( #96, #120 ) ;
#15 = LOCAL_TIME ( 16, 16, 7.000000000000000000, #138 ) ;
#16 = PERSON_AND_ORGANIZATION ( #18446744073709551615, #18446744073709551615 ) ;
#17 = PRODUCT_DEFINITION_SHAPE ( 'NONE', 'NONE',  #25 ) ;
#18 = SECURITY_CLASSIFICATION ( '', '', #131 ) ;
#19 = ORIENTED_EDGE ( 'NONE', *, *, #76, .T. ) ;
#20 = CARTESIAN_POINT ( 'NONE',  ( 0.4330708661417322913, 5.303588500244442984E-17, 0.000000000000000000 ) ) ;
#21 = DIRECTION ( 'NONE',  ( -0.000000000000000000, -0.000000000000000000, -1.000000000000000000 ) ) ;
#22 = EDGE_CURVE ( 'NONE', #106, #85, #99, .T. ) ;
#23 = PERSON_AND_ORGANIZATION ( #18446744073709551615, #18446744073709551615 ) ;
#24 = CALENDAR_DATE ( 2026, 2, 7 ) ;
#25 = PRODUCT_DEFINITION ( 'General', '', #95, #37 ) ;
#26 = CARTESIAN_POINT ( 'NONE',  ( 0.4330708661417322913, 5.303588500244442984E-17, 10.23622047244094624 ) ) ;
#27 = PERSON_AND_ORGANIZATION_ROLE ( 'design_supplier' ) ;
#28 = CARTESIAN_POINT ( 'NONE',  ( 0.000000000000000000, 0.000000000000000000, 0.000000000000000000 ) ) ;
#29 = APPLICATION_PROTOCOL_DEFINITION ( 'international standard', 'config_control_design', 1994, #109 ) ;
#30 = DIRECTION ( 'NONE',  ( 1.000000000000000000, 0.000000000000000000, 0.000000000000000000 ) ) ;
#31 = COORDINATED_UNIVERSAL_TIME_OFFSET ( 8, 0, .BEHIND. ) ;
#32 = AXIS2_PLACEMENT_3D ( 'NONE', #28, #146, #175 ) ;
#33 = PLANE ( 'NONE',  #32 ) ;
#34 = ORIENTED_EDGE ( 'NONE', *, *, #46, .T. ) ;
#35 = DATE_TIME_ROLE ( 'creation_date' ) ;
#36 = CYLINDRICAL_SURFACE ( 'NONE', #83, 0.4330708661417322913 ) ;
#37 = DESIGN_CONTEXT ( 'detailed design', #101, 'design' ) ;
#38 = CARTESIAN_POINT ( 'NONE',  ( 0.000000000000000000, 0.000000000000000000, 10.23622047244094624 ) ) ;
#39 = EDGE_CURVE ( 'NONE', #85, #106, #57, .T. ) ;
#40 = DIRECTION ( 'NONE',  ( -0.000000000000000000, -0.000000000000000000, -1.000000000000000000 ) ) ;
#41 =( NAMED_UNIT ( * ) SI_UNIT ( $, .STERADIAN. ) SOLID_ANGLE_UNIT ( ) );
#42 = CARTESIAN_POINT ( 'NONE',  ( 0.000000000000000000, 0.000000000000000000, 10.23622047244094624 ) ) ;
#43 = APPROVAL_STATUS ( 'not_yet_approved' ) ;
#44 = PERSON_AND_ORGANIZATION ( #18446744073709551615, #18446744073709551615 ) ;
#45 = CC_DESIGN_APPROVAL ( #104, ( #18 ) ) ;
#46 = EDGE_CURVE ( 'NONE', #106, #157, #110, .T. ) ;
#47 = CARTESIAN_POINT ( 'NONE',  ( -0.4330708661417322913, 0.000000000000000000, 10.23622047244094624 ) ) ;
#48 = CIRCLE ( 'NONE', #102, 0.4330708661417322913 ) ;
#49 = ORIENTED_EDGE ( 'NONE', *, *, #22, .T. ) ;
#50 = AXIS2_PLACEMENT_3D ( 'NONE', #113, #115, #93 ) ;
#51 = LINE ( 'NONE', #26, #91 ) ;
#52 = PERSON_AND_ORGANIZATION ( #18446744073709551615, #18446744073709551615 ) ;
#53 = DIRECTION ( 'NONE',  ( 1.000000000000000000, 0.000000000000000000, 0.000000000000000000 ) ) ;
#54 = PRODUCT ( 'Kora_Handle', 'Kora_Handle', '', ( #63 ) ) ;
#55 = CC_DESIGN_DATE_AND_TIME_ASSIGNMENT ( #71, #61, ( #18 ) ) ;
#56 = CARTESIAN_POINT ( 'NONE',  ( 0.000000000000000000, 0.000000000000000000, 10.23622047244094624 ) ) ;
#57 = CIRCLE ( 'NONE', #152, 0.4330708661417322913 ) ;
#58 = DIRECTION ( 'NONE',  ( 1.000000000000000000, 0.000000000000000000, 0.000000000000000000 ) ) ;
#59 = CC_DESIGN_APPROVAL ( #127, ( #95 ) ) ;
#60 = FACE_OUTER_BOUND ( 'NONE', #66, .T. ) ;
#61 = DATE_TIME_ROLE ( 'classification_date' ) ;
#62 = PERSON_AND_ORGANIZATION_ROLE ( 'creator' ) ;
#63 = MECHANICAL_CONTEXT ( 'NONE', #109, 'mechanical' ) ;
#64 = ADVANCED_FACE ( 'NONE', ( #154 ), #33, .F. ) ;
#65 = CC_DESIGN_APPROVAL ( #120, ( #25 ) ) ;
#66 = EDGE_LOOP ( 'NONE', ( #140, #68, #168, #1 ) ) ;
#67 = CARTESIAN_POINT ( 'NONE',  ( 0.000000000000000000, 0.000000000000000000, 10.23622047244094624 ) ) ;
#68 = ORIENTED_EDGE ( 'NONE', *, *, #78, .T. ) ;
#69 = CC_DESIGN_PERSON_AND_ORGANIZATION_ASSIGNMENT ( #145, #62, ( #95 ) ) ;
#70 = EDGE_LOOP ( 'NONE', ( #125, #139, #34, #19 ) ) ;
#71 = DATE_AND_TIME ( #24, #112 ) ;
#72 = CARTESIAN_POINT ( 'NONE',  ( 0.000000000000000000, 0.000000000000000000, 10.23622047244094624 ) ) ;
#73 = PERSON_AND_ORGANIZATION ( #18446744073709551615, #18446744073709551615 ) ;
#74 = DIRECTION ( 'NONE',  ( 0.000000000000000000, 0.000000000000000000, 1.000000000000000000 ) ) ;
#75 = DIRECTION ( 'NONE',  ( -0.000000000000000000, -0.000000000000000000, -1.000000000000000000 ) ) ;
#76 = EDGE_CURVE ( 'NONE', #157, #2, #48, .T. ) ;
#77 = CARTESIAN_POINT ( 'NONE',  ( 0.000000000000000000, 0.000000000000000000, 0.000000000000000000 ) ) ;
#78 = EDGE_CURVE ( 'NONE', #85, #2, #51, .T. ) ;
#79 = AXIS2_PLACEMENT_3D ( 'NONE', #56, #114, #133 ) ;
#80 = APPLICATION_PROTOCOL_DEFINITION ( 'international standard', 'config_control_design', 1994, #101 ) ;
#81 = DIMENSIONAL_EXPONENTS ( 1.000000000000000000, 0.000000000000000000, 0.000000000000000000, 0.000000000000000000, 0.000000000000000000, 0.000000000000000000, 0.000000000000000000 ) ;
#82 = CC_DESIGN_PERSON_AND_ORGANIZATION_ASSIGNMENT ( #142, #27, ( #95 ) ) ;
#83 = AXIS2_PLACEMENT_3D ( 'NONE', #67, #21, #5 ) ;
#84 = APPROVAL_STATUS ( 'not_yet_approved' ) ;
#85 = VERTEX_POINT ( 'NONE', #147 ) ;
#86 = APPROVAL_DATE_TIME ( #89, #127 ) ;
#87 = APPROVAL_PERSON_ORGANIZATION ( #23, #120, #153 ) ;
#88 = DIRECTION ( 'NONE',  ( 1.000000000000000000, 0.000000000000000000, 0.000000000000000000 ) ) ;
#89 = DATE_AND_TIME ( #90, #15 ) ;
#90 = CALENDAR_DATE ( 2026, 2, 7 ) ;
#91 = VECTOR ( 'NONE', #75, 39.37007874015748143 ) ;
#92 = CYLINDRICAL_SURFACE ( 'NONE', #148, 0.4330708661417322913 ) ;
#93 = DIRECTION ( 'NONE',  ( 1.000000000000000000, 0.000000000000000000, 0.000000000000000000 ) ) ;
#94 = CALENDAR_DATE ( 2026, 2, 7 ) ;
#95 = PRODUCT_DEFINITION_FORMATION_WITH_SPECIFIED_SOURCE ( 'Symmetric', '', #54, .NOT_KNOWN. ) ;
#96 = DATE_AND_TIME ( #94, #136 ) ;
#97 = ADVANCED_FACE ( 'NONE', ( #173 ), #174, .T. ) ;
#98 = DIRECTION ( 'NONE',  ( -0.000000000000000000, -0.000000000000000000, -1.000000000000000000 ) ) ;
#99 = CIRCLE ( 'NONE', #170, 0.4330708661417322913 ) ;
#100 = LENGTH_MEASURE_WITH_UNIT ( LENGTH_MEASURE( 0.02539999999999999897 ), #13 );
#101 = APPLICATION_CONTEXT ( 'configuration controlled 3d designs of mechanical parts and assemblies' ) ;
#102 = AXIS2_PLACEMENT_3D ( 'NONE', #77, #74, #53 ) ;
#103 = APPROVAL_PERSON_ORGANIZATION ( #52, #104, #134 ) ;
#104 = APPROVAL ( #126, 'Coincident' ) ;
#105 = ORIENTED_EDGE ( 'NONE', *, *, #76, .F. ) ;
#106 = VERTEX_POINT ( 'NONE', #130 ) ;
#107 = CC_DESIGN_PERSON_AND_ORGANIZATION_ASSIGNMENT ( #44, #151, ( #54 ) ) ;
#108 = SHAPE_DEFINITION_REPRESENTATION ( #17, #176 ) ;
#109 = APPLICATION_CONTEXT ( 'configuration controlled 3d designs of mechanical parts and assemblies' ) ;
#110 = LINE ( 'NONE', #47, #160 ) ;
#111 = ADVANCED_FACE ( 'NONE', ( #60 ), #92, .T. ) ;
#112 = LOCAL_TIME ( 16, 16, 7.000000000000000000, #4 ) ;
#113 = CARTESIAN_POINT ( 'NONE',  ( 0.000000000000000000, 0.000000000000000000, 0.000000000000000000 ) ) ;
#114 = DIRECTION ( 'NONE',  ( 0.000000000000000000, 0.000000000000000000, 1.000000000000000000 ) ) ;
#115 = DIRECTION ( 'NONE',  ( 0.000000000000000000, 0.000000000000000000, 1.000000000000000000 ) ) ;
#116 = CARTESIAN_POINT ( 'NONE',  ( 0.000000000000000000, 0.000000000000000000, 0.000000000000000000 ) ) ;
#117 = CALENDAR_DATE ( 2026, 2, 7 ) ;
#118 = CC_DESIGN_DATE_AND_TIME_ASSIGNMENT ( #135, #35, ( #25 ) ) ;
#119 = APPROVAL_PERSON_ORGANIZATION ( #122, #127, #164 ) ;
#120 = APPROVAL ( #43, 'Coincident' ) ;
#121 =( GEOMETRIC_REPRESENTATION_CONTEXT ( 3 ) GLOBAL_UNCERTAINTY_ASSIGNED_CONTEXT ( ( #141 ) ) GLOBAL_UNIT_ASSIGNED_CONTEXT ( ( #159, #171, #41 ) ) REPRESENTATION_CONTEXT ( 'NONE', 'WORKASPACE' ) );
#122 = PERSON_AND_ORGANIZATION ( #18446744073709551615, #18446744073709551615 ) ;
#123 = EDGE_LOOP ( 'NONE', ( #49, #156 ) ) ;
#124 = AXIS2_PLACEMENT_3D ( 'NONE', #116, #150, #30 ) ;
#125 = ORIENTED_EDGE ( 'NONE', *, *, #78, .F. ) ;
#126 = APPROVAL_STATUS ( 'not_yet_approved' ) ;
#127 = APPROVAL ( #84, 'Coincident' ) ;
#128 = DIRECTION ( 'NONE',  ( 0.000000000000000000, 0.000000000000000000, 1.000000000000000000 ) ) ;
#129 = COORDINATED_UNIVERSAL_TIME_OFFSET ( 8, 0, .BEHIND. ) ;
#130 = CARTESIAN_POINT ( 'NONE',  ( -0.4330708661417322913, 0.000000000000000000, 10.23622047244094624 ) ) ;
#131 = SECURITY_CLASSIFICATION_LEVEL ( 'unclassified' ) ;
#132 = CLOSED_SHELL ( 'NONE', ( #111, #10, #97, #64 ) ) ;
#133 = DIRECTION ( 'NONE',  ( 1.000000000000000000, 0.000000000000000000, -0.000000000000000000 ) ) ;
#134 = APPROVAL_ROLE ( '' ) ;
#135 = DATE_AND_TIME ( #117, #167 ) ;
#136 = LOCAL_TIME ( 16, 16, 7.000000000000000000, #163 ) ;
#137 = CC_DESIGN_SECURITY_CLASSIFICATION ( #18, ( #95 ) ) ;
#138 = COORDINATED_UNIVERSAL_TIME_OFFSET ( 8, 0, .BEHIND. ) ;
#139 = ORIENTED_EDGE ( 'NONE', *, *, #22, .F. ) ;
#140 = ORIENTED_EDGE ( 'NONE', *, *, #39, .F. ) ;
#141 = UNCERTAINTY_MEASURE_WITH_UNIT (LENGTH_MEASURE( 1.000000000000000082E-05 ), #159, 'distance_accuracy_value', 'NONE');
#142 = PERSON_AND_ORGANIZATION ( #18446744073709551615, #18446744073709551615 ) ;
#143 = LOCAL_TIME ( 16, 16, 7.000000000000000000, #129 ) ;
#144 = FACE_OUTER_BOUND ( 'NONE', #70, .T. ) ;
#145 = PERSON_AND_ORGANIZATION ( #18446744073709551615, #18446744073709551615 ) ;
#146 = DIRECTION ( 'NONE',  ( 0.000000000000000000, 0.000000000000000000, 1.000000000000000000 ) ) ;
#147 = CARTESIAN_POINT ( 'NONE',  ( 0.4330708661417322913, 5.303588500244442984E-17, 10.23622047244094624 ) ) ;
#148 = AXIS2_PLACEMENT_3D ( 'NONE', #42, #40, #11 ) ;
#149 = EDGE_CURVE ( 'NONE', #2, #157, #158, .T. ) ;
#150 = DIRECTION ( 'NONE',  ( 0.000000000000000000, 0.000000000000000000, 1.000000000000000000 ) ) ;
#151 = PERSON_AND_ORGANIZATION_ROLE ( 'design_owner' ) ;
#152 = AXIS2_PLACEMENT_3D ( 'NONE', #72, #128, #58 ) ;
#153 = APPROVAL_ROLE ( '' ) ;
#154 = FACE_OUTER_BOUND ( 'NONE', #7, .T. ) ;
#155 = CC_DESIGN_PERSON_AND_ORGANIZATION_ASSIGNMENT ( #16, #161, ( #25 ) ) ;
#156 = ORIENTED_EDGE ( 'NONE', *, *, #39, .T. ) ;
#157 = VERTEX_POINT ( 'NONE', #162 ) ;
#158 = CIRCLE ( 'NONE', #124, 0.4330708661417322913 ) ;
#159 =( CONVERSION_BASED_UNIT ( 'INCH', #100 ) LENGTH_UNIT ( ) NAMED_UNIT ( #81 ) );
#160 = VECTOR ( 'NONE', #98, 39.37007874015748143 ) ;
#161 = PERSON_AND_ORGANIZATION_ROLE ( 'creator' ) ;
#162 = CARTESIAN_POINT ( 'NONE',  ( -0.4330708661417322913, 0.000000000000000000, 0.000000000000000000 ) ) ;
#163 = COORDINATED_UNIVERSAL_TIME_OFFSET ( 8, 0, .BEHIND. ) ;
#164 = APPROVAL_ROLE ( '' ) ;
#165 = PRODUCT_RELATED_PRODUCT_CATEGORY ( 'detail', '', ( #54 ) ) ;
#166 = ORIENTED_EDGE ( 'NONE', *, *, #149, .F. ) ;
#167 = LOCAL_TIME ( 16, 16, 7.000000000000000000, #31 ) ;
#168 = ORIENTED_EDGE ( 'NONE', *, *, #149, .T. ) ;
#169 = MANIFOLD_SOLID_BREP ( 'HandlePost', #132 ) ;
#170 = AXIS2_PLACEMENT_3D ( 'NONE', #38, #3, #88 ) ;
#171 =( NAMED_UNIT ( * ) PLANE_ANGLE_UNIT ( ) SI_UNIT ( $, .RADIAN. ) );
#172 = CC_DESIGN_PERSON_AND_ORGANIZATION_ASSIGNMENT ( #73, #9, ( #18 ) ) ;
#173 = FACE_OUTER_BOUND ( 'NONE', #123, .T. ) ;
#174 = PLANE ( 'NONE',  #79 ) ;
#175 = DIRECTION ( 'NONE',  ( 1.000000000000000000, 0.000000000000000000, -0.000000000000000000 ) ) ;
#176 = ADVANCED_BREP_SHAPE_REPRESENTATION ( 'Kora_Handle', ( #169, #50 ), #121 ) ;
ENDSEC;
END-ISO-10303-21;
