ISO-10303-21;
HEADER;
FILE_DESCRIPTION (( 'STEP AP203' ),
    '1' );
FILE_NAME ('Kora_Tailpiece.STEP',
    '2026-07-02T23:16:07',
    ( '' ),
    ( '' ),
    'SwSTEP 2.0',
    'SolidWorks 2026',
    '' );
FILE_SCHEMA (( 'CONFIG_CONTROL_DESIGN' ));
ENDSEC;

DATA;
#1 = DIRECTION ( 'NONE',  ( 1.000000000000000000, 0.000000000000000000, 0.000000000000000000 ) ) ;
#2 = UNCERTAINTY_MEASURE_WITH_UNIT (LENGTH_MEASURE( 1.000000000000000082E-05 ), #174, 'distance_accuracy_value', 'NONE');
#3 = AXIS2_PLACEMENT_3D ( 'NONE', #123, #120, #1 ) ;
#4 = ORIENTED_EDGE ( 'NONE', *, *, #166, .T. ) ;
#5 = COORDINATED_UNIVERSAL_TIME_OFFSET ( 8, 0, .BEHIND. ) ;
#6 = ORIENTED_EDGE ( 'NONE', *, *, #43, .F. ) ;
#7 = PERSON_AND_ORGANIZATION ( #18446744073709551615, #18446744073709551615 ) ;
#8 = APPROVAL_DATE_TIME ( #127, #131 ) ;
#9 = CALENDAR_DATE ( 2026, 2, 7 ) ;
#10 = DIRECTION ( 'NONE',  ( 1.000000000000000000, 0.000000000000000000, 0.000000000000000000 ) ) ;
#11 = CARTESIAN_POINT ( 'NONE',  ( 0.000000000000000000, 0.000000000000000000, -0.9842519685039370358 ) ) ;
#12 = APPROVAL_STATUS ( 'not_yet_approved' ) ;
#13 = CC_DESIGN_PERSON_AND_ORGANIZATION_ASSIGNMENT ( #145, #62, ( #84 ) ) ;
#14 = CALENDAR_DATE ( 2026, 2, 7 ) ;
#15 = APPLICATION_CONTEXT ( 'configuration controlled 3d designs of mechanical parts and assemblies' ) ;
#16 = LOCAL_TIME ( 16, 16, 7.000000000000000000, #5 ) ;
#17 = LINE ( 'NONE', #71, #122 ) ;
#18 = ORIENTED_EDGE ( 'NONE', *, *, #103, .F. ) ;
#19 = ADVANCED_FACE ( 'NONE', ( #60 ), #57, .T. ) ;
#20 = CC_DESIGN_APPROVAL ( #75, ( #143 ) ) ;
#21 = DIRECTION ( 'NONE',  ( 0.000000000000000000, 0.000000000000000000, 1.000000000000000000 ) ) ;
#22 = APPLICATION_PROTOCOL_DEFINITION ( 'international standard', 'config_control_design', 1994, #15 ) ;
#23 = COORDINATED_UNIVERSAL_TIME_OFFSET ( 8, 0, .BEHIND. ) ;
#24 = EDGE_CURVE ( 'NONE', #47, #85, #35, .T. ) ;
#25 = PERSON_AND_ORGANIZATION_ROLE ( 'creator' ) ;
#26 = DIRECTION ( 'NONE',  ( 0.000000000000000000, 0.000000000000000000, 1.000000000000000000 ) ) ;
#27 = CARTESIAN_POINT ( 'NONE',  ( 0.000000000000000000, 0.000000000000000000, -0.9842519685039370358 ) ) ;
#28 = COORDINATED_UNIVERSAL_TIME_OFFSET ( 8, 0, .BEHIND. ) ;
#29 = CIRCLE ( 'NONE', #3, 0.2362204724409449341 ) ;
#30 = CC_DESIGN_DATE_AND_TIME_ASSIGNMENT ( #107, #98, ( #170 ) ) ;
#31 = VECTOR ( 'NONE', #128, 39.37007874015748143 ) ;
#32 = DIRECTION ( 'NONE',  ( 1.000000000000000000, 0.000000000000000000, 0.000000000000000000 ) ) ;
#33 = DATE_TIME_ROLE ( 'creation_date' ) ;
#34 = DIRECTION ( 'NONE',  ( 0.000000000000000000, 0.000000000000000000, 1.000000000000000000 ) ) ;
#35 = CIRCLE ( 'NONE', #118, 0.2362204724409449341 ) ;
#36 = CC_DESIGN_PERSON_AND_ORGANIZATION_ASSIGNMENT ( #129, #52, ( #170 ) ) ;
#37 = CARTESIAN_POINT ( 'NONE',  ( 0.000000000000000000, 0.000000000000000000, 0.9842519685039370358 ) ) ;
#38 = CIRCLE ( 'NONE', #50, 0.2362204724409449341 ) ;
#39 =( LENGTH_UNIT ( ) NAMED_UNIT ( * ) SI_UNIT ( $, .METRE. ) );
#40 =( NAMED_UNIT ( * ) PLANE_ANGLE_UNIT ( ) SI_UNIT ( $, .RADIAN. ) );
#41 = APPROVAL_DATE_TIME ( #150, #75 ) ;
#42 = APPLICATION_PROTOCOL_DEFINITION ( 'international standard', 'config_control_design', 1994, #101 ) ;
#43 = EDGE_CURVE ( 'NONE', #47, #144, #17, .T. ) ;
#44 = ORIENTED_EDGE ( 'NONE', *, *, #24, .F. ) ;
#45 = CC_DESIGN_APPROVAL ( #131, ( #84 ) ) ;
#46 = EDGE_CURVE ( 'NONE', #85, #47, #29, .T. ) ;
#47 = VERTEX_POINT ( 'NONE', #59 ) ;
#48 = ORIENTED_EDGE ( 'NONE', *, *, #43, .T. ) ;
#49 = APPROVAL_STATUS ( 'not_yet_approved' ) ;
#50 = AXIS2_PLACEMENT_3D ( 'NONE', #37, #159, #10 ) ;
#51 = DIRECTION ( 'NONE',  ( 0.000000000000000000, 0.000000000000000000, 1.000000000000000000 ) ) ;
#52 = PERSON_AND_ORGANIZATION_ROLE ( 'classification_officer' ) ;
#53 = CARTESIAN_POINT ( 'NONE',  ( 0.2362204724409449341, 0.000000000000000000, 0.9842519685039370358 ) ) ;
#54 = DIRECTION ( 'NONE',  ( 1.000000000000000000, 0.000000000000000000, 0.000000000000000000 ) ) ;
#55 = APPROVAL_PERSON_ORGANIZATION ( #93, #75, #162 ) ;
#56 = ORIENTED_EDGE ( 'NONE', *, *, #46, .T. ) ;
#57 = PLANE ( 'NONE',  #89 ) ;
#58 = CC_DESIGN_PERSON_AND_ORGANIZATION_ASSIGNMENT ( #86, #25, ( #84 ) ) ;
#59 = CARTESIAN_POINT ( 'NONE',  ( -0.2362204724409449341, 2.892866454678787531E-17, -0.9842519685039370358 ) ) ;
#60 = FACE_OUTER_BOUND ( 'NONE', #167, .T. ) ;
#61 = DIRECTION ( 'NONE',  ( 1.000000000000000000, 0.000000000000000000, 0.000000000000000000 ) ) ;
#62 = PERSON_AND_ORGANIZATION_ROLE ( 'design_supplier' ) ;
#63 = SECURITY_CLASSIFICATION_LEVEL ( 'unclassified' ) ;
#64 = DIRECTION ( 'NONE',  ( 0.000000000000000000, 0.000000000000000000, 1.000000000000000000 ) ) ;
#65 = CYLINDRICAL_SURFACE ( 'NONE', #163, 0.2362204724409449341 ) ;
#66 = APPROVAL_PERSON_ORGANIZATION ( #7, #156, #141 ) ;
#67 = PRODUCT_DEFINITION_SHAPE ( 'NONE', 'NONE',  #143 ) ;
#68 = PRODUCT_RELATED_PRODUCT_CATEGORY ( 'detail', '', ( #157 ) ) ;
#69 = AXIS2_PLACEMENT_3D ( 'NONE', #130, #64, #54 ) ;
#70 = DIRECTION ( 'NONE',  ( 0.000000000000000000, 0.000000000000000000, 1.000000000000000000 ) ) ;
#71 = CARTESIAN_POINT ( 'NONE',  ( -0.2362204724409449341, 2.892866454678787531E-17, -0.9842519685039370358 ) ) ;
#72 = CALENDAR_DATE ( 2026, 2, 7 ) ;
#73 = APPROVAL_PERSON_ORGANIZATION ( #165, #131, #81 ) ;
#74 = FACE_OUTER_BOUND ( 'NONE', #154, .T. ) ;
#75 = APPROVAL ( #12, 'Coincident' ) ;
#76 = CARTESIAN_POINT ( 'NONE',  ( -0.2362204724409449341, 2.892866454678787531E-17, 0.9842519685039370358 ) ) ;
#77 =( NAMED_UNIT ( * ) SI_UNIT ( $, .STERADIAN. ) SOLID_ANGLE_UNIT ( ) );
#78 = LOCAL_TIME ( 16, 16, 7.000000000000000000, #116 ) ;
#79 = PERSON_AND_ORGANIZATION_ROLE ( 'design_owner' ) ;
#80 = ORIENTED_EDGE ( 'NONE', *, *, #24, .T. ) ;
#81 = APPROVAL_ROLE ( '' ) ;
#82 = CARTESIAN_POINT ( 'NONE',  ( 0.000000000000000000, 0.000000000000000000, -0.9842519685039370358 ) ) ;
#83 = COORDINATED_UNIVERSAL_TIME_OFFSET ( 8, 0, .BEHIND. ) ;
#84 = PRODUCT_DEFINITION_FORMATION_WITH_SPECIFIED_SOURCE ( 'Symmetric', '', #157, .NOT_KNOWN. ) ;
#85 = VERTEX_POINT ( 'NONE', #105 ) ;
#86 = PERSON_AND_ORGANIZATION ( #18446744073709551615, #18446744073709551615 ) ;
#87 = CALENDAR_DATE ( 2026, 2, 7 ) ;
#88 = CARTESIAN_POINT ( 'NONE',  ( 0.000000000000000000, 0.000000000000000000, -0.9842519685039370358 ) ) ;
#89 = AXIS2_PLACEMENT_3D ( 'NONE', #106, #34, #94 ) ;
#90 = CYLINDRICAL_SURFACE ( 'NONE', #109, 0.2362204724409449341 ) ;
#91 = MECHANICAL_CONTEXT ( 'NONE', #101, 'mechanical' ) ;
#92 = PERSON_AND_ORGANIZATION_ROLE ( 'creator' ) ;
#93 = PERSON_AND_ORGANIZATION ( #18446744073709551615, #18446744073709551615 ) ;
#94 = DIRECTION ( 'NONE',  ( 1.000000000000000000, 0.000000000000000000, -0.000000000000000000 ) ) ;
#95 = VERTEX_POINT ( 'NONE', #53 ) ;
#96 =( GEOMETRIC_REPRESENTATION_CONTEXT ( 3 ) GLOBAL_UNCERTAINTY_ASSIGNED_CONTEXT ( ( #2 ) ) GLOBAL_UNIT_ASSIGNED_CONTEXT ( ( #174, #40, #77 ) ) REPRESENTATION_CONTEXT ( 'NONE', 'WORKASPACE' ) );
#97 = ORIENTED_EDGE ( 'NONE', *, *, #103, .T. ) ;
#98 = DATE_TIME_ROLE ( 'classification_date' ) ;
#99 = AXIS2_PLACEMENT_3D ( 'NONE', #110, #132, #112 ) ;
#100 = CC_DESIGN_DATE_AND_TIME_ASSIGNMENT ( #119, #33, ( #143 ) ) ;
#101 = APPLICATION_CONTEXT ( 'configuration controlled 3d designs of mechanical parts and assemblies' ) ;
#102 = MANIFOLD_SOLID_BREP ( 'Boss-Extrude1', #153 ) ;
#103 = EDGE_CURVE ( 'NONE', #95, #144, #38, .T. ) ;
#104 = ADVANCED_FACE ( 'NONE', ( #146 ), #90, .T. ) ;
#105 = CARTESIAN_POINT ( 'NONE',  ( 0.2362204724409449341, 0.000000000000000000, -0.9842519685039370358 ) ) ;
#106 = CARTESIAN_POINT ( 'NONE',  ( 0.000000000000000000, 0.000000000000000000, 0.9842519685039370358 ) ) ;
#107 = DATE_AND_TIME ( #9, #135 ) ;
#108 = ORIENTED_EDGE ( 'NONE', *, *, #171, .F. ) ;
#109 = AXIS2_PLACEMENT_3D ( 'NONE', #11, #158, #173 ) ;
#110 = CARTESIAN_POINT ( 'NONE',  ( 0.000000000000000000, 0.000000000000000000, 0.9842519685039370358 ) ) ;
#111 = PLANE ( 'NONE',  #137 ) ;
#112 = DIRECTION ( 'NONE',  ( 1.000000000000000000, 0.000000000000000000, 0.000000000000000000 ) ) ;
#113 = ADVANCED_BREP_SHAPE_REPRESENTATION ( 'Kora_Tailpiece', ( #102, #69 ), #96 ) ;
#114 = CC_DESIGN_APPROVAL ( #156, ( #170 ) ) ;
#115 = DIRECTION ( 'NONE',  ( 1.000000000000000000, 0.000000000000000000, -0.000000000000000000 ) ) ;
#116 = COORDINATED_UNIVERSAL_TIME_OFFSET ( 8, 0, .BEHIND. ) ;
#117 = LOCAL_TIME ( 16, 16, 7.000000000000000000, #28 ) ;
#118 = AXIS2_PLACEMENT_3D ( 'NONE', #82, #21, #32 ) ;
#119 = DATE_AND_TIME ( #133, #117 ) ;
#120 = DIRECTION ( 'NONE',  ( 0.000000000000000000, 0.000000000000000000, 1.000000000000000000 ) ) ;
#121 = EDGE_LOOP ( 'NONE', ( #168, #44 ) ) ;
#122 = VECTOR ( 'NONE', #70, 39.37007874015748143 ) ;
#123 = CARTESIAN_POINT ( 'NONE',  ( 0.000000000000000000, 0.000000000000000000, -0.9842519685039370358 ) ) ;
#124 = DATE_AND_TIME ( #72, #16 ) ;
#125 = EDGE_LOOP ( 'NONE', ( #6, #80, #138, #152 ) ) ;
#126 = SHAPE_DEFINITION_REPRESENTATION ( #67, #113 ) ;
#127 = DATE_AND_TIME ( #87, #151 ) ;
#128 = DIRECTION ( 'NONE',  ( 0.000000000000000000, 0.000000000000000000, 1.000000000000000000 ) ) ;
#129 = PERSON_AND_ORGANIZATION ( #18446744073709551615, #18446744073709551615 ) ;
#130 = CARTESIAN_POINT ( 'NONE',  ( 0.000000000000000000, 0.000000000000000000, 0.000000000000000000 ) ) ;
#131 = APPROVAL ( #139, 'Coincident' ) ;
#132 = DIRECTION ( 'NONE',  ( 0.000000000000000000, 0.000000000000000000, 1.000000000000000000 ) ) ;
#133 = CALENDAR_DATE ( 2026, 2, 7 ) ;
#134 = DESIGN_CONTEXT ( 'detailed design', #15, 'design' ) ;
#135 = LOCAL_TIME ( 16, 16, 7.000000000000000000, #83 ) ;
#136 = ADVANCED_FACE ( 'NONE', ( #74 ), #65, .T. ) ;
#137 = AXIS2_PLACEMENT_3D ( 'NONE', #88, #51, #115 ) ;
#138 = ORIENTED_EDGE ( 'NONE', *, *, #171, .T. ) ;
#139 = APPROVAL_STATUS ( 'not_yet_approved' ) ;
#140 = ADVANCED_FACE ( 'NONE', ( #161 ), #111, .F. ) ;
#141 = APPROVAL_ROLE ( '' ) ;
#142 = CC_DESIGN_SECURITY_CLASSIFICATION ( #170, ( #84 ) ) ;
#143 = PRODUCT_DEFINITION ( 'General', '', #84, #134 ) ;
#144 = VERTEX_POINT ( 'NONE', #76 ) ;
#145 = PERSON_AND_ORGANIZATION ( #18446744073709551615, #18446744073709551615 ) ;
#146 = FACE_OUTER_BOUND ( 'NONE', #125, .T. ) ;
#147 = CC_DESIGN_PERSON_AND_ORGANIZATION_ASSIGNMENT ( #160, #92, ( #143 ) ) ;
#148 = LINE ( 'NONE', #155, #31 ) ;
#149 = PERSON_AND_ORGANIZATION ( #18446744073709551615, #18446744073709551615 ) ;
#150 = DATE_AND_TIME ( #14, #78 ) ;
#151 = LOCAL_TIME ( 16, 16, 7.000000000000000000, #23 ) ;
#152 = ORIENTED_EDGE ( 'NONE', *, *, #166, .F. ) ;
#153 = CLOSED_SHELL ( 'NONE', ( #136, #104, #140, #19 ) ) ;
#154 = EDGE_LOOP ( 'NONE', ( #56, #48, #18, #108 ) ) ;
#155 = CARTESIAN_POINT ( 'NONE',  ( 0.2362204724409449341, 0.000000000000000000, -0.9842519685039370358 ) ) ;
#156 = APPROVAL ( #49, 'Coincident' ) ;
#157 = PRODUCT ( 'Kora_Tailpiece', 'Kora_Tailpiece', '', ( #91 ) ) ;
#158 = DIRECTION ( 'NONE',  ( 0.000000000000000000, 0.000000000000000000, 1.000000000000000000 ) ) ;
#159 = DIRECTION ( 'NONE',  ( 0.000000000000000000, 0.000000000000000000, 1.000000000000000000 ) ) ;
#160 = PERSON_AND_ORGANIZATION ( #18446744073709551615, #18446744073709551615 ) ;
#161 = FACE_OUTER_BOUND ( 'NONE', #121, .T. ) ;
#162 = APPROVAL_ROLE ( '' ) ;
#163 = AXIS2_PLACEMENT_3D ( 'NONE', #27, #26, #61 ) ;
#164 = CC_DESIGN_PERSON_AND_ORGANIZATION_ASSIGNMENT ( #149, #79, ( #157 ) ) ;
#165 = PERSON_AND_ORGANIZATION ( #18446744073709551615, #18446744073709551615 ) ;
#166 = EDGE_CURVE ( 'NONE', #144, #95, #175, .T. ) ;
#167 = EDGE_LOOP ( 'NONE', ( #97, #4 ) ) ;
#168 = ORIENTED_EDGE ( 'NONE', *, *, #46, .F. ) ;
#169 = APPROVAL_DATE_TIME ( #124, #156 ) ;
#170 = SECURITY_CLASSIFICATION ( '', '', #63 ) ;
#171 = EDGE_CURVE ( 'NONE', #85, #95, #148, .T. ) ;
#172 = LENGTH_MEASURE_WITH_UNIT ( LENGTH_MEASURE( 0.02539999999999999897 ), #39 );
#173 = DIRECTION ( 'NONE',  ( 1.000000000000000000, 0.000000000000000000, 0.000000000000000000 ) ) ;
#174 =( CONVERSION_BASED_UNIT ( 'INCH', #172 ) LENGTH_UNIT ( ) NAMED_UNIT ( #176 ) );
#175 = CIRCLE ( 'NONE', #99, 0.2362204724409449341 ) ;
#176 = DIMENSIONAL_EXPONENTS ( 1.000000000000000000, 0.000000000000000000, 0.000000000000000000, 0.000000000000000000, 0.000000000000000000, 0.000000000000000000, 0.000000000000000000 ) ;
ENDSEC;
END-ISO-10303-21;
