ISO-10303-21;
HEADER;
FILE_DESCRIPTION (( 'STEP AP203' ),
    '1' );
FILE_NAME ('Kora_Assembly.STEP',
    '2026-07-02T23:16:08',
    ( '' ),
    ( '' ),
    'SwSTEP 2.0',
    'SolidWorks 2026',
    '' );
FILE_SCHEMA (( 'CONFIG_CONTROL_DESIGN' ));
ENDSEC;

DATA;
#1 = PERSON_AND_ORGANIZATION ( #524, #157 ) ;
#2 = PERSON_AND_ORGANIZATION ( #18446744073709551615, #18446744073709551615 ) ;
#3 = APPROVAL_ROLE ( '' ) ;
#4 = CC_DESIGN_PERSON_AND_ORGANIZATION_ASSIGNMENT ( #284, #929, ( #603 ) ) ;
#5 = CARTESIAN_POINT ( 'NONE',  ( 0.000000000000000000, -11.41732283464567033, -1.181102362204723866 ) ) ;
#6 = LOCAL_TIME ( 16, 16, 8.000000000000000000, #307 ) ;
#7 = CC_DESIGN_APPROVAL ( #651, ( #529 ) ) ;
#8 = CC_DESIGN_SECURITY_CLASSIFICATION ( #27, ( #1192 ) ) ;
#9 = DESIGN_CONTEXT ( 'detailed design', #423, 'design' ) ;
#10 = PERSON_AND_ORGANIZATION ( #18446744073709551615, #18446744073709551615 ) ;
#11 = SECURITY_CLASSIFICATION_LEVEL ( 'unclassified' ) ;
#12 = COORDINATED_UNIVERSAL_TIME_OFFSET ( 8, 0, .BEHIND. ) ;
#13 = DIMENSIONAL_EXPONENTS ( 1.000000000000000000, 0.000000000000000000, 0.000000000000000000, 0.000000000000000000, 0.000000000000000000, 0.000000000000000000, 0.000000000000000000 ) ;
#14 = PERSON_AND_ORGANIZATION ( #18446744073709551615, #18446744073709551615 ) ;
#15 = PERSON_AND_ORGANIZATION ( #727, #282 ) ;
#16 = PERSON_AND_ORGANIZATION_ROLE ( 'design_owner' ) ;
#17 = PRODUCT_DEFINITION_SHAPE ( 'NONE', 'NONE',  #419 ) ;
#18 = APPLICATION_CONTEXT ( 'configuration controlled 3d designs of mechanical parts and assemblies' ) ;
#19 = DATE_AND_TIME ( #373, #525 ) ;
#20 = APPROVAL_STATUS ( 'not_yet_approved' ) ;
#21 = DATE_AND_TIME ( #744, #167 ) ;
#22 = PERSON_AND_ORGANIZATION ( #18446744073709551615, #18446744073709551615 ) ;
#23 = PROPERTY_DEFINITION ('external definition','', #908 ) ;
#24 = APPROVAL_PERSON_ORGANIZATION ( #71, #925, #449 ) ;
#25 = LOCAL_TIME ( 16, 16, 8.000000000000000000, #1125 ) ;
#26 = PERSON_AND_ORGANIZATION_ROLE ( 'creator' ) ;
#27 = SECURITY_CLASSIFICATION ( '', '', #401 ) ;
#28 = PERSON_AND_ORGANIZATION ( #1018, #1092 ) ;
#29 = APPROVAL_STATUS ( 'not_yet_approved' ) ;
#30 = OBJECT_ROLE ('mandatory',$ ) ;
#31 = PERSON_AND_ORGANIZATION_ROLE ( 'classification_officer' ) ;
#32 = CC_DESIGN_PERSON_AND_ORGANIZATION_ASSIGNMENT ( #963, #958, ( #322 ) ) ;
#33 = PERSON_AND_ORGANIZATION_ROLE ( 'design_supplier' ) ;
#34 = PROPERTY_DEFINITION ('external definition','', #978 ) ;
#35 = COORDINATED_UNIVERSAL_TIME_OFFSET ( 8, 0, .BEHIND. ) ;
#36 = DOCUMENT_FILE ( 'Kora_Handle.STEP' , '', '', #699, '' ,$ ) ;
#37 = PERSON_AND_ORGANIZATION ( #18446744073709551615, #18446744073709551615 ) ;
#38 = CC_DESIGN_PERSON_AND_ORGANIZATION_ASSIGNMENT ( #115, #479, ( #1128 ) ) ;
#39 = CC_DESIGN_PERSON_AND_ORGANIZATION_ASSIGNMENT ( #195, #375, ( #186 ) ) ;
#40 = OBJECT_ROLE ('mandatory',$ ) ;
#41 = CC_DESIGN_APPROVAL ( #1160, ( #125 ) ) ;
#42 = APPROVAL_ROLE ( '' ) ;
#43 = LOCAL_TIME ( 16, 16, 8.000000000000000000, #303 ) ;
#44 = ROLE_ASSOCIATION ( #40, #581 ) ;
#45 = CALENDAR_DATE ( 2026, 2, 7 ) ;
#46 = ORGANIZATION ( 'NAUO-ORG5', 'UNSPECIFIED', 'UNSPECIFIED' ) ;
#47 = PRODUCT_RELATED_PRODUCT_CATEGORY ( 'detail', '', ( #391 ) ) ;
#48 = PERSON_AND_ORGANIZATION_ROLE ( 'design_owner' ) ;
#49 = PERSON_AND_ORGANIZATION_ROLE ( 'classification_officer' ) ;
#50 = COORDINATED_UNIVERSAL_TIME_OFFSET ( 8, 0, .BEHIND. ) ;
#51 =( LENGTH_UNIT ( ) NAMED_UNIT ( * ) SI_UNIT ( $, .METRE. ) );
#52 = CC_DESIGN_PERSON_AND_ORGANIZATION_ASSIGNMENT ( #707, #441, ( #529 ) ) ;
#53 = PERSON_AND_ORGANIZATION ( #18446744073709551615, #18446744073709551615 ) ;
#54 = APPLIED_DOCUMENT_REFERENCE ( #1185,'',( #888) ) ;
#55 = PERSON_AND_ORGANIZATION ( #18446744073709551615, #18446744073709551615 ) ;
#56 = APPLICATION_PROTOCOL_DEFINITION ( 'international standard', 'config_control_design', 1994, #291 ) ;
#57 = OBJECT_ROLE ('mandatory',$ ) ;
#58 =( NAMED_UNIT ( * ) SI_UNIT ( $, .STERADIAN. ) SOLID_ANGLE_UNIT ( ) );
#59 = CALENDAR_DATE ( 2026, 2, 7 ) ;
#60 = APPLIED_EXTERNAL_IDENTIFICATION_ASSIGNMENT ( 'Kora_Bridge.STEP' , #1039, #965,( #92) ) ;
#61 = PERSON_AND_ORGANIZATION ( #1061, #188 ) ;
#62 = PERSON_AND_ORGANIZATION_ROLE ( 'classification_officer' ) ;
#63 = APPROVAL ( #561, 'UNKNOWN' ) ;
#64 = LOCAL_TIME ( 16, 16, 8.000000000000000000, #974 ) ;
#65 = DATE_AND_TIME ( #342, #224 ) ;
#66 = CC_DESIGN_SECURITY_CLASSIFICATION ( #647, ( #1189 ) ) ;
#67 = LOCAL_TIME ( 16, 16, 8.000000000000000000, #594 ) ;
#68 = APPROVAL ( #984, 'UNKNOWN' ) ;
#69 =( NAMED_UNIT ( * ) PLANE_ANGLE_UNIT ( ) SI_UNIT ( $, .RADIAN. ) );
#70 = PROPERTY_DEFINITION_REPRESENTATION ( #34, #1126 ) ;
#71 = PERSON_AND_ORGANIZATION ( #18446744073709551615, #18446744073709551615 ) ;
#72 = COORDINATED_UNIVERSAL_TIME_OFFSET ( 8, 0, .BEHIND. ) ;
#73 = APPROVAL ( #20, 'Coincident' ) ;
#74 =( NAMED_UNIT ( * ) SI_UNIT ( $, .STERADIAN. ) SOLID_ANGLE_UNIT ( ) );
#75 = CALENDAR_DATE ( 2026, 2, 7 ) ;
#76 = APPROVAL_STATUS ( 'not_yet_approved' ) ;
#77 = APPROVAL_DATE_TIME ( #1008, #222 ) ;
#78 = DIRECTION ( 'NONE',  ( 0.000000000000000000, 0.000000000000000000, 1.000000000000000000 ) ) ;
#79 = CC_DESIGN_PERSON_AND_ORGANIZATION_ASSIGNMENT ( #931, #497, ( #687 ) ) ;
#80 = DATE_AND_TIME ( #75, #372 ) ;
#81 = COORDINATED_UNIVERSAL_TIME_OFFSET ( 8, 0, .BEHIND. ) ;
#82 =( REPRESENTATION_RELATIONSHIP ('NONE','NONE', #632, #1086 ) REPRESENTATION_RELATIONSHIP_WITH_TRANSFORMATION ( #314 )SHAPE_REPRESENTATION_RELATIONSHIP( ) );
#83 = APPROVAL_STATUS ( 'not_yet_approved' ) ;
#84 = CARTESIAN_POINT ( 'NONE',  ( 0.000000000000000000, 0.000000000000000000, 0.000000000000000000 ) ) ;
#85 = APPROVAL_PERSON_ORGANIZATION ( #326, #840, #1064 ) ;
#86 = CC_DESIGN_SECURITY_CLASSIFICATION ( #427, ( #529 ) ) ;
#87 = DOCUMENT_TYPE ( 'geometry' ) ;
#88 = CC_DESIGN_DATE_AND_TIME_ASSIGNMENT ( #839, #952, ( #163 ) ) ;
#89 =( NAMED_UNIT ( * ) SI_UNIT ( $, .STERADIAN. ) SOLID_ANGLE_UNIT ( ) );
#90 = APPROVAL_STATUS ( 'not_yet_approved' ) ;
#91 = PERSON_AND_ORGANIZATION ( #18446744073709551615, #18446744073709551615 ) ;
#92 = DOCUMENT_FILE ( 'Kora_Bridge.STEP' , '', '', #748, '' ,$ ) ;
#93 = DIRECTION ( 'NONE',  ( 1.000000000000000000, 0.000000000000000000, 0.000000000000000000 ) ) ;
#94 = PRODUCT_DEFINITION ( 'General', '', #529, #500 ) ;
#95 = DOCUMENT_FILE ( 'Kora_Strings.STEP' , '', '', #246, '' ,$ ) ;
#96 = DATE_AND_TIME ( #231, #64 ) ;
#97 = APPROVAL_ROLE ( '' ) ;
#98 = DIRECTION ( 'NONE',  ( 1.000000000000000000, 0.000000000000000000, 0.000000000000000000 ) ) ;
#99 = ROLE_ASSOCIATION ( #363, #847 ) ;
#100 = DATE_AND_TIME ( #924, #1151 ) ;
#101 = PERSON_AND_ORGANIZATION ( #18446744073709551615, #18446744073709551615 ) ;
#102 = AXIS2_PLACEMENT_3D ( 'NONE', #166, #1187, #1104 ) ;
#103 = LOCAL_TIME ( 16, 16, 8.000000000000000000, #531 ) ;
#104 = LOCAL_TIME ( 16, 16, 8.000000000000000000, #135 ) ;
#105 = DIMENSIONAL_EXPONENTS ( 1.000000000000000000, 0.000000000000000000, 0.000000000000000000, 0.000000000000000000, 0.000000000000000000, 0.000000000000000000, 0.000000000000000000 ) ;
#106 = CC_DESIGN_SECURITY_CLASSIFICATION ( #353, ( #1195 ) ) ;
#107 = LOCAL_TIME ( 16, 16, 8.000000000000000000, #308 ) ;
#108 = IDENTIFICATION_ROLE ( 'external document id and location', $) ;
#109 = APPROVAL_DATE_TIME ( #1114, #1025 ) ;
#110 = COORDINATED_UNIVERSAL_TIME_OFFSET ( 8, 0, .BEHIND. ) ;
#111 = DATE_AND_TIME ( #939, #25 ) ;
#112 = DIRECTION ( 'NONE',  ( 1.000000000000000000, 0.000000000000000000, 0.000000000000000000 ) ) ;
#113 = APPROVAL ( #190, 'Coincident' ) ;
#114 = COORDINATED_UNIVERSAL_TIME_OFFSET ( 8, 0, .BEHIND. ) ;
#115 = PERSON_AND_ORGANIZATION ( #18446744073709551615, #18446744073709551615 ) ;
#116 = APPROVAL_DATE_TIME ( #111, #881 ) ;
#117 = DATE_AND_TIME ( #475, #644 ) ;
#118 = PRODUCT ( 'Kora_Bowl', 'Kora_Bowl', '', ( #302 ) ) ;
#119 = DATE_TIME_ROLE ( 'creation_date' ) ;
#120 = PERSON_AND_ORGANIZATION_ROLE ( 'classification_officer' ) ;
#121 = APPROVAL_STATUS ( 'not_yet_approved' ) ;
#122 =( REPRESENTATION_RELATIONSHIP ('NONE','NONE', #632, #788 ) REPRESENTATION_RELATIONSHIP_WITH_TRANSFORMATION ( #344 )SHAPE_REPRESENTATION_RELATIONSHIP( ) );
#123 = PROPERTY_DEFINITION ('document property','', #36 ) ;
#124 = AXIS2_PLACEMENT_3D ( 'NONE', #5, #737, #98 ) ;
#125 = PRODUCT_DEFINITION_FORMATION_WITH_SPECIFIED_SOURCE ( 'Symmetric', '', #138, .NOT_KNOWN. ) ;
#126 = CC_DESIGN_PERSON_AND_ORGANIZATION_ASSIGNMENT ( #236, #1067, ( #223 ) ) ;
#127 = CC_DESIGN_APPROVAL ( #404, ( #989 ) ) ;
#128 = APPROVAL_ROLE ( '' ) ;
#129 = CC_DESIGN_SECURITY_CLASSIFICATION ( #491, ( #1196 ) ) ;
#130 = CONTEXT_DEPENDENT_SHAPE_REPRESENTATION ( #82, #852 ) ;
#131 = CALENDAR_DATE ( 2026, 2, 7 ) ;
#132 = MECHANICAL_CONTEXT ( 'NONE', #1058, 'mechanical' ) ;
#133 = CC_DESIGN_PERSON_AND_ORGANIZATION_ASSIGNMENT ( #1, #564, ( #505 ) ) ;
#134 = APPROVAL_DATE_TIME ( #873, #217 ) ;
#135 = COORDINATED_UNIVERSAL_TIME_OFFSET ( 8, 0, .BEHIND. ) ;
#136 = ITEM_DEFINED_TRANSFORMATION ( 'NONE', 'NONE', #1088,  #831 ) ;
#137 = CALENDAR_DATE ( 2026, 2, 7 ) ;
#138 = PRODUCT ( 'Kora_Crossbar', 'Kora_Crossbar', '', ( #228 ) ) ;
#139 = CC_DESIGN_PERSON_AND_ORGANIZATION_ASSIGNMENT ( #22, #386, ( #163 ) ) ;
#140 =( CONVERSION_BASED_UNIT ( 'INCH', #780 ) LENGTH_UNIT ( ) NAMED_UNIT ( #13 ) );
#141 = DATE_TIME_ROLE ( 'classification_date' ) ;
#142 = MECHANICAL_CONTEXT ( 'NONE', #18, 'mechanical' ) ;
#143 = LOCAL_TIME ( 16, 16, 8.000000000000000000, #898 ) ;
#144 = APPROVAL_STATUS ( 'not_yet_approved' ) ;
#145 = MECHANICAL_CONTEXT ( 'NONE', #211, 'mechanical' ) ;
#146 = APPLIED_EXTERNAL_IDENTIFICATION_ASSIGNMENT ( 'Kora_Tailpiece.STEP' , #108, #1135,( #1185) ) ;
#147 = IDENTIFICATION_ROLE ( 'external document id and location', $) ;
#148 = CC_DESIGN_PERSON_AND_ORGANIZATION_ASSIGNMENT ( #688, #1049, ( #835 ) ) ;
#149 = APPLICATION_PROTOCOL_DEFINITION ( 'international standard', 'config_control_design', 1994, #1058 ) ;
#150 = PERSON_AND_ORGANIZATION_ROLE ( 'classification_officer' ) ;
#151 = APPLICATION_PROTOCOL_DEFINITION ( 'international standard', 'config_control_design', 1994, #423 ) ;
#152 = DESIGN_CONTEXT ( 'detailed design', #291, 'design' ) ;
#153 = COORDINATED_UNIVERSAL_TIME_OFFSET ( 8, 0, .BEHIND. ) ;
#154 = CALENDAR_DATE ( 2026, 2, 7 ) ;
#155 = APPROVAL_DATE_TIME ( #786, #1160 ) ;
#156 = PERSON_AND_ORGANIZATION ( #18446744073709551615, #18446744073709551615 ) ;
#157 = ORGANIZATION ( 'NAUO-ORG9', 'UNSPECIFIED', 'UNSPECIFIED' ) ;
#158 = CARTESIAN_POINT ( 'NONE',  ( 0.000000000000000000, 0.000000000000000000, 0.000000000000000000 ) ) ;
#159 = CC_DESIGN_DATE_AND_TIME_ASSIGNMENT ( #698, #792, ( #332 ) ) ;
#160 =( GEOMETRIC_REPRESENTATION_CONTEXT ( 3 ) GLOBAL_UNCERTAINTY_ASSIGNED_CONTEXT ( ( #716 ) ) GLOBAL_UNIT_ASSIGNED_CONTEXT ( ( #243, #1029, #633 ) ) REPRESENTATION_CONTEXT ( 'NONE', 'WORKASPACE' ) );
#161 = DATE_TIME_ROLE ( 'classification_date' ) ;
#162 = CALENDAR_DATE ( 2026, 2, 7 ) ;
#163 = SECURITY_CLASSIFICATION ( '', '', #849 ) ;
#164 = PROPERTY_DEFINITION ('external definition','', #95 ) ;
#165 = CC_DESIGN_SECURITY_CLASSIFICATION ( #835, ( #1128 ) ) ;
#166 = CARTESIAN_POINT ( 'NONE',  ( 0.000000000000000000, 0.000000000000000000, 0.000000000000000000 ) ) ;
#167 = LOCAL_TIME ( 16, 16, 8.000000000000000000, #214 ) ;
#168 = APPROVAL_STATUS ( 'not_yet_approved' ) ;
#169 = CC_DESIGN_DATE_AND_TIME_ASSIGNMENT ( #682, #516, ( #1078 ) ) ;
#170 = CALENDAR_DATE ( 2026, 2, 7 ) ;
#171 = DOCUMENT_TYPE ( 'geometry' ) ;
#172 = APPROVAL ( #926, 'Coincident' ) ;
#173 =( NAMED_UNIT ( * ) SI_UNIT ( $, .STERADIAN. ) SOLID_ANGLE_UNIT ( ) );
#174 = COORDINATED_UNIVERSAL_TIME_OFFSET ( 8, 0, .BEHIND. ) ;
#175 = PERSON_AND_ORGANIZATION_ROLE ( 'creator' ) ;
#176 =( NAMED_UNIT ( * ) PLANE_ANGLE_UNIT ( ) SI_UNIT ( $, .RADIAN. ) );
#177 = CC_DESIGN_PERSON_AND_ORGANIZATION_ASSIGNMENT ( #945, #595, ( #138 ) ) ;
#178 = LENGTH_MEASURE_WITH_UNIT ( LENGTH_MEASURE( 0.02539999999999999897 ), #434 );
#179 = PERSON ( 'NAUO-PER8', 'UNSPECIFIED', 'UNSPECIFIED', ('UNSPECIFIED'), ('UNSPECIFIED'), ('UNSPECIFIED') ) ;
#180 = APPROVAL_DATE_TIME ( #1006, #925 ) ;
#181 = AXIS2_PLACEMENT_3D ( 'NONE', #577, #321, #1170 ) ;
#182 = CALENDAR_DATE ( 2026, 2, 7 ) ;
#183 = CC_DESIGN_DATE_AND_TIME_ASSIGNMENT ( #713, #884, ( #353 ) ) ;
#184 = CARTESIAN_POINT ( 'NONE',  ( 3.346456692913386100, -0.7874015748031492068, 1.377952755905512250 ) ) ;
#185 = CC_DESIGN_APPROVAL ( #925, ( #546 ) ) ;
#186 = SECURITY_CLASSIFICATION ( '', '', #1022 ) ;
#187 = PRODUCT_RELATED_PRODUCT_CATEGORY ( 'detail', '', ( #668 ) ) ;
#188 = ORGANIZATION ( 'NAUO-ORG7', 'UNSPECIFIED', 'UNSPECIFIED' ) ;
#189 = IDENTIFICATION_ROLE ( 'external document id and location', $) ;
#190 = APPROVAL_STATUS ( 'not_yet_approved' ) ;
#191 = ROLE_ASSOCIATION ( #1158, #735 ) ;
#192 = DIRECTION ( 'NONE',  ( 0.000000000000000000, 0.000000000000000000, 1.000000000000000000 ) ) ;
#193 = DOCUMENT_FILE ( 'Kora_Crossbar.STEP' , '', '', #991, '' ,$ ) ;
#194 = APPROVAL_ROLE ( '' ) ;
#195 = PERSON_AND_ORGANIZATION ( #18446744073709551615, #18446744073709551615 ) ;
#196 =( LENGTH_UNIT ( ) NAMED_UNIT ( * ) SI_UNIT ( $, .METRE. ) );
#197 = CALENDAR_DATE ( 2026, 2, 7 ) ;
#198 = PERSON_AND_ORGANIZATION ( #18446744073709551615, #18446744073709551615 ) ;
#199 = APPROVAL ( #29, 'Coincident' ) ;
#200 = PERSON_AND_ORGANIZATION ( #18446744073709551615, #18446744073709551615 ) ;
#201 = APPLICATION_PROTOCOL_DEFINITION ( 'international standard', 'config_control_design', 1994, #680 ) ;
#202 =( GEOMETRIC_REPRESENTATION_CONTEXT ( 3 ) GLOBAL_UNCERTAINTY_ASSIGNED_CONTEXT ( ( #610 ) ) GLOBAL_UNIT_ASSIGNED_CONTEXT ( ( #1176, #255, #821 ) ) REPRESENTATION_CONTEXT ( 'NONE', 'WORKASPACE' ) );
#203 = CC_DESIGN_APPROVAL ( #840, ( #223 ) ) ;
#204 = PRODUCT_DEFINITION_FORMATION_WITH_SPECIFIED_SOURCE ( 'Symmetric', '', #1129, .NOT_KNOWN. ) ;
#205 = PRODUCT_DEFINITION_SHAPE ( 'NONE', 'NONE',  #1189 ) ;
#206 = APPROVAL_PERSON_ORGANIZATION ( #340, #588, #895 ) ;
#207 = UNCERTAINTY_MEASURE_WITH_UNIT (LENGTH_MEASURE( 1.000000000000000082E-05 ), #728, 'distance_accuracy_value', 'NONE');
#208 = DATE_TIME_ROLE ( 'classification_date' ) ;
#209 = CALENDAR_DATE ( 2026, 2, 7 ) ;
#210 = DATE_AND_TIME ( #219, #622 ) ;
#211 = APPLICATION_CONTEXT ( 'configuration controlled 3d designs of mechanical parts and assemblies' ) ;
#212 = PRODUCT_DEFINITION_SHAPE ( 'NONE', 'NONE',  #1193 ) ;
#213 = PERSON_AND_ORGANIZATION_ROLE ( 'design_owner' ) ;
#214 = COORDINATED_UNIVERSAL_TIME_OFFSET ( 8, 0, .BEHIND. ) ;
#215 = APPROVAL_DATE_TIME ( #683, #754 ) ;
#216 = PRODUCT_DEFINITION_SHAPE ( 'NONE', 'NONE',  #603 ) ;
#217 = APPROVAL ( #885, 'Coincident' ) ;
#218 = PERSON_AND_ORGANIZATION ( #18446744073709551615, #18446744073709551615 ) ;
#219 = CALENDAR_DATE ( 2026, 2, 7 ) ;
#220 = PROPERTY_DEFINITION ('external definition','', #36 ) ;
#221 = APPROVAL_PERSON_ORGANIZATION ( #759, #383, #294 ) ;
#222 = APPROVAL ( #422, 'Coincident' ) ;
#223 = PRODUCT_DEFINITION_FORMATION_WITH_SPECIFIED_SOURCE ( 'Symmetric', '', #322, .NOT_KNOWN. ) ;
#224 = LOCAL_TIME ( 16, 16, 8.000000000000000000, #1097 ) ;
#225 = DATE_TIME_ROLE ( 'classification_date' ) ;
#226 = SECURITY_CLASSIFICATION ( '', '', #1095 ) ;
#227 = APPLIED_DOCUMENT_REFERENCE ( #36,'',( #1078) ) ;
#228 = MECHANICAL_CONTEXT ( 'NONE', #863, 'mechanical' ) ;
#229 = PERSON_AND_ORGANIZATION ( #18446744073709551615, #18446744073709551615 ) ;
#230 = SECURITY_CLASSIFICATION_LEVEL ( 'unclassified' ) ;
#231 = CALENDAR_DATE ( 2026, 2, 7 ) ;
#232 = APPLICATION_CONTEXT ( 'configuration controlled 3d designs of mechanical parts and assemblies' ) ;
#233 = CC_DESIGN_PERSON_AND_ORGANIZATION_ASSIGNMENT ( #28, #120, ( #27 ) ) ;
#234 = APPROVAL_ROLE ( '' ) ;
#235 = DATE_AND_TIME ( #872, #838 ) ;
#236 = PERSON_AND_ORGANIZATION ( #18446744073709551615, #18446744073709551615 ) ;
#237 = DESIGN_CONTEXT ( 'detailed design', #409, 'design' ) ;
#238 = PRODUCT_DEFINITION_FORMATION_WITH_SPECIFIED_SOURCE ( 'Symmetric', '', #572, .NOT_KNOWN. ) ;
#239 = DATE_AND_TIME ( #593, #447 ) ;
#240 = APPROVAL_PERSON_ORGANIZATION ( #671, #356, #194 ) ;
#241 = APPROVAL_ROLE ( '' ) ;
#242 = PERSON_AND_ORGANIZATION_ROLE ( 'classification_officer' ) ;
#243 =( CONVERSION_BASED_UNIT ( 'INCH', #178 ) LENGTH_UNIT ( ) NAMED_UNIT ( #935 ) );
#244 = CC_DESIGN_DATE_AND_TIME_ASSIGNMENT ( #1165, #453, ( #491 ) ) ;
#245 = PERSON_AND_ORGANIZATION ( #18446744073709551615, #18446744073709551615 ) ;
#246 = DOCUMENT_TYPE ( 'geometry' ) ;
#247 = ROLE_ASSOCIATION ( #822, #1074 ) ;
#248 = DATE_AND_TIME ( #336, #950 ) ;
#249 = PERSON_AND_ORGANIZATION ( #18446744073709551615, #18446744073709551615 ) ;
#250 = UNCERTAINTY_MEASURE_WITH_UNIT (LENGTH_MEASURE( 1.000000000000000082E-05 ), #624, 'distance_accuracy_value', 'NONE');
#251 = CC_DESIGN_DATE_AND_TIME_ASSIGNMENT ( #825, #541, ( #888 ) ) ;
#252 = ITEM_DEFINED_TRANSFORMATION ( 'NONE', 'NONE', #1011,  #1145 ) ;
#253 = PERSON_AND_ORGANIZATION_ROLE ( 'design_supplier' ) ;
#254 = CALENDAR_DATE ( 2026, 2, 7 ) ;
#255 =( NAMED_UNIT ( * ) PLANE_ANGLE_UNIT ( ) SI_UNIT ( $, .RADIAN. ) );
#256 = PRODUCT_RELATED_PRODUCT_CATEGORY ( 'detail', '', ( #1129 ) ) ;
#257 =( LENGTH_UNIT ( ) NAMED_UNIT ( * ) SI_UNIT ( $, .METRE. ) );
#258 = AXIS2_PLACEMENT_3D ( 'NONE', #1004, #810, #708 ) ;
#259 = LOCAL_TIME ( 16, 16, 8.000000000000000000, #416 ) ;
#260 = PERSON_AND_ORGANIZATION_ROLE ( 'design_supplier' ) ;
#261 = CC_DESIGN_APPROVAL ( #947, ( #427 ) ) ;
#262 = PERSON_AND_ORGANIZATION ( #18446744073709551615, #18446744073709551615 ) ;
#263 = PROPERTY_DEFINITION ('document property','', #95 ) ;
#264 = LOCAL_TIME ( 16, 16, 8.000000000000000000, #410 ) ;
#265 = DIRECTION ( 'NONE',  ( 1.000000000000000000, 0.000000000000000000, 0.000000000000000000 ) ) ;
#266 = COORDINATED_UNIVERSAL_TIME_OFFSET ( 8, 0, .BEHIND. ) ;
#267 = DATE_AND_TIME ( #723, #927 ) ;
#268 = CC_DESIGN_PERSON_AND_ORGANIZATION_ASSIGNMENT ( #380, #676, ( #489 ) ) ;
#269 = APPROVAL_DATE_TIME ( #65, #651 ) ;
#270 = APPLICATION_CONTEXT ( 'configuration controlled 3d designs of mechanical parts and assemblies' ) ;
#271 = APPROVAL ( #357, 'UNKNOWN' ) ;
#272 = CALENDAR_DATE ( 2026, 2, 7 ) ;
#273 = PERSON_AND_ORGANIZATION ( #18446744073709551615, #18446744073709551615 ) ;
#274 = CC_DESIGN_DATE_AND_TIME_ASSIGNMENT ( #725, #1168, ( #94 ) ) ;
#275 = DIRECTION ( 'NONE',  ( 0.000000000000000000, 0.000000000000000000, 1.000000000000000000 ) ) ;
#276 = PERSON_AND_ORGANIZATION ( #18446744073709551615, #18446744073709551615 ) ;
#277 = AXIS2_PLACEMENT_3D ( 'NONE', #562, #93, #557 ) ;
#278 = COORDINATED_UNIVERSAL_TIME_OFFSET ( 8, 0, .BEHIND. ) ;
#279 = CARTESIAN_POINT ( 'NONE',  ( 5.849130831911824366E-06, -12.30141010993188644, -0.5905564411181239981 ) ) ;
#280 = APPROVAL_PERSON_ORGANIZATION ( #522, #1160, #1075 ) ;
#281 = CC_DESIGN_APPROVAL ( #520, ( #94 ) ) ;
#282 = ORGANIZATION ( 'NAUO-ORG1', 'UNSPECIFIED', 'UNSPECIFIED' ) ;
#283 = APPROVAL_ROLE ( '' ) ;
#284 = PERSON_AND_ORGANIZATION ( #18446744073709551615, #18446744073709551615 ) ;
#285 = CC_DESIGN_PERSON_AND_ORGANIZATION_ASSIGNMENT ( #340, #535, ( #1132 ) ) ;
#286 =( LENGTH_UNIT ( ) NAMED_UNIT ( * ) SI_UNIT ( $, .METRE. ) );
#287 = CC_DESIGN_DATE_AND_TIME_ASSIGNMENT ( #767, #834, ( #498 ) ) ;
#288 = COORDINATED_UNIVERSAL_TIME_OFFSET ( 8, 0, .BEHIND. ) ;
#289 = CALENDAR_DATE ( 2026, 2, 7 ) ;
#290 = APPROVAL_DATE_TIME ( #1121, #442 ) ;
#291 = APPLICATION_CONTEXT ( 'configuration controlled 3d designs of mechanical parts and assemblies' ) ;
#292 = SHAPE_REPRESENTATION ( 'Kora_Bridge', ( #258 ), #160 ) ;
#293 = CC_DESIGN_PERSON_AND_ORGANIZATION_ASSIGNMENT ( #245, #414, ( #204 ) ) ;
#294 = APPROVAL_ROLE ( '' ) ;
#295 = CC_DESIGN_DATE_AND_TIME_ASSIGNMENT ( #751, #791, ( #687 ) ) ;
#296 = DATE_AND_TIME ( #182, #406 ) ;
#297 = AXIS2_PLACEMENT_3D ( 'NONE', #1079, #1093, #265 ) ;
#298 = APPROVAL_PERSON_ORGANIZATION ( #518, #643, #1162 ) ;
#299 = APPROVAL_PERSON_ORGANIZATION ( #156, #947, #359 ) ;
#300 = PROPERTY_DEFINITION ('document property','', #92 ) ;
#301 = LOCAL_TIME ( 16, 16, 8.000000000000000000, #349 ) ;
#302 = MECHANICAL_CONTEXT ( 'NONE', #907, 'mechanical' ) ;
#303 = COORDINATED_UNIVERSAL_TIME_OFFSET ( 8, 0, .BEHIND. ) ;
#304 = CC_DESIGN_PERSON_AND_ORGANIZATION_ASSIGNMENT ( #1179, #360, ( #546 ) ) ;
#305 = PERSON_AND_ORGANIZATION ( #18446744073709551615, #18446744073709551615 ) ;
#306 = PROPERTY_DEFINITION ('external definition','', #398 ) ;
#307 = COORDINATED_UNIVERSAL_TIME_OFFSET ( 8, 0, .BEHIND. ) ;
#308 = COORDINATED_UNIVERSAL_TIME_OFFSET ( 8, 0, .BEHIND. ) ;
#309 = COORDINATED_UNIVERSAL_TIME_OFFSET ( 8, 0, .BEHIND. ) ;
#310 = OBJECT_ROLE ('mandatory',$ ) ;
#311 = CC_DESIGN_PERSON_AND_ORGANIZATION_ASSIGNMENT ( #960, #1147, ( #1078 ) ) ;
#312 =( CONVERSION_BASED_UNIT ( 'INCH', #501 ) LENGTH_UNIT ( ) NAMED_UNIT ( #656 ) );
#313 = CALENDAR_DATE ( 2026, 2, 7 ) ;
#314 = ITEM_DEFINED_TRANSFORMATION ( 'NONE', 'NONE', #796,  #297 ) ;
#315 = PERSON_AND_ORGANIZATION ( #18446744073709551615, #18446744073709551615 ) ;
#316 = LOCAL_TIME ( 16, 16, 8.000000000000000000, #880 ) ;
#317 = CC_DESIGN_SECURITY_CLASSIFICATION ( #989, ( #489 ) ) ;
#318 = CALENDAR_DATE ( 2026, 2, 7 ) ;
#319 = APPROVAL_PERSON_ORGANIZATION ( #28, #795, #1155 ) ;
#320 = APPROVAL_DATE_TIME ( #248, #643 ) ;
#321 = DIRECTION ( 'NONE',  ( 0.000000000000000000, 0.000000000000000000, 1.000000000000000000 ) ) ;
#322 = PRODUCT ( 'Kora_Strings', 'Kora_Strings', '', ( #145 ) ) ;
#323 = CC_DESIGN_PERSON_AND_ORGANIZATION_ASSIGNMENT ( #91, #260, ( #238 ) ) ;
#324 = PERSON_AND_ORGANIZATION_ROLE ( 'design_owner' ) ;
#325 = CONTEXT_DEPENDENT_SHAPE_REPRESENTATION ( #883, #948 ) ;
#326 = PERSON_AND_ORGANIZATION ( #18446744073709551615, #18446744073709551615 ) ;
#327 = COORDINATED_UNIVERSAL_TIME_OFFSET ( 8, 0, .BEHIND. ) ;
#328 = OBJECT_ROLE ('mandatory',$ ) ;
#329 = APPROVAL_STATUS ( 'not_yet_approved' ) ;
#330 = CALENDAR_DATE ( 2026, 2, 7 ) ;
#331 = ORGANIZATION ( 'NAUO-ORG8', 'UNSPECIFIED', 'UNSPECIFIED' ) ;
#332 = SECURITY_CLASSIFICATION ( '', '', #609 ) ;
#333 = DATE_AND_TIME ( #1062, #1112 ) ;
#334 = LOCAL_TIME ( 16, 16, 8.000000000000000000, #826 ) ;
#335 = COORDINATED_UNIVERSAL_TIME_OFFSET ( 8, 0, .BEHIND. ) ;
#336 = CALENDAR_DATE ( 2026, 2, 7 ) ;
#337 = CC_DESIGN_SECURITY_CLASSIFICATION ( #687, ( #1190 ) ) ;
#338 = SHAPE_REPRESENTATION ( 'Kora_Bowl', ( #831 ), #388 ) ;
#339 = CC_DESIGN_PERSON_AND_ORGANIZATION_ASSIGNMENT ( #37, #402, ( #419 ) ) ;
#340 = PERSON_AND_ORGANIZATION ( #582, #46 ) ;
#341 = APPROVAL_STATUS ( 'not_yet_approved' ) ;
#342 = CALENDAR_DATE ( 2026, 2, 7 ) ;
#343 = PRODUCT_DEFINITION_SHAPE ( 'NONE', 'NONE',  #1196 ) ;
#344 = ITEM_DEFINED_TRANSFORMATION ( 'NONE', 'NONE', #488,  #181 ) ;
#345 = DATE_AND_TIME ( #162, #891 ) ;
#346 = DATE_AND_TIME ( #437, #685 ) ;
#347 = CC_DESIGN_PERSON_AND_ORGANIZATION_ASSIGNMENT ( #857, #1138, ( #769 ) ) ;
#348 = PRODUCT_DEFINITION_FORMATION_WITH_SPECIFIED_SOURCE ( 'Symmetric', '', #502, .NOT_KNOWN. ) ;
#349 = COORDINATED_UNIVERSAL_TIME_OFFSET ( 8, 0, .BEHIND. ) ;
#350 = SECURITY_CLASSIFICATION_LEVEL ( 'unclassified' ) ;
#351 = LOCAL_TIME ( 16, 16, 8.000000000000000000, #110 ) ;
#352 = PERSON_AND_ORGANIZATION ( #18446744073709551615, #18446744073709551615 ) ;
#353 = SECURITY_CLASSIFICATION ( '', '', #1085 ) ;
#354 = DESIGN_CONTEXT ( 'detailed design', #599, 'design' ) ;
#355 = LENGTH_MEASURE_WITH_UNIT ( LENGTH_MEASURE( 0.02539999999999999897 ), #196 );
#356 = APPROVAL ( #653, 'Coincident' ) ;
#357 = APPROVAL_STATUS ( 'not_yet_approved' ) ;
#358 = APPROVAL_ROLE ( '' ) ;
#359 = APPROVAL_ROLE ( '' ) ;
#360 = PERSON_AND_ORGANIZATION_ROLE ( 'classification_officer' ) ;
#361 = DATE_AND_TIME ( #920, #334 ) ;
#362 = LENGTH_MEASURE_WITH_UNIT ( LENGTH_MEASURE( 0.02539999999999999897 ), #286 );
#363 = OBJECT_ROLE ('mandatory',$ ) ;
#364 = DATE_TIME_ROLE ( 'classification_date' ) ;
#365 = PERSON_AND_ORGANIZATION ( #18446744073709551615, #18446744073709551615 ) ;
#366 = APPROVAL_PERSON_ORGANIZATION ( #499, #217, #506 ) ;
#367 = ITEM_DEFINED_TRANSFORMATION ( 'NONE', 'NONE', #124,  #830 ) ;
#368 = CARTESIAN_POINT ( 'NONE',  ( 0.000000000000000000, 0.000000000000000000, 0.000000000000000000 ) ) ;
#369 = CC_DESIGN_APPROVAL ( #113, ( #498 ) ) ;
#370 = APPROVAL ( #660, 'Coincident' ) ;
#371 = LOCAL_TIME ( 16, 16, 8.000000000000000000, #473 ) ;
#372 = LOCAL_TIME ( 16, 16, 8.000000000000000000, #614 ) ;
#373 = CALENDAR_DATE ( 2026, 2, 7 ) ;
#374 = SECURITY_CLASSIFICATION_LEVEL ( 'unclassified' ) ;
#375 = PERSON_AND_ORGANIZATION_ROLE ( 'classification_officer' ) ;
#376 = CALENDAR_DATE ( 2026, 2, 7 ) ;
#377 = CC_DESIGN_DATE_AND_TIME_ASSIGNMENT ( #239, #225, ( #835 ) ) ;
#378 = SECURITY_CLASSIFICATION_LEVEL ( 'unclassified' ) ;
#379 = PRODUCT_DEFINITION_SHAPE ( 'NONE', 'NONE',  #736 ) ;
#380 = PERSON_AND_ORGANIZATION ( #18446744073709551615, #18446744073709551615 ) ;
#381 = PERSON_AND_ORGANIZATION ( #18446744073709551615, #18446744073709551615 ) ;
#382 = APPLICATION_PROTOCOL_DEFINITION ( 'international standard', 'config_control_design', 1994, #409 ) ;
#383 = APPROVAL ( #580, 'Coincident' ) ;
#384 = PERSON_AND_ORGANIZATION ( #18446744073709551615, #18446744073709551615 ) ;
#385 = CALENDAR_DATE ( 2026, 2, 7 ) ;
#386 = PERSON_AND_ORGANIZATION_ROLE ( 'classification_officer' ) ;
#387 = EXTERNAL_SOURCE (IDENTIFIER('') ) ;
#388 =( GEOMETRIC_REPRESENTATION_CONTEXT ( 3 ) GLOBAL_UNCERTAINTY_ASSIGNED_CONTEXT ( ( #1181 ) ) GLOBAL_UNIT_ASSIGNED_CONTEXT ( ( #312, #670, #74 ) ) REPRESENTATION_CONTEXT ( 'NONE', 'WORKASPACE' ) );
#389 = LOCAL_TIME ( 16, 16, 8.000000000000000000, #598 ) ;
#390 = CC_DESIGN_APPROVAL ( #73, ( #489 ) ) ;
#391 = PRODUCT ( 'Kora_Soundboard', 'Kora_Soundboard', '', ( #916 ) ) ;
#392 = SECURITY_CLASSIFICATION ( '', '', #230 ) ;
#393 = APPROVAL_DATE_TIME ( #662, #113 ) ;
#394 = CALENDAR_DATE ( 2026, 2, 7 ) ;
#395 = APPROVAL_ROLE ( '' ) ;
#396 = PRODUCT_DEFINITION_SHAPE ( 'NONE', 'NONE',  #1194 ) ;
#397 = APPROVAL_DATE_TIME ( #860, #383 ) ;
#398 = DOCUMENT_FILE ( 'Kora_Neck.STEP' , '', '', #1100, '' ,$ ) ;
#399 = COORDINATED_UNIVERSAL_TIME_OFFSET ( 8, 0, .BEHIND. ) ;
#400 = APPLICATION_PROTOCOL_DEFINITION ( 'international standard', 'config_control_design', 1994, #787 ) ;
#401 = SECURITY_CLASSIFICATION_LEVEL ( 'unclassified' ) ;
#402 = PERSON_AND_ORGANIZATION_ROLE ( 'creator' ) ;
#403 =( GEOMETRIC_REPRESENTATION_CONTEXT ( 3 ) GLOBAL_UNCERTAINTY_ASSIGNED_CONTEXT ( ( #637 ) ) GLOBAL_UNIT_ASSIGNED_CONTEXT ( ( #1099, #176, #450 ) ) REPRESENTATION_CONTEXT ( 'NONE', 'WORKASPACE' ) );
#404 = APPROVAL ( #854, 'Coincident' ) ;
#405 = CC_DESIGN_SECURITY_CLASSIFICATION ( #163, ( #348 ) ) ;
#406 = LOCAL_TIME ( 16, 16, 8.000000000000000000, #542 ) ;
#407 = LOCAL_TIME ( 16, 16, 8.000000000000000000, #1051 ) ;
#408 = PERSON_AND_ORGANIZATION ( #18446744073709551615, #18446744073709551615 ) ;
#409 = APPLICATION_CONTEXT ( 'configuration controlled 3d designs of mechanical parts and assemblies' ) ;
#410 = COORDINATED_UNIVERSAL_TIME_OFFSET ( 8, 0, .BEHIND. ) ;
#411 = DATE_AND_TIME ( #45, #316 ) ;
#412 = DESIGN_CONTEXT ( 'detailed design', #1072, 'design' ) ;
#413 = APPROVAL ( #329, 'UNKNOWN' ) ;
#414 = PERSON_AND_ORGANIZATION_ROLE ( 'creator' ) ;
#415 = COORDINATED_UNIVERSAL_TIME_OFFSET ( 8, 0, .BEHIND. ) ;
#416 = COORDINATED_UNIVERSAL_TIME_OFFSET ( 8, 0, .BEHIND. ) ;
#417 = DIRECTION ( 'NONE',  ( 1.000000000000000000, 0.000000000000000000, 0.000000000000000000 ) ) ;
#418 = SECURITY_CLASSIFICATION_LEVEL ( 'unclassified' ) ;
#419 = PRODUCT_DEFINITION ( 'General', '', #223, #9 ) ;
#420 = PROPERTY_DEFINITION_REPRESENTATION ( #1177, #921 ) ;
#421 = CALENDAR_DATE ( 2026, 2, 7 ) ;
#422 = APPROVAL_STATUS ( 'not_yet_approved' ) ;
#423 = APPLICATION_CONTEXT ( 'configuration controlled 3d designs of mechanical parts and assemblies' ) ;
#424 =( GEOMETRIC_REPRESENTATION_CONTEXT ( 3 ) GLOBAL_UNCERTAINTY_ASSIGNED_CONTEXT ( ( #813 ) ) GLOBAL_UNIT_ASSIGNED_CONTEXT ( ( #717, #998, #770 ) ) REPRESENTATION_CONTEXT ( 'NONE', 'WORKASPACE' ) );
#425 = APPROVAL_PERSON_ORGANIZATION ( #305, #754, #1042 ) ;
#426 = DATE_AND_TIME ( #59, #1148 ) ;
#427 = SECURITY_CLASSIFICATION ( '', '', #1103 ) ;
#428 = ROLE_ASSOCIATION ( #310, #973 ) ;
#429 = CC_DESIGN_PERSON_AND_ORGANIZATION_ASSIGNMENT ( #249, #711, ( #529 ) ) ;
#430 = COORDINATED_UNIVERSAL_TIME_OFFSET ( 8, 0, .BEHIND. ) ;
#431 = CC_DESIGN_SECURITY_CLASSIFICATION ( #1132, ( #1193 ) ) ;
#432 = PERSON_AND_ORGANIZATION_ROLE ( 'creator' ) ;
#433 = LENGTH_MEASURE_WITH_UNIT ( LENGTH_MEASURE( 0.02539999999999999897 ), #1077 );
#434 =( LENGTH_UNIT ( ) NAMED_UNIT ( * ) SI_UNIT ( $, .METRE. ) );
#435 = ITEM_DEFINED_TRANSFORMATION ( 'NONE', 'NONE', #1048,  #621 ) ;
#436 = PERSON_AND_ORGANIZATION_ROLE ( 'design_owner' ) ;
#437 = CALENDAR_DATE ( 2026, 2, 7 ) ;
#438 = PROPERTY_DEFINITION ('external definition','', #1185 ) ;
#439 = COORDINATED_UNIVERSAL_TIME_OFFSET ( 8, 0, .BEHIND. ) ;
#440 = COORDINATED_UNIVERSAL_TIME_OFFSET ( 8, 0, .BEHIND. ) ;
#441 = PERSON_AND_ORGANIZATION_ROLE ( 'creator' ) ;
#442 = APPROVAL ( #121, 'Coincident' ) ;
#443 =( GEOMETRIC_REPRESENTATION_CONTEXT ( 3 ) GLOBAL_UNCERTAINTY_ASSIGNED_CONTEXT ( ( #997 ) ) GLOBAL_UNIT_ASSIGNED_CONTEXT ( ( #140, #1157, #513 ) ) REPRESENTATION_CONTEXT ( 'NONE', 'WORKASPACE' ) );
#444 = CC_DESIGN_APPROVAL ( #199, ( #348 ) ) ;
#445 = APPROVAL_DATE_TIME ( #80, #68 ) ;
#446 = APPROVAL_STATUS ( 'not_yet_approved' ) ;
#447 = LOCAL_TIME ( 16, 16, 8.000000000000000000, #864 ) ;
#448 = PERSON_AND_ORGANIZATION_ROLE ( 'classification_officer' ) ;
#449 = APPROVAL_ROLE ( '' ) ;
#450 =( NAMED_UNIT ( * ) SI_UNIT ( $, .STERADIAN. ) SOLID_ANGLE_UNIT ( ) );
#451 = OBJECT_ROLE ('mandatory',$ ) ;
#452 = CC_DESIGN_PERSON_AND_ORGANIZATION_ASSIGNMENT ( #597, #49, ( #392 ) ) ;
#453 = DATE_TIME_ROLE ( 'classification_date' ) ;
#454 = PERSON_AND_ORGANIZATION ( #18446744073709551615, #18446744073709551615 ) ;
#455 = APPROVAL_STATUS ( 'not_yet_approved' ) ;
#456 = MECHANICAL_CONTEXT ( 'NONE', #232, 'mechanical' ) ;
#457 = DIRECTION ( 'NONE',  ( 0.000000000000000000, 0.000000000000000000, 1.000000000000000000 ) ) ;
#458 = DATE_TIME_ROLE ( 'classification_date' ) ;
#459 = CC_DESIGN_DATE_AND_TIME_ASSIGNMENT ( #512, #866, ( #906 ) ) ;
#460 = PERSON_AND_ORGANIZATION ( #18446744073709551615, #18446744073709551615 ) ;
#461 = PERSON_AND_ORGANIZATION ( #18446744073709551615, #18446744073709551615 ) ;
#462 = APPLIED_DOCUMENT_REFERENCE ( #193,'',( #906) ) ;
#463 = APPROVAL_DATE_TIME ( #100, #356 ) ;
#464 = LOCAL_TIME ( 16, 16, 8.000000000000000000, #1124 ) ;
#465 = DATE_TIME_ROLE ( 'classification_date' ) ;
#466 = APPROVAL ( #596, 'Coincident' ) ;
#467 = APPROVAL_ROLE ( '' ) ;
#468 = CC_DESIGN_APPROVAL ( #1110, ( #1152 ) ) ;
#469 = CC_DESIGN_APPROVAL ( #789, ( #835 ) ) ;
#470 = APPROVAL_PERSON_ORGANIZATION ( #597, #413, #967 ) ;
#471 = PROPERTY_DEFINITION_REPRESENTATION ( #164, #788 ) ;
#472 = DIMENSIONAL_EXPONENTS ( 1.000000000000000000, 0.000000000000000000, 0.000000000000000000, 0.000000000000000000, 0.000000000000000000, 0.000000000000000000, 0.000000000000000000 ) ;
#473 = COORDINATED_UNIVERSAL_TIME_OFFSET ( 8, 0, .BEHIND. ) ;
#474 = PERSON_AND_ORGANIZATION_ROLE ( 'design_supplier' ) ;
#475 = CALENDAR_DATE ( 2026, 2, 7 ) ;
#476 = EXTERNAL_SOURCE (IDENTIFIER('') ) ;
#477 = APPROVAL ( #828, 'Coincident' ) ;
#478 = PROPERTY_DEFINITION ('external definition','', #92 ) ;
#479 = PERSON_AND_ORGANIZATION_ROLE ( 'design_supplier' ) ;
#480 = PERSON_AND_ORGANIZATION ( #18446744073709551615, #18446744073709551615 ) ;
#481 = COORDINATED_UNIVERSAL_TIME_OFFSET ( 8, 0, .BEHIND. ) ;
#482 = APPROVAL ( #882, 'Coincident' ) ;
#483 = CALENDAR_DATE ( 2026, 2, 7 ) ;
#484 = CC_DESIGN_SECURITY_CLASSIFICATION ( #505, ( #1197 ) ) ;
#485 = APPLIED_DOCUMENT_REFERENCE ( #693,'',( #603) ) ;
#486 = DATE_AND_TIME ( #131, #604 ) ;
#487 = PROPERTY_DEFINITION ('external definition','', #693 ) ;
#488 = AXIS2_PLACEMENT_3D ( 'NONE', #279, #192, #655 ) ;
#489 = PRODUCT_DEFINITION_FORMATION_WITH_SPECIFIED_SOURCE ( 'Symmetric', '', #391, .NOT_KNOWN. ) ;
#490 = CC_DESIGN_APPROVAL ( #172, ( #186 ) ) ;
#491 = SECURITY_CLASSIFICATION ( '', '', #627 ) ;
#492 = EXTERNAL_SOURCE (IDENTIFIER('') ) ;
#493 = DATE_AND_TIME ( #750, #464 ) ;
#494 = PROPERTY_DEFINITION_REPRESENTATION ( #123, #1086 ) ;
#495 = DATE_TIME_ROLE ( 'creation_date' ) ;
#496 = APPROVAL_ROLE ( '' ) ;
#497 = PERSON_AND_ORGANIZATION_ROLE ( 'classification_officer' ) ;
#498 = PRODUCT_DEFINITION ( 'General', '', #489, #1098 ) ;
#499 = PERSON_AND_ORGANIZATION ( #18446744073709551615, #18446744073709551615 ) ;
#500 = DESIGN_CONTEXT ( 'detailed design', #922, 'design' ) ;
#501 = LENGTH_MEASURE_WITH_UNIT ( LENGTH_MEASURE( 0.02539999999999999897 ), #850 );
#502 = PRODUCT ( 'Kora_Assembly', 'Kora_Assembly', '', ( #456 ) ) ;
#503 = DATE_AND_TIME ( #318, #104 ) ;
#504 = COORDINATED_UNIVERSAL_TIME_OFFSET ( 8, 0, .BEHIND. ) ;
#505 = SECURITY_CLASSIFICATION ( '', '', #378 ) ;
#506 = APPROVAL_ROLE ( '' ) ;
#507 = CC_DESIGN_SECURITY_CLASSIFICATION ( #332, ( #125 ) ) ;
#508 = CC_DESIGN_APPROVAL ( #1131, ( #1078 ) ) ;
#509 = LOCAL_TIME ( 16, 16, 8.000000000000000000, #439 ) ;
#510 = PERSON_AND_ORGANIZATION ( #18446744073709551615, #18446744073709551615 ) ;
#511 = ITEM_DEFINED_TRANSFORMATION ( 'NONE', 'NONE', #565,  #297 ) ;
#512 = DATE_AND_TIME ( #968, #1031 ) ;
#513 =( NAMED_UNIT ( * ) SI_UNIT ( $, .STERADIAN. ) SOLID_ANGLE_UNIT ( ) );
#514 = CC_DESIGN_PERSON_AND_ORGANIZATION_ASSIGNMENT ( #694, #615, ( #223 ) ) ;
#515 = EXTERNAL_SOURCE (IDENTIFIER('') ) ;
#516 = DATE_TIME_ROLE ( 'creation_date' ) ;
#517 = PERSON_AND_ORGANIZATION ( #940, #1054 ) ;
#518 = PERSON_AND_ORGANIZATION ( #18446744073709551615, #18446744073709551615 ) ;
#519 = DIRECTION ( 'NONE',  ( 0.000000000000000000, 0.000000000000000000, 1.000000000000000000 ) ) ;
#520 = APPROVAL ( #808, 'Coincident' ) ;
#521 = CALENDAR_DATE ( 2026, 2, 7 ) ;
#522 = PERSON_AND_ORGANIZATION ( #18446744073709551615, #18446744073709551615 ) ;
#523 = APPLICATION_PROTOCOL_DEFINITION ( 'international standard', 'config_control_design', 1994, #1010 ) ;
#524 = PERSON ( 'NAUO-PER9', 'UNSPECIFIED', 'UNSPECIFIED', ('UNSPECIFIED'), ('UNSPECIFIED'), ('UNSPECIFIED') ) ;
#525 = LOCAL_TIME ( 16, 16, 8.000000000000000000, #114 ) ;
#526 = LOCAL_TIME ( 16, 16, 8.000000000000000000, #50 ) ;
#527 = LENGTH_MEASURE_WITH_UNIT ( LENGTH_MEASURE( 0.02539999999999999897 ), #534 );
#528 = PROPERTY_DEFINITION ('external definition','', #193 ) ;
#529 = PRODUCT_DEFINITION_FORMATION_WITH_SPECIFIED_SOURCE ( 'Symmetric', '', #668, .NOT_KNOWN. ) ;
#530 = APPROVAL_ROLE ( '' ) ;
#531 = COORDINATED_UNIVERSAL_TIME_OFFSET ( 8, 0, .BEHIND. ) ;
#532 = APPLIED_EXTERNAL_IDENTIFICATION_ASSIGNMENT ( 'Kora_Neck.STEP' , #1046, #476,( #398) ) ;
#533 = DATE_AND_TIME ( #1180, #667 ) ;
#534 =( LENGTH_UNIT ( ) NAMED_UNIT ( * ) SI_UNIT ( $, .METRE. ) );
#535 = PERSON_AND_ORGANIZATION_ROLE ( 'classification_officer' ) ;
#536 = PERSON_AND_ORGANIZATION ( #18446744073709551615, #18446744073709551615 ) ;
#537 = COORDINATED_UNIVERSAL_TIME_OFFSET ( 8, 0, .BEHIND. ) ;
#538 = PRODUCT_RELATED_PRODUCT_CATEGORY ( 'detail', '', ( #322 ) ) ;
#539 =( REPRESENTATION_RELATIONSHIP ('NONE','NONE', #632, #837 ) REPRESENTATION_RELATIONSHIP_WITH_TRANSFORMATION ( #367 )SHAPE_REPRESENTATION_RELATIONSHIP( ) );
#540 = PROPERTY_DEFINITION_REPRESENTATION ( #771, #1086 ) ;
#541 = DATE_TIME_ROLE ( 'creation_date' ) ;
#542 = COORDINATED_UNIVERSAL_TIME_OFFSET ( 8, 0, .BEHIND. ) ;
#543 = CC_DESIGN_PERSON_AND_ORGANIZATION_ASSIGNMENT ( #1005, #936, ( #491 ) ) ;
#544 = CC_DESIGN_DATE_AND_TIME_ASSIGNMENT ( #696, #1066, ( #392 ) ) ;
#545 =( GEOMETRIC_REPRESENTATION_CONTEXT ( 3 ) GLOBAL_UNCERTAINTY_ASSIGNED_CONTEXT ( ( #250 ) ) GLOBAL_UNIT_ASSIGNED_CONTEXT ( ( #624, #992, #173 ) ) REPRESENTATION_CONTEXT ( 'NONE', 'WORKASPACE' ) );
#546 = SECURITY_CLASSIFICATION ( '', '', #350 ) ;
#547 = SHAPE_DEFINITION_REPRESENTATION ( #1033, #921 ) ;
#548 = CC_DESIGN_APPROVAL ( #356, ( #1128 ) ) ;
#549 = COORDINATED_UNIVERSAL_TIME_OFFSET ( 8, 0, .BEHIND. ) ;
#550 = CC_DESIGN_SECURITY_CLASSIFICATION ( #392, ( #1191 ) ) ;
#551 = DIRECTION ( 'NONE',  ( 1.000000000000000000, 0.000000000000000000, 0.000000000000000000 ) ) ;
#552 = CC_DESIGN_PERSON_AND_ORGANIZATION_ASSIGNMENT ( #315, #33, ( #348 ) ) ;
#553 = DIRECTION ( 'NONE',  ( 1.000000000000000000, 0.000000000000000000, 0.000000000000000000 ) ) ;
#554 = APPLICATION_PROTOCOL_DEFINITION ( 'international standard', 'config_control_design', 1994, #738 ) ;
#555 = EXTERNAL_SOURCE (IDENTIFIER('') ) ;
#556 = SHAPE_DEFINITION_REPRESENTATION ( #379, #292 ) ;
#557 = DIRECTION ( 'NONE',  ( 0.000000000000000000, 1.000000000000000000, 0.000000000000000000 ) ) ;
#558 = CC_DESIGN_PERSON_AND_ORGANIZATION_ASSIGNMENT ( #977, #324, ( #1129 ) ) ;
#559 = APPROVAL_ROLE ( '' ) ;
#560 = COORDINATED_UNIVERSAL_TIME_OFFSET ( 8, 0, .BEHIND. ) ;
#561 = APPROVAL_STATUS ( 'not_yet_approved' ) ;
#562 = CARTESIAN_POINT ( 'NONE',  ( -11.41732283464566855, -2.755905511811024056, -0.7874015748031503170 ) ) ;
#563 = APPROVAL_PERSON_ORGANIZATION ( #1, #1116, #559 ) ;
#564 = PERSON_AND_ORGANIZATION_ROLE ( 'classification_officer' ) ;
#565 = AXIS2_PLACEMENT_3D ( 'NONE', #1109, #905, #726 ) ;
#566 = CALENDAR_DATE ( 2026, 2, 7 ) ;
#567 = LOCAL_TIME ( 16, 16, 8.000000000000000000, #774 ) ;
#568 = APPROVAL_ROLE ( '' ) ;
#569 = CC_DESIGN_PERSON_AND_ORGANIZATION_ASSIGNMENT ( #1060, #242, ( #1152 ) ) ;
#570 = APPROVAL_DATE_TIME ( #117, #370 ) ;
#571 = CC_DESIGN_APPROVAL ( #383, ( #603 ) ) ;
#572 = PRODUCT ( 'Kora_Tailpiece', 'Kora_Tailpiece', '', ( #1015 ) ) ;
#573 = LOCAL_TIME ( 16, 16, 8.000000000000000000, #415 ) ;
#574 = DATE_AND_TIME ( #943, #970 ) ;
#575 = PERSON_AND_ORGANIZATION_ROLE ( 'classification_officer' ) ;
#576 = PERSON_AND_ORGANIZATION ( #18446744073709551615, #18446744073709551615 ) ;
#577 = CARTESIAN_POINT ( 'NONE',  ( 0.000000000000000000, 0.000000000000000000, 0.000000000000000000 ) ) ;
#578 =( REPRESENTATION_RELATIONSHIP ('NONE','NONE', #632, #1126 ) REPRESENTATION_RELATIONSHIP_WITH_TRANSFORMATION ( #252 )SHAPE_REPRESENTATION_RELATIONSHIP( ) );
#579 = PRODUCT_DEFINITION_SHAPE ( 'NONE', 'NONE',  #94 ) ;
#580 = APPROVAL_STATUS ( 'not_yet_approved' ) ;
#581 = APPLIED_DOCUMENT_REFERENCE ( #398,'',( #94) ) ;
#582 = PERSON ( 'NAUO-PER5', 'UNSPECIFIED', 'UNSPECIFIED', ('UNSPECIFIED'), ('UNSPECIFIED'), ('UNSPECIFIED') ) ;
#583 = APPLICATION_PROTOCOL_DEFINITION ( 'international standard', 'config_control_design', 1994, #1072 ) ;
#584 = CONTEXT_DEPENDENT_SHAPE_REPRESENTATION ( #539, #1139 ) ;
#585 = SHAPE_DEFINITION_REPRESENTATION ( #868, #632 ) ;
#586 = PROPERTY_DEFINITION ('document property','', #693 ) ;
#587 = AXIS2_PLACEMENT_3D ( 'NONE', #844, #762, #112 ) ;
#588 = APPROVAL ( #768, 'UNKNOWN' ) ;
#589 = APPROVAL_PERSON_ORGANIZATION ( #1159, #520, #1083 ) ;
#590 = PRODUCT_DEFINITION_FORMATION_WITH_SPECIFIED_SOURCE ( 'Symmetric', '', #942, .NOT_KNOWN. ) ;
#591 = APPROVAL_PERSON_ORGANIZATION ( #931, #817, #568 ) ;
#592 = CC_DESIGN_PERSON_AND_ORGANIZATION_ASSIGNMENT ( #1156, #253, ( #125 ) ) ;
#593 = CALENDAR_DATE ( 2026, 2, 7 ) ;
#594 = COORDINATED_UNIVERSAL_TIME_OFFSET ( 8, 0, .BEHIND. ) ;
#595 = PERSON_AND_ORGANIZATION_ROLE ( 'design_owner' ) ;
#596 = APPROVAL_STATUS ( 'not_yet_approved' ) ;
#597 = PERSON_AND_ORGANIZATION ( #743, #930 ) ;
#598 = COORDINATED_UNIVERSAL_TIME_OFFSET ( 8, 0, .BEHIND. ) ;
#599 = APPLICATION_CONTEXT ( 'configuration controlled 3d designs of mechanical parts and assemblies' ) ;
#600 = SHAPE_DEFINITION_REPRESENTATION ( #764, #1086 ) ;
#601 = DATE_AND_TIME ( #957, #67 ) ;
#602 = SECURITY_CLASSIFICATION_LEVEL ( 'unclassified' ) ;
#603 = PRODUCT_DEFINITION ( 'General', '', #1128, #412 ) ;
#604 = LOCAL_TIME ( 16, 16, 8.000000000000000000, #309 ) ;
#605 = SECURITY_CLASSIFICATION ( '', '', #418 ) ;
#606 = APPLIED_EXTERNAL_IDENTIFICATION_ASSIGNMENT ( 'Kora_Handle.STEP' , #1122, #515,( #908) ) ;
#607 = DATE_AND_TIME ( #313, #702 ) ;
#608 = COORDINATED_UNIVERSAL_TIME_OFFSET ( 8, 0, .BEHIND. ) ;
#609 = SECURITY_CLASSIFICATION_LEVEL ( 'unclassified' ) ;
#610 = UNCERTAINTY_MEASURE_WITH_UNIT (LENGTH_MEASURE( 1.000000000000000082E-05 ), #1176, 'distance_accuracy_value', 'NONE');
#611 = LENGTH_MEASURE_WITH_UNIT ( LENGTH_MEASURE( 0.02539999999999999897 ), #51 );
#612 = PRODUCT_RELATED_PRODUCT_CATEGORY ( 'detail', '', ( #118 ) ) ;
#613 = PERSON_AND_ORGANIZATION_ROLE ( 'design_supplier' ) ;
#614 = COORDINATED_UNIVERSAL_TIME_OFFSET ( 8, 0, .BEHIND. ) ;
#615 = PERSON_AND_ORGANIZATION_ROLE ( 'creator' ) ;
#616 = APPROVAL_DATE_TIME ( #533, #520 ) ;
#617 = IDENTIFICATION_ROLE ( 'external document id and location', $) ;
#618 = CONTEXT_DEPENDENT_SHAPE_REPRESENTATION ( #982, #212 ) ;
#619 = APPROVAL_ROLE ( '' ) ;
#620 = DATE_AND_TIME ( #254, #779 ) ;
#621 = AXIS2_PLACEMENT_3D ( 'NONE', #1105, #519, #900 ) ;
#622 = LOCAL_TIME ( 16, 16, 8.000000000000000000, #481 ) ;
#623 = CC_DESIGN_APPROVAL ( #466, ( #605 ) ) ;
#624 =( CONVERSION_BASED_UNIT ( 'INCH', #1101 ) LENGTH_UNIT ( ) NAMED_UNIT ( #755 ) );
#625 = CC_DESIGN_PERSON_AND_ORGANIZATION_ASSIGNMENT ( #1028, #933, ( #906 ) ) ;
#626 = APPROVAL_PERSON_ORGANIZATION ( #695, #482, #234 ) ;
#627 = SECURITY_CLASSIFICATION_LEVEL ( 'unclassified' ) ;
#628 = APPROVAL_STATUS ( 'not_yet_approved' ) ;
#629 = APPLIED_EXTERNAL_IDENTIFICATION_ASSIGNMENT ( 'Kora_Bowl.STEP' , #189, #387,( #693) ) ;
#630 = PERSON_AND_ORGANIZATION_ROLE ( 'design_owner' ) ;
#631 = CARTESIAN_POINT ( 'NONE',  ( 0.000000000000000000, -9.842519685039370358, 0.4724409448818898127 ) ) ;
#632 = SHAPE_REPRESENTATION ( 'Kora_Assembly', ( #587, #966, #124, #796, #1088, #565, #1011, #1048, #488, #277 ), #424 ) ;
#633 =( NAMED_UNIT ( * ) SI_UNIT ( $, .STERADIAN. ) SOLID_ANGLE_UNIT ( ) );
#634 = CONTEXT_DEPENDENT_SHAPE_REPRESENTATION ( #578, #396 ) ;
#635 = DATE_AND_TIME ( #819, #664 ) ;
#636 = APPROVAL_ROLE ( '' ) ;
#637 = UNCERTAINTY_MEASURE_WITH_UNIT (LENGTH_MEASURE( 1.000000000000000082E-05 ), #1099, 'distance_accuracy_value', 'NONE');
#638 = DIRECTION ( 'NONE',  ( 1.000000000000000000, 0.000000000000000000, 0.000000000000000000 ) ) ;
#639 = COORDINATED_UNIVERSAL_TIME_OFFSET ( 8, 0, .BEHIND. ) ;
#640 = EXTERNAL_SOURCE (IDENTIFIER('') ) ;
#641 = PERSON_AND_ORGANIZATION ( #18446744073709551615, #18446744073709551615 ) ;
#642 = DIRECTION ( 'NONE',  ( 0.000000000000000000, -1.000000000000000000, 0.000000000000000000 ) ) ;
#643 = APPROVAL ( #710, 'Coincident' ) ;
#644 = LOCAL_TIME ( 16, 16, 8.000000000000000000, #678 ) ;
#645 = CONTEXT_DEPENDENT_SHAPE_REPRESENTATION ( #122, #343 ) ;
#646 = APPROVAL_ROLE ( '' ) ;
#647 = SECURITY_CLASSIFICATION ( '', '', #1036 ) ;
#648 = CALENDAR_DATE ( 2026, 2, 7 ) ;
#649 = CC_DESIGN_APPROVAL ( #413, ( #392 ) ) ;
#650 = CC_DESIGN_PERSON_AND_ORGANIZATION_ASSIGNMENT ( #61, #801, ( #353 ) ) ;
#651 = APPROVAL ( #83, 'Coincident' ) ;
#652 = DATE_AND_TIME ( #197, #681 ) ;
#653 = APPROVAL_STATUS ( 'not_yet_approved' ) ;
#654 = APPROVAL_STATUS ( 'not_yet_approved' ) ;
#655 = DIRECTION ( 'NONE',  ( 1.000000000000000000, 0.000000000000000000, 0.000000000000000000 ) ) ;
#656 = DIMENSIONAL_EXPONENTS ( 1.000000000000000000, 0.000000000000000000, 0.000000000000000000, 0.000000000000000000, 0.000000000000000000, 0.000000000000000000, 0.000000000000000000 ) ;
#657 = COORDINATED_UNIVERSAL_TIME_OFFSET ( 8, 0, .BEHIND. ) ;
#658 = APPROVAL_ROLE ( '' ) ;
#659 = DATE_AND_TIME ( #289, #799 ) ;
#660 = APPROVAL_STATUS ( 'not_yet_approved' ) ;
#661 = EXTERNAL_SOURCE (IDENTIFIER('') ) ;
#662 = DATE_AND_TIME ( #714, #797 ) ;
#663 = CC_DESIGN_DATE_AND_TIME_ASSIGNMENT ( #411, #778, ( #419 ) ) ;
#664 = LOCAL_TIME ( 16, 16, 8.000000000000000000, #903 ) ;
#665 = DATE_AND_TIME ( #385, #43 ) ;
#666 = APPROVAL_DATE_TIME ( #210, #199 ) ;
#667 = LOCAL_TIME ( 16, 16, 8.000000000000000000, #1175 ) ;
#668 = PRODUCT ( 'Kora_Neck', 'Kora_Neck', '', ( #142 ) ) ;
#669 = APPROVAL_PERSON_ORGANIZATION ( #15, #63, #3 ) ;
#670 =( NAMED_UNIT ( * ) PLANE_ANGLE_UNIT ( ) SI_UNIT ( $, .RADIAN. ) );
#671 = PERSON_AND_ORGANIZATION ( #18446744073709551615, #18446744073709551615 ) ;
#672 = DATE_TIME_ROLE ( 'classification_date' ) ;
#673 = APPROVAL_STATUS ( 'not_yet_approved' ) ;
#674 = PRODUCT_RELATED_PRODUCT_CATEGORY ( 'detail', '', ( #942 ) ) ;
#675 = PROPERTY_DEFINITION ('document property','', #398 ) ;
#676 = PERSON_AND_ORGANIZATION_ROLE ( 'design_supplier' ) ;
#677 = DATE_TIME_ROLE ( 'classification_date' ) ;
#678 = COORDINATED_UNIVERSAL_TIME_OFFSET ( 8, 0, .BEHIND. ) ;
#679 = APPROVAL ( #628, 'Coincident' ) ;
#680 = APPLICATION_CONTEXT ( 'configuration controlled 3d designs of mechanical parts and assemblies' ) ;
#681 = LOCAL_TIME ( 16, 16, 8.000000000000000000, #657 ) ;
#682 = DATE_AND_TIME ( #1073, #798 ) ;
#683 = DATE_AND_TIME ( #376, #718 ) ;
#684 = LOCAL_TIME ( 16, 16, 8.000000000000000000, #430 ) ;
#685 = LOCAL_TIME ( 16, 16, 8.000000000000000000, #549 ) ;
#686 = CC_DESIGN_PERSON_AND_ORGANIZATION_ASSIGNMENT ( #229, #784, ( #605 ) ) ;
#687 = SECURITY_CLASSIFICATION ( '', '', #11 ) ;
#688 = PERSON_AND_ORGANIZATION ( #18446744073709551615, #18446744073709551615 ) ;
#689 = DATE_AND_TIME ( #394, #573 ) ;
#690 = APPROVAL_DATE_TIME ( #706, #840 ) ;
#691 = COORDINATED_UNIVERSAL_TIME_OFFSET ( 8, 0, .BEHIND. ) ;
#692 = CC_DESIGN_DATE_AND_TIME_ASSIGNMENT ( #486, #495, ( #769 ) ) ;
#693 = DOCUMENT_FILE ( 'Kora_Bowl.STEP' , '', '', #800, '' ,$ ) ;
#694 = PERSON_AND_ORGANIZATION ( #18446744073709551615, #18446744073709551615 ) ;
#695 = PERSON_AND_ORGANIZATION ( #18446744073709551615, #18446744073709551615 ) ;
#696 = DATE_AND_TIME ( #865, #264 ) ;
#697 = CC_DESIGN_PERSON_AND_ORGANIZATION_ASSIGNMENT ( #510, #48, ( #668 ) ) ;
#698 = DATE_AND_TIME ( #421, #389 ) ;
#699 = DOCUMENT_TYPE ( 'geometry' ) ;
#700 =( GEOMETRIC_REPRESENTATION_CONTEXT ( 3 ) GLOBAL_UNCERTAINTY_ASSIGNED_CONTEXT ( ( #981 ) ) GLOBAL_UNIT_ASSIGNED_CONTEXT ( ( #804, #975, #58 ) ) REPRESENTATION_CONTEXT ( 'NONE', 'WORKASPACE' ) );
#701 = LOCAL_TIME ( 16, 16, 8.000000000000000000, #440 ) ;
#702 = LOCAL_TIME ( 16, 16, 8.000000000000000000, #327 ) ;
#703 = APPLIED_EXTERNAL_IDENTIFICATION_ASSIGNMENT ( 'Kora_Soundboard.STEP' , #807, #640,( #978) ) ;
#704 = APPROVAL_DATE_TIME ( #607, #789 ) ;
#705 = CALENDAR_DATE ( 2026, 2, 7 ) ;
#706 = DATE_AND_TIME ( #330, #526 ) ;
#707 = PERSON_AND_ORGANIZATION ( #18446744073709551615, #18446744073709551615 ) ;
#708 = DIRECTION ( 'NONE',  ( 1.000000000000000000, 0.000000000000000000, 0.000000000000000000 ) ) ;
#709 = PROPERTY_DEFINITION_REPRESENTATION ( #23, #1086 ) ;
#710 = APPROVAL_STATUS ( 'not_yet_approved' ) ;
#711 = PERSON_AND_ORGANIZATION_ROLE ( 'design_supplier' ) ;
#712 = CC_DESIGN_PERSON_AND_ORGANIZATION_ASSIGNMENT ( #734, #436, ( #391 ) ) ;
#713 = DATE_AND_TIME ( #729, #1035 ) ;
#714 = CALENDAR_DATE ( 2026, 2, 7 ) ;
#715 = APPROVAL_DATE_TIME ( #346, #947 ) ;
#716 = UNCERTAINTY_MEASURE_WITH_UNIT (LENGTH_MEASURE( 1.000000000000000082E-05 ), #243, 'distance_accuracy_value', 'NONE');
#717 =( CONVERSION_BASED_UNIT ( 'INCH', #355 ) LENGTH_UNIT ( ) NAMED_UNIT ( #472 ) );
#718 = LOCAL_TIME ( 16, 16, 8.000000000000000000, #399 ) ;
#719 = LOCAL_TIME ( 16, 16, 8.000000000000000000, #1154 ) ;
#720 = CC_DESIGN_SECURITY_CLASSIFICATION ( #226, ( #1194 ) ) ;
#721 = CC_DESIGN_DATE_AND_TIME_ASSIGNMENT ( #296, #843, ( #736 ) ) ;
#722 = CALENDAR_DATE ( 2026, 2, 7 ) ;
#723 = CALENDAR_DATE ( 2026, 2, 7 ) ;
#724 = APPLICATION_CONTEXT ( 'configuration controlled 3d designs of mechanical parts and assemblies' ) ;
#725 = DATE_AND_TIME ( #812, #143 ) ;
#726 = DIRECTION ( 'NONE',  ( 1.000000000000000000, 0.000000000000000000, 0.000000000000000000 ) ) ;
#727 = PERSON ( 'NAUO-PER1', 'UNSPECIFIED', 'UNSPECIFIED', ('UNSPECIFIED'), ('UNSPECIFIED'), ('UNSPECIFIED') ) ;
#728 =( CONVERSION_BASED_UNIT ( 'INCH', #527 ) LENGTH_UNIT ( ) NAMED_UNIT ( #1118 ) );
#729 = CALENDAR_DATE ( 2026, 2, 7 ) ;
#730 = APPROVAL_DATE_TIME ( #635, #477 ) ;
#731 = PRODUCT_RELATED_PRODUCT_CATEGORY ( 'detail', '', ( #138 ) ) ;
#732 = DIRECTION ( 'NONE',  ( 1.000000000000000000, 0.000000000000000000, 0.000000000000000000 ) ) ;
#733 = CARTESIAN_POINT ( 'NONE',  ( 0.000000000000000000, 0.000000000000000000, 0.000000000000000000 ) ) ;
#734 = PERSON_AND_ORGANIZATION ( #18446744073709551615, #18446744073709551615 ) ;
#735 = APPLIED_DOCUMENT_REFERENCE ( #92,'',( #736) ) ;
#736 = PRODUCT_DEFINITION ( 'General', '', #590, #152 ) ;
#737 = DIRECTION ( 'NONE',  ( 0.000000000000000000, 1.000000000000000000, 0.000000000000000000 ) ) ;
#738 = APPLICATION_CONTEXT ( 'configuration controlled 3d designs of mechanical parts and assemblies' ) ;
#739 = APPROVAL_PERSON_ORGANIZATION ( #276, #113, #919 ) ;
#740 = APPROVAL_PERSON_ORGANIZATION ( #758, #199, #395 ) ;
#741 = PERSON_AND_ORGANIZATION_ROLE ( 'creator' ) ;
#742 = CC_DESIGN_APPROVAL ( #63, ( #647 ) ) ;
#743 = PERSON ( 'NAUO-PER3', 'UNSPECIFIED', 'UNSPECIFIED', ('UNSPECIFIED'), ('UNSPECIFIED'), ('UNSPECIFIED') ) ;
#744 = CALENDAR_DATE ( 2026, 2, 7 ) ;
#745 = CC_DESIGN_APPROVAL ( #795, ( #27 ) ) ;
#746 = CC_DESIGN_PERSON_AND_ORGANIZATION_ASSIGNMENT ( #200, #757, ( #590 ) ) ;
#747 = DIMENSIONAL_EXPONENTS ( 1.000000000000000000, 0.000000000000000000, 0.000000000000000000, 0.000000000000000000, 0.000000000000000000, 0.000000000000000000, 0.000000000000000000 ) ;
#748 = DOCUMENT_TYPE ( 'geometry' ) ;
#749 = PROPERTY_DEFINITION_REPRESENTATION ( #528, #955 ) ;
#750 = CALENDAR_DATE ( 2026, 2, 7 ) ;
#751 = DATE_AND_TIME ( #648, #915 ) ;
#752 = CALENDAR_DATE ( 2026, 2, 7 ) ;
#753 = CC_DESIGN_DATE_AND_TIME_ASSIGNMENT ( #235, #677, ( #27 ) ) ;
#754 = APPROVAL ( #673, 'Coincident' ) ;
#755 = DIMENSIONAL_EXPONENTS ( 1.000000000000000000, 0.000000000000000000, 0.000000000000000000, 0.000000000000000000, 0.000000000000000000, 0.000000000000000000, 0.000000000000000000 ) ;
#756 = DATE_AND_TIME ( #1130, #1032 ) ;
#757 = PERSON_AND_ORGANIZATION_ROLE ( 'creator' ) ;
#758 = PERSON_AND_ORGANIZATION ( #18446744073709551615, #18446744073709551615 ) ;
#759 = PERSON_AND_ORGANIZATION ( #18446744073709551615, #18446744073709551615 ) ;
#760 = CC_DESIGN_SECURITY_CLASSIFICATION ( #1152, ( #223 ) ) ;
#761 = APPROVAL_DATE_TIME ( #361, #172 ) ;
#762 = DIRECTION ( 'NONE',  ( 0.000000000000000000, 0.000000000000000000, 1.000000000000000000 ) ) ;
#763 = APPROVAL_PERSON_ORGANIZATION ( #1021, #404, #658 ) ;
#764 = PRODUCT_DEFINITION_SHAPE ( 'NONE', 'NONE',  #1078 ) ;
#765 = CC_DESIGN_APPROVAL ( #68, ( #226 ) ) ;
#766 = DOCUMENT_TYPE ( 'geometry' ) ;
#767 = DATE_AND_TIME ( #483, #6 ) ;
#768 = APPROVAL_STATUS ( 'not_yet_approved' ) ;
#769 = PRODUCT_DEFINITION ( 'General', '', #348, #237 ) ;
#770 =( NAMED_UNIT ( * ) SI_UNIT ( $, .STERADIAN. ) SOLID_ANGLE_UNIT ( ) );
#771 = PROPERTY_DEFINITION ('document property','', #908 ) ;
#772 = APPLICATION_PROTOCOL_DEFINITION ( 'international standard', 'config_control_design', 1994, #907 ) ;
#773 = DATE_AND_TIME ( #1059, #107 ) ;
#774 = COORDINATED_UNIVERSAL_TIME_OFFSET ( 8, 0, .BEHIND. ) ;
#775 = CC_DESIGN_PERSON_AND_ORGANIZATION_ASSIGNMENT ( #1002, #175, ( #736 ) ) ;
#776 = APPROVAL_ROLE ( '' ) ;
#777 = APPROVAL_DATE_TIME ( #785, #795 ) ;
#778 = DATE_TIME_ROLE ( 'creation_date' ) ;
#779 = LOCAL_TIME ( 16, 16, 8.000000000000000000, #72 ) ;
#780 = LENGTH_MEASURE_WITH_UNIT ( LENGTH_MEASURE( 0.02539999999999999897 ), #1163 );
#781 = CC_DESIGN_APPROVAL ( #271, ( #353 ) ) ;
#782 = APPROVAL_PERSON_ORGANIZATION ( #517, #68, #530 ) ;
#783 = CC_DESIGN_PERSON_AND_ORGANIZATION_ASSIGNMENT ( #384, #1040, ( #498 ) ) ;
#784 = PERSON_AND_ORGANIZATION_ROLE ( 'classification_officer' ) ;
#785 = DATE_AND_TIME ( #856, #407 ) ;
#786 = DATE_AND_TIME ( #890, #684 ) ;
#787 = APPLICATION_CONTEXT ( 'configuration controlled 3d designs of mechanical parts and assemblies' ) ;
#788 = SHAPE_REPRESENTATION ( 'Kora_Strings', ( #181 ), #202 ) ;
#789 = APPROVAL ( #878, 'Coincident' ) ;
#790 = APPLICATION_PROTOCOL_DEFINITION ( 'international standard', 'config_control_design', 1994, #922 ) ;
#791 = DATE_TIME_ROLE ( 'classification_date' ) ;
#792 = DATE_TIME_ROLE ( 'classification_date' ) ;
#793 = DATE_TIME_ROLE ( 'classification_date' ) ;
#794 = PERSON_AND_ORGANIZATION_ROLE ( 'creator' ) ;
#795 = APPROVAL ( #144, 'UNKNOWN' ) ;
#796 = AXIS2_PLACEMENT_3D ( 'NONE', #184, #827, #638 ) ;
#797 = LOCAL_TIME ( 16, 16, 8.000000000000000000, #806 ) ;
#798 = LOCAL_TIME ( 16, 16, 8.000000000000000000, #35 ) ;
#799 = LOCAL_TIME ( 16, 16, 8.000000000000000000, #1120 ) ;
#800 = DOCUMENT_TYPE ( 'geometry' ) ;
#801 = PERSON_AND_ORGANIZATION_ROLE ( 'classification_officer' ) ;
#802 = COORDINATED_UNIVERSAL_TIME_OFFSET ( 8, 0, .BEHIND. ) ;
#803 = CC_DESIGN_PERSON_AND_ORGANIZATION_ASSIGNMENT ( #979, #794, ( #125 ) ) ;
#804 =( CONVERSION_BASED_UNIT ( 'INCH', #611 ) LENGTH_UNIT ( ) NAMED_UNIT ( #105 ) );
#805 = CONTEXT_DEPENDENT_SHAPE_REPRESENTATION ( #946, #1043 ) ;
#806 = COORDINATED_UNIVERSAL_TIME_OFFSET ( 8, 0, .BEHIND. ) ;
#807 = IDENTIFICATION_ROLE ( 'external document id and location', $) ;
#808 = APPROVAL_STATUS ( 'not_yet_approved' ) ;
#809 = CARTESIAN_POINT ( 'NONE',  ( 0.000000000000000000, -2.952755905511811552, 0.1181102362204724116 ) ) ;
#810 = DIRECTION ( 'NONE',  ( 0.000000000000000000, 0.000000000000000000, 1.000000000000000000 ) ) ;
#811 = APPROVAL_DATE_TIME ( #267, #1110 ) ;
#812 = CALENDAR_DATE ( 2026, 2, 7 ) ;
#813 = UNCERTAINTY_MEASURE_WITH_UNIT (LENGTH_MEASURE( 1.000000000000000082E-05 ), #717, 'distance_accuracy_value', 'NONE');
#814 =( GEOMETRIC_REPRESENTATION_CONTEXT ( 3 ) GLOBAL_UNCERTAINTY_ASSIGNED_CONTEXT ( ( #207 ) ) GLOBAL_UNIT_ASSIGNED_CONTEXT ( ( #728, #69, #89 ) ) REPRESENTATION_CONTEXT ( 'NONE', 'WORKASPACE' ) );
#815 = CC_DESIGN_APPROVAL ( #754, ( #163 ) ) ;
#816 = PRODUCT_RELATED_PRODUCT_CATEGORY ( 'detail', '', ( #572 ) ) ;
#817 = APPROVAL ( #654, 'UNKNOWN' ) ;
#818 = DATE_AND_TIME ( #999, #1113 ) ;
#819 = CALENDAR_DATE ( 2026, 2, 7 ) ;
#820 = APPROVAL_ROLE ( '' ) ;
#821 =( NAMED_UNIT ( * ) SI_UNIT ( $, .STERADIAN. ) SOLID_ANGLE_UNIT ( ) );
#822 = OBJECT_ROLE ('mandatory',$ ) ;
#823 = CC_DESIGN_DATE_AND_TIME_ASSIGNMENT ( #620, #980, ( #427 ) ) ;
#824 = PROPERTY_DEFINITION_REPRESENTATION ( #263, #788 ) ;
#825 = DATE_AND_TIME ( #985, #1068 ) ;
#826 = COORDINATED_UNIVERSAL_TIME_OFFSET ( 8, 0, .BEHIND. ) ;
#827 = DIRECTION ( 'NONE',  ( 0.000000000000000000, 1.000000000000000000, 0.000000000000000000 ) ) ;
#828 = APPROVAL_STATUS ( 'not_yet_approved' ) ;
#829 = COORDINATED_UNIVERSAL_TIME_OFFSET ( 8, 0, .BEHIND. ) ;
#830 = AXIS2_PLACEMENT_3D ( 'NONE', #158, #1184, #553 ) ;
#831 = AXIS2_PLACEMENT_3D ( 'NONE', #733, #457, #1030 ) ;
#832 = CC_DESIGN_APPROVAL ( #217, ( #419 ) ) ;
#833 = DIMENSIONAL_EXPONENTS ( 1.000000000000000000, 0.000000000000000000, 0.000000000000000000, 0.000000000000000000, 0.000000000000000000, 0.000000000000000000, 0.000000000000000000 ) ;
#834 = DATE_TIME_ROLE ( 'creation_date' ) ;
#835 = SECURITY_CLASSIFICATION ( '', '', #848 ) ;
#836 = PROPERTY_DEFINITION_REPRESENTATION ( #300, #292 ) ;
#837 = SHAPE_REPRESENTATION ( 'Kora_Neck', ( #830 ), #814 ) ;
#838 = LOCAL_TIME ( 16, 16, 8.000000000000000000, #504 ) ;
#839 = DATE_AND_TIME ( #1134, #567 ) ;
#840 = APPROVAL ( #1150, 'Coincident' ) ;
#841 = APPROVAL_DATE_TIME ( #19, #1116 ) ;
#842 = COORDINATED_UNIVERSAL_TIME_OFFSET ( 8, 0, .BEHIND. ) ;
#843 = DATE_TIME_ROLE ( 'creation_date' ) ;
#844 = CARTESIAN_POINT ( 'NONE',  ( 0.000000000000000000, 0.000000000000000000, 0.000000000000000000 ) ) ;
#845 =( REPRESENTATION_RELATIONSHIP ('NONE','NONE', #632, #292 ) REPRESENTATION_RELATIONSHIP_WITH_TRANSFORMATION ( #1188 )SHAPE_REPRESENTATION_RELATIONSHIP( ) );
#846 = PRODUCT_DEFINITION_SHAPE ( 'NONE', 'NONE',  #498 ) ;
#847 = APPLIED_DOCUMENT_REFERENCE ( #95,'',( #419) ) ;
#848 = SECURITY_CLASSIFICATION_LEVEL ( 'unclassified' ) ;
#849 = SECURITY_CLASSIFICATION_LEVEL ( 'unclassified' ) ;
#850 =( LENGTH_UNIT ( ) NAMED_UNIT ( * ) SI_UNIT ( $, .METRE. ) );
#851 = CC_DESIGN_PERSON_AND_ORGANIZATION_ASSIGNMENT ( #365, #994, ( #572 ) ) ;
#852 = PRODUCT_DEFINITION_SHAPE ( 'NONE', 'NONE',  #1191 ) ;
#853 = APPROVAL_PERSON_ORGANIZATION ( #454, #477, #358 ) ;
#854 = APPROVAL_STATUS ( 'not_yet_approved' ) ;
#855 = CC_DESIGN_SECURITY_CLASSIFICATION ( #546, ( #238 ) ) ;
#856 = CALENDAR_DATE ( 2026, 2, 7 ) ;
#857 = PERSON_AND_ORGANIZATION ( #18446744073709551615, #18446744073709551615 ) ;
#858 = APPROVAL_PERSON_ORGANIZATION ( #460, #172, #97 ) ;
#859 = APPLIED_EXTERNAL_IDENTIFICATION_ASSIGNMENT ( 'Kora_Handle.STEP' , #147, #661,( #36) ) ;
#860 = DATE_AND_TIME ( #949, #371 ) ;
#861 = ROLE_ASSOCIATION ( #328, #227 ) ;
#862 = APPROVAL_ROLE ( '' ) ;
#863 = APPLICATION_CONTEXT ( 'configuration controlled 3d designs of mechanical parts and assemblies' ) ;
#864 = COORDINATED_UNIVERSAL_TIME_OFFSET ( 8, 0, .BEHIND. ) ;
#865 = CALENDAR_DATE ( 2026, 2, 7 ) ;
#866 = DATE_TIME_ROLE ( 'creation_date' ) ;
#867 =( REPRESENTATION_RELATIONSHIP ('NONE','NONE', #632, #955 ) REPRESENTATION_RELATIONSHIP_WITH_TRANSFORMATION ( #1117 )SHAPE_REPRESENTATION_RELATIONSHIP( ) );
#868 = PRODUCT_DEFINITION_SHAPE ( 'NONE', 'NONE',  #769 ) ;
#869 = APPROVAL_PERSON_ORGANIZATION ( #1005, #1025, #283 ) ;
#870 = APPROVAL_DATE_TIME ( #503, #466 ) ;
#871 = APPROVAL_PERSON_ORGANIZATION ( #101, #442, #467 ) ;
#872 = CALENDAR_DATE ( 2026, 2, 7 ) ;
#873 = DATE_AND_TIME ( #137, #259 ) ;
#874 = CC_DESIGN_APPROVAL ( #370, ( #769 ) ) ;
#875 = APPROVAL_PERSON_ORGANIZATION ( #956, #789, #42 ) ;
#876 = CC_DESIGN_PERSON_AND_ORGANIZATION_ASSIGNMENT ( #461, #16, ( #502 ) ) ;
#877 = CC_DESIGN_APPROVAL ( #588, ( #1132 ) ) ;
#878 = APPROVAL_STATUS ( 'not_yet_approved' ) ;
#879 = SECURITY_CLASSIFICATION_LEVEL ( 'unclassified' ) ;
#880 = COORDINATED_UNIVERSAL_TIME_OFFSET ( 8, 0, .BEHIND. ) ;
#881 = APPROVAL ( #455, 'Coincident' ) ;
#882 = APPROVAL_STATUS ( 'not_yet_approved' ) ;
#883 =( REPRESENTATION_RELATIONSHIP ('NONE','NONE', #632, #338 ) REPRESENTATION_RELATIONSHIP_WITH_TRANSFORMATION ( #136 )SHAPE_REPRESENTATION_RELATIONSHIP( ) );
#884 = DATE_TIME_ROLE ( 'classification_date' ) ;
#885 = APPROVAL_STATUS ( 'not_yet_approved' ) ;
#886 = DESIGN_CONTEXT ( 'detailed design', #680, 'design' ) ;
#887 = APPROVAL_DATE_TIME ( #1057, #1131 ) ;
#888 = PRODUCT_DEFINITION ( 'General', '', #238, #354 ) ;
#889 = DATE_AND_TIME ( #154, #509 ) ;
#890 = CALENDAR_DATE ( 2026, 2, 7 ) ;
#891 = LOCAL_TIME ( 16, 16, 8.000000000000000000, #81 ) ;
#892 = CC_DESIGN_SECURITY_CLASSIFICATION ( #605, ( #204 ) ) ;
#893 = LOCAL_TIME ( 16, 16, 8.000000000000000000, #829 ) ;
#894 = CC_DESIGN_DATE_AND_TIME_ASSIGNMENT ( #652, #364, ( #505 ) ) ;
#895 = APPROVAL_ROLE ( '' ) ;
#896 = CC_DESIGN_PERSON_AND_ORGANIZATION_ASSIGNMENT ( #14, #938, ( #1128 ) ) ;
#897 = PERSON_AND_ORGANIZATION ( #18446744073709551615, #18446744073709551615 ) ;
#898 = COORDINATED_UNIVERSAL_TIME_OFFSET ( 8, 0, .BEHIND. ) ;
#899 = CC_DESIGN_DATE_AND_TIME_ASSIGNMENT ( #665, #672, ( #186 ) ) ;
#900 = DIRECTION ( 'NONE',  ( 1.000000000000000000, 0.000000000000000000, 0.000000000000000000 ) ) ;
#901 = DIRECTION ( 'NONE',  ( 0.000000000000000000, 0.000000000000000000, 1.000000000000000000 ) ) ;
#902 = PROPERTY_DEFINITION_REPRESENTATION ( #438, #921 ) ;
#903 = COORDINATED_UNIVERSAL_TIME_OFFSET ( 8, 0, .BEHIND. ) ;
#904 = CALENDAR_DATE ( 2026, 2, 7 ) ;
#905 = DIRECTION ( 'NONE',  ( 0.000000000000000000, 1.000000000000000000, 0.000000000000000000 ) ) ;
#906 = PRODUCT_DEFINITION ( 'General', '', #125, #886 ) ;
#907 = APPLICATION_CONTEXT ( 'configuration controlled 3d designs of mechanical parts and assemblies' ) ;
#908 = DOCUMENT_FILE ( 'Kora_Handle.STEP' , '', '', #171, '' ,$ ) ;
#909 = APPROVAL_DATE_TIME ( #1087, #679 ) ;
#910 = CC_DESIGN_PERSON_AND_ORGANIZATION_ASSIGNMENT ( #517, #150, ( #226 ) ) ;
#911 = APPLICATION_PROTOCOL_DEFINITION ( 'international standard', 'config_control_design', 1994, #232 ) ;
#912 = CC_DESIGN_DATE_AND_TIME_ASSIGNMENT ( #426, #793, ( #605 ) ) ;
#913 = LOCAL_TIME ( 16, 16, 8.000000000000000000, #12 ) ;
#914 = CC_DESIGN_APPROVAL ( #222, ( #736 ) ) ;
#915 = LOCAL_TIME ( 16, 16, 8.000000000000000000, #278 ) ;
#916 = MECHANICAL_CONTEXT ( 'NONE', #738, 'mechanical' ) ;
#917 = CONTEXT_DEPENDENT_SHAPE_REPRESENTATION ( #845, #205 ) ;
#918 = DIRECTION ( 'NONE',  ( 0.000000000000000000, 1.000000000000000000, 0.000000000000000000 ) ) ;
#919 = APPROVAL_ROLE ( '' ) ;
#920 = CALENDAR_DATE ( 2026, 2, 7 ) ;
#921 = SHAPE_REPRESENTATION ( 'Kora_Tailpiece', ( #621 ), #700 ) ;
#922 = APPLICATION_CONTEXT ( 'configuration controlled 3d designs of mechanical parts and assemblies' ) ;
#923 = ROLE_ASSOCIATION ( #30, #462 ) ;
#924 = CALENDAR_DATE ( 2026, 2, 7 ) ;
#925 = APPROVAL ( #76, 'Coincident' ) ;
#926 = APPROVAL_STATUS ( 'not_yet_approved' ) ;
#927 = LOCAL_TIME ( 16, 16, 8.000000000000000000, #639 ) ;
#928 = LOCAL_TIME ( 16, 16, 8.000000000000000000, #537 ) ;
#929 = PERSON_AND_ORGANIZATION_ROLE ( 'creator' ) ;
#930 = ORGANIZATION ( 'NAUO-ORG3', 'UNSPECIFIED', 'UNSPECIFIED' ) ;
#931 = PERSON_AND_ORGANIZATION ( #1000, #990 ) ;
#932 = CC_DESIGN_PERSON_AND_ORGANIZATION_ASSIGNMENT ( #53, #613, ( #204 ) ) ;
#933 = PERSON_AND_ORGANIZATION_ROLE ( 'creator' ) ;
#934 = CC_DESIGN_PERSON_AND_ORGANIZATION_ASSIGNMENT ( #15, #575, ( #647 ) ) ;
#935 = DIMENSIONAL_EXPONENTS ( 1.000000000000000000, 0.000000000000000000, 0.000000000000000000, 0.000000000000000000, 0.000000000000000000, 0.000000000000000000, 0.000000000000000000 ) ;
#936 = PERSON_AND_ORGANIZATION_ROLE ( 'classification_officer' ) ;
#937 = DESIGN_CONTEXT ( 'detailed design', #787, 'design' ) ;
#938 = PERSON_AND_ORGANIZATION_ROLE ( 'creator' ) ;
#939 = CALENDAR_DATE ( 2026, 2, 7 ) ;
#940 = PERSON ( 'NAUO-PER6', 'UNSPECIFIED', 'UNSPECIFIED', ('UNSPECIFIED'), ('UNSPECIFIED'), ('UNSPECIFIED') ) ;
#941 = CC_DESIGN_PERSON_AND_ORGANIZATION_ASSIGNMENT ( #198, #31, ( #989 ) ) ;
#942 = PRODUCT ( 'Kora_Bridge', 'Kora_Bridge', '', ( #996 ) ) ;
#943 = CALENDAR_DATE ( 2026, 2, 7 ) ;
#944 = PROPERTY_DEFINITION_REPRESENTATION ( #220, #1086 ) ;
#945 = PERSON_AND_ORGANIZATION ( #18446744073709551615, #18446744073709551615 ) ;
#946 =( REPRESENTATION_RELATIONSHIP ('NONE','NONE', #632, #921 ) REPRESENTATION_RELATIONSHIP_WITH_TRANSFORMATION ( #435 )SHAPE_REPRESENTATION_RELATIONSHIP( ) );
#947 = APPROVAL ( #986, 'Coincident' ) ;
#948 = PRODUCT_DEFINITION_SHAPE ( 'NONE', 'NONE',  #1192 ) ;
#949 = CALENDAR_DATE ( 2026, 2, 7 ) ;
#950 = LOCAL_TIME ( 16, 16, 8.000000000000000000, #802 ) ;
#951 = PROPERTY_DEFINITION_REPRESENTATION ( #675, #837 ) ;
#952 = DATE_TIME_ROLE ( 'classification_date' ) ;
#953 = APPROVAL_PERSON_ORGANIZATION ( #408, #1131, #496 ) ;
#954 = CC_DESIGN_APPROVAL ( #817, ( #687 ) ) ;
#955 = SHAPE_REPRESENTATION ( 'Kora_Crossbar', ( #102 ), #403 ) ;
#956 = PERSON_AND_ORGANIZATION ( #18446744073709551615, #18446744073709551615 ) ;
#957 = CALENDAR_DATE ( 2026, 2, 7 ) ;
#958 = PERSON_AND_ORGANIZATION_ROLE ( 'design_owner' ) ;
#959 = CC_DESIGN_DATE_AND_TIME_ASSIGNMENT ( #818, #161, ( #226 ) ) ;
#960 = PERSON_AND_ORGANIZATION ( #18446744073709551615, #18446744073709551615 ) ;
#961 = APPROVAL_DATE_TIME ( #601, #413 ) ;
#962 = CC_DESIGN_DATE_AND_TIME_ASSIGNMENT ( #96, #458, ( #1152 ) ) ;
#963 = PERSON_AND_ORGANIZATION ( #18446744073709551615, #18446744073709551615 ) ;
#964 = APPLICATION_PROTOCOL_DEFINITION ( 'international standard', 'config_control_design', 1994, #18 ) ;
#965 = EXTERNAL_SOURCE (IDENTIFIER('') ) ;
#966 = AXIS2_PLACEMENT_3D ( 'NONE', #809, #275, #732 ) ;
#967 = APPROVAL_ROLE ( '' ) ;
#968 = CALENDAR_DATE ( 2026, 2, 7 ) ;
#969 = APPROVAL_PERSON_ORGANIZATION ( #1115, #679, #619 ) ;
#970 = LOCAL_TIME ( 16, 16, 8.000000000000000000, #842 ) ;
#971 = LOCAL_TIME ( 16, 16, 8.000000000000000000, #335 ) ;
#972 = SHAPE_DEFINITION_REPRESENTATION ( #216, #338 ) ;
#973 = APPLIED_DOCUMENT_REFERENCE ( #908,'',( #1078) ) ;
#974 = COORDINATED_UNIVERSAL_TIME_OFFSET ( 8, 0, .BEHIND. ) ;
#975 =( NAMED_UNIT ( * ) PLANE_ANGLE_UNIT ( ) SI_UNIT ( $, .RADIAN. ) );
#976 = CC_DESIGN_DATE_AND_TIME_ASSIGNMENT ( #345, #141, ( #546 ) ) ;
#977 = PERSON_AND_ORGANIZATION ( #18446744073709551615, #18446744073709551615 ) ;
#978 = DOCUMENT_FILE ( 'Kora_Soundboard.STEP' , '', '', #766, '' ,$ ) ;
#979 = PERSON_AND_ORGANIZATION ( #18446744073709551615, #18446744073709551615 ) ;
#980 = DATE_TIME_ROLE ( 'classification_date' ) ;
#981 = UNCERTAINTY_MEASURE_WITH_UNIT (LENGTH_MEASURE( 1.000000000000000082E-05 ), #804, 'distance_accuracy_value', 'NONE');
#982 =( REPRESENTATION_RELATIONSHIP ('NONE','NONE', #632, #1086 ) REPRESENTATION_RELATIONSHIP_WITH_TRANSFORMATION ( #511 )SHAPE_REPRESENTATION_RELATIONSHIP( ) );
#983 = CC_DESIGN_PERSON_AND_ORGANIZATION_ASSIGNMENT ( #262, #630, ( #942 ) ) ;
#984 = APPROVAL_STATUS ( 'not_yet_approved' ) ;
#985 = CALENDAR_DATE ( 2026, 2, 7 ) ;
#986 = APPROVAL_STATUS ( 'not_yet_approved' ) ;
#987 = APPROVAL_PERSON_ORGANIZATION ( #1136, #73, #128 ) ;
#988 = PROPERTY_DEFINITION ('document property','', #193 ) ;
#989 = SECURITY_CLASSIFICATION ( '', '', #374 ) ;
#990 = ORGANIZATION ( 'NAUO-ORG2', 'UNSPECIFIED', 'UNSPECIFIED' ) ;
#991 = DOCUMENT_TYPE ( 'geometry' ) ;
#992 =( NAMED_UNIT ( * ) PLANE_ANGLE_UNIT ( ) SI_UNIT ( $, .RADIAN. ) );
#993 = APPROVAL_DATE_TIME ( #889, #271 ) ;
#994 = PERSON_AND_ORGANIZATION_ROLE ( 'design_owner' ) ;
#995 = CC_DESIGN_PERSON_AND_ORGANIZATION_ASSIGNMENT ( #480, #474, ( #590 ) ) ;
#996 = MECHANICAL_CONTEXT ( 'NONE', #1010, 'mechanical' ) ;
#997 = UNCERTAINTY_MEASURE_WITH_UNIT (LENGTH_MEASURE( 1.000000000000000082E-05 ), #140, 'distance_accuracy_value', 'NONE');
#998 =( NAMED_UNIT ( * ) PLANE_ANGLE_UNIT ( ) SI_UNIT ( $, .RADIAN. ) );
#999 = CALENDAR_DATE ( 2026, 2, 7 ) ;
#1000 = PERSON ( 'NAUO-PER2', 'UNSPECIFIED', 'UNSPECIFIED', ('UNSPECIFIED'), ('UNSPECIFIED'), ('UNSPECIFIED') ) ;
#1001 = SHAPE_DEFINITION_REPRESENTATION ( #17, #788 ) ;
#1002 = PERSON_AND_ORGANIZATION ( #18446744073709551615, #18446744073709551615 ) ;
#1003 = CC_DESIGN_DATE_AND_TIME_ASSIGNMENT ( #574, #119, ( #603 ) ) ;
#1004 = CARTESIAN_POINT ( 'NONE',  ( 0.000000000000000000, 0.000000000000000000, 0.000000000000000000 ) ) ;
#1005 = PERSON_AND_ORGANIZATION ( #179, #331 ) ;
#1006 = DATE_AND_TIME ( #272, #701 ) ;
#1007 = APPLIED_EXTERNAL_IDENTIFICATION_ASSIGNMENT ( 'Kora_Strings.STEP' , #1182, #492,( #95) ) ;
#1008 = DATE_AND_TIME ( #904, #928 ) ;
#1009 = DIRECTION ( 'NONE',  ( 0.000000000000000000, 0.000000000000000000, 1.000000000000000000 ) ) ;
#1010 = APPLICATION_CONTEXT ( 'configuration controlled 3d designs of mechanical parts and assemblies' ) ;
#1011 = AXIS2_PLACEMENT_3D ( 'NONE', #368, #1009, #551 ) ;
#1012 = CC_DESIGN_APPROVAL ( #643, ( #332 ) ) ;
#1013 = APPROVAL_PERSON_ORGANIZATION ( #1076, #651, #820 ) ;
#1014 = APPROVAL_PERSON_ORGANIZATION ( #61, #271, #241 ) ;
#1015 = MECHANICAL_CONTEXT ( 'NONE', #724, 'mechanical' ) ;
#1016 = APPROVAL_DATE_TIME ( #21, #63 ) ;
#1017 = DIRECTION ( 'NONE',  ( 1.000000000000000000, 0.000000000000000000, 0.000000000000000000 ) ) ;
#1018 = PERSON ( 'NAUO-PER4', 'UNSPECIFIED', 'UNSPECIFIED', ('UNSPECIFIED'), ('UNSPECIFIED'), ('UNSPECIFIED') ) ;
#1019 = CC_DESIGN_PERSON_AND_ORGANIZATION_ASSIGNMENT ( #2, #741, ( #888 ) ) ;
#1020 = CONTEXT_DEPENDENT_SHAPE_REPRESENTATION ( #867, #1080 ) ;
#1021 = PERSON_AND_ORGANIZATION ( #18446744073709551615, #18446744073709551615 ) ;
#1022 = SECURITY_CLASSIFICATION_LEVEL ( 'unclassified' ) ;
#1023 = CC_DESIGN_PERSON_AND_ORGANIZATION_ASSIGNMENT ( #352, #432, ( #94 ) ) ;
#1024 = PROPERTY_DEFINITION_REPRESENTATION ( #988, #955 ) ;
#1025 = APPROVAL ( #168, 'UNKNOWN' ) ;
#1026 = APPROVAL_DATE_TIME ( #756, #404 ) ;
#1027 = APPROVAL_DATE_TIME ( #659, #817 ) ;
#1028 = PERSON_AND_ORGANIZATION ( #18446744073709551615, #18446744073709551615 ) ;
#1029 =( NAMED_UNIT ( * ) PLANE_ANGLE_UNIT ( ) SI_UNIT ( $, .RADIAN. ) );
#1030 = DIRECTION ( 'NONE',  ( 1.000000000000000000, 0.000000000000000000, 0.000000000000000000 ) ) ;
#1031 = LOCAL_TIME ( 16, 16, 8.000000000000000000, #1166 ) ;
#1032 = LOCAL_TIME ( 16, 16, 8.000000000000000000, #288 ) ;
#1033 = PRODUCT_DEFINITION_SHAPE ( 'NONE', 'NONE',  #888 ) ;
#1034 = APPROVAL_DATE_TIME ( #493, #73 ) ;
#1035 = LOCAL_TIME ( 16, 16, 8.000000000000000000, #266 ) ;
#1036 = SECURITY_CLASSIFICATION_LEVEL ( 'unclassified' ) ;
#1037 = CC_DESIGN_PERSON_AND_ORGANIZATION_ASSIGNMENT ( #218, #213, ( #118 ) ) ;
#1038 = PERSON_AND_ORGANIZATION ( #18446744073709551615, #18446744073709551615 ) ;
#1039 = IDENTIFICATION_ROLE ( 'external document id and location', $) ;
#1040 = PERSON_AND_ORGANIZATION_ROLE ( 'creator' ) ;
#1041 = DATE_AND_TIME ( #209, #893 ) ;
#1042 = APPROVAL_ROLE ( '' ) ;
#1043 = PRODUCT_DEFINITION_SHAPE ( 'NONE', 'NONE',  #1195 ) ;
#1044 = CC_DESIGN_PERSON_AND_ORGANIZATION_ASSIGNMENT ( #273, #448, ( #427 ) ) ;
#1045 = SHAPE_DEFINITION_REPRESENTATION ( #846, #1126 ) ;
#1046 = IDENTIFICATION_ROLE ( 'external document id and location', $) ;
#1047 = PROPERTY_DEFINITION ('document property','', #978 ) ;
#1048 = AXIS2_PLACEMENT_3D ( 'NONE', #631, #918, #78 ) ;
#1049 = PERSON_AND_ORGANIZATION_ROLE ( 'classification_officer' ) ;
#1050 = CC_DESIGN_APPROVAL ( #442, ( #906 ) ) ;
#1051 = COORDINATED_UNIVERSAL_TIME_OFFSET ( 8, 0, .BEHIND. ) ;
#1052 = APPLICATION_PROTOCOL_DEFINITION ( 'international standard', 'config_control_design', 1994, #863 ) ;
#1053 = CC_DESIGN_APPROVAL ( #482, ( #204 ) ) ;
#1054 = ORGANIZATION ( 'NAUO-ORG6', 'UNSPECIFIED', 'UNSPECIFIED' ) ;
#1055 = CC_DESIGN_DATE_AND_TIME_ASSIGNMENT ( #1119, #208, ( #989 ) ) ;
#1056 = PRODUCT_DEFINITION_SHAPE ( 'NONE', 'NONE',  #906 ) ;
#1057 = DATE_AND_TIME ( #521, #719 ) ;
#1058 = APPLICATION_CONTEXT ( 'configuration controlled 3d designs of mechanical parts and assemblies' ) ;
#1059 = CALENDAR_DATE ( 2026, 2, 7 ) ;
#1060 = PERSON_AND_ORGANIZATION ( #18446744073709551615, #18446744073709551615 ) ;
#1061 = PERSON ( 'NAUO-PER7', 'UNSPECIFIED', 'UNSPECIFIED', ('UNSPECIFIED'), ('UNSPECIFIED'), ('UNSPECIFIED') ) ;
#1062 = CALENDAR_DATE ( 2026, 2, 7 ) ;
#1063 = PROPERTY_DEFINITION_REPRESENTATION ( #487, #338 ) ;
#1064 = APPROVAL_ROLE ( '' ) ;
#1065 = APPROVAL_DATE_TIME ( #333, #482 ) ;
#1066 = DATE_TIME_ROLE ( 'classification_date' ) ;
#1067 = PERSON_AND_ORGANIZATION_ROLE ( 'design_supplier' ) ;
#1068 = LOCAL_TIME ( 16, 16, 8.000000000000000000, #174 ) ;
#1069 = CC_DESIGN_PERSON_AND_ORGANIZATION_ASSIGNMENT ( #10, #26, ( #489 ) ) ;
#1070 = APPROVAL_PERSON_ORGANIZATION ( #381, #881, #1133 ) ;
#1071 = APPROVAL_PERSON_ORGANIZATION ( #1140, #466, #776 ) ;
#1072 = APPLICATION_CONTEXT ( 'configuration controlled 3d designs of mechanical parts and assemblies' ) ;
#1073 = CALENDAR_DATE ( 2026, 2, 7 ) ;
#1074 = APPLIED_DOCUMENT_REFERENCE ( #978,'',( #498) ) ;
#1075 = APPROVAL_ROLE ( '' ) ;
#1076 = PERSON_AND_ORGANIZATION ( #18446744073709551615, #18446744073709551615 ) ;
#1077 =( LENGTH_UNIT ( ) NAMED_UNIT ( * ) SI_UNIT ( $, .METRE. ) );
#1078 = PRODUCT_DEFINITION ( 'General', '', #204, #937 ) ;
#1079 = CARTESIAN_POINT ( 'NONE',  ( 0.000000000000000000, 0.000000000000000000, 0.000000000000000000 ) ) ;
#1080 = PRODUCT_DEFINITION_SHAPE ( 'NONE', 'NONE',  #1197 ) ;
#1081 = PROPERTY_DEFINITION_REPRESENTATION ( #1047, #1126 ) ;
#1082 = APPLICATION_PROTOCOL_DEFINITION ( 'international standard', 'config_control_design', 1994, #211 ) ;
#1083 = APPROVAL_ROLE ( '' ) ;
#1084 = CC_DESIGN_APPROVAL ( #1116, ( #505 ) ) ;
#1085 = SECURITY_CLASSIFICATION_LEVEL ( 'unclassified' ) ;
#1086 = SHAPE_REPRESENTATION ( 'Kora_Handle', ( #297 ), #545 ) ;
#1087 = DATE_AND_TIME ( #170, #103 ) ;
#1088 = AXIS2_PLACEMENT_3D ( 'NONE', #84, #642, #1017 ) ;
#1089 = SHAPE_DEFINITION_REPRESENTATION ( #579, #837 ) ;
#1090 = CC_DESIGN_APPROVAL ( #679, ( #238 ) ) ;
#1091 = CC_DESIGN_APPROVAL ( #881, ( #590 ) ) ;
#1092 = ORGANIZATION ( 'NAUO-ORG4', 'UNSPECIFIED', 'UNSPECIFIED' ) ;
#1093 = DIRECTION ( 'NONE',  ( 0.000000000000000000, 0.000000000000000000, 1.000000000000000000 ) ) ;
#1094 = CC_DESIGN_PERSON_AND_ORGANIZATION_ASSIGNMENT ( #1038, #1143, ( #348 ) ) ;
#1095 = SECURITY_CLASSIFICATION_LEVEL ( 'unclassified' ) ;
#1096 = APPLICATION_PROTOCOL_DEFINITION ( 'international standard', 'config_control_design', 1994, #724 ) ;
#1097 = COORDINATED_UNIVERSAL_TIME_OFFSET ( 8, 0, .BEHIND. ) ;
#1098 = DESIGN_CONTEXT ( 'detailed design', #270, 'design' ) ;
#1099 =( CONVERSION_BASED_UNIT ( 'INCH', #362 ) LENGTH_UNIT ( ) NAMED_UNIT ( #833 ) );
#1100 = DOCUMENT_TYPE ( 'geometry' ) ;
#1101 = LENGTH_MEASURE_WITH_UNIT ( LENGTH_MEASURE( 0.02539999999999999897 ), #257 );
#1102 = PERSON_AND_ORGANIZATION_ROLE ( 'creator' ) ;
#1103 = SECURITY_CLASSIFICATION_LEVEL ( 'unclassified' ) ;
#1104 = DIRECTION ( 'NONE',  ( 1.000000000000000000, 0.000000000000000000, 0.000000000000000000 ) ) ;
#1105 = CARTESIAN_POINT ( 'NONE',  ( 0.000000000000000000, 0.000000000000000000, 0.000000000000000000 ) ) ;
#1106 = APPLICATION_PROTOCOL_DEFINITION ( 'international standard', 'config_control_design', 1994, #270 ) ;
#1107 = APPLIED_EXTERNAL_IDENTIFICATION_ASSIGNMENT ( 'Kora_Crossbar.STEP' , #617, #555,( #193) ) ;
#1108 = PROPERTY_DEFINITION_REPRESENTATION ( #478, #292 ) ;
#1109 = CARTESIAN_POINT ( 'NONE',  ( -3.346456692913386100, -0.7874015748031492068, 1.377952755905512250 ) ) ;
#1110 = APPROVAL ( #446, 'Coincident' ) ;
#1111 = APPROVAL_PERSON_ORGANIZATION ( #536, #1110, #646 ) ;
#1112 = LOCAL_TIME ( 16, 16, 8.000000000000000000, #691 ) ;
#1113 = LOCAL_TIME ( 16, 16, 8.000000000000000000, #608 ) ;
#1114 = DATE_AND_TIME ( #705, #971 ) ;
#1115 = PERSON_AND_ORGANIZATION ( #18446744073709551615, #18446744073709551615 ) ;
#1116 = APPROVAL ( #90, 'UNKNOWN' ) ;
#1117 = ITEM_DEFINED_TRANSFORMATION ( 'NONE', 'NONE', #277,  #102 ) ;
#1118 = DIMENSIONAL_EXPONENTS ( 1.000000000000000000, 0.000000000000000000, 0.000000000000000000, 0.000000000000000000, 0.000000000000000000, 0.000000000000000000, 0.000000000000000000 ) ;
#1119 = DATE_AND_TIME ( #566, #351 ) ;
#1120 = COORDINATED_UNIVERSAL_TIME_OFFSET ( 8, 0, .BEHIND. ) ;
#1121 = DATE_AND_TIME ( #752, #913 ) ;
#1122 = IDENTIFICATION_ROLE ( 'external document id and location', $) ;
#1123 = PRODUCT_RELATED_PRODUCT_CATEGORY ( 'detail', '', ( #502 ) ) ;
#1124 = COORDINATED_UNIVERSAL_TIME_OFFSET ( 8, 0, .BEHIND. ) ;
#1125 = COORDINATED_UNIVERSAL_TIME_OFFSET ( 8, 0, .BEHIND. ) ;
#1126 = SHAPE_REPRESENTATION ( 'Kora_Soundboard', ( #1145 ), #443 ) ;
#1127 = APPROVAL_PERSON_ORGANIZATION ( #641, #222, #636 ) ;
#1128 = PRODUCT_DEFINITION_FORMATION_WITH_SPECIFIED_SOURCE ( 'Symmetric', '', #118, .NOT_KNOWN. ) ;
#1129 = PRODUCT ( 'Kora_Handle', 'Kora_Handle', '', ( #132 ) ) ;
#1130 = CALENDAR_DATE ( 2026, 2, 7 ) ;
#1131 = APPROVAL ( #1164, 'Coincident' ) ;
#1132 = SECURITY_CLASSIFICATION ( '', '', #879 ) ;
#1133 = APPROVAL_ROLE ( '' ) ;
#1134 = CALENDAR_DATE ( 2026, 2, 7 ) ;
#1135 = EXTERNAL_SOURCE (IDENTIFIER('') ) ;
#1136 = PERSON_AND_ORGANIZATION ( #18446744073709551615, #18446744073709551615 ) ;
#1137 = PROPERTY_DEFINITION_REPRESENTATION ( #586, #338 ) ;
#1138 = PERSON_AND_ORGANIZATION_ROLE ( 'creator' ) ;
#1139 = PRODUCT_DEFINITION_SHAPE ( 'NONE', 'NONE',  #1190 ) ;
#1140 = PERSON_AND_ORGANIZATION ( #18446744073709551615, #18446744073709551615 ) ;
#1141 = CC_DESIGN_DATE_AND_TIME_ASSIGNMENT ( #689, #1173, ( #1132 ) ) ;
#1142 = APPROVAL_DATE_TIME ( #773, #588 ) ;
#1143 = PERSON_AND_ORGANIZATION_ROLE ( 'creator' ) ;
#1144 = CC_DESIGN_PERSON_AND_ORGANIZATION_ASSIGNMENT ( #897, #1102, ( #238 ) ) ;
#1145 = AXIS2_PLACEMENT_3D ( 'NONE', #1172, #901, #417 ) ;
#1146 = APPROVAL_PERSON_ORGANIZATION ( #576, #370, #862 ) ;
#1147 = PERSON_AND_ORGANIZATION_ROLE ( 'creator' ) ;
#1148 = LOCAL_TIME ( 16, 16, 8.000000000000000000, #153 ) ;
#1149 = ROLE_ASSOCIATION ( #451, #485 ) ;
#1150 = APPROVAL_STATUS ( 'not_yet_approved' ) ;
#1151 = LOCAL_TIME ( 16, 16, 8.000000000000000000, #560 ) ;
#1152 = SECURITY_CLASSIFICATION ( '', '', #602 ) ;
#1153 = CC_DESIGN_DATE_AND_TIME_ASSIGNMENT ( #1041, #465, ( #647 ) ) ;
#1154 = COORDINATED_UNIVERSAL_TIME_OFFSET ( 8, 0, .BEHIND. ) ;
#1155 = APPROVAL_ROLE ( '' ) ;
#1156 = PERSON_AND_ORGANIZATION ( #18446744073709551615, #18446744073709551615 ) ;
#1157 =( NAMED_UNIT ( * ) PLANE_ANGLE_UNIT ( ) SI_UNIT ( $, .RADIAN. ) );
#1158 = OBJECT_ROLE ('mandatory',$ ) ;
#1159 = PERSON_AND_ORGANIZATION ( #18446744073709551615, #18446744073709551615 ) ;
#1160 = APPROVAL ( #341, 'Coincident' ) ;
#1161 = PROPERTY_DEFINITION_REPRESENTATION ( #306, #837 ) ;
#1162 = APPROVAL_ROLE ( '' ) ;
#1163 =( LENGTH_UNIT ( ) NAMED_UNIT ( * ) SI_UNIT ( $, .METRE. ) );
#1164 = APPROVAL_STATUS ( 'not_yet_approved' ) ;
#1165 = DATE_AND_TIME ( #722, #301 ) ;
#1166 = COORDINATED_UNIVERSAL_TIME_OFFSET ( 8, 0, .BEHIND. ) ;
#1167 = CC_DESIGN_APPROVAL ( #477, ( #888 ) ) ;
#1168 = DATE_TIME_ROLE ( 'creation_date' ) ;
#1169 = CC_DESIGN_SECURITY_CLASSIFICATION ( #186, ( #590 ) ) ;
#1170 = DIRECTION ( 'NONE',  ( 1.000000000000000000, 0.000000000000000000, 0.000000000000000000 ) ) ;
#1171 = CC_DESIGN_APPROVAL ( #1025, ( #491 ) ) ;
#1172 = CARTESIAN_POINT ( 'NONE',  ( 0.000000000000000000, 0.000000000000000000, 0.000000000000000000 ) ) ;
#1173 = DATE_TIME_ROLE ( 'classification_date' ) ;
#1174 = SHAPE_DEFINITION_REPRESENTATION ( #1056, #955 ) ;
#1175 = COORDINATED_UNIVERSAL_TIME_OFFSET ( 8, 0, .BEHIND. ) ;
#1176 =( CONVERSION_BASED_UNIT ( 'INCH', #433 ) LENGTH_UNIT ( ) NAMED_UNIT ( #747 ) );
#1177 = PROPERTY_DEFINITION ('document property','', #1185 ) ;
#1178 = ROLE_ASSOCIATION ( #57, #54 ) ;
#1179 = PERSON_AND_ORGANIZATION ( #18446744073709551615, #18446744073709551615 ) ;
#1180 = CALENDAR_DATE ( 2026, 2, 7 ) ;
#1181 = UNCERTAINTY_MEASURE_WITH_UNIT (LENGTH_MEASURE( 1.000000000000000082E-05 ), #312, 'distance_accuracy_value', 'NONE');
#1182 = IDENTIFICATION_ROLE ( 'external document id and location', $) ;
#1183 = CC_DESIGN_PERSON_AND_ORGANIZATION_ASSIGNMENT ( #55, #62, ( #332 ) ) ;
#1184 = DIRECTION ( 'NONE',  ( 0.000000000000000000, 0.000000000000000000, 1.000000000000000000 ) ) ;
#1185 = DOCUMENT_FILE ( 'Kora_Tailpiece.STEP' , '', '', #87, '' ,$ ) ;
#1186 = APPLICATION_PROTOCOL_DEFINITION ( 'international standard', 'config_control_design', 1994, #599 ) ;
#1187 = DIRECTION ( 'NONE',  ( 0.000000000000000000, 0.000000000000000000, 1.000000000000000000 ) ) ;
#1188 = ITEM_DEFINED_TRANSFORMATION ( 'NONE', 'NONE', #966,  #258 ) ;
#1189 = NEXT_ASSEMBLY_USAGE_OCCURRENCE ( 'NAUO1', ' ', ' ', #769, #736, $ ) ;
#1190 = NEXT_ASSEMBLY_USAGE_OCCURRENCE ( 'NAUO2', ' ', ' ', #769, #94, $ ) ;
#1191 = NEXT_ASSEMBLY_USAGE_OCCURRENCE ( 'NAUO3', ' ', ' ', #769, #1078, $ ) ;
#1192 = NEXT_ASSEMBLY_USAGE_OCCURRENCE ( 'NAUO4', ' ', ' ', #769, #603, $ ) ;
#1193 = NEXT_ASSEMBLY_USAGE_OCCURRENCE ( 'NAUO5', ' ', ' ', #769, #1078, $ ) ;
#1194 = NEXT_ASSEMBLY_USAGE_OCCURRENCE ( 'NAUO6', ' ', ' ', #769, #498, $ ) ;
#1195 = NEXT_ASSEMBLY_USAGE_OCCURRENCE ( 'NAUO7', ' ', ' ', #769, #888, $ ) ;
#1196 = NEXT_ASSEMBLY_USAGE_OCCURRENCE ( 'NAUO8', ' ', ' ', #769, #419, $ ) ;
#1197 = NEXT_ASSEMBLY_USAGE_OCCURRENCE ( 'NAUO9', ' ', ' ', #769, #906, $ ) ;
ENDSEC;
END-ISO-10303-21;
