ISO-10303-21;
HEADER;
FILE_DESCRIPTION (( 'STEP AP203' ),
    '1' );
FILE_NAME ('Kora_Neck.STEP',
    '2026-07-02T23:16:07',
    ( '' ),
    ( '' ),
    'SwSTEP 2.0',
    'SolidWorks 2026',
    '' );
FILE_SCHEMA (( 'CONFIG_CONTROL_DESIGN' ));
ENDSEC;

DATA;
#1 = APPLICATION_CONTEXT ( 'configuration controlled 3d designs of mechanical parts and assemblies' ) ;
#2 = DIRECTION ( 'NONE',  ( 1.000000000000000000, 0.000000000000000000, 0.000000000000000000 ) ) ;
#3 = ORIENTED_EDGE ( 'NONE', *, *, #47, .T. ) ;
#4 = SECURITY_CLASSIFICATION_LEVEL ( 'unclassified' ) ;
#5 = FACE_OUTER_BOUND ( 'NONE', #18, .T. ) ;
#6 = CALENDAR_DATE ( 2026, 2, 7 ) ;
#7 = DIRECTION ( 'NONE',  ( 0.000000000000000000, 0.000000000000000000, 1.000000000000000000 ) ) ;
#8 = DATE_TIME_ROLE ( 'classification_date' ) ;
#9 = LENGTH_MEASURE_WITH_UNIT ( LENGTH_MEASURE( 0.02539999999999999897 ), #145 );
#10 = COORDINATED_UNIVERSAL_TIME_OFFSET ( 8, 0, .BEHIND. ) ;
#11 = CARTESIAN_POINT ( 'NONE',  ( 0.8661417322834645827, 0.000000000000000000, 0.000000000000000000 ) ) ;
#12 = APPLICATION_PROTOCOL_DEFINITION ( 'international standard', 'config_control_design', 1994, #1 ) ;
#13 = CC_DESIGN_SECURITY_CLASSIFICATION ( #69, ( #63 ) ) ;
#14 = DATE_AND_TIME ( #27, #32 ) ;
#15 = CC_DESIGN_PERSON_AND_ORGANIZATION_ASSIGNMENT ( #90, #108, ( #69 ) ) ;
#16 = APPROVAL_DATE_TIME ( #94, #43 ) ;
#17 = AXIS2_PLACEMENT_3D ( 'NONE', #44, #143, #72 ) ;
#18 = EDGE_LOOP ( 'NONE', ( #167, #55, #138, #121 ) ) ;
#19 = ORIENTED_EDGE ( 'NONE', *, *, #139, .F. ) ;
#20 = VECTOR ( 'NONE', #34, 39.37007874015748854 ) ;
#21 = APPROVAL_ROLE ( '' ) ;
#22 = PERSON_AND_ORGANIZATION ( #18446744073709551615, #18446744073709551615 ) ;
#23 = COORDINATED_UNIVERSAL_TIME_OFFSET ( 8, 0, .BEHIND. ) ;
#24 = PLANE ( 'NONE',  #87 ) ;
#25 = ADVANCED_FACE ( 'NONE', ( #5 ), #150, .T. ) ;
#26 = PERSON_AND_ORGANIZATION ( #18446744073709551615, #18446744073709551615 ) ;
#27 = CALENDAR_DATE ( 2026, 2, 7 ) ;
#28 = DIRECTION ( 'NONE',  ( -0.003839714919242613166, -4.702294585488803718E-19, -0.9999926282674981293 ) ) ;
#29 = DIRECTION ( 'NONE',  ( 1.000000000000000000, 0.000000000000000000, 0.000000000000000000 ) ) ;
#30 = CALENDAR_DATE ( 2026, 2, 7 ) ;
#31 = ORIENTED_EDGE ( 'NONE', *, *, #70, .F. ) ;
#32 = LOCAL_TIME ( 16, 16, 7.000000000000000000, #36 ) ;
#33 = VERTEX_POINT ( 'NONE', #123 ) ;
#34 = DIRECTION ( 'NONE',  ( 0.003839714919242613166, 0.000000000000000000, -0.9999926282674981293 ) ) ;
#35 = LOCAL_TIME ( 16, 16, 7.000000000000000000, #137 ) ;
#36 = COORDINATED_UNIVERSAL_TIME_OFFSET ( 8, 0, .BEHIND. ) ;
#37 = PERSON_AND_ORGANIZATION_ROLE ( 'design_owner' ) ;
#38 = CONICAL_SURFACE ( 'NONE', #140, 0.8661417322834645827, 0.003839724354387524623 ) ;
#39 = DESIGN_CONTEXT ( 'detailed design', #156, 'design' ) ;
#40 = EDGE_CURVE ( 'NONE', #154, #33, #68, .T. ) ;
#41 = CARTESIAN_POINT ( 'NONE',  ( 0.000000000000000000, 0.000000000000000000, 51.18110236220472586 ) ) ;
#42 =( GEOMETRIC_REPRESENTATION_CONTEXT ( 3 ) GLOBAL_UNCERTAINTY_ASSIGNED_CONTEXT ( ( #116 ) ) GLOBAL_UNIT_ASSIGNED_CONTEXT ( ( #127, #113, #50 ) ) REPRESENTATION_CONTEXT ( 'NONE', 'WORKASPACE' ) );
#43 = APPROVAL ( #79, 'Coincident' ) ;
#44 = CARTESIAN_POINT ( 'NONE',  ( 0.000000000000000000, 0.000000000000000000, 0.000000000000000000 ) ) ;
#45 = ADVANCED_BREP_SHAPE_REPRESENTATION ( 'Kora_Neck', ( #103, #105 ), #42 ) ;
#46 = APPROVAL_DATE_TIME ( #169, #176 ) ;
#47 = EDGE_CURVE ( 'NONE', #33, #154, #148, .T. ) ;
#48 = FACE_OUTER_BOUND ( 'NONE', #98, .T. ) ;
#49 = DATE_AND_TIME ( #71, #163 ) ;
#50 =( NAMED_UNIT ( * ) SI_UNIT ( $, .STERADIAN. ) SOLID_ANGLE_UNIT ( ) );
#51 = PRODUCT_RELATED_PRODUCT_CATEGORY ( 'detail', '', ( #129 ) ) ;
#52 = CARTESIAN_POINT ( 'NONE',  ( 0.000000000000000000, 0.000000000000000000, 0.000000000000000000 ) ) ;
#53 = CARTESIAN_POINT ( 'NONE',  ( -0.6696194412502636251, -9.403825027114315613E-17, 51.18110236220472586 ) ) ;
#54 = DIMENSIONAL_EXPONENTS ( 1.000000000000000000, 0.000000000000000000, 0.000000000000000000, 0.000000000000000000, 0.000000000000000000, 0.000000000000000000, 0.000000000000000000 ) ;
#55 = ORIENTED_EDGE ( 'NONE', *, *, #47, .F. ) ;
#56 = APPROVAL_PERSON_ORGANIZATION ( #59, #176, #128 ) ;
#57 = DIRECTION ( 'NONE',  ( 1.000000000000000000, 0.000000000000000000, 0.000000000000000000 ) ) ;
#58 = DIRECTION ( 'NONE',  ( 1.000000000000000000, 0.000000000000000000, -0.000000000000000000 ) ) ;
#59 = PERSON_AND_ORGANIZATION ( #18446744073709551615, #18446744073709551615 ) ;
#60 = CIRCLE ( 'NONE', #110, 0.8661417322834645827 ) ;
#61 = APPROVAL_PERSON_ORGANIZATION ( #26, #43, #21 ) ;
#62 = CARTESIAN_POINT ( 'NONE',  ( 0.000000000000000000, 0.000000000000000000, 0.000000000000000000 ) ) ;
#63 = PRODUCT_DEFINITION_FORMATION_WITH_SPECIFIED_SOURCE ( 'Symmetric', '', #129, .NOT_KNOWN. ) ;
#64 = PRODUCT_DEFINITION_SHAPE ( 'NONE', 'NONE',  #91 ) ;
#65 = CC_DESIGN_DATE_AND_TIME_ASSIGNMENT ( #49, #8, ( #69 ) ) ;
#66 = ORIENTED_EDGE ( 'NONE', *, *, #165, .T. ) ;
#67 = EDGE_CURVE ( 'NONE', #154, #89, #83, .T. ) ;
#68 = CIRCLE ( 'NONE', #172, 0.6696194412502636251 ) ;
#69 = SECURITY_CLASSIFICATION ( '', '', #4 ) ;
#70 = EDGE_CURVE ( 'NONE', #153, #89, #60, .T. ) ;
#71 = CALENDAR_DATE ( 2026, 2, 7 ) ;
#72 = DIRECTION ( 'NONE',  ( 1.000000000000000000, 0.000000000000000000, 0.000000000000000000 ) ) ;
#73 = DIRECTION ( 'NONE',  ( -0.000000000000000000, -0.000000000000000000, -1.000000000000000000 ) ) ;
#74 = VECTOR ( 'NONE', #28, 39.37007874015748854 ) ;
#75 = DIRECTION ( 'NONE',  ( 1.000000000000000000, 0.000000000000000000, -0.000000000000000000 ) ) ;
#76 = CC_DESIGN_PERSON_AND_ORGANIZATION_ASSIGNMENT ( #125, #141, ( #63 ) ) ;
#77 = FACE_OUTER_BOUND ( 'NONE', #85, .T. ) ;
#78 = DIRECTION ( 'NONE',  ( 1.000000000000000000, 0.000000000000000000, 0.000000000000000000 ) ) ;
#79 = APPROVAL_STATUS ( 'not_yet_approved' ) ;
#80 = ADVANCED_FACE ( 'NONE', ( #171 ), #112, .T. ) ;
#81 = CARTESIAN_POINT ( 'NONE',  ( 0.000000000000000000, 0.000000000000000000, 0.000000000000000000 ) ) ;
#82 = ORIENTED_EDGE ( 'NONE', *, *, #40, .T. ) ;
#83 = LINE ( 'NONE', #97, #74 ) ;
#84 = DATE_AND_TIME ( #30, #35 ) ;
#85 = EDGE_LOOP ( 'NONE', ( #168, #106, #66, #19 ) ) ;
#86 = APPROVAL_DATE_TIME ( #84, #100 ) ;
#87 = AXIS2_PLACEMENT_3D ( 'NONE', #144, #174, #58 ) ;
#88 = LOCAL_TIME ( 16, 16, 7.000000000000000000, #10 ) ;
#89 = VERTEX_POINT ( 'NONE', #157 ) ;
#90 = PERSON_AND_ORGANIZATION ( #18446744073709551615, #18446744073709551615 ) ;
#91 = PRODUCT_DEFINITION ( 'General', '', #63, #39 ) ;
#92 = DIRECTION ( 'NONE',  ( 1.000000000000000000, 0.000000000000000000, 0.000000000000000000 ) ) ;
#93 = DIRECTION ( 'NONE',  ( 0.000000000000000000, 0.000000000000000000, 1.000000000000000000 ) ) ;
#94 = DATE_AND_TIME ( #149, #120 ) ;
#95 = COORDINATED_UNIVERSAL_TIME_OFFSET ( 8, 0, .BEHIND. ) ;
#96 = AXIS2_PLACEMENT_3D ( 'NONE', #155, #93, #75 ) ;
#97 = CARTESIAN_POINT ( 'NONE',  ( -0.8661417322834645827, -1.060717700048888597E-16, 0.000000000000000000 ) ) ;
#98 = EDGE_LOOP ( 'NONE', ( #31, #107 ) ) ;
#99 = SHAPE_DEFINITION_REPRESENTATION ( #64, #45 ) ;
#100 = APPROVAL ( #117, 'Coincident' ) ;
#101 = DIRECTION ( 'NONE',  ( 0.000000000000000000, 0.000000000000000000, 1.000000000000000000 ) ) ;
#102 = AXIS2_PLACEMENT_3D ( 'NONE', #41, #151, #29 ) ;
#103 = MANIFOLD_SOLID_BREP ( 'NeckPole', #126 ) ;
#104 = CC_DESIGN_PERSON_AND_ORGANIZATION_ASSIGNMENT ( #160, #37, ( #129 ) ) ;
#105 = AXIS2_PLACEMENT_3D ( 'NONE', #130, #158, #78 ) ;
#106 = ORIENTED_EDGE ( 'NONE', *, *, #67, .T. ) ;
#107 = ORIENTED_EDGE ( 'NONE', *, *, #165, .F. ) ;
#108 = PERSON_AND_ORGANIZATION_ROLE ( 'classification_officer' ) ;
#109 = ADVANCED_FACE ( 'NONE', ( #48 ), #24, .F. ) ;
#110 = AXIS2_PLACEMENT_3D ( 'NONE', #81, #118, #2 ) ;
#111 = CC_DESIGN_APPROVAL ( #43, ( #91 ) ) ;
#112 = PLANE ( 'NONE',  #96 ) ;
#113 =( NAMED_UNIT ( * ) PLANE_ANGLE_UNIT ( ) SI_UNIT ( $, .RADIAN. ) );
#114 = LINE ( 'NONE', #11, #20 ) ;
#115 = DATE_TIME_ROLE ( 'creation_date' ) ;
#116 = UNCERTAINTY_MEASURE_WITH_UNIT (LENGTH_MEASURE( 1.000000000000000082E-05 ), #127, 'distance_accuracy_value', 'NONE');
#117 = APPROVAL_STATUS ( 'not_yet_approved' ) ;
#118 = DIRECTION ( 'NONE',  ( 0.000000000000000000, 0.000000000000000000, 1.000000000000000000 ) ) ;
#119 = EDGE_LOOP ( 'NONE', ( #3, #82 ) ) ;
#120 = LOCAL_TIME ( 16, 16, 7.000000000000000000, #95 ) ;
#121 = ORIENTED_EDGE ( 'NONE', *, *, #70, .T. ) ;
#122 = APPROVAL_STATUS ( 'not_yet_approved' ) ;
#123 = CARTESIAN_POINT ( 'NONE',  ( 0.6696194412502636251, 0.000000000000000000, 51.18110236220472586 ) ) ;
#124 = PERSON_AND_ORGANIZATION_ROLE ( 'design_supplier' ) ;
#125 = PERSON_AND_ORGANIZATION ( #18446744073709551615, #18446744073709551615 ) ;
#126 = CLOSED_SHELL ( 'NONE', ( #162, #25, #80, #109 ) ) ;
#127 =( CONVERSION_BASED_UNIT ( 'INCH', #9 ) LENGTH_UNIT ( ) NAMED_UNIT ( #54 ) );
#128 = APPROVAL_ROLE ( '' ) ;
#129 = PRODUCT ( 'Kora_Neck', 'Kora_Neck', '', ( #131 ) ) ;
#130 = CARTESIAN_POINT ( 'NONE',  ( 0.000000000000000000, 0.000000000000000000, 0.000000000000000000 ) ) ;
#131 = MECHANICAL_CONTEXT ( 'NONE', #1, 'mechanical' ) ;
#132 = AXIS2_PLACEMENT_3D ( 'NONE', #52, #101, #92 ) ;
#133 = PERSON_AND_ORGANIZATION ( #18446744073709551615, #18446744073709551615 ) ;
#134 = CC_DESIGN_DATE_AND_TIME_ASSIGNMENT ( #14, #115, ( #91 ) ) ;
#135 = APPROVAL_PERSON_ORGANIZATION ( #133, #100, #164 ) ;
#136 = CC_DESIGN_PERSON_AND_ORGANIZATION_ASSIGNMENT ( #22, #124, ( #63 ) ) ;
#137 = COORDINATED_UNIVERSAL_TIME_OFFSET ( 8, 0, .BEHIND. ) ;
#138 = ORIENTED_EDGE ( 'NONE', *, *, #139, .T. ) ;
#139 = EDGE_CURVE ( 'NONE', #33, #153, #114, .T. ) ;
#140 = AXIS2_PLACEMENT_3D ( 'NONE', #62, #73, #146 ) ;
#141 = PERSON_AND_ORGANIZATION_ROLE ( 'creator' ) ;
#142 = CC_DESIGN_PERSON_AND_ORGANIZATION_ASSIGNMENT ( #159, #161, ( #91 ) ) ;
#143 = DIRECTION ( 'NONE',  ( -0.000000000000000000, -0.000000000000000000, -1.000000000000000000 ) ) ;
#144 = CARTESIAN_POINT ( 'NONE',  ( 0.000000000000000000, 0.000000000000000000, 0.000000000000000000 ) ) ;
#145 =( LENGTH_UNIT ( ) NAMED_UNIT ( * ) SI_UNIT ( $, .METRE. ) );
#146 = DIRECTION ( 'NONE',  ( 1.000000000000000000, 0.000000000000000000, 0.000000000000000000 ) ) ;
#147 = APPLICATION_PROTOCOL_DEFINITION ( 'international standard', 'config_control_design', 1994, #156 ) ;
#148 = CIRCLE ( 'NONE', #102, 0.6696194412502636251 ) ;
#149 = CALENDAR_DATE ( 2026, 2, 7 ) ;
#150 = CONICAL_SURFACE ( 'NONE', #17, 0.8661417322834645827, 0.003839724354387524623 ) ;
#151 = DIRECTION ( 'NONE',  ( 0.000000000000000000, 0.000000000000000000, 1.000000000000000000 ) ) ;
#152 = CARTESIAN_POINT ( 'NONE',  ( 0.000000000000000000, 0.000000000000000000, 51.18110236220472586 ) ) ;
#153 = VERTEX_POINT ( 'NONE', #170 ) ;
#154 = VERTEX_POINT ( 'NONE', #53 ) ;
#155 = CARTESIAN_POINT ( 'NONE',  ( 0.000000000000000000, 0.000000000000000000, 51.18110236220472586 ) ) ;
#156 = APPLICATION_CONTEXT ( 'configuration controlled 3d designs of mechanical parts and assemblies' ) ;
#157 = CARTESIAN_POINT ( 'NONE',  ( -0.8661417322834645827, -1.060717700048888597E-16, 0.000000000000000000 ) ) ;
#158 = DIRECTION ( 'NONE',  ( 0.000000000000000000, 0.000000000000000000, 1.000000000000000000 ) ) ;
#159 = PERSON_AND_ORGANIZATION ( #18446744073709551615, #18446744073709551615 ) ;
#160 = PERSON_AND_ORGANIZATION ( #18446744073709551615, #18446744073709551615 ) ;
#161 = PERSON_AND_ORGANIZATION_ROLE ( 'creator' ) ;
#162 = ADVANCED_FACE ( 'NONE', ( #77 ), #38, .T. ) ;
#163 = LOCAL_TIME ( 16, 16, 7.000000000000000000, #23 ) ;
#164 = APPROVAL_ROLE ( '' ) ;
#165 = EDGE_CURVE ( 'NONE', #89, #153, #175, .T. ) ;
#166 = CC_DESIGN_APPROVAL ( #100, ( #63 ) ) ;
#167 = ORIENTED_EDGE ( 'NONE', *, *, #67, .F. ) ;
#168 = ORIENTED_EDGE ( 'NONE', *, *, #40, .F. ) ;
#169 = DATE_AND_TIME ( #6, #88 ) ;
#170 = CARTESIAN_POINT ( 'NONE',  ( 0.8661417322834645827, 0.000000000000000000, 0.000000000000000000 ) ) ;
#171 = FACE_OUTER_BOUND ( 'NONE', #119, .T. ) ;
#172 = AXIS2_PLACEMENT_3D ( 'NONE', #152, #7, #57 ) ;
#173 = CC_DESIGN_APPROVAL ( #176, ( #69 ) ) ;
#174 = DIRECTION ( 'NONE',  ( 0.000000000000000000, 0.000000000000000000, 1.000000000000000000 ) ) ;
#175 = CIRCLE ( 'NONE', #132, 0.8661417322834645827 ) ;
#176 = APPROVAL ( #122, 'Coincident' ) ;
ENDSEC;
END-ISO-10303-21;
