ISO-10303-21;
HEADER;
FILE_DESCRIPTION (( 'STEP AP203' ),
    '1' );
FILE_NAME ('Kora_Bowl.STEP',
    '2026-07-02T23:16:07',
    ( '' ),
    ( '' ),
    'SwSTEP 2.0',
    'SolidWorks 2026',
    '' );
FILE_SCHEMA (( 'CONFIG_CONTROL_DESIGN' ));
ENDSEC;

DATA;
#1 = PERSON_AND_ORGANIZATION ( #18446744073709551615, #18446744073709551615 ) ;
#2 = ORIENTED_EDGE ( 'NONE', *, *, #32, .F. ) ;
#3 = VERTEX_POINT ( 'NONE', #176 ) ;
#4 = ORIENTED_EDGE ( 'NONE', *, *, #150, .T. ) ;
#5 = CALENDAR_DATE ( 2026, 2, 7 ) ;
#6 = DIRECTION ( 'NONE',  ( 0.000000000000000000, 0.000000000000000000, -1.000000000000000000 ) ) ;
#7 = DATE_AND_TIME ( #144, #76 ) ;
#8 = CARTESIAN_POINT ( 'NONE',  ( 0.000000000000000000, 0.3607480314960630485, 0.000000000000000000 ) ) ;
#9 = APPROVAL_STATUS ( 'not_yet_approved' ) ;
#10 = UNCERTAINTY_MEASURE_WITH_UNIT (LENGTH_MEASURE( 1.000000000000000082E-05 ), #42, 'distance_accuracy_value', 'NONE');
#11 = DIRECTION ( 'NONE',  ( 0.000000000000000000, 0.000000000000000000, -1.000000000000000000 ) ) ;
#12 = SPHERICAL_SURFACE ( 'NONE', #156, 9.848923740290800311 ) ;
#13 = LOCAL_TIME ( 16, 16, 7.000000000000000000, #117 ) ;
#14 = DIRECTION ( 'NONE',  ( -0.000000000000000000, -1.000000000000000000, -0.000000000000000000 ) ) ;
#15 = CC_DESIGN_APPROVAL ( #92, ( #146 ) ) ;
#16 = LENGTH_MEASURE_WITH_UNIT ( LENGTH_MEASURE( 0.02539999999999999897 ), #182 );
#17 = PERSON_AND_ORGANIZATION_ROLE ( 'classification_officer' ) ;
#18 = DATE_AND_TIME ( #94, #152 ) ;
#19 = DATE_AND_TIME ( #112, #125 ) ;
#20 = ORIENTED_EDGE ( 'NONE', *, *, #150, .F. ) ;
#21 = CLOSED_SHELL ( 'NONE', ( #194, #161, #126, #175, #54 ) ) ;
#22 = DIRECTION ( 'NONE',  ( 0.000000000000000000, 0.000000000000000000, 1.000000000000000000 ) ) ;
#23 = EDGE_CURVE ( 'NONE', #141, #79, #188, .T. ) ;
#24 = CC_DESIGN_APPROVAL ( #104, ( #187 ) ) ;
#25 = FACE_OUTER_BOUND ( 'NONE', #80, .T. ) ;
#26 = MECHANICAL_CONTEXT ( 'NONE', #60, 'mechanical' ) ;
#27 = CARTESIAN_POINT ( 'NONE',  ( 0.000000000000000000, 0.000000000000000000, 0.000000000000000000 ) ) ;
#28 = FACE_OUTER_BOUND ( 'NONE', #98, .T. ) ;
#29 = SPHERICAL_SURFACE ( 'NONE', #180, 10.16388437021205959 ) ;
#30 = APPROVAL_PERSON_ORGANIZATION ( #1, #92, #191 ) ;
#31 = APPROVAL_PERSON_ORGANIZATION ( #142, #104, #100 ) ;
#32 = EDGE_CURVE ( 'NONE', #79, #131, #35, .T. ) ;
#33 = PERSON_AND_ORGANIZATION ( #18446744073709551615, #18446744073709551615 ) ;
#34 = COORDINATED_UNIVERSAL_TIME_OFFSET ( 8, 0, .BEHIND. ) ;
#35 = CIRCLE ( 'NONE', #41, 10.16388437021205959 ) ;
#36 = PERSON_AND_ORGANIZATION_ROLE ( 'design_supplier' ) ;
#37 = EDGE_LOOP ( 'NONE', ( #157, #64, #4 ) ) ;
#38 = CC_DESIGN_PERSON_AND_ORGANIZATION_ASSIGNMENT ( #49, #119, ( #187 ) ) ;
#39 = ORIENTED_EDGE ( 'NONE', *, *, #168, .F. ) ;
#40 = DIRECTION ( 'NONE',  ( 0.000000000000000000, 0.000000000000000000, -1.000000000000000000 ) ) ;
#41 = AXIS2_PLACEMENT_3D ( 'NONE', #114, #164, #201 ) ;
#42 =( CONVERSION_BASED_UNIT ( 'INCH', #16 ) LENGTH_UNIT ( ) NAMED_UNIT ( #205 ) );
#43 = CARTESIAN_POINT ( 'NONE',  ( 6.223584230442005349E-16, -9.803136338715995990, 0.000000000000000000 ) ) ;
#44 = ADVANCED_BREP_SHAPE_REPRESENTATION ( 'Kora_Bowl', ( #155, #153 ), #65 ) ;
#45 = ORIENTED_EDGE ( 'NONE', *, *, #130, .F. ) ;
#46 = APPROVAL_STATUS ( 'not_yet_approved' ) ;
#47 = CC_DESIGN_PERSON_AND_ORGANIZATION_ASSIGNMENT ( #33, #36, ( #146 ) ) ;
#48 = ORIENTED_EDGE ( 'NONE', *, *, #170, .T. ) ;
#49 = PERSON_AND_ORGANIZATION ( #18446744073709551615, #18446744073709551615 ) ;
#50 = APPROVAL_PERSON_ORGANIZATION ( #62, #203, #159 ) ;
#51 = DIRECTION ( 'NONE',  ( 0.000000000000000000, 0.000000000000000000, 1.000000000000000000 ) ) ;
#52 = DIRECTION ( 'NONE',  ( 0.000000000000000000, 0.000000000000000000, 1.000000000000000000 ) ) ;
#53 = SPHERICAL_SURFACE ( 'NONE', #133, 10.16388437021205959 ) ;
#54 = ADVANCED_FACE ( 'NONE', ( #56 ), #108, .F. ) ;
#55 = CIRCLE ( 'NONE', #90, 9.842314753137872074 ) ;
#56 = FACE_OUTER_BOUND ( 'NONE', #37, .T. ) ;
#57 = DIRECTION ( 'NONE',  ( 1.000000000000000000, 0.000000000000000000, 0.000000000000000000 ) ) ;
#58 = CC_DESIGN_PERSON_AND_ORGANIZATION_ASSIGNMENT ( #113, #17, ( #138 ) ) ;
#59 = CC_DESIGN_SECURITY_CLASSIFICATION ( #138, ( #146 ) ) ;
#60 = APPLICATION_CONTEXT ( 'configuration controlled 3d designs of mechanical parts and assemblies' ) ;
#61 = CIRCLE ( 'NONE', #109, 10.16388437021205959 ) ;
#62 = PERSON_AND_ORGANIZATION ( #18446744073709551615, #18446744073709551615 ) ;
#63 = ORIENTED_EDGE ( 'NONE', *, *, #95, .F. ) ;
#64 = ORIENTED_EDGE ( 'NONE', *, *, #207, .F. ) ;
#65 =( GEOMETRIC_REPRESENTATION_CONTEXT ( 3 ) GLOBAL_UNCERTAINTY_ASSIGNED_CONTEXT ( ( #10 ) ) GLOBAL_UNIT_ASSIGNED_CONTEXT ( ( #42, #99, #103 ) ) REPRESENTATION_CONTEXT ( 'NONE', 'WORKASPACE' ) );
#66 = ORIENTED_EDGE ( 'NONE', *, *, #95, .T. ) ;
#67 = ORIENTED_EDGE ( 'NONE', *, *, #23, .T. ) ;
#68 = VERTEX_POINT ( 'NONE', #145 ) ;
#69 = FACE_BOUND ( 'NONE', #118, .T. ) ;
#70 = APPLICATION_PROTOCOL_DEFINITION ( 'international standard', 'config_control_design', 1994, #154 ) ;
#71 = CARTESIAN_POINT ( 'NONE',  ( 0.000000000000000000, 0.3607480314960630485, 0.000000000000000000 ) ) ;
#72 = PERSON_AND_ORGANIZATION ( #18446744073709551615, #18446744073709551615 ) ;
#73 = DIRECTION ( 'NONE',  ( 0.000000000000000000, 1.000000000000000000, 0.000000000000000000 ) ) ;
#74 = AXIS2_PLACEMENT_3D ( 'NONE', #27, #178, #11 ) ;
#75 = DIRECTION ( 'NONE',  ( 0.000000000000000000, 0.000000000000000000, 1.000000000000000000 ) ) ;
#76 = LOCAL_TIME ( 16, 16, 7.000000000000000000, #84 ) ;
#77 = AXIS2_PLACEMENT_3D ( 'NONE', #102, #162, #6 ) ;
#78 = COORDINATED_UNIVERSAL_TIME_OFFSET ( 8, 0, .BEHIND. ) ;
#79 = VERTEX_POINT ( 'NONE', #134 ) ;
#80 = EDGE_LOOP ( 'NONE', ( #66, #195, #2 ) ) ;
#81 = CC_DESIGN_APPROVAL ( #203, ( #138 ) ) ;
#82 = ORIENTED_EDGE ( 'NONE', *, *, #23, .F. ) ;
#83 = DATE_AND_TIME ( #5, #208 ) ;
#84 = COORDINATED_UNIVERSAL_TIME_OFFSET ( 8, 0, .BEHIND. ) ;
#85 = DIRECTION ( 'NONE',  ( 0.000000000000000000, 0.000000000000000000, 1.000000000000000000 ) ) ;
#86 = CARTESIAN_POINT ( 'NONE',  ( 0.000000000000000000, 0.3607480314960630485, 0.000000000000000000 ) ) ;
#87 = CC_DESIGN_DATE_AND_TIME_ASSIGNMENT ( #7, #97, ( #187 ) ) ;
#88 = CARTESIAN_POINT ( 'NONE',  ( 0.000000000000000000, 0.3607480314960630485, 0.000000000000000000 ) ) ;
#89 = FACE_OUTER_BOUND ( 'NONE', #128, .T. ) ;
#90 = AXIS2_PLACEMENT_3D ( 'NONE', #107, #183, #75 ) ;
#91 = DIRECTION ( 'NONE',  ( 1.000000000000000000, 0.000000000000000000, 0.000000000000000000 ) ) ;
#92 = APPROVAL ( #46, 'Coincident' ) ;
#93 = APPROVAL_STATUS ( 'not_yet_approved' ) ;
#94 = CALENDAR_DATE ( 2026, 2, 7 ) ;
#95 = EDGE_CURVE ( 'NONE', #79, #141, #166, .T. ) ;
#96 = ORIENTED_EDGE ( 'NONE', *, *, #130, .T. ) ;
#97 = DATE_TIME_ROLE ( 'creation_date' ) ;
#98 = EDGE_LOOP ( 'NONE', ( #63, #82 ) ) ;
#99 =( NAMED_UNIT ( * ) PLANE_ANGLE_UNIT ( ) SI_UNIT ( $, .RADIAN. ) );
#100 = APPROVAL_ROLE ( '' ) ;
#101 = CIRCLE ( 'NONE', #120, 9.848923740290800311 ) ;
#102 = CARTESIAN_POINT ( 'NONE',  ( 0.000000000000000000, 0.000000000000000000, 0.000000000000000000 ) ) ;
#103 =( NAMED_UNIT ( * ) SI_UNIT ( $, .STERADIAN. ) SOLID_ANGLE_UNIT ( ) );
#104 = APPROVAL ( #9, 'Coincident' ) ;
#105 = CARTESIAN_POINT ( 'NONE',  ( -10.15748031496062964, 0.000000000000000000, 1.243932575511878441E-15 ) ) ;
#106 = DIRECTION ( 'NONE',  ( 0.000000000000000000, 0.000000000000000000, 1.000000000000000000 ) ) ;
#107 = CARTESIAN_POINT ( 'NONE',  ( 0.000000000000000000, 0.000000000000000000, 0.000000000000000000 ) ) ;
#108 = SPHERICAL_SURFACE ( 'NONE', #198, 9.848923740290800311 ) ;
#109 = AXIS2_PLACEMENT_3D ( 'NONE', #71, #147, #149 ) ;
#110 = DIRECTION ( 'NONE',  ( 1.000000000000000000, 0.000000000000000000, 0.000000000000000000 ) ) ;
#111 = PRODUCT_DEFINITION_SHAPE ( 'NONE', 'NONE',  #187 ) ;
#112 = CALENDAR_DATE ( 2026, 2, 7 ) ;
#113 = PERSON_AND_ORGANIZATION ( #18446744073709551615, #18446744073709551615 ) ;
#114 = CARTESIAN_POINT ( 'NONE',  ( 0.000000000000000000, 0.3607480314960630485, 0.000000000000000000 ) ) ;
#115 = DATE_AND_TIME ( #127, #13 ) ;
#116 = ORIENTED_EDGE ( 'NONE', *, *, #207, .T. ) ;
#117 = COORDINATED_UNIVERSAL_TIME_OFFSET ( 8, 0, .BEHIND. ) ;
#118 = EDGE_LOOP ( 'NONE', ( #116, #96 ) ) ;
#119 = PERSON_AND_ORGANIZATION_ROLE ( 'creator' ) ;
#120 = AXIS2_PLACEMENT_3D ( 'NONE', #88, #40, #169 ) ;
#121 = DIRECTION ( 'NONE',  ( 1.224646799147353207E-16, -0.000000000000000000, 1.000000000000000000 ) ) ;
#122 = FACE_OUTER_BOUND ( 'NONE', #196, .T. ) ;
#123 = CC_DESIGN_PERSON_AND_ORGANIZATION_ASSIGNMENT ( #72, #163, ( #124 ) ) ;
#124 = PRODUCT ( 'Kora_Bowl', 'Kora_Bowl', '', ( #26 ) ) ;
#125 = LOCAL_TIME ( 16, 16, 7.000000000000000000, #78 ) ;
#126 = ADVANCED_FACE ( 'NONE', ( #69, #28 ), #200, .T. ) ;
#127 = CALENDAR_DATE ( 2026, 2, 7 ) ;
#128 = EDGE_LOOP ( 'NONE', ( #39, #67, #143 ) ) ;
#129 = SHAPE_DEFINITION_REPRESENTATION ( #111, #44 ) ;
#130 = EDGE_CURVE ( 'NONE', #68, #140, #55, .T. ) ;
#131 = VERTEX_POINT ( 'NONE', #43 ) ;
#132 = APPLICATION_PROTOCOL_DEFINITION ( 'international standard', 'config_control_design', 1994, #60 ) ;
#133 = AXIS2_PLACEMENT_3D ( 'NONE', #86, #51, #91 ) ;
#134 = CARTESIAN_POINT ( 'NONE',  ( 10.15748031496062964, 0.000000000000000000, 0.000000000000000000 ) ) ;
#135 = CARTESIAN_POINT ( 'NONE',  ( 0.000000000000000000, 0.3607480314960630485, 0.000000000000000000 ) ) ;
#136 = DIRECTION ( 'NONE',  ( 0.000000000000000000, -0.000000000000000000, 1.000000000000000000 ) ) ;
#137 = DIRECTION ( 'NONE',  ( 0.000000000000000000, 0.000000000000000000, 1.000000000000000000 ) ) ;
#138 = SECURITY_CLASSIFICATION ( '', '', #171 ) ;
#139 = AXIS2_PLACEMENT_3D ( 'NONE', #8, #121, #179 ) ;
#140 = VERTEX_POINT ( 'NONE', #165 ) ;
#141 = VERTEX_POINT ( 'NONE', #105 ) ;
#142 = PERSON_AND_ORGANIZATION ( #18446744073709551615, #18446744073709551615 ) ;
#143 = ORIENTED_EDGE ( 'NONE', *, *, #32, .T. ) ;
#144 = CALENDAR_DATE ( 2026, 2, 7 ) ;
#145 = CARTESIAN_POINT ( 'NONE',  ( -9.842314753137873851, -3.414809992080329023E-17, 1.205335925863106840E-15 ) ) ;
#146 = PRODUCT_DEFINITION_FORMATION_WITH_SPECIFIED_SOURCE ( 'Symmetric', '', #124, .NOT_KNOWN. ) ;
#147 = DIRECTION ( 'NONE',  ( 1.224646799147353207E-16, -0.000000000000000000, 1.000000000000000000 ) ) ;
#148 = DIRECTION ( 'NONE',  ( 1.000000000000000000, 0.000000000000000000, 0.000000000000000000 ) ) ;
#149 = DIRECTION ( 'NONE',  ( 1.000000000000000000, 0.000000000000000000, -1.224646799147353207E-16 ) ) ;
#150 = EDGE_CURVE ( 'NONE', #140, #3, #101, .T. ) ;
#151 = DIRECTION ( 'NONE',  ( 1.000000000000000000, 0.000000000000000000, 0.000000000000000000 ) ) ;
#152 = LOCAL_TIME ( 16, 16, 7.000000000000000000, #34 ) ;
#153 = AXIS2_PLACEMENT_3D ( 'NONE', #184, #52, #148 ) ;
#154 = APPLICATION_CONTEXT ( 'configuration controlled 3d designs of mechanical parts and assemblies' ) ;
#155 = MANIFOLD_SOLID_BREP ( 'Shell1', #21 ) ;
#156 = AXIS2_PLACEMENT_3D ( 'NONE', #167, #22, #110 ) ;
#157 = ORIENTED_EDGE ( 'NONE', *, *, #170, .F. ) ;
#158 = CC_DESIGN_PERSON_AND_ORGANIZATION_ASSIGNMENT ( #174, #172, ( #146 ) ) ;
#159 = APPROVAL_ROLE ( '' ) ;
#160 = COORDINATED_UNIVERSAL_TIME_OFFSET ( 8, 0, .BEHIND. ) ;
#161 = ADVANCED_FACE ( 'NONE', ( #25 ), #53, .T. ) ;
#162 = DIRECTION ( 'NONE',  ( -0.000000000000000000, -1.000000000000000000, -0.000000000000000000 ) ) ;
#163 = PERSON_AND_ORGANIZATION_ROLE ( 'design_owner' ) ;
#164 = DIRECTION ( 'NONE',  ( 0.000000000000000000, 0.000000000000000000, -1.000000000000000000 ) ) ;
#165 = CARTESIAN_POINT ( 'NONE',  ( 9.842314753137873851, -3.414809992080329023E-17, 0.000000000000000000 ) ) ;
#166 = CIRCLE ( 'NONE', #74, 10.15748031496062964 ) ;
#167 = CARTESIAN_POINT ( 'NONE',  ( 0.000000000000000000, 0.3607480314960630485, 0.000000000000000000 ) ) ;
#168 = EDGE_CURVE ( 'NONE', #141, #131, #61, .T. ) ;
#169 = DIRECTION ( 'NONE',  ( -1.000000000000000000, 0.000000000000000000, 0.000000000000000000 ) ) ;
#170 = EDGE_CURVE ( 'NONE', #68, #3, #186, .T. ) ;
#171 = SECURITY_CLASSIFICATION_LEVEL ( 'unclassified' ) ;
#172 = PERSON_AND_ORGANIZATION_ROLE ( 'creator' ) ;
#173 = APPROVAL_DATE_TIME ( #115, #92 ) ;
#174 = PERSON_AND_ORGANIZATION ( #18446744073709551615, #18446744073709551615 ) ;
#175 = ADVANCED_FACE ( 'NONE', ( #89 ), #29, .T. ) ;
#176 = CARTESIAN_POINT ( 'NONE',  ( 6.030726466796752518E-16, -9.488175708794736707, 0.000000000000000000 ) ) ;
#177 = AXIS2_PLACEMENT_3D ( 'NONE', #199, #73, #136 ) ;
#178 = DIRECTION ( 'NONE',  ( -0.000000000000000000, -1.000000000000000000, -0.000000000000000000 ) ) ;
#179 = DIRECTION ( 'NONE',  ( 1.000000000000000000, 0.000000000000000000, -1.224646799147352961E-16 ) ) ;
#180 = AXIS2_PLACEMENT_3D ( 'NONE', #135, #106, #151 ) ;
#181 = CARTESIAN_POINT ( 'NONE',  ( 0.000000000000000000, 0.000000000000000000, 0.000000000000000000 ) ) ;
#182 =( LENGTH_UNIT ( ) NAMED_UNIT ( * ) SI_UNIT ( $, .METRE. ) );
#183 = DIRECTION ( 'NONE',  ( -0.000000000000000000, -1.000000000000000000, -0.000000000000000000 ) ) ;
#184 = CARTESIAN_POINT ( 'NONE',  ( 0.000000000000000000, 0.000000000000000000, 0.000000000000000000 ) ) ;
#185 = CC_DESIGN_DATE_AND_TIME_ASSIGNMENT ( #18, #190, ( #138 ) ) ;
#186 = CIRCLE ( 'NONE', #139, 9.848923740290800311 ) ;
#187 = PRODUCT_DEFINITION ( 'General', '', #146, #206 ) ;
#188 = CIRCLE ( 'NONE', #77, 10.15748031496062964 ) ;
#189 = PRODUCT_RELATED_PRODUCT_CATEGORY ( 'detail', '', ( #124 ) ) ;
#190 = DATE_TIME_ROLE ( 'classification_date' ) ;
#191 = APPROVAL_ROLE ( '' ) ;
#192 = CIRCLE ( 'NONE', #204, 9.842314753137872074 ) ;
#193 = APPROVAL_DATE_TIME ( #19, #203 ) ;
#194 = ADVANCED_FACE ( 'NONE', ( #122 ), #12, .F. ) ;
#195 = ORIENTED_EDGE ( 'NONE', *, *, #168, .T. ) ;
#196 = EDGE_LOOP ( 'NONE', ( #45, #48, #20 ) ) ;
#197 = APPROVAL_DATE_TIME ( #83, #104 ) ;
#198 = AXIS2_PLACEMENT_3D ( 'NONE', #202, #85, #57 ) ;
#199 = CARTESIAN_POINT ( 'NONE',  ( 0.000000000000000000, 0.000000000000000000, 0.000000000000000000 ) ) ;
#200 = PLANE ( 'NONE',  #177 ) ;
#201 = DIRECTION ( 'NONE',  ( -1.000000000000000000, 0.000000000000000000, 0.000000000000000000 ) ) ;
#202 = CARTESIAN_POINT ( 'NONE',  ( 0.000000000000000000, 0.3607480314960630485, 0.000000000000000000 ) ) ;
#203 = APPROVAL ( #93, 'Coincident' ) ;
#204 = AXIS2_PLACEMENT_3D ( 'NONE', #181, #14, #137 ) ;
#205 = DIMENSIONAL_EXPONENTS ( 1.000000000000000000, 0.000000000000000000, 0.000000000000000000, 0.000000000000000000, 0.000000000000000000, 0.000000000000000000, 0.000000000000000000 ) ;
#206 = DESIGN_CONTEXT ( 'detailed design', #154, 'design' ) ;
#207 = EDGE_CURVE ( 'NONE', #140, #68, #192, .T. ) ;
#208 = LOCAL_TIME ( 16, 16, 7.000000000000000000, #160 ) ;
ENDSEC;
END-ISO-10303-21;
