ISO-10303-21;
HEADER;
FILE_DESCRIPTION (( 'STEP AP203' ),
    '1' );
FILE_NAME ('Kora_Crossbar.STEP',
    '2026-07-02T23:16:08',
    ( '' ),
    ( '' ),
    'SwSTEP 2.0',
    'SolidWorks 2026',
    '' );
FILE_SCHEMA (( 'CONFIG_CONTROL_DESIGN' ));
ENDSEC;

DATA;
#1 = SECURITY_CLASSIFICATION ( '', '', #24 ) ;
#2 = DESIGN_CONTEXT ( 'detailed design', #82, 'design' ) ;
#3 = VECTOR ( 'NONE', #86, 39.37007874015748143 ) ;
#4 = MECHANICAL_CONTEXT ( 'NONE', #148, 'mechanical' ) ;
#5 =( CONVERSION_BASED_UNIT ( 'INCH', #134 ) LENGTH_UNIT ( ) NAMED_UNIT ( #79 ) );
#6 = APPLICATION_PROTOCOL_DEFINITION ( 'international standard', 'config_control_design', 1994, #148 ) ;
#7 = PERSON_AND_ORGANIZATION ( #18446744073709551615, #18446744073709551615 ) ;
#8 = EDGE_CURVE ( 'NONE', #140, #114, #75, .T. ) ;
#9 = CARTESIAN_POINT ( 'NONE',  ( 0.000000000000000000, 0.000000000000000000, 0.000000000000000000 ) ) ;
#10 = ADVANCED_FACE ( 'NONE', ( #159 ), #23, .T. ) ;
#11 = LOCAL_TIME ( 16, 16, 8.000000000000000000, #137 ) ;
#12 = PRODUCT ( 'Kora_Crossbar', 'Kora_Crossbar', '', ( #4 ) ) ;
#13 = EDGE_CURVE ( 'NONE', #114, #140, #116, .T. ) ;
#14 = DIRECTION ( 'NONE',  ( -1.000000000000000000, 0.000000000000000000, 0.000000000000000000 ) ) ;
#15 = CALENDAR_DATE ( 2026, 2, 7 ) ;
#16 = CARTESIAN_POINT ( 'NONE',  ( 0.000000000000000000, 0.000000000000000000, 0.000000000000000000 ) ) ;
#17 = PERSON_AND_ORGANIZATION ( #18446744073709551615, #18446744073709551615 ) ;
#18 = EDGE_LOOP ( 'NONE', ( #53, #37 ) ) ;
#19 = EDGE_CURVE ( 'NONE', #49, #118, #149, .T. ) ;
#20 = CALENDAR_DATE ( 2026, 2, 7 ) ;
#21 = ORIENTED_EDGE ( 'NONE', *, *, #50, .T. ) ;
#22 = CC_DESIGN_PERSON_AND_ORGANIZATION_ASSIGNMENT ( #69, #152, ( #38 ) ) ;
#23 = CYLINDRICAL_SURFACE ( 'NONE', #123, 0.4330708661417322913 ) ;
#24 = SECURITY_CLASSIFICATION_LEVEL ( 'unclassified' ) ;
#25 = CC_DESIGN_PERSON_AND_ORGANIZATION_ASSIGNMENT ( #41, #94, ( #1 ) ) ;
#26 = AXIS2_PLACEMENT_3D ( 'NONE', #130, #88, #89 ) ;
#27 = MANIFOLD_SOLID_BREP ( 'CrossbarRod', #98 ) ;
#28 = APPROVAL_PERSON_ORGANIZATION ( #154, #59, #68 ) ;
#29 = PERSON_AND_ORGANIZATION ( #18446744073709551615, #18446744073709551615 ) ;
#30 = CARTESIAN_POINT ( 'NONE',  ( 0.000000000000000000, 0.000000000000000000, 22.83464566929133710 ) ) ;
#31 = CARTESIAN_POINT ( 'NONE',  ( -0.4330708661417322913, 0.000000000000000000, 22.83464566929133710 ) ) ;
#32 = CYLINDRICAL_SURFACE ( 'NONE', #168, 0.4330708661417322913 ) ;
#33 =( NAMED_UNIT ( * ) PLANE_ANGLE_UNIT ( ) SI_UNIT ( $, .RADIAN. ) );
#34 = DIRECTION ( 'NONE',  ( 0.000000000000000000, 0.000000000000000000, 1.000000000000000000 ) ) ;
#35 = DIRECTION ( 'NONE',  ( -1.000000000000000000, 0.000000000000000000, 0.000000000000000000 ) ) ;
#36 = CIRCLE ( 'NONE', #132, 0.4330708661417322913 ) ;
#37 = ORIENTED_EDGE ( 'NONE', *, *, #19, .F. ) ;
#38 = PRODUCT_DEFINITION ( 'General', '', #46, #2 ) ;
#39 = ORIENTED_EDGE ( 'NONE', *, *, #54, .T. ) ;
#40 = DIRECTION ( 'NONE',  ( -0.000000000000000000, -0.000000000000000000, -1.000000000000000000 ) ) ;
#41 = PERSON_AND_ORGANIZATION ( #18446744073709551615, #18446744073709551615 ) ;
#42 = LOCAL_TIME ( 16, 16, 8.000000000000000000, #87 ) ;
#43 = DIRECTION ( 'NONE',  ( 0.000000000000000000, 0.000000000000000000, 1.000000000000000000 ) ) ;
#44 = LOCAL_TIME ( 16, 16, 8.000000000000000000, #91 ) ;
#45 = PERSON_AND_ORGANIZATION_ROLE ( 'creator' ) ;
#46 = PRODUCT_DEFINITION_FORMATION_WITH_SPECIFIED_SOURCE ( 'Symmetric', '', #12, .NOT_KNOWN. ) ;
#47 = COORDINATED_UNIVERSAL_TIME_OFFSET ( 8, 0, .BEHIND. ) ;
#48 = DATE_TIME_ROLE ( 'creation_date' ) ;
#49 = VERTEX_POINT ( 'NONE', #103 ) ;
#50 = EDGE_CURVE ( 'NONE', #118, #49, #36, .T. ) ;
#51 = ORIENTED_EDGE ( 'NONE', *, *, #8, .F. ) ;
#52 = SHAPE_DEFINITION_REPRESENTATION ( #147, #97 ) ;
#53 = ORIENTED_EDGE ( 'NONE', *, *, #50, .F. ) ;
#54 = EDGE_CURVE ( 'NONE', #114, #49, #71, .T. ) ;
#55 = DIRECTION ( 'NONE',  ( 1.000000000000000000, 0.000000000000000000, -0.000000000000000000 ) ) ;
#56 = CC_DESIGN_PERSON_AND_ORGANIZATION_ASSIGNMENT ( #109, #99, ( #46 ) ) ;
#57 = LOCAL_TIME ( 16, 16, 8.000000000000000000, #47 ) ;
#58 = CC_DESIGN_APPROVAL ( #95, ( #38 ) ) ;
#59 = APPROVAL ( #133, 'Coincident' ) ;
#60 = APPROVAL_ROLE ( '' ) ;
#61 = DIRECTION ( 'NONE',  ( 0.000000000000000000, 0.000000000000000000, 1.000000000000000000 ) ) ;
#62 = DATE_AND_TIME ( #15, #42 ) ;
#63 = APPROVAL_DATE_TIME ( #73, #121 ) ;
#64 = DIRECTION ( 'NONE',  ( 0.000000000000000000, 0.000000000000000000, 1.000000000000000000 ) ) ;
#65 = CARTESIAN_POINT ( 'NONE',  ( 0.000000000000000000, 0.000000000000000000, 0.000000000000000000 ) ) ;
#66 = VECTOR ( 'NONE', #144, 39.37007874015748143 ) ;
#67 = CARTESIAN_POINT ( 'NONE',  ( 0.4330708661417322913, 5.303588500244442984E-17, 22.83464566929133710 ) ) ;
#68 = APPROVAL_ROLE ( '' ) ;
#69 = PERSON_AND_ORGANIZATION ( #18446744073709551615, #18446744073709551615 ) ;
#70 = AXIS2_PLACEMENT_3D ( 'NONE', #9, #113, #138 ) ;
#71 = LINE ( 'NONE', #126, #66 ) ;
#72 = APPROVAL_STATUS ( 'not_yet_approved' ) ;
#73 = DATE_AND_TIME ( #131, #44 ) ;
#74 = ORIENTED_EDGE ( 'NONE', *, *, #173, .T. ) ;
#75 = CIRCLE ( 'NONE', #119, 0.4330708661417322913 ) ;
#76 = CARTESIAN_POINT ( 'NONE',  ( 0.000000000000000000, 0.000000000000000000, 22.83464566929133710 ) ) ;
#77 = CARTESIAN_POINT ( 'NONE',  ( 0.000000000000000000, 0.000000000000000000, 22.83464566929133710 ) ) ;
#78 = FACE_OUTER_BOUND ( 'NONE', #18, .T. ) ;
#79 = DIMENSIONAL_EXPONENTS ( 1.000000000000000000, 0.000000000000000000, 0.000000000000000000, 0.000000000000000000, 0.000000000000000000, 0.000000000000000000, 0.000000000000000000 ) ;
#80 = PLANE ( 'NONE',  #141 ) ;
#81 = FACE_OUTER_BOUND ( 'NONE', #117, .T. ) ;
#82 = APPLICATION_CONTEXT ( 'configuration controlled 3d designs of mechanical parts and assemblies' ) ;
#83 = APPROVAL_PERSON_ORGANIZATION ( #160, #121, #172 ) ;
#84 = CC_DESIGN_PERSON_AND_ORGANIZATION_ASSIGNMENT ( #7, #45, ( #46 ) ) ;
#85 = APPLICATION_PROTOCOL_DEFINITION ( 'international standard', 'config_control_design', 1994, #82 ) ;
#86 = DIRECTION ( 'NONE',  ( -0.000000000000000000, -0.000000000000000000, -1.000000000000000000 ) ) ;
#87 = COORDINATED_UNIVERSAL_TIME_OFFSET ( 8, 0, .BEHIND. ) ;
#88 = DIRECTION ( 'NONE',  ( 0.000000000000000000, 0.000000000000000000, 1.000000000000000000 ) ) ;
#89 = DIRECTION ( 'NONE',  ( 1.000000000000000000, 0.000000000000000000, 0.000000000000000000 ) ) ;
#90 = ORIENTED_EDGE ( 'NONE', *, *, #19, .T. ) ;
#91 = COORDINATED_UNIVERSAL_TIME_OFFSET ( 8, 0, .BEHIND. ) ;
#92 = ADVANCED_FACE ( 'NONE', ( #78 ), #80, .F. ) ;
#93 = ORIENTED_EDGE ( 'NONE', *, *, #13, .F. ) ;
#94 = PERSON_AND_ORGANIZATION_ROLE ( 'classification_officer' ) ;
#95 = APPROVAL ( #169, 'Coincident' ) ;
#96 = CARTESIAN_POINT ( 'NONE',  ( -0.4330708661417322913, 0.000000000000000000, 22.83464566929133710 ) ) ;
#97 = ADVANCED_BREP_SHAPE_REPRESENTATION ( 'Kora_Crossbar', ( #27, #122 ), #174 ) ;
#98 = CLOSED_SHELL ( 'NONE', ( #156, #10, #100, #92 ) ) ;
#99 = PERSON_AND_ORGANIZATION_ROLE ( 'design_supplier' ) ;
#100 = ADVANCED_FACE ( 'NONE', ( #81 ), #146, .T. ) ;
#101 =( LENGTH_UNIT ( ) NAMED_UNIT ( * ) SI_UNIT ( $, .METRE. ) );
#102 = DATE_AND_TIME ( #165, #57 ) ;
#103 = CARTESIAN_POINT ( 'NONE',  ( 0.4330708661417322913, 5.303588500244442984E-17, 0.000000000000000000 ) ) ;
#104 = PERSON_AND_ORGANIZATION_ROLE ( 'design_owner' ) ;
#105 = ORIENTED_EDGE ( 'NONE', *, *, #173, .F. ) ;
#106 = APPROVAL_PERSON_ORGANIZATION ( #17, #95, #60 ) ;
#107 = ORIENTED_EDGE ( 'NONE', *, *, #8, .T. ) ;
#108 = CC_DESIGN_APPROVAL ( #121, ( #1 ) ) ;
#109 = PERSON_AND_ORGANIZATION ( #18446744073709551615, #18446744073709551615 ) ;
#110 = DIRECTION ( 'NONE',  ( -0.000000000000000000, -0.000000000000000000, -1.000000000000000000 ) ) ;
#111 =( NAMED_UNIT ( * ) SI_UNIT ( $, .STERADIAN. ) SOLID_ANGLE_UNIT ( ) );
#112 = CC_DESIGN_APPROVAL ( #59, ( #46 ) ) ;
#113 = DIRECTION ( 'NONE',  ( 0.000000000000000000, 0.000000000000000000, 1.000000000000000000 ) ) ;
#114 = VERTEX_POINT ( 'NONE', #67 ) ;
#115 = DATE_AND_TIME ( #143, #162 ) ;
#116 = CIRCLE ( 'NONE', #26, 0.4330708661417322913 ) ;
#117 = EDGE_LOOP ( 'NONE', ( #107, #176 ) ) ;
#118 = VERTEX_POINT ( 'NONE', #163 ) ;
#119 = AXIS2_PLACEMENT_3D ( 'NONE', #129, #64, #170 ) ;
#120 = DIRECTION ( 'NONE',  ( 1.000000000000000000, 0.000000000000000000, -0.000000000000000000 ) ) ;
#121 = APPROVAL ( #72, 'Coincident' ) ;
#122 = AXIS2_PLACEMENT_3D ( 'NONE', #16, #61, #124 ) ;
#123 = AXIS2_PLACEMENT_3D ( 'NONE', #76, #40, #35 ) ;
#124 = DIRECTION ( 'NONE',  ( 1.000000000000000000, 0.000000000000000000, 0.000000000000000000 ) ) ;
#125 = CC_DESIGN_SECURITY_CLASSIFICATION ( #1, ( #46 ) ) ;
#126 = CARTESIAN_POINT ( 'NONE',  ( 0.4330708661417322913, 5.303588500244442984E-17, 22.83464566929133710 ) ) ;
#127 = APPROVAL_DATE_TIME ( #151, #59 ) ;
#128 = CC_DESIGN_DATE_AND_TIME_ASSIGNMENT ( #115, #157, ( #1 ) ) ;
#129 = CARTESIAN_POINT ( 'NONE',  ( 0.000000000000000000, 0.000000000000000000, 22.83464566929133710 ) ) ;
#130 = CARTESIAN_POINT ( 'NONE',  ( 0.000000000000000000, 0.000000000000000000, 22.83464566929133710 ) ) ;
#131 = CALENDAR_DATE ( 2026, 2, 7 ) ;
#132 = AXIS2_PLACEMENT_3D ( 'NONE', #153, #34, #136 ) ;
#133 = APPROVAL_STATUS ( 'not_yet_approved' ) ;
#134 = LENGTH_MEASURE_WITH_UNIT ( LENGTH_MEASURE( 0.02539999999999999897 ), #101 );
#135 = CC_DESIGN_PERSON_AND_ORGANIZATION_ASSIGNMENT ( #29, #104, ( #12 ) ) ;
#136 = DIRECTION ( 'NONE',  ( 1.000000000000000000, 0.000000000000000000, 0.000000000000000000 ) ) ;
#137 = COORDINATED_UNIVERSAL_TIME_OFFSET ( 8, 0, .BEHIND. ) ;
#138 = DIRECTION ( 'NONE',  ( 1.000000000000000000, 0.000000000000000000, 0.000000000000000000 ) ) ;
#139 = UNCERTAINTY_MEASURE_WITH_UNIT (LENGTH_MEASURE( 1.000000000000000082E-05 ), #5, 'distance_accuracy_value', 'NONE');
#140 = VERTEX_POINT ( 'NONE', #96 ) ;
#141 = AXIS2_PLACEMENT_3D ( 'NONE', #65, #145, #120 ) ;
#142 = EDGE_LOOP ( 'NONE', ( #93, #39, #90, #105 ) ) ;
#143 = CALENDAR_DATE ( 2026, 2, 7 ) ;
#144 = DIRECTION ( 'NONE',  ( -0.000000000000000000, -0.000000000000000000, -1.000000000000000000 ) ) ;
#145 = DIRECTION ( 'NONE',  ( 0.000000000000000000, 0.000000000000000000, 1.000000000000000000 ) ) ;
#146 = PLANE ( 'NONE',  #155 ) ;
#147 = PRODUCT_DEFINITION_SHAPE ( 'NONE', 'NONE',  #38 ) ;
#148 = APPLICATION_CONTEXT ( 'configuration controlled 3d designs of mechanical parts and assemblies' ) ;
#149 = CIRCLE ( 'NONE', #70, 0.4330708661417322913 ) ;
#150 = PRODUCT_RELATED_PRODUCT_CATEGORY ( 'detail', '', ( #12 ) ) ;
#151 = DATE_AND_TIME ( #20, #11 ) ;
#152 = PERSON_AND_ORGANIZATION_ROLE ( 'creator' ) ;
#153 = CARTESIAN_POINT ( 'NONE',  ( 0.000000000000000000, 0.000000000000000000, 0.000000000000000000 ) ) ;
#154 = PERSON_AND_ORGANIZATION ( #18446744073709551615, #18446744073709551615 ) ;
#155 = AXIS2_PLACEMENT_3D ( 'NONE', #77, #43, #55 ) ;
#156 = ADVANCED_FACE ( 'NONE', ( #164 ), #32, .T. ) ;
#157 = DATE_TIME_ROLE ( 'classification_date' ) ;
#158 = EDGE_LOOP ( 'NONE', ( #171, #51, #74, #21 ) ) ;
#159 = FACE_OUTER_BOUND ( 'NONE', #158, .T. ) ;
#160 = PERSON_AND_ORGANIZATION ( #18446744073709551615, #18446744073709551615 ) ;
#161 = CC_DESIGN_DATE_AND_TIME_ASSIGNMENT ( #62, #48, ( #38 ) ) ;
#162 = LOCAL_TIME ( 16, 16, 8.000000000000000000, #175 ) ;
#163 = CARTESIAN_POINT ( 'NONE',  ( -0.4330708661417322913, 0.000000000000000000, 0.000000000000000000 ) ) ;
#164 = FACE_OUTER_BOUND ( 'NONE', #142, .T. ) ;
#165 = CALENDAR_DATE ( 2026, 2, 7 ) ;
#166 = LINE ( 'NONE', #31, #3 ) ;
#167 = APPROVAL_DATE_TIME ( #102, #95 ) ;
#168 = AXIS2_PLACEMENT_3D ( 'NONE', #30, #110, #14 ) ;
#169 = APPROVAL_STATUS ( 'not_yet_approved' ) ;
#170 = DIRECTION ( 'NONE',  ( 1.000000000000000000, 0.000000000000000000, 0.000000000000000000 ) ) ;
#171 = ORIENTED_EDGE ( 'NONE', *, *, #54, .F. ) ;
#172 = APPROVAL_ROLE ( '' ) ;
#173 = EDGE_CURVE ( 'NONE', #140, #118, #166, .T. ) ;
#174 =( GEOMETRIC_REPRESENTATION_CONTEXT ( 3 ) GLOBAL_UNCERTAINTY_ASSIGNED_CONTEXT ( ( #139 ) ) GLOBAL_UNIT_ASSIGNED_CONTEXT ( ( #5, #33, #111 ) ) REPRESENTATION_CONTEXT ( 'NONE', 'WORKASPACE' ) );
#175 = COORDINATED_UNIVERSAL_TIME_OFFSET ( 8, 0, .BEHIND. ) ;
#176 = ORIENTED_EDGE ( 'NONE', *, *, #13, .T. ) ;
ENDSEC;
END-ISO-10303-21;
