ISO-10303-21;
HEADER;
FILE_DESCRIPTION (( 'STEP AP203' ),
    '1' );
FILE_NAME ('Kora_Soundboard.STEP',
    '2026-07-02T23:16:07',
    ( '' ),
    ( '' ),
    'SwSTEP 2.0',
    'SolidWorks 2026',
    '' );
FILE_SCHEMA (( 'CONFIG_CONTROL_DESIGN' ));
ENDSEC;

DATA;
#1 = CARTESIAN_POINT ( 'NONE',  ( 0.000000000000000000, 0.000000000000000000, 0.000000000000000000 ) ) ;
#2 = AXIS2_PLACEMENT_3D ( 'NONE', #67, #29, #173 ) ;
#3 = ORIENTED_EDGE ( 'NONE', *, *, #137, .T. ) ;
#4 = DATE_AND_TIME ( #6, #126 ) ;
#5 = APPLICATION_CONTEXT ( 'configuration controlled 3d designs of mechanical parts and assemblies' ) ;
#6 = CALENDAR_DATE ( 2026, 2, 7 ) ;
#7 = PLANE ( 'NONE',  #22 ) ;
#8 = COORDINATED_UNIVERSAL_TIME_OFFSET ( 8, 0, .BEHIND. ) ;
#9 = PERSON_AND_ORGANIZATION_ROLE ( 'design_supplier' ) ;
#10 =( CONVERSION_BASED_UNIT ( 'INCH', #127 ) LENGTH_UNIT ( ) NAMED_UNIT ( #16 ) );
#11 = PERSON_AND_ORGANIZATION ( #18446744073709551615, #18446744073709551615 ) ;
#12 = ADVANCED_FACE ( 'NONE', ( #60 ), #7, .F. ) ;
#13 = DIRECTION ( 'NONE',  ( -0.000000000000000000, -0.000000000000000000, -1.000000000000000000 ) ) ;
#14 = CIRCLE ( 'NONE', #175, 10.07874015748031482 ) ;
#15 = APPROVAL_STATUS ( 'not_yet_approved' ) ;
#16 = DIMENSIONAL_EXPONENTS ( 1.000000000000000000, 0.000000000000000000, 0.000000000000000000, 0.000000000000000000, 0.000000000000000000, 0.000000000000000000, 0.000000000000000000 ) ;
#17 = PERSON_AND_ORGANIZATION ( #18446744073709551615, #18446744073709551615 ) ;
#18 = CC_DESIGN_SECURITY_CLASSIFICATION ( #130, ( #72 ) ) ;
#19 = CARTESIAN_POINT ( 'NONE',  ( 10.07874015748031482, 1.234289687329615750E-15, 0.000000000000000000 ) ) ;
#20 = DIRECTION ( 'NONE',  ( -1.000000000000000000, 0.000000000000000000, 0.000000000000000000 ) ) ;
#21 = VERTEX_POINT ( 'NONE', #106 ) ;
#22 = AXIS2_PLACEMENT_3D ( 'NONE', #154, #109, #49 ) ;
#23 = ORIENTED_EDGE ( 'NONE', *, *, #48, .F. ) ;
#24 = APPLICATION_PROTOCOL_DEFINITION ( 'international standard', 'config_control_design', 1994, #150 ) ;
#25 = SHAPE_DEFINITION_REPRESENTATION ( #81, #104 ) ;
#26 = CIRCLE ( 'NONE', #70, 10.07874015748031482 ) ;
#27 = CARTESIAN_POINT ( 'NONE',  ( -10.07874015748031482, 0.000000000000000000, 0.1181102362204724532 ) ) ;
#28 = CALENDAR_DATE ( 2026, 2, 7 ) ;
#29 = DIRECTION ( 'NONE',  ( 0.000000000000000000, 0.000000000000000000, 1.000000000000000000 ) ) ;
#30 = PRODUCT ( 'Kora_Soundboard', 'Kora_Soundboard', '', ( #44 ) ) ;
#31 = DIRECTION ( 'NONE',  ( 1.000000000000000000, 0.000000000000000000, 0.000000000000000000 ) ) ;
#32 = DIRECTION ( 'NONE',  ( 1.000000000000000000, 0.000000000000000000, 0.000000000000000000 ) ) ;
#33 = PERSON_AND_ORGANIZATION_ROLE ( 'creator' ) ;
#34 = CARTESIAN_POINT ( 'NONE',  ( -10.07874015748031482, 0.000000000000000000, 0.000000000000000000 ) ) ;
#35 = APPROVAL_PERSON_ORGANIZATION ( #117, #66, #163 ) ;
#36 = EDGE_LOOP ( 'NONE', ( #52, #23 ) ) ;
#37 = DATE_AND_TIME ( #131, #94 ) ;
#38 = EDGE_LOOP ( 'NONE', ( #140, #61, #107, #138 ) ) ;
#39 = DESIGN_CONTEXT ( 'detailed design', #150, 'design' ) ;
#40 = DIRECTION ( 'NONE',  ( 0.000000000000000000, 0.000000000000000000, 1.000000000000000000 ) ) ;
#41 = CC_DESIGN_DATE_AND_TIME_ASSIGNMENT ( #37, #135, ( #79 ) ) ;
#42 = CARTESIAN_POINT ( 'NONE',  ( 10.07874015748031482, 1.234289687329615750E-15, 0.1181102362204724532 ) ) ;
#43 = CIRCLE ( 'NONE', #149, 10.07874015748031482 ) ;
#44 = MECHANICAL_CONTEXT ( 'NONE', #5, 'mechanical' ) ;
#45 = COORDINATED_UNIVERSAL_TIME_OFFSET ( 8, 0, .BEHIND. ) ;
#46 = UNCERTAINTY_MEASURE_WITH_UNIT (LENGTH_MEASURE( 1.000000000000000082E-05 ), #10, 'distance_accuracy_value', 'NONE');
#47 = VECTOR ( 'NONE', #13, 39.37007874015748143 ) ;
#48 = EDGE_CURVE ( 'NONE', #73, #71, #43, .T. ) ;
#49 = DIRECTION ( 'NONE',  ( 1.000000000000000000, 0.000000000000000000, -0.000000000000000000 ) ) ;
#50 = CC_DESIGN_APPROVAL ( #166, ( #130 ) ) ;
#51 = DIRECTION ( 'NONE',  ( -0.000000000000000000, -0.000000000000000000, -1.000000000000000000 ) ) ;
#52 = ORIENTED_EDGE ( 'NONE', *, *, #137, .F. ) ;
#53 = APPROVAL_STATUS ( 'not_yet_approved' ) ;
#54 = MANIFOLD_SOLID_BREP ( 'Skin', #146 ) ;
#55 = CARTESIAN_POINT ( 'NONE',  ( 0.000000000000000000, 0.000000000000000000, 0.1181102362204724532 ) ) ;
#56 = SECURITY_CLASSIFICATION_LEVEL ( 'unclassified' ) ;
#57 = CARTESIAN_POINT ( 'NONE',  ( 0.000000000000000000, 0.000000000000000000, 0.000000000000000000 ) ) ;
#58 = CARTESIAN_POINT ( 'NONE',  ( 0.000000000000000000, 0.000000000000000000, 0.000000000000000000 ) ) ;
#59 = CC_DESIGN_PERSON_AND_ORGANIZATION_ASSIGNMENT ( #74, #9, ( #72 ) ) ;
#60 = FACE_OUTER_BOUND ( 'NONE', #36, .T. ) ;
#61 = ORIENTED_EDGE ( 'NONE', *, *, #153, .T. ) ;
#62 = APPROVAL_PERSON_ORGANIZATION ( #123, #166, #101 ) ;
#63 = APPROVAL_DATE_TIME ( #87, #66 ) ;
#64 = DIRECTION ( 'NONE',  ( -0.000000000000000000, -0.000000000000000000, -1.000000000000000000 ) ) ;
#65 = DATE_TIME_ROLE ( 'classification_date' ) ;
#66 = APPROVAL ( #83, 'Coincident' ) ;
#67 = CARTESIAN_POINT ( 'NONE',  ( 0.000000000000000000, 0.000000000000000000, 0.1181102362204724532 ) ) ;
#68 = DIRECTION ( 'NONE',  ( -1.000000000000000000, 0.000000000000000000, 0.000000000000000000 ) ) ;
#69 = AXIS2_PLACEMENT_3D ( 'NONE', #167, #51, #20 ) ;
#70 = AXIS2_PLACEMENT_3D ( 'NONE', #57, #75, #124 ) ;
#71 = VERTEX_POINT ( 'NONE', #34 ) ;
#72 = PRODUCT_DEFINITION_FORMATION_WITH_SPECIFIED_SOURCE ( 'Symmetric', '', #30, .NOT_KNOWN. ) ;
#73 = VERTEX_POINT ( 'NONE', #19 ) ;
#74 = PERSON_AND_ORGANIZATION ( #18446744073709551615, #18446744073709551615 ) ;
#75 = DIRECTION ( 'NONE',  ( 0.000000000000000000, 0.000000000000000000, 1.000000000000000000 ) ) ;
#76 = CIRCLE ( 'NONE', #97, 10.07874015748031482 ) ;
#77 = DIRECTION ( 'NONE',  ( 0.000000000000000000, 0.000000000000000000, 1.000000000000000000 ) ) ;
#78 = CC_DESIGN_PERSON_AND_ORGANIZATION_ASSIGNMENT ( #125, #121, ( #72 ) ) ;
#79 = PRODUCT_DEFINITION ( 'General', '', #72, #39 ) ;
#80 =( NAMED_UNIT ( * ) SI_UNIT ( $, .STERADIAN. ) SOLID_ANGLE_UNIT ( ) );
#81 = PRODUCT_DEFINITION_SHAPE ( 'NONE', 'NONE',  #79 ) ;
#82 = EDGE_LOOP ( 'NONE', ( #152, #118, #120, #3 ) ) ;
#83 = APPROVAL_STATUS ( 'not_yet_approved' ) ;
#84 = CC_DESIGN_PERSON_AND_ORGANIZATION_ASSIGNMENT ( #11, #128, ( #130 ) ) ;
#85 = CALENDAR_DATE ( 2026, 2, 7 ) ;
#86 = COORDINATED_UNIVERSAL_TIME_OFFSET ( 8, 0, .BEHIND. ) ;
#87 = DATE_AND_TIME ( #28, #105 ) ;
#88 = APPROVAL ( #15, 'Coincident' ) ;
#89 = CARTESIAN_POINT ( 'NONE',  ( 0.000000000000000000, 0.000000000000000000, 0.1181102362204724532 ) ) ;
#90 =( GEOMETRIC_REPRESENTATION_CONTEXT ( 3 ) GLOBAL_UNCERTAINTY_ASSIGNED_CONTEXT ( ( #46 ) ) GLOBAL_UNIT_ASSIGNED_CONTEXT ( ( #10, #156, #80 ) ) REPRESENTATION_CONTEXT ( 'NONE', 'WORKASPACE' ) );
#91 = FACE_OUTER_BOUND ( 'NONE', #122, .T. ) ;
#92 = PERSON_AND_ORGANIZATION ( #18446744073709551615, #18446744073709551615 ) ;
#93 = DATE_AND_TIME ( #148, #161 ) ;
#94 = LOCAL_TIME ( 16, 16, 7.000000000000000000, #45 ) ;
#95 = APPROVAL_DATE_TIME ( #93, #88 ) ;
#96 = ADVANCED_FACE ( 'NONE', ( #164 ), #136, .T. ) ;
#97 = AXIS2_PLACEMENT_3D ( 'NONE', #55, #77, #31 ) ;
#98 = DIRECTION ( 'NONE',  ( 1.000000000000000000, 0.000000000000000000, 0.000000000000000000 ) ) ;
#99 = VERTEX_POINT ( 'NONE', #42 ) ;
#100 = CC_DESIGN_APPROVAL ( #88, ( #79 ) ) ;
#101 = APPROVAL_ROLE ( '' ) ;
#102 = EDGE_CURVE ( 'NONE', #99, #21, #76, .T. ) ;
#103 = ADVANCED_FACE ( 'NONE', ( #114 ), #112, .T. ) ;
#104 = ADVANCED_BREP_SHAPE_REPRESENTATION ( 'Kora_Soundboard', ( #54, #165 ), #90 ) ;
#105 = LOCAL_TIME ( 16, 16, 7.000000000000000000, #86 ) ;
#106 = CARTESIAN_POINT ( 'NONE',  ( -10.07874015748031482, 0.000000000000000000, 0.1181102362204724532 ) ) ;
#107 = ORIENTED_EDGE ( 'NONE', *, *, #48, .T. ) ;
#108 = ORIENTED_EDGE ( 'NONE', *, *, #102, .T. ) ;
#109 = DIRECTION ( 'NONE',  ( 0.000000000000000000, 0.000000000000000000, 1.000000000000000000 ) ) ;
#110 = AXIS2_PLACEMENT_3D ( 'NONE', #89, #142, #68 ) ;
#111 = PLANE ( 'NONE',  #2 ) ;
#112 = CYLINDRICAL_SURFACE ( 'NONE', #110, 10.07874015748031482 ) ;
#113 = EDGE_CURVE ( 'NONE', #21, #99, #14, .T. ) ;
#114 = FACE_OUTER_BOUND ( 'NONE', #38, .T. ) ;
#115 = APPROVAL_ROLE ( '' ) ;
#116 = EDGE_CURVE ( 'NONE', #21, #71, #155, .T. ) ;
#117 = PERSON_AND_ORGANIZATION ( #18446744073709551615, #18446744073709551615 ) ;
#118 = ORIENTED_EDGE ( 'NONE', *, *, #113, .F. ) ;
#119 = ORIENTED_EDGE ( 'NONE', *, *, #113, .T. ) ;
#120 = ORIENTED_EDGE ( 'NONE', *, *, #116, .T. ) ;
#121 = PERSON_AND_ORGANIZATION_ROLE ( 'creator' ) ;
#122 = EDGE_LOOP ( 'NONE', ( #119, #108 ) ) ;
#123 = PERSON_AND_ORGANIZATION ( #18446744073709551615, #18446744073709551615 ) ;
#124 = DIRECTION ( 'NONE',  ( 1.000000000000000000, 0.000000000000000000, 0.000000000000000000 ) ) ;
#125 = PERSON_AND_ORGANIZATION ( #18446744073709551615, #18446744073709551615 ) ;
#126 = LOCAL_TIME ( 16, 16, 7.000000000000000000, #8 ) ;
#127 = LENGTH_MEASURE_WITH_UNIT ( LENGTH_MEASURE( 0.02539999999999999897 ), #169 );
#128 = PERSON_AND_ORGANIZATION_ROLE ( 'classification_officer' ) ;
#129 = DIRECTION ( 'NONE',  ( 0.000000000000000000, 0.000000000000000000, 1.000000000000000000 ) ) ;
#130 = SECURITY_CLASSIFICATION ( '', '', #56 ) ;
#131 = CALENDAR_DATE ( 2026, 2, 7 ) ;
#132 = ADVANCED_FACE ( 'NONE', ( #91 ), #111, .T. ) ;
#133 = PRODUCT_RELATED_PRODUCT_CATEGORY ( 'detail', '', ( #30 ) ) ;
#134 = APPROVAL_PERSON_ORGANIZATION ( #158, #88, #115 ) ;
#135 = DATE_TIME_ROLE ( 'creation_date' ) ;
#136 = CYLINDRICAL_SURFACE ( 'NONE', #69, 10.07874015748031482 ) ;
#137 = EDGE_CURVE ( 'NONE', #71, #73, #26, .T. ) ;
#138 = ORIENTED_EDGE ( 'NONE', *, *, #116, .F. ) ;
#139 = APPROVAL_DATE_TIME ( #4, #166 ) ;
#140 = ORIENTED_EDGE ( 'NONE', *, *, #102, .F. ) ;
#141 = DATE_AND_TIME ( #85, #172 ) ;
#142 = DIRECTION ( 'NONE',  ( -0.000000000000000000, -0.000000000000000000, -1.000000000000000000 ) ) ;
#143 = CARTESIAN_POINT ( 'NONE',  ( 10.07874015748031482, 1.234289687329615750E-15, 0.1181102362204724532 ) ) ;
#144 = DIRECTION ( 'NONE',  ( 1.000000000000000000, 0.000000000000000000, 0.000000000000000000 ) ) ;
#145 = PERSON_AND_ORGANIZATION_ROLE ( 'design_owner' ) ;
#146 = CLOSED_SHELL ( 'NONE', ( #103, #96, #132, #12 ) ) ;
#147 = CC_DESIGN_PERSON_AND_ORGANIZATION_ASSIGNMENT ( #92, #145, ( #30 ) ) ;
#148 = CALENDAR_DATE ( 2026, 2, 7 ) ;
#149 = AXIS2_PLACEMENT_3D ( 'NONE', #1, #40, #98 ) ;
#150 = APPLICATION_CONTEXT ( 'configuration controlled 3d designs of mechanical parts and assemblies' ) ;
#151 = VECTOR ( 'NONE', #64, 39.37007874015748143 ) ;
#152 = ORIENTED_EDGE ( 'NONE', *, *, #153, .F. ) ;
#153 = EDGE_CURVE ( 'NONE', #99, #73, #171, .T. ) ;
#154 = CARTESIAN_POINT ( 'NONE',  ( 0.000000000000000000, 0.000000000000000000, 0.000000000000000000 ) ) ;
#155 = LINE ( 'NONE', #27, #151 ) ;
#156 =( NAMED_UNIT ( * ) PLANE_ANGLE_UNIT ( ) SI_UNIT ( $, .RADIAN. ) );
#157 = APPLICATION_PROTOCOL_DEFINITION ( 'international standard', 'config_control_design', 1994, #5 ) ;
#158 = PERSON_AND_ORGANIZATION ( #18446744073709551615, #18446744073709551615 ) ;
#159 = DIRECTION ( 'NONE',  ( 0.000000000000000000, 0.000000000000000000, 1.000000000000000000 ) ) ;
#160 = COORDINATED_UNIVERSAL_TIME_OFFSET ( 8, 0, .BEHIND. ) ;
#161 = LOCAL_TIME ( 16, 16, 7.000000000000000000, #160 ) ;
#162 = CC_DESIGN_APPROVAL ( #66, ( #72 ) ) ;
#163 = APPROVAL_ROLE ( '' ) ;
#164 = FACE_OUTER_BOUND ( 'NONE', #82, .T. ) ;
#165 = AXIS2_PLACEMENT_3D ( 'NONE', #58, #159, #144 ) ;
#166 = APPROVAL ( #53, 'Coincident' ) ;
#167 = CARTESIAN_POINT ( 'NONE',  ( 0.000000000000000000, 0.000000000000000000, 0.1181102362204724532 ) ) ;
#168 = COORDINATED_UNIVERSAL_TIME_OFFSET ( 8, 0, .BEHIND. ) ;
#169 =( LENGTH_UNIT ( ) NAMED_UNIT ( * ) SI_UNIT ( $, .METRE. ) );
#170 = CARTESIAN_POINT ( 'NONE',  ( 0.000000000000000000, 0.000000000000000000, 0.1181102362204724532 ) ) ;
#171 = LINE ( 'NONE', #143, #47 ) ;
#172 = LOCAL_TIME ( 16, 16, 7.000000000000000000, #168 ) ;
#173 = DIRECTION ( 'NONE',  ( 1.000000000000000000, 0.000000000000000000, -0.000000000000000000 ) ) ;
#174 = CC_DESIGN_DATE_AND_TIME_ASSIGNMENT ( #141, #65, ( #130 ) ) ;
#175 = AXIS2_PLACEMENT_3D ( 'NONE', #170, #129, #32 ) ;
#176 = CC_DESIGN_PERSON_AND_ORGANIZATION_ASSIGNMENT ( #17, #33, ( #79 ) ) ;
ENDSEC;
END-ISO-10303-21;
